<svg width="1440" height="884" viewBox="0 0 1440 884" fill="none" xmlns="http://www.w3.org/2000/svg">
<g opacity="0.3" clip-path="url(#clip0_363_3345)">
<rect width="1440" height="884" fill="white"/>
<path d="M1328.49 -177.738V27.6745L1261.84 -40.1764V-177.738H1260.61L1260.82 -177.526V-41.2148L1194.17 -109.066V-177.738H1193.16V-109.066L1126.51 -41.2148V-177.738H719.503V-109.066L652.854 -41.2148V-177.738H651.631L585.19 -110.099V-177.738H584.176V-109.066L517.527 -41.2148V-177.738H111.017V29.4362H312.79L246.142 97.287H111.017V98.5321L111.225 98.3203H245.122L178.473 166.171H111.017V167.204H178.473L245.122 235.055H111.017V236.089H245.122L178.473 303.939H111.017V304.973H177.458L111.017 372.617V373.862H245.122L178.473 441.713H111.017V1062.2H517.517V925.679L584.165 993.53V1062.2H585.18V993.53L651.829 925.679V1061.99L651.621 1062.2H652.844V924.645L719.493 856.795V1062.21H1126.5V993.535L1126.71 993.323L1126.5 993.111V925.684L1193.15 993.535V1062.21H1194.16V994.568L1260.6 1062.21H1261.83V925.684L1328.48 993.535V1062.21H1328.98V441.718H1127.21L1193.86 373.867H1328.98V372.622L1328.77 372.834H1194.87L1261.52 304.983H1328.98V303.95H1261.52L1194.87 236.099H1328.98V235.066H1194.87L1261.52 167.215H1328.98V166.181H1262.54L1328.98 98.5425V97.2973H1194.87L1261.52 29.4465H1328.98V-177.738H1328.47H1328.49ZM1193.66 -108.12L1260.82 -39.7527V28.4029H1126.5V-39.7527L1193.66 -108.12H1193.66ZM1261.83 -38.7194L1327.76 28.4029H1261.83V-38.7194ZM855.546 992.806L788.897 924.955H922.793L989.442 992.806H855.546ZM585.901 855.033L652.55 787.182H787.461L854.109 855.033H585.901ZM449.132 992.806H315.236L381.885 924.955H515.781L449.132 992.806ZM179.188 580.22L245.837 512.369V648.68L179.188 716.531V580.22ZM312.785 442.751L246.852 509.874V442.751H312.785ZM314.521 304.249V166.905L381.169 99.054V373.139L314.521 440.989V304.678L314.729 304.466L314.521 304.254V304.249ZM515.786 -40.4812H381.89L315.241 -108.332H449.138L515.786 -40.4812ZM787.882 -108.332H921.778L855.129 -40.4812H721.233L787.882 -108.332ZM1125.79 511.64L1192.44 579.491H1058.54L991.893 511.64H1125.79ZM1057.62 580.008L990.462 648.375H923.514V511.635H990.462L1057.62 580.003V580.008ZM1125.49 924.651V992.078L991.898 856.071H1125.49V924.227L1125.29 924.439L1125.49 924.651ZM855.551 855.033L788.395 786.665L855.551 718.298H922.499V855.038H855.551V855.033ZM787.466 786.149H653.57L720.218 718.298H854.114L787.466 786.149ZM246.563 923.922L179.914 856.071H448.123L381.474 923.922H246.563ZM313.511 719.026V855.033H179.914L313.511 719.026ZM720.513 -38.7194L786.446 28.4029H720.513V-38.7194ZM990.457 -39.4479L1057.11 28.4029H788.897L855.546 -39.4479H990.457ZM1125.49 166.905V304.249L1058.84 372.1V98.0155L1125.49 30.1647V166.476L1125.28 166.688L1125.49 166.9V166.905ZM856.56 717.259L922.494 650.137V717.259H856.56ZM585.901 717.259L652.55 649.409H720.513H921.778L855.129 717.259H585.901ZM449.853 855.033V787.91L515.786 855.033H449.853ZM516.502 856.066V923.188L450.569 856.066H516.502ZM448.838 855.033H314.521V786.877L381.677 718.51L448.833 786.877V855.033H448.838ZM449.853 166.905L516.502 99.054V235.06V372.1L449.853 304.249V166.905ZM584.678 29.648L584.886 29.4362H787.461L854.109 97.287H584.881L518.232 29.4362H584.465L584.673 29.648H584.678ZM991.177 440.984V304.673L1057.83 236.822V373.133L991.177 440.984ZM381.174 717.559L314.526 785.41V512.359L381.174 580.209V717.554V717.559ZM380.459 442.746L314.526 509.868V442.746H380.459ZM314.739 511.113L381.18 443.474V578.752L314.739 511.113ZM517.527 441.713V305.706L584.176 373.557V510.902L517.527 578.752V441.713ZM583.46 97.2819H517.527V30.1595L583.46 97.2819ZM517.527 98.3152H584.475L651.631 166.683L584.475 235.05H517.527V98.31V98.3152ZM990.167 304.244L923.519 372.095V166.9L923.727 166.688L923.519 166.476V99.0488L990.167 166.9V304.244ZM990.167 440.984L923.727 373.345L990.167 305.706V440.984ZM922.504 647.642L855.855 579.791V305.706L922.296 373.345L922.504 373.557V441.713V647.637V647.642ZM652.56 167.204H787.471L854.12 235.055H787.892L787.684 234.843L787.476 235.055H719.513H585.916L652.565 167.204H652.56ZM854.84 440.984L788.191 373.133V236.822L854.84 304.673V440.984ZM652.859 304.673L719.508 236.822V304.244L719.3 304.456L719.508 304.668V442.224V510.896L652.859 578.747V304.663V304.673ZM718.792 236.089L652.859 303.211V236.089H718.792ZM719.508 512.364V648.37H585.911L719.508 512.364ZM720.523 236.089H786.456L720.523 303.211V236.089ZM787.171 236.817V372.095L720.731 304.456L787.171 236.817ZM788.907 236.089H855.135L855.343 236.3L855.551 236.089H922.499V372.095L788.902 236.089H788.907ZM856.571 235.055L922.504 167.933V235.055H856.571ZM855.343 234.843L788.902 167.204H921.783L855.343 234.843ZM651.839 236.089V304.244L584.683 372.612L517.527 304.244V236.089H651.844H651.839ZM585.19 373.557L651.839 305.706V442.018L585.19 509.868V373.557ZM651.839 443.474V579.786L585.19 647.637V511.325L651.839 443.474ZM584.176 647.637L517.735 579.998L584.176 512.359V647.637ZM583.46 648.365H517.527V581.243L583.46 648.365ZM720.523 442.224V305.701L787.171 373.552V510.896L720.523 578.747V442.224ZM788.186 374.585L854.835 442.436V578.747L788.186 510.896V374.585ZM922.504 29.4259V165.432L788.907 29.4259H922.504ZM921.788 166.166H787.892L721.243 98.3152H855.14L921.788 166.166ZM719.807 98.3152L786.456 166.166H652.56L585.911 98.3152H719.807ZM720.523 580.215L787.679 511.847L854.835 580.215V648.37H720.518V580.215H720.523ZM855.855 581.248L921.788 648.37H855.855V581.248ZM923.519 374.59L989.452 441.713H923.519V374.59ZM1057.84 235.355L991.187 303.206V166.894L1057.84 99.0436V235.355ZM990.68 165.954L923.524 97.5867V29.431H1057.84V97.5867L990.685 165.954H990.68ZM516.517 96.5534L450.584 29.431H516.517V96.5534ZM449.868 30.1647L516.309 97.8037L449.868 165.443V30.1647ZM382.205 717.559V581.248L448.853 649.099V785.41L382.205 717.559ZM448.853 647.642L382.205 579.791V443.48L448.853 511.33V647.642ZM382.92 442.746H516.517V578.752L382.92 442.746ZM584.48 649.404L584.688 649.615L584.896 649.404H651.124L517.527 785.41V649.404H584.475H584.48ZM991.908 441.713L1125.5 305.706V441.713H991.908ZM1058.86 96.5534V29.431H1124.79L1058.86 96.5534ZM787.689 28.1859L721.248 -39.4531H854.13L787.689 28.1859ZM450.589 28.3978L516.522 -38.7246V28.3978H450.589ZM449.366 28.1859L382.925 -39.4531H515.806L449.366 28.1859ZM448.143 29.431L314.546 165.438V29.431H448.143ZM448.858 30.1595V166.471L382.21 234.322V98.0103L448.858 30.1595ZM382.21 235.784L448.858 167.933V304.244L382.21 372.095V235.784ZM449.366 305.184L516.522 373.552V441.708H382.205V373.552L449.361 305.184H449.366ZM381.195 441.708H315.262L381.195 374.585V441.708ZM449.366 856.268L515.806 923.907H382.925L449.366 856.268ZM449.873 786.438V512.359L516.314 579.998L516.522 580.209V649.398V786.438L516.314 786.65L516.522 786.862V854.289L449.873 786.438ZM518.258 786.133L584.906 718.282H718.802L652.154 786.133H518.258ZM651.139 787.167L584.698 854.806L518.258 787.167H651.139ZM923.534 855.017V719.011L1057.13 855.017H923.534ZM924.25 718.277H1058.15L1124.79 786.128H990.898L924.25 718.277ZM924.25 717.244L990.69 649.605L1057.13 717.244H924.25ZM923.534 716.516V649.393H989.467L923.534 716.516ZM923.534 510.586V443.464L989.467 510.586H923.534ZM1125.49 -109.37H1059.56L1125.49 -176.493V-109.37ZM1125.49 -108.337V28.4029H1058.54L991.385 -39.9645L1058.54 -108.332H1125.49V-108.337ZM990.457 -40.4863H856.56L923.209 -108.337H1057.11L990.457 -40.4863ZM517.517 28.3978V-38.7246L583.45 28.3978H517.517ZM313.805 -108.337L380.454 -40.4863H246.558L179.909 -108.337H313.805ZM246.558 -39.4531H381.469L448.117 28.3978H179.909L246.558 -39.4531ZM313.506 443.48V510.907L313.298 511.119L313.506 511.33V717.559L246.857 785.41V511.325L313.506 443.474V443.48ZM245.842 650.137V786.448L179.194 854.299V717.988L245.842 650.137ZM178.179 854.299L111.733 786.665L178.173 719.026V854.304L178.179 854.299ZM245.634 924.434L178.478 992.801H111.525V856.061H178.473L245.629 924.428L245.634 924.434ZM246.563 924.95H380.459L313.81 992.801H179.909L246.558 924.95H246.563ZM517.522 787.91L583.455 855.033H517.522V787.91ZM720.518 856.795L786.451 923.917H720.518V856.795ZM721.233 856.066H922.499H990.462L1057.11 923.917H787.887L721.238 856.066H721.233ZM924.229 924.95H1058.13L1124.77 992.801H990.878L924.229 924.95ZM1124.77 993.834L1058.33 1061.47L991.893 993.834H1124.77ZM1193.87 855.028L1193.67 854.816L1193.46 855.028H1058.55L991.898 787.177H1261.13L1327.78 855.028H1193.88H1193.87ZM1126.21 786.144L1059.56 718.293H1193.46L1260.11 786.144H1126.21ZM1193.46 717.259H1058.55L991.898 649.409H1260.11L1193.46 717.259ZM991.898 648.375L1058.55 580.525H1193.46L1260.11 648.375H991.893H991.898ZM1194.89 580.525H1327.78L1261.33 648.164L1194.89 580.525ZM1193.88 579.491L1127.23 511.64H1261.13L1327.78 579.491H1193.88ZM990.883 510.607L924.234 442.756H990.467L990.675 442.968L990.883 442.756H1193.46L1260.11 510.607H990.883ZM1058.13 -109.365H788.902L855.546 -177.221H1124.77L1058.13 -109.37L1058.13 -109.365ZM854.109 -177.221L720.513 -41.2148V-177.221H854.109ZM719.498 -40.1815L719.29 -39.9697L719.498 -39.7579V28.3978H585.901L719.498 -107.609V-40.1815ZM651.834 -176.493V-40.1815L585.185 27.6693V-108.637L651.834 -176.493ZM584.17 -107.609V27.6693L517.73 -39.9697L584.17 -107.609ZM516.502 -177.221V-41.2148L382.905 -177.221H516.502ZM381.469 -177.221L448.117 -109.37H178.894L112.24 -177.221H381.464H381.469ZM177.458 -109.37H111.525V-176.493L177.458 -109.37ZM111.525 -108.337H178.473L245.629 -39.9697L178.473 28.3978H111.525V-108.337ZM313.506 30.1647V97.287H247.573L313.506 30.1647ZM246.558 98.3203H313.506V235.06H246.558L246.35 234.849L179.402 166.693L246.558 98.3255V98.3203ZM313.506 236.094V303.216L247.573 236.094H313.506ZM246.35 236.306L312.79 303.945H179.909L246.35 236.306ZM112.24 372.834L178.889 304.983H312.785L246.137 372.834H112.24ZM313.506 305.711V441.718H179.909L313.506 305.711ZM245.842 442.751V510.907L178.686 579.274L111.525 510.907V442.751H245.842ZM111.525 512.369L178.173 580.22V717.564L111.525 785.415V512.364V512.369ZM177.458 855.033H111.525V787.91L177.458 855.033ZM111.525 993.839H177.458L111.525 1060.96V993.839ZM178.894 993.839H448.117L381.469 1061.69H112.24L178.889 993.839H178.894ZM382.905 1061.69L516.502 925.684V1061.69H382.905ZM584.678 992.589L517.73 924.434L517.522 924.222V856.066H584.47L584.678 856.278L584.886 856.066H651.834V924.222L584.678 992.589ZM652.849 856.066H718.782L652.849 923.188V856.066ZM720.513 924.95H787.461L854.617 993.318L787.461 1061.69H720.513V924.945V924.95ZM788.897 1061.69L855.546 993.839H990.457L1057.11 1061.69H788.892H788.897ZM1059.56 1061.69L1125.49 994.568V1061.69H1059.56ZM1126.5 856.066H1192.44L1126.5 923.188V856.066ZM1126.71 924.434L1193.15 856.795V992.073L1126.71 924.434ZM1260.82 1060.96L1194.17 993.106V856.795L1260.82 924.645V1060.96ZM1328.48 992.073L1194.88 856.066H1328.48V992.073ZM1328.48 854.304L1262.55 787.182H1328.48V854.304ZM1261.53 786.149L1194.38 717.781L1261.53 649.414H1328.48V786.154H1261.53V786.149ZM1328.48 648.375H1262.55L1328.48 581.253V648.375ZM1194.88 442.751H1328.48V578.758L1194.88 442.751ZM1126.5 440.984V373.862H1192.43L1126.5 440.984ZM1193.45 372.829H1126.5V236.089H1193.45L1193.66 236.3L1260.6 304.456L1193.45 372.823V372.829ZM1126.5 235.055V167.933L1192.43 235.055H1126.5ZM1193.66 234.843L1127.22 167.204H1260.1L1193.66 234.843ZM1327.76 98.3203L1261.11 166.171H1127.22L1193.86 98.3203H1327.76ZM1126.49 165.443V29.4362H1260.09L1126.49 165.443Z" fill="url(#paint0_radial_363_3345)"/>
</g>
<defs>
<radialGradient id="paint0_radial_363_3345" cx="0" cy="0" r="1" gradientUnits="userSpaceOnUse" gradientTransform="translate(701.969 442.234) scale(596.38 607.138)">
<stop/>
<stop offset="1" stop-opacity="0"/>
</radialGradient>
<clipPath id="clip0_363_3345">
<rect width="1440" height="884" fill="white"/>
</clipPath>
</defs>
</svg>
