<svg width="1440" height="446" viewBox="0 0 1440 446" fill="none" xmlns="http://www.w3.org/2000/svg">
<g clip-path="url(#clip0_464_2455)">
<g filter="url(#filter0_d_464_2455)">
<rect x="-172" y="434" width="372" height="40" rx="8" fill="white"/>
<rect x="-171.5" y="434.5" width="371" height="39" rx="7.5" stroke="#F7F7F7"/>
</g>
<rect x="-241.5" y="210.5" width="371" height="39" rx="7.5" fill="white"/>
<rect x="-241.5" y="210.5" width="371" height="39" rx="7.5" stroke="#F7F7F7"/>
<rect x="90" y="227" width="24" height="6" rx="3" fill="#FCEC9C"/>
<rect x="20" y="227" width="48" height="6" rx="3" fill="#B3E5C3"/>
<rect x="72" y="227" width="14" height="6" rx="3" fill="#B3BBE5"/>
<rect x="-141.5" y="354.5" width="371" height="39" rx="7.5" fill="white"/>
<rect x="-141.5" y="354.5" width="371" height="39" rx="7.5" stroke="#F7F7F7"/>
<rect x="190" y="371" width="24" height="6" rx="3" fill="#B3E5C3"/>
<rect x="172" y="371" width="14" height="6" rx="3" fill="#FCEC9C"/>
<g filter="url(#filter1_d_464_2455)">
<rect x="-200" y="290" width="380" height="56" rx="14" fill="white"/>
<rect x="-199.5" y="290.5" width="379" height="55" rx="13.5" stroke="#F7F7F7"/>
<path d="M155.7 323.898H162.077" stroke="#B3B3B3" stroke-width="1.5" stroke-linecap="round" stroke-linejoin="round"/>
<path fill-rule="evenodd" clip-rule="evenodd" d="M154.855 308.956C155.592 308.017 156.783 308.066 157.723 308.803L159.113 309.893C160.053 310.63 160.386 311.773 159.649 312.714L151.36 323.289C151.083 323.643 150.66 323.852 150.21 323.857L147.013 323.898L146.289 320.783C146.187 320.346 146.289 319.886 146.566 319.531L154.855 308.956Z" stroke="#B3B3B3" stroke-width="1.5" stroke-linecap="round" stroke-linejoin="round"/>
<path d="M153.303 310.936L158.097 314.694" stroke="#B3B3B3" stroke-width="1.5" stroke-linecap="round" stroke-linejoin="round"/>
</g>
<rect x="-181.5" y="162.5" width="371" height="39" rx="7.5" fill="white"/>
<rect x="-181.5" y="162.5" width="371" height="39" rx="7.5" stroke="#F7F7F7"/>
<rect x="132" y="179" width="24" height="6" rx="3" fill="#F5A3A3"/>
<rect x="160" y="179" width="14" height="6" rx="3" fill="#FCD49C"/>
<g filter="url(#filter2_d_464_2455)">
<rect x="1088" y="434" width="372" height="40" rx="8" fill="white"/>
<rect x="1088.5" y="434.5" width="371" height="39" rx="7.5" stroke="#F7F7F7"/>
<path fill-rule="evenodd" clip-rule="evenodd" d="M1123.25 454C1123.25 459.109 1119.11 463.25 1114 463.25C1108.89 463.25 1104.75 459.109 1104.75 454C1104.75 448.891 1108.89 444.75 1114 444.75C1119.11 444.75 1123.25 448.891 1123.25 454Z" stroke="#FBE36A" stroke-width="1.5" stroke-linecap="round" stroke-linejoin="round"/>
</g>
<rect x="1228.5" y="210.5" width="371" height="39" rx="7.5" fill="white"/>
<rect x="1228.5" y="210.5" width="371" height="39" rx="7.5" stroke="#F7F7F7"/>
<rect x="1302.23" y="226.226" width="63.5474" height="9.54737" rx="4.77368" fill="#F4FBF6" stroke="#B3E5C3" stroke-width="0.452631"/>
<rect x="1274.23" y="226.226" width="23.5474" height="9.54737" rx="4.77368" fill="#FFF9F0" stroke="#FCD49C" stroke-width="0.452631"/>
<path d="M1245.09 227.404H1262.92" stroke="#F07575" stroke-width="1.5" stroke-linecap="round" stroke-linejoin="round"/>
<path d="M1258.44 231.31H1258.45" stroke="#F07575" stroke-width="1.5" stroke-linecap="round" stroke-linejoin="round"/>
<path d="M1254 231.31H1254.01" stroke="#F07575" stroke-width="1.5" stroke-linecap="round" stroke-linejoin="round"/>
<path d="M1249.56 231.31H1249.57" stroke="#F07575" stroke-width="1.5" stroke-linecap="round" stroke-linejoin="round"/>
<path d="M1258.44 235.196H1258.45" stroke="#F07575" stroke-width="1.5" stroke-linecap="round" stroke-linejoin="round"/>
<path d="M1254 235.196H1254.01" stroke="#F07575" stroke-width="1.5" stroke-linecap="round" stroke-linejoin="round"/>
<path d="M1249.56 235.196H1249.57" stroke="#F07575" stroke-width="1.5" stroke-linecap="round" stroke-linejoin="round"/>
<path d="M1258.04 220V223.291" stroke="#F07575" stroke-width="1.5" stroke-linecap="round" stroke-linejoin="round"/>
<path d="M1249.97 220V223.291" stroke="#F07575" stroke-width="1.5" stroke-linecap="round" stroke-linejoin="round"/>
<path fill-rule="evenodd" clip-rule="evenodd" d="M1258.24 221.579H1249.77C1246.83 221.579 1245 223.215 1245 226.222V235.272C1245 238.326 1246.83 240 1249.77 240H1258.23C1261.17 240 1263 238.355 1263 235.347V226.222C1263.01 223.215 1261.18 221.579 1258.24 221.579Z" stroke="#F07575" stroke-width="1.5" stroke-linecap="round" stroke-linejoin="round"/>
<rect x="1168.5" y="354.5" width="371" height="39" rx="7.5" fill="white"/>
<rect x="1168.5" y="354.5" width="371" height="39" rx="7.5" stroke="#F7F7F7"/>
<rect x="1214.23" y="370.226" width="63.5474" height="9.54737" rx="4.77368" fill="#FFFCF0" stroke="#FCEC9C" stroke-width="0.452631"/>
<rect x="1282.23" y="370.226" width="23.5474" height="9.54737" rx="4.77368" fill="#F4F5FB" stroke="#B3BBE5" stroke-width="0.452631"/>
<path d="M1197.72 378.224H1190.5" stroke="#8E99D7" stroke-width="1.5" stroke-linecap="round" stroke-linejoin="round"/>
<path d="M1197.72 374.037H1190.5" stroke="#8E99D7" stroke-width="1.5" stroke-linecap="round" stroke-linejoin="round"/>
<path d="M1193.25 369.86H1190.5" stroke="#8E99D7" stroke-width="1.5" stroke-linecap="round" stroke-linejoin="round"/>
<path fill-rule="evenodd" clip-rule="evenodd" d="M1197.91 364.75C1197.91 364.75 1190.23 364.754 1190.22 364.754C1187.46 364.771 1185.75 366.587 1185.75 369.357V378.553C1185.75 381.337 1187.47 383.16 1190.26 383.16C1190.26 383.16 1197.93 383.157 1197.95 383.157C1200.71 383.14 1202.42 381.323 1202.42 378.553V369.357C1202.42 366.573 1200.69 364.75 1197.91 364.75Z" stroke="#8E99D7" stroke-width="1.5" stroke-linecap="round" stroke-linejoin="round"/>
<g filter="url(#filter3_d_464_2455)">
<rect x="1260" y="290" width="380" height="56" rx="14" fill="white"/>
<rect x="1260.5" y="290.5" width="379" height="55" rx="13.5" stroke="#F7F7F7"/>
<rect x="1274" y="304" width="64" height="6" rx="3" fill="#B3BBE5"/>
<rect x="1342" y="304" width="32" height="6" rx="3" fill="#B3E5C3"/>
<rect x="1378" y="304" width="36" height="6" rx="3" fill="#FCEC9C"/>
<rect x="1274" y="318" width="100" height="14" rx="7" fill="#F7F7F7"/>
<rect x="1378" y="318" width="52" height="14" rx="7" fill="#F7F7F7"/>
</g>
<rect x="1334.5" y="162.5" width="371" height="39" rx="7.5" fill="white"/>
<rect x="1334.5" y="162.5" width="371" height="39" rx="7.5" stroke="#F7F7F7"/>
<rect x="1380.23" y="178.226" width="63.5474" height="9.54737" rx="4.77368" fill="#F4F5FB" stroke="#B3BBE5" stroke-width="0.452631"/>
<path d="M1360.12 185.436V173.395" stroke="#E6E6E6" stroke-width="1.5" stroke-linecap="round" stroke-linejoin="round"/>
<path d="M1363.04 182.508L1360.12 185.436L1357.21 182.508" stroke="#E6E6E6" stroke-width="1.5" stroke-linecap="round" stroke-linejoin="round"/>
<path d="M1364.76 178.128H1365.69C1367.72 178.128 1369.37 179.777 1369.37 181.813V186.697C1369.37 188.727 1367.73 190.372 1365.7 190.372H1354.56C1352.52 190.372 1350.87 188.722 1350.87 186.687V181.802C1350.87 179.773 1352.52 178.128 1354.55 178.128H1355.49" stroke="#E6E6E6" stroke-width="1.5" stroke-linecap="round" stroke-linejoin="round"/>
</g>
<defs>
<filter id="filter0_d_464_2455" x="-198" y="420" width="472" height="140" filterUnits="userSpaceOnUse" color-interpolation-filters="sRGB">
<feFlood flood-opacity="0" result="BackgroundImageFix"/>
<feColorMatrix in="SourceAlpha" type="matrix" values="0 0 0 0 0 0 0 0 0 0 0 0 0 0 0 0 0 0 127 0" result="hardAlpha"/>
<feMorphology radius="14" operator="erode" in="SourceAlpha" result="effect1_dropShadow_464_2455"/>
<feOffset dx="24" dy="36"/>
<feGaussianBlur stdDeviation="32"/>
<feComposite in2="hardAlpha" operator="out"/>
<feColorMatrix type="matrix" values="0 0 0 0 0.3 0 0 0 0 0.3 0 0 0 0 0.3 0 0 0 0.15 0"/>
<feBlend mode="normal" in2="BackgroundImageFix" result="effect1_dropShadow_464_2455"/>
<feBlend mode="normal" in="SourceGraphic" in2="effect1_dropShadow_464_2455" result="shape"/>
</filter>
<filter id="filter1_d_464_2455" x="-226" y="276" width="480" height="156" filterUnits="userSpaceOnUse" color-interpolation-filters="sRGB">
<feFlood flood-opacity="0" result="BackgroundImageFix"/>
<feColorMatrix in="SourceAlpha" type="matrix" values="0 0 0 0 0 0 0 0 0 0 0 0 0 0 0 0 0 0 127 0" result="hardAlpha"/>
<feMorphology radius="14" operator="erode" in="SourceAlpha" result="effect1_dropShadow_464_2455"/>
<feOffset dx="24" dy="36"/>
<feGaussianBlur stdDeviation="32"/>
<feComposite in2="hardAlpha" operator="out"/>
<feColorMatrix type="matrix" values="0 0 0 0 0.3 0 0 0 0 0.3 0 0 0 0 0.3 0 0 0 0.15 0"/>
<feBlend mode="normal" in2="BackgroundImageFix" result="effect1_dropShadow_464_2455"/>
<feBlend mode="normal" in="SourceGraphic" in2="effect1_dropShadow_464_2455" result="shape"/>
</filter>
<filter id="filter2_d_464_2455" x="1062" y="420" width="472" height="140" filterUnits="userSpaceOnUse" color-interpolation-filters="sRGB">
<feFlood flood-opacity="0" result="BackgroundImageFix"/>
<feColorMatrix in="SourceAlpha" type="matrix" values="0 0 0 0 0 0 0 0 0 0 0 0 0 0 0 0 0 0 127 0" result="hardAlpha"/>
<feMorphology radius="14" operator="erode" in="SourceAlpha" result="effect1_dropShadow_464_2455"/>
<feOffset dx="24" dy="36"/>
<feGaussianBlur stdDeviation="32"/>
<feComposite in2="hardAlpha" operator="out"/>
<feColorMatrix type="matrix" values="0 0 0 0 0.3 0 0 0 0 0.3 0 0 0 0 0.3 0 0 0 0.15 0"/>
<feBlend mode="normal" in2="BackgroundImageFix" result="effect1_dropShadow_464_2455"/>
<feBlend mode="normal" in="SourceGraphic" in2="effect1_dropShadow_464_2455" result="shape"/>
</filter>
<filter id="filter3_d_464_2455" x="1234" y="276" width="480" height="156" filterUnits="userSpaceOnUse" color-interpolation-filters="sRGB">
<feFlood flood-opacity="0" result="BackgroundImageFix"/>
<feColorMatrix in="SourceAlpha" type="matrix" values="0 0 0 0 0 0 0 0 0 0 0 0 0 0 0 0 0 0 127 0" result="hardAlpha"/>
<feMorphology radius="14" operator="erode" in="SourceAlpha" result="effect1_dropShadow_464_2455"/>
<feOffset dx="24" dy="36"/>
<feGaussianBlur stdDeviation="32"/>
<feComposite in2="hardAlpha" operator="out"/>
<feColorMatrix type="matrix" values="0 0 0 0 0.3 0 0 0 0 0.3 0 0 0 0 0.3 0 0 0 0.15 0"/>
<feBlend mode="normal" in2="BackgroundImageFix" result="effect1_dropShadow_464_2455"/>
<feBlend mode="normal" in="SourceGraphic" in2="effect1_dropShadow_464_2455" result="shape"/>
</filter>
<clipPath id="clip0_464_2455">
<rect width="1440" height="562" fill="white"/>
</clipPath>
</defs>
</svg>
