<svg width="133" height="24" viewBox="0 0 133 24" fill="none" xmlns="http://www.w3.org/2000/svg">
<path d="M42.5571 8.08C43.4105 8.08 44.1705 8.25333 44.8371 8.6C45.5171 8.93333 46.0505 9.45333 46.4371 10.16C46.8238 10.8533 47.0171 11.7467 47.0171 12.84V19H43.8971V13.32C43.8971 12.4533 43.7038 11.8133 43.3171 11.4C42.9438 10.9867 42.4105 10.78 41.7171 10.78C41.2238 10.78 40.7771 10.8867 40.3771 11.1C39.9905 11.3 39.6838 11.6133 39.4571 12.04C39.2438 12.4667 39.1371 13.0133 39.1371 13.68V19H36.0171V8.24H38.9971V11.22L38.4371 10.32C38.8238 9.6 39.3771 9.04667 40.0971 8.66C40.8171 8.27333 41.6371 8.08 42.5571 8.08ZM55.0434 19.16C53.8967 19.16 52.8767 18.92 51.9834 18.44C51.1034 17.96 50.4034 17.3067 49.8834 16.48C49.3767 15.64 49.1234 14.6867 49.1234 13.62C49.1234 12.54 49.3767 11.5867 49.8834 10.76C50.4034 9.92 51.1034 9.26667 51.9834 8.8C52.8767 8.32 53.8967 8.08 55.0434 8.08C56.1767 8.08 57.1901 8.32 58.0834 8.8C58.9767 9.26667 59.6767 9.91333 60.1834 10.74C60.6901 11.5667 60.9434 12.5267 60.9434 13.62C60.9434 14.6867 60.6901 15.64 60.1834 16.48C59.6767 17.3067 58.9767 17.96 58.0834 18.44C57.1901 18.92 56.1767 19.16 55.0434 19.16ZM55.0434 16.6C55.5634 16.6 56.0301 16.48 56.4434 16.24C56.8567 16 57.1834 15.66 57.4234 15.22C57.6634 14.7667 57.7834 14.2333 57.7834 13.62C57.7834 12.9933 57.6634 12.46 57.4234 12.02C57.1834 11.58 56.8567 11.24 56.4434 11C56.0301 10.76 55.5634 10.64 55.0434 10.64C54.5234 10.64 54.0567 10.76 53.6434 11C53.2301 11.24 52.8967 11.58 52.6434 12.02C52.4034 12.46 52.2834 12.9933 52.2834 13.62C52.2834 14.2333 52.4034 14.7667 52.6434 15.22C52.8967 15.66 53.2301 16 53.6434 16.24C54.0567 16.48 54.5234 16.6 55.0434 16.6ZM65.6559 19L61.1359 8.24H64.3559L68.1159 17.5H66.5159L70.4159 8.24H73.4159L68.8759 19H65.6559ZM79.7361 19.16C78.5094 19.16 77.4294 18.92 76.4961 18.44C75.5761 17.96 74.8627 17.3067 74.3561 16.48C73.8494 15.64 73.5961 14.6867 73.5961 13.62C73.5961 12.54 73.8427 11.5867 74.3361 10.76C74.8427 9.92 75.5294 9.26667 76.3961 8.8C77.2627 8.32 78.2427 8.08 79.3361 8.08C80.3894 8.08 81.3361 8.30667 82.1761 8.76C83.0294 9.2 83.7027 9.84 84.1961 10.68C84.6894 11.5067 84.9361 12.5 84.9361 13.66C84.9361 13.78 84.9294 13.92 84.9161 14.08C84.9027 14.2267 84.8894 14.3667 84.8761 14.5H76.1361V12.68H83.2361L82.0361 13.22C82.0361 12.66 81.9227 12.1733 81.6961 11.76C81.4694 11.3467 81.1561 11.0267 80.7561 10.8C80.3561 10.56 79.8894 10.44 79.3561 10.44C78.8227 10.44 78.3494 10.56 77.9361 10.8C77.5361 11.0267 77.2227 11.3533 76.9961 11.78C76.7694 12.1933 76.6561 12.6867 76.6561 13.26V13.74C76.6561 14.3267 76.7827 14.8467 77.0361 15.3C77.3027 15.74 77.6694 16.08 78.1361 16.32C78.6161 16.5467 79.1761 16.66 79.8161 16.66C80.3894 16.66 80.8894 16.5733 81.3161 16.4C81.7561 16.2267 82.1561 15.9667 82.5161 15.62L84.1761 17.42C83.6827 17.98 83.0627 18.4133 82.3161 18.72C81.5694 19.0133 80.7094 19.16 79.7361 19.16ZM87.0132 19V4.16H90.1332V19H87.0132ZM99.5689 8.08C100.422 8.08 101.182 8.25333 101.849 8.6C102.529 8.93333 103.062 9.45333 103.449 10.16C103.836 10.8533 104.029 11.7467 104.029 12.84V19H100.909V13.32C100.909 12.4533 100.716 11.8133 100.329 11.4C99.9555 10.9867 99.4222 10.78 98.7289 10.78C98.2355 10.78 97.7889 10.8867 97.3889 11.1C97.0022 11.3 96.6955 11.6133 96.4689 12.04C96.2555 12.4667 96.1489 13.0133 96.1489 13.68V19H93.0289V4.16H96.1489V11.22L95.4489 10.32C95.8355 9.6 96.3889 9.04667 97.1089 8.66C97.8289 8.27333 98.6489 8.08 99.5689 8.08ZM106.857 19V8.24H109.977V19H106.857ZM108.417 6.74C107.844 6.74 107.377 6.57333 107.017 6.24C106.657 5.90667 106.477 5.49333 106.477 5C106.477 4.50667 106.657 4.09333 107.017 3.76C107.377 3.42667 107.844 3.26 108.417 3.26C108.99 3.26 109.457 3.42 109.817 3.74C110.177 4.04667 110.357 4.44667 110.357 4.94C110.357 5.46 110.177 5.89333 109.817 6.24C109.47 6.57333 109.004 6.74 108.417 6.74ZM112.873 19V8.24H115.853V11.28L115.433 10.4C115.753 9.64 116.266 9.06667 116.973 8.68C117.679 8.28 118.539 8.08 119.553 8.08V10.96C119.419 10.9467 119.299 10.94 119.193 10.94C119.086 10.9267 118.973 10.92 118.853 10.92C117.999 10.92 117.306 11.1667 116.773 11.66C116.253 12.14 115.993 12.8933 115.993 13.92V19H112.873ZM126.67 19.16C125.443 19.16 124.363 18.92 123.43 18.44C122.51 17.96 121.796 17.3067 121.29 16.48C120.783 15.64 120.53 14.6867 120.53 13.62C120.53 12.54 120.776 11.5867 121.27 10.76C121.776 9.92 122.463 9.26667 123.33 8.8C124.196 8.32 125.176 8.08 126.27 8.08C127.323 8.08 128.27 8.30667 129.11 8.76C129.963 9.2 130.636 9.84 131.13 10.68C131.623 11.5067 131.87 12.5 131.87 13.66C131.87 13.78 131.863 13.92 131.85 14.08C131.836 14.2267 131.823 14.3667 131.81 14.5H123.07V12.68H130.17L128.97 13.22C128.97 12.66 128.856 12.1733 128.63 11.76C128.403 11.3467 128.09 11.0267 127.69 10.8C127.29 10.56 126.823 10.44 126.29 10.44C125.756 10.44 125.283 10.56 124.87 10.8C124.47 11.0267 124.156 11.3533 123.93 11.78C123.703 12.1933 123.59 12.6867 123.59 13.26V13.74C123.59 14.3267 123.716 14.8467 123.97 15.3C124.236 15.74 124.603 16.08 125.07 16.32C125.55 16.5467 126.11 16.66 126.75 16.66C127.323 16.66 127.823 16.5733 128.25 16.4C128.69 16.2267 129.09 15.9667 129.45 15.62L131.11 17.42C130.616 17.98 129.996 18.4133 129.25 18.72C128.503 19.0133 127.643 19.16 126.67 19.16Z" fill="white"/>
<path fill-rule="evenodd" clip-rule="evenodd" d="M11.3006 3.04633C11.7169 3.17755 12 3.5636 12 4.00007V9.00007L16 9.00007C16.3729 9.00007 16.7148 9.20753 16.887 9.53826C17.0592 9.86899 17.0331 10.2681 16.8192 10.5735L9.81924 20.5735C9.56894 20.9311 9.11564 21.085 8.69936 20.9538C8.28309 20.8226 8 20.4365 8 20.0001L8 15.0001H4C3.62713 15.0001 3.28522 14.7926 3.11302 14.4619C2.94083 14.1312 2.96694 13.7321 3.18077 13.4266L10.1808 3.42661C10.4311 3.06904 10.8844 2.91511 11.3006 3.04633Z" fill="white"/>
<mask id="mask0_370_1348" style="mask-type:alpha" maskUnits="userSpaceOnUse" x="0" y="2" width="20" height="20">
<path fill-rule="evenodd" clip-rule="evenodd" d="M11.3006 3.04633C11.7169 3.17755 12 3.5636 12 4.00007V9.00007L16 9.00007C16.3729 9.00007 16.7148 9.20753 16.887 9.53826C17.0592 9.86899 17.0331 10.2681 16.8192 10.5735L9.81924 20.5735C9.56894 20.9311 9.11564 21.085 8.69936 20.9538C8.28309 20.8226 8 20.4365 8 20.0001L8 15.0001H4C3.62713 15.0001 3.28522 14.7926 3.11302 14.4619C2.94083 14.1312 2.96694 13.7321 3.18077 13.4266L10.1808 3.42661C10.4311 3.06904 10.8844 2.91511 11.3006 3.04633Z" fill="white"/>
</mask>
<g mask="url(#mask0_370_1348)">
<circle cx="16.5" cy="17.5" r="9.5" fill="#F45B5B"/>
</g>
</svg>
