<svg width="137" height="24" viewBox="0 0 137 24" fill="none" xmlns="http://www.w3.org/2000/svg">
<path d="M38.9634 8.08C39.8167 8.08 40.5767 8.25333 41.2434 8.6C41.9234 8.93333 42.4567 9.45333 42.8434 10.16C43.2301 10.8533 43.4234 11.7467 43.4234 12.84V19H40.3034V13.32C40.3034 12.4533 40.1101 11.8133 39.7234 11.4C39.3501 10.9867 38.8167 10.78 38.1234 10.78C37.6301 10.78 37.1834 10.8867 36.7834 11.1C36.3967 11.3 36.0901 11.6133 35.8634 12.04C35.6501 12.4667 35.5434 13.0133 35.5434 13.68V19H32.4234V8.24H35.4034V11.22L34.8434 10.32C35.2301 9.6 35.7834 9.04667 36.5034 8.66C37.2234 8.27333 38.0434 8.08 38.9634 8.08ZM51.4496 19.16C50.303 19.16 49.283 18.92 48.3896 18.44C47.5096 17.96 46.8096 17.3067 46.2896 16.48C45.783 15.64 45.5296 14.6867 45.5296 13.62C45.5296 12.54 45.783 11.5867 46.2896 10.76C46.8096 9.92 47.5096 9.26667 48.3896 8.8C49.283 8.32 50.303 8.08 51.4496 8.08C52.583 8.08 53.5963 8.32 54.4896 8.8C55.383 9.26667 56.083 9.91333 56.5896 10.74C57.0963 11.5667 57.3496 12.5267 57.3496 13.62C57.3496 14.6867 57.0963 15.64 56.5896 16.48C56.083 17.3067 55.383 17.96 54.4896 18.44C53.5963 18.92 52.583 19.16 51.4496 19.16ZM51.4496 16.6C51.9696 16.6 52.4363 16.48 52.8496 16.24C53.263 16 53.5896 15.66 53.8296 15.22C54.0696 14.7667 54.1896 14.2333 54.1896 13.62C54.1896 12.9933 54.0696 12.46 53.8296 12.02C53.5896 11.58 53.263 11.24 52.8496 11C52.4363 10.76 51.9696 10.64 51.4496 10.64C50.9296 10.64 50.463 10.76 50.0496 11C49.6363 11.24 49.303 11.58 49.0496 12.02C48.8096 12.46 48.6896 12.9933 48.6896 13.62C48.6896 14.2333 48.8096 14.7667 49.0496 15.22C49.303 15.66 49.6363 16 50.0496 16.24C50.463 16.48 50.9296 16.6 51.4496 16.6ZM62.0621 19L57.5421 8.24H60.7621L64.5221 17.5H62.9221L66.8221 8.24H69.8221L65.2821 19H62.0621ZM76.1423 19.16C74.9156 19.16 73.8356 18.92 72.9023 18.44C71.9823 17.96 71.269 17.3067 70.7623 16.48C70.2556 15.64 70.0023 14.6867 70.0023 13.62C70.0023 12.54 70.249 11.5867 70.7423 10.76C71.249 9.92 71.9356 9.26667 72.8023 8.8C73.669 8.32 74.649 8.08 75.7423 8.08C76.7956 8.08 77.7423 8.30667 78.5823 8.76C79.4356 9.2 80.109 9.84 80.6023 10.68C81.0956 11.5067 81.3423 12.5 81.3423 13.66C81.3423 13.78 81.3356 13.92 81.3223 14.08C81.309 14.2267 81.2956 14.3667 81.2823 14.5H72.5423V12.68H79.6423L78.4423 13.22C78.4423 12.66 78.329 12.1733 78.1023 11.76C77.8756 11.3467 77.5623 11.0267 77.1623 10.8C76.7623 10.56 76.2956 10.44 75.7623 10.44C75.229 10.44 74.7556 10.56 74.3423 10.8C73.9423 11.0267 73.629 11.3533 73.4023 11.78C73.1756 12.1933 73.0623 12.6867 73.0623 13.26V13.74C73.0623 14.3267 73.189 14.8467 73.4423 15.3C73.709 15.74 74.0756 16.08 74.5423 16.32C75.0223 16.5467 75.5823 16.66 76.2223 16.66C76.7956 16.66 77.2956 16.5733 77.7223 16.4C78.1623 16.2267 78.5623 15.9667 78.9223 15.62L80.5823 17.42C80.089 17.98 79.469 18.4133 78.7223 18.72C77.9756 19.0133 77.1156 19.16 76.1423 19.16ZM83.4195 19V4.16H86.5395V19H83.4195ZM93.0551 19.16C92.1351 19.16 91.2485 19.0533 90.3951 18.84C89.5551 18.6133 88.8885 18.3333 88.3951 18L89.4351 15.76C89.9285 16.0667 90.5085 16.32 91.1751 16.52C91.8551 16.7067 92.5218 16.8 93.1751 16.8C93.8951 16.8 94.4018 16.7133 94.6951 16.54C95.0018 16.3667 95.1551 16.1267 95.1551 15.82C95.1551 15.5667 95.0351 15.38 94.7951 15.26C94.5685 15.1267 94.2618 15.0267 93.8751 14.96C93.4885 14.8933 93.0618 14.8267 92.5951 14.76C92.1418 14.6933 91.6818 14.6067 91.2151 14.5C90.7485 14.38 90.3218 14.2067 89.9351 13.98C89.5485 13.7533 89.2351 13.4467 88.9951 13.06C88.7685 12.6733 88.6551 12.1733 88.6551 11.56C88.6551 10.88 88.8485 10.28 89.2351 9.76C89.6351 9.24 90.2085 8.83333 90.9551 8.54C91.7018 8.23333 92.5951 8.08 93.6351 8.08C94.3685 8.08 95.1151 8.16 95.8751 8.32C96.6351 8.48 97.2685 8.71333 97.7751 9.02L96.7351 11.24C96.2151 10.9333 95.6885 10.7267 95.1551 10.62C94.6351 10.5 94.1285 10.44 93.6351 10.44C92.9418 10.44 92.4351 10.5333 92.1151 10.72C91.7951 10.9067 91.6351 11.1467 91.6351 11.44C91.6351 11.7067 91.7485 11.9067 91.9751 12.04C92.2151 12.1733 92.5285 12.28 92.9151 12.36C93.3018 12.44 93.7218 12.5133 94.1751 12.58C94.6418 12.6333 95.1085 12.72 95.5751 12.84C96.0418 12.96 96.4618 13.1333 96.8351 13.36C97.2218 13.5733 97.5351 13.8733 97.7751 14.26C98.0151 14.6333 98.1351 15.1267 98.1351 15.74C98.1351 16.4067 97.9351 17 97.5351 17.52C97.1351 18.0267 96.5551 18.4267 95.7951 18.72C95.0485 19.0133 94.1351 19.16 93.0551 19.16ZM101.225 23.04C100.665 23.04 100.111 22.9533 99.5648 22.78C99.0181 22.6067 98.5715 22.3667 98.2248 22.06L99.3648 19.84C99.6048 20.0533 99.8781 20.22 100.185 20.34C100.505 20.46 100.818 20.52 101.125 20.52C101.565 20.52 101.911 20.4133 102.165 20.2C102.431 20 102.671 19.66 102.885 19.18L103.445 17.86L103.685 17.52L107.545 8.24H110.545L105.685 19.66C105.338 20.5267 104.938 21.2067 104.485 21.7C104.045 22.1933 103.551 22.54 103.005 22.74C102.471 22.94 101.878 23.04 101.225 23.04ZM103.065 19.42L98.2648 8.24H101.485L105.205 17.24L103.065 19.42ZM118.358 8.08C119.211 8.08 119.971 8.25333 120.638 8.6C121.318 8.93333 121.851 9.45333 122.238 10.16C122.625 10.8533 122.818 11.7467 122.818 12.84V19H119.698V13.32C119.698 12.4533 119.505 11.8133 119.118 11.4C118.745 10.9867 118.211 10.78 117.518 10.78C117.025 10.78 116.578 10.8867 116.178 11.1C115.791 11.3 115.485 11.6133 115.258 12.04C115.045 12.4667 114.938 13.0133 114.938 13.68V19H111.818V8.24H114.798V11.22L114.238 10.32C114.625 9.6 115.178 9.04667 115.898 8.66C116.618 8.27333 117.438 8.08 118.358 8.08ZM130.924 19.16C129.764 19.16 128.731 18.9267 127.824 18.46C126.918 17.98 126.204 17.32 125.684 16.48C125.178 15.64 124.924 14.6867 124.924 13.62C124.924 12.54 125.178 11.5867 125.684 10.76C126.204 9.92 126.918 9.26667 127.824 8.8C128.731 8.32 129.764 8.08 130.924 8.08C132.058 8.08 133.044 8.32 133.884 8.8C134.724 9.26667 135.344 9.94 135.744 10.82L133.324 12.12C133.044 11.6133 132.691 11.24 132.264 11C131.851 10.76 131.398 10.64 130.904 10.64C130.371 10.64 129.891 10.76 129.464 11C129.038 11.24 128.698 11.58 128.444 12.02C128.204 12.46 128.084 12.9933 128.084 13.62C128.084 14.2467 128.204 14.78 128.444 15.22C128.698 15.66 129.038 16 129.464 16.24C129.891 16.48 130.371 16.6 130.904 16.6C131.398 16.6 131.851 16.4867 132.264 16.26C132.691 16.02 133.044 15.64 133.324 15.12L135.744 16.44C135.344 17.3067 134.724 17.98 133.884 18.46C133.044 18.9267 132.058 19.16 130.924 19.16Z" fill="#1A1A1A"/>
<path fill-rule="evenodd" clip-rule="evenodd" d="M11.3006 3.04627C11.7169 3.17749 12 3.56354 12 4.00001V9.00001L16 9.00001C16.3729 9.00001 16.7148 9.20747 16.887 9.5382C17.0592 9.86893 17.0331 10.268 16.8192 10.5735L9.81924 20.5735C9.56894 20.931 9.11564 21.085 8.69936 20.9537C8.28309 20.8225 8 20.4365 8 20L8 15H4C3.62713 15 3.28522 14.7926 3.11302 14.4618C2.94083 14.1311 2.96694 13.732 3.18077 13.4265L10.1808 3.42655C10.4311 3.06898 10.8844 2.91505 11.3006 3.04627Z" fill="#1A1A1A"/>
<mask id="mask0_17_200" style="mask-type:alpha" maskUnits="userSpaceOnUse" x="0" y="2" width="20" height="20">
<path fill-rule="evenodd" clip-rule="evenodd" d="M11.3006 3.04627C11.7169 3.17749 12 3.56354 12 4.00001V9.00001L16 9.00001C16.3729 9.00001 16.7148 9.20747 16.887 9.5382C17.0592 9.86893 17.0331 10.268 16.8192 10.5735L9.81924 20.5735C9.56894 20.931 9.11564 21.085 8.69936 20.9537C8.28309 20.8225 8 20.4365 8 20L8 15H4C3.62713 15 3.28522 14.7926 3.11302 14.4618C2.94083 14.1311 2.96694 13.732 3.18077 13.4265L10.1808 3.42655C10.4311 3.06898 10.8844 2.91505 11.3006 3.04627Z" fill="#111827"/>
</mask>
<g mask="url(#mask0_17_200)">
<circle cx="16.5" cy="17.5" r="9.5" fill="#F45B5B"/>
</g>
</svg>
