<svg width="137" height="32" viewBox="0 0 137 32" fill="none" xmlns="http://www.w3.org/2000/svg">
<g clip-path="url(#clip0_363_2942)">
<path fill-rule="evenodd" clip-rule="evenodd" d="M32 0C22.9837 8.39148 9.01627 8.39148 0 0C8.39148 9.01627 8.39148 22.9837 0 32C2.38197 29.7831 5.1095 28.1519 8.00002 27.1063V27C8.00002 22.5817 11.5817 19 16 19C20.4183 19 24 22.5817 24 27V27.1063C26.8905 28.1519 29.618 29.7831 32 32C23.6085 22.9837 23.6085 9.01627 32 0ZM20 13C20 15.2091 18.2092 17 16 17C13.7909 17 12 15.2091 12 13C12 10.7909 13.7909 9 16 9C18.2092 9 20 10.7909 20 13Z" fill="#0A0A0A"/>
</g>
<path d="M42.472 10.56C43.512 10.56 44.44 10.776 45.256 11.208C46.088 11.64 46.736 12.28 47.2 13.128C47.664 13.976 47.896 15 47.896 16.2V24H45.184V16.608C45.184 15.424 44.888 14.52 44.296 13.896C43.704 13.256 42.896 12.936 41.872 12.936C40.848 12.936 40.032 13.256 39.424 13.896C38.832 14.52 38.536 15.424 38.536 16.608V24H35.8V10.776H38.536V12.288C38.984 11.744 39.552 11.32 40.24 11.016C40.944 10.712 41.688 10.56 42.472 10.56ZM55.9219 24.216C54.6739 24.216 53.5459 23.936 52.5379 23.376C51.5299 22.8 50.7379 22 50.1619 20.976C49.5859 19.936 49.2979 18.736 49.2979 17.376C49.2979 16.032 49.5939 14.84 50.1859 13.8C50.7779 12.76 51.5859 11.96 52.6099 11.4C53.6339 10.84 54.7779 10.56 56.0419 10.56C57.3059 10.56 58.4499 10.84 59.4739 11.4C60.4979 11.96 61.3059 12.76 61.8979 13.8C62.4899 14.84 62.7859 16.032 62.7859 17.376C62.7859 18.72 62.4819 19.912 61.8739 20.952C61.2659 21.992 60.4339 22.8 59.3779 23.376C58.3379 23.936 57.1859 24.216 55.9219 24.216ZM55.9219 21.84C56.6259 21.84 57.2819 21.672 57.8899 21.336C58.5139 21 59.0179 20.496 59.4019 19.824C59.7859 19.152 59.9779 18.336 59.9779 17.376C59.9779 16.416 59.7939 15.608 59.4259 14.952C59.0579 14.28 58.5699 13.776 57.9619 13.44C57.3539 13.104 56.6979 12.936 55.9939 12.936C55.2899 12.936 54.6339 13.104 54.0259 13.44C53.4339 13.776 52.9619 14.28 52.6099 14.952C52.2579 15.608 52.0819 16.416 52.0819 17.376C52.0819 18.8 52.4419 19.904 53.1619 20.688C53.8979 21.456 54.8179 21.84 55.9219 21.84ZM69.4026 21.552L73.1466 10.776H76.0506L71.0106 24H67.7466L62.7306 10.776H65.6586L69.4026 21.552ZM89.0388 17.064C89.0388 17.56 89.0068 18.008 88.9428 18.408H78.8388C78.9188 19.464 79.3108 20.312 80.0148 20.952C80.7188 21.592 81.5828 21.912 82.6068 21.912C84.0788 21.912 85.1188 21.296 85.7268 20.064H88.6788C88.2788 21.28 87.5508 22.28 86.4948 23.064C85.4548 23.832 84.1588 24.216 82.6068 24.216C81.3428 24.216 80.2068 23.936 79.1988 23.376C78.2068 22.8 77.4228 22 76.8468 20.976C76.2868 19.936 76.0068 18.736 76.0068 17.376C76.0068 16.016 76.2788 14.824 76.8228 13.8C77.3828 12.76 78.1588 11.96 79.1508 11.4C80.1588 10.84 81.3108 10.56 82.6068 10.56C83.8548 10.56 84.9668 10.832 85.9428 11.376C86.9188 11.92 87.6788 12.688 88.2228 13.68C88.7668 14.656 89.0388 15.784 89.0388 17.064ZM86.1828 16.2C86.1668 15.192 85.8068 14.384 85.1028 13.776C84.3988 13.168 83.5268 12.864 82.4868 12.864C81.5428 12.864 80.7348 13.168 80.0628 13.776C79.3908 14.368 78.9908 15.176 78.8628 16.2H86.1828ZM93.2673 6.24V24H90.5313V6.24H93.2673ZM102.499 10.56C103.507 10.56 104.403 10.776 105.187 11.208C105.987 11.64 106.611 12.28 107.059 13.128C107.523 13.976 107.755 15 107.755 16.2V24H105.043V16.608C105.043 15.424 104.747 14.52 104.155 13.896C103.563 13.256 102.755 12.936 101.731 12.936C100.707 12.936 99.8914 13.256 99.2834 13.896C98.6914 14.52 98.3954 15.424 98.3954 16.608V24H95.6594V6.24H98.3954V12.312C98.8594 11.752 99.4434 11.32 100.147 11.016C100.867 10.712 101.651 10.56 102.499 10.56ZM111.437 9.024C110.941 9.024 110.525 8.856 110.189 8.52C109.853 8.184 109.685 7.768 109.685 7.272C109.685 6.776 109.853 6.36 110.189 6.024C110.525 5.688 110.941 5.52 111.437 5.52C111.917 5.52 112.325 5.688 112.661 6.024C112.997 6.36 113.165 6.776 113.165 7.272C113.165 7.768 112.997 8.184 112.661 8.52C112.325 8.856 111.917 9.024 111.437 9.024ZM112.781 10.776V24H110.045V10.776H112.781ZM117.909 12.696C118.309 12.024 118.837 11.504 119.493 11.136C120.165 10.752 120.957 10.56 121.869 10.56V13.392H121.173C120.101 13.392 119.285 13.664 118.725 14.208C118.181 14.752 117.909 15.696 117.909 17.04V24H115.173V10.776H117.909V12.696ZM135.304 17.064C135.304 17.56 135.272 18.008 135.208 18.408H125.104C125.184 19.464 125.576 20.312 126.28 20.952C126.984 21.592 127.848 21.912 128.872 21.912C130.344 21.912 131.384 21.296 131.992 20.064H134.944C134.544 21.28 133.816 22.28 132.76 23.064C131.72 23.832 130.424 24.216 128.872 24.216C127.608 24.216 126.472 23.936 125.464 23.376C124.472 22.8 123.688 22 123.112 20.976C122.552 19.936 122.272 18.736 122.272 17.376C122.272 16.016 122.544 14.824 123.088 13.8C123.648 12.76 124.424 11.96 125.416 11.4C126.424 10.84 127.576 10.56 128.872 10.56C130.12 10.56 131.232 10.832 132.208 11.376C133.184 11.92 133.944 12.688 134.488 13.68C135.032 14.656 135.304 15.784 135.304 17.064ZM132.448 16.2C132.432 15.192 132.072 14.384 131.368 13.776C130.664 13.168 129.792 12.864 128.752 12.864C127.808 12.864 127 13.168 126.328 13.776C125.656 14.368 125.256 15.176 125.128 16.2H132.448Z" fill="#0A0A0A"/>
<defs>
<clipPath id="clip0_363_2942">
<rect width="32" height="32" fill="white"/>
</clipPath>
</defs>
</svg>
