<?xml version="1.0" encoding="UTF-8"?>
<svg version="1.1" xmlns="http://www.w3.org/2000/svg" width="695" height="125">
<path d="M0 0 C1.47049805 -0.0309375 1.47049805 -0.0309375 2.97070312 -0.0625 C3.90720703 -0.06765625 4.84371094 -0.0728125 5.80859375 -0.078125 C6.67154053 -0.0874707 7.5344873 -0.09681641 8.42358398 -0.10644531 C9.48234741 0.06999512 9.48234741 0.06999512 10.5625 0.25 C13.00025269 3.90662904 12.90936544 6.74415429 12.9765625 10.98046875 C12.99592865 11.73088943 13.0152948 12.48131012 13.0352478 13.25447083 C13.09497459 15.64869867 13.14140065 18.04297477 13.1875 20.4375 C13.2256862 22.0618698 13.26473831 23.68621948 13.3046875 25.31054688 C13.40067025 29.29020105 13.48472636 33.26995001 13.5625 37.25 C14.16578125 36.97285156 14.7690625 36.69570313 15.390625 36.41015625 C16.18984375 36.04792969 16.9890625 35.68570313 17.8125 35.3125 C18.99585938 34.77302734 18.99585938 34.77302734 20.203125 34.22265625 C28.36100798 30.85955548 39.20851983 30.89330539 47.72265625 33.05078125 C54.48088826 36.09041883 59.59470048 41.32259321 62.3522644 48.22758484 C64.79085194 55.51102469 64.95256677 62.28193703 64.85546875 69.9140625 C64.85122391 71.18728363 64.84697906 72.46050476 64.84260559 73.77230835 C64.82874915 77.12289095 64.80189741 80.47283521 64.76849365 83.82324219 C64.73755403 87.25580391 64.72404975 90.68843215 64.70898438 94.12109375 C64.67605087 100.83090227 64.62595363 107.54041437 64.5625 114.25 C60.51932294 115.97666637 57.48234363 116.52065347 53.0625 116.5 C51.9590625 116.50515625 50.855625 116.5103125 49.71875 116.515625 C46.54810367 116.24878843 44.35359365 115.76689872 41.5625 114.25 C40.56769212 111.26557635 40.42116525 109.24203092 40.38891602 106.12353516 C40.37542618 105.07880035 40.36193634 104.03406555 40.34803772 102.95767212 C40.33759933 101.82953094 40.32716095 100.70138977 40.31640625 99.5390625 C40.28347043 97.15624629 40.25025874 94.77343388 40.21679688 92.390625 C40.16936197 88.62925815 40.12492602 84.86790701 40.08569336 81.10644531 C40.04598224 77.47965462 39.99443707 73.85317945 39.94140625 70.2265625 C39.9329921 69.10246979 39.92457794 67.97837708 39.91590881 66.82022095 C39.89094582 65.24366226 39.89094582 65.24366226 39.86547852 63.63525391 C39.85517105 62.71386627 39.84486359 61.79247864 39.83424377 60.84317017 C39.53138384 57.95306773 38.91333293 55.82311422 37.5625 53.25 C31.17586912 51.12112304 24.60942655 51.44778329 18.5 54.25 C17.78714844 54.62125 17.07429688 54.9925 16.33984375 55.375 C14.5625 56.25 14.5625 56.25 12.5625 56.25 C12.56694122 56.95965912 12.57138245 57.66931824 12.57595825 58.40048218 C12.6159948 65.08097068 12.64646388 71.76142581 12.66612434 78.44200706 C12.6765717 81.87675459 12.69074805 85.31140317 12.71337891 88.74609375 C12.73922063 92.69269638 12.74896493 96.63925863 12.7578125 100.5859375 C12.76813507 101.82242035 12.77845764 103.0589032 12.78909302 104.33285522 C12.78924408 105.47388702 12.78939514 106.61491882 12.78955078 107.79052734 C12.793992 108.798685 12.79843323 109.80684265 12.80300903 110.84555054 C12.5625 113.25 12.5625 113.25 10.5625 115.25 C7.13687743 116.46955271 3.73341859 116.41664209 0.125 116.4375 C-1.54369141 116.45876953 -1.54369141 116.45876953 -3.24609375 116.48046875 C-6.42836434 116.25065974 -8.53493577 115.49351606 -11.4375 114.25 C-11.46082994 99.53390435 -11.47847964 84.81781115 -11.48931217 70.10170078 C-11.49447493 63.26921026 -11.50151723 56.43673121 -11.51293945 49.60424805 C-11.52394707 43.01664695 -11.52977623 36.42905469 -11.53237724 29.84144402 C-11.534232 27.32191721 -11.53785357 24.80239109 -11.54323006 22.28286934 C-11.55043676 18.76742235 -11.5514911 15.25202539 -11.55102539 11.73657227 C-11.55462067 10.68353409 -11.55821594 9.63049591 -11.56192017 8.54554749 C-11.55985817 7.11728638 -11.55985817 7.11728638 -11.55775452 5.66017151 C-11.55867631 4.82779244 -11.5595981 3.99541338 -11.56054783 3.13781071 C-11.23624611 -1.83765505 -3.74626741 0.01962681 0 0 Z " fill="#0B0B0B" transform="translate(423.4375,3.75)"/>
<path d="M0 0 C4.86178679 3.93335523 8.47500414 9.04002234 9.625 15.25 C10.4010746 23.92676849 9.86515084 32.17255355 4.08203125 39.09765625 C-5.59117962 48.1068023 -18.57835178 47.42029802 -31 47.3125 C-32.00417969 47.30798828 -33.00835938 47.30347656 -34.04296875 47.29882812 C-36.48704471 47.28718967 -38.9309882 47.2708424 -41.375 47.25 C-37.87101569 52.78220848 -34.70588482 56.13970506 -28.375 58.25 C-20.64106153 58.73221199 -13.51789115 58.84990211 -6.25 55.91796875 C-3.60067903 54.97414815 -1.15216377 55.03637202 1.625 55.25 C4.44032819 60.29140164 6.1438509 64.47621075 6.625 70.25 C-2.77116137 77.06154392 -12.50211731 78.76323834 -23.9375 78.625 C-24.90107422 78.63660156 -25.86464844 78.64820312 -26.85742188 78.66015625 C-37.62136411 78.61660692 -47.30500304 75.92277834 -55.28515625 68.46484375 C-64.94377146 58.1500169 -66.85633122 45.7892982 -66.62109375 32.0625 C-65.84691183 20.06882459 -62.45797929 9.73887695 -53.5625 1.375 C-39.00115067 -10.45260942 -15.2126057 -10.27271898 0 0 Z M-37.375 16.25 C-40.96902951 21.89408742 -40.96902951 21.89408742 -42.375 28.25 C-28.68919487 28.81230024 -28.68919487 28.81230024 -15.375 26.25 C-13.10920616 23.45223445 -13.10920616 23.45223445 -13.375 20.375 C-14.42239969 17.10187595 -15.59183484 15.23942762 -18.3671875 13.16796875 C-24.7960353 10.22870954 -32.43127232 11.30627232 -37.375 16.25 Z " fill="#0D0D0D" transform="translate(668.375,42.75)"/>
<path d="M0 0 C4.86178679 3.93335523 8.47500414 9.04002234 9.625 15.25 C10.4010746 23.92676849 9.86515084 32.17255355 4.08203125 39.09765625 C-5.59117962 48.1068023 -18.57835178 47.42029802 -31 47.3125 C-32.00417969 47.30798828 -33.00835937 47.30347656 -34.04296875 47.29882812 C-36.48704471 47.28718967 -38.9309882 47.2708424 -41.375 47.25 C-37.87101569 52.78220848 -34.70588482 56.13970506 -28.375 58.25 C-20.64106153 58.73221199 -13.51789115 58.84990211 -6.25 55.91796875 C-3.60067903 54.97414815 -1.15216377 55.03637202 1.625 55.25 C4.44032819 60.29140164 6.1438509 64.47621075 6.625 70.25 C-2.77116137 77.06154392 -12.50211731 78.76323834 -23.9375 78.625 C-24.90107422 78.63660156 -25.86464844 78.64820312 -26.85742188 78.66015625 C-37.62136411 78.61660692 -47.30500304 75.92277834 -55.28515625 68.46484375 C-64.94377146 58.1500169 -66.85633122 45.7892982 -66.62109375 32.0625 C-65.84691183 20.06882459 -62.45797929 9.73887695 -53.5625 1.375 C-39.00115067 -10.45260942 -15.2126057 -10.27271898 0 0 Z M-37.375 16.25 C-40.96902951 21.89408742 -40.96902951 21.89408742 -42.375 28.25 C-28.68919487 28.81230024 -28.68919487 28.81230024 -15.375 26.25 C-13.10920616 23.45223445 -13.10920616 23.45223445 -13.375 20.375 C-14.42239969 17.10187595 -15.59183484 15.23942762 -18.3671875 13.16796875 C-24.7960353 10.22870954 -32.43127232 11.30627232 -37.375 16.25 Z " fill="#0D0D0D" transform="translate(350.375,42.75)"/>
<path d="M0 0 C0.94294922 -0.02900391 1.88589844 -0.05800781 2.85742188 -0.08789062 C11.03559774 -0.16096024 17.36741971 1.75980099 24.234375 6.203125 C26.6469071 8.65193578 28.04527914 10.98014605 29.5625 14.0625 C30.06265625 15.04734375 30.5628125 16.0321875 31.078125 17.046875 C33.86162076 24.41080681 33.47232529 32.33984835 33.48046875 40.109375 C33.48546135 41.77616302 33.48546135 41.77616302 33.49055481 43.47662354 C33.49559556 45.81302478 33.49796402 48.14943316 33.49780273 50.48583984 C33.50000147 54.06489745 33.51822087 57.64365258 33.53710938 61.22265625 C33.54004141 63.49739478 33.54202748 65.77213477 33.54296875 68.046875 C33.55015427 69.11669617 33.55733978 70.18651733 33.56474304 71.28875732 C33.56166641 72.28369202 33.55858978 73.27862671 33.55541992 74.30371094 C33.55684494 75.17670837 33.55826996 76.04970581 33.55973816 76.94915771 C33.29413676 79.48803371 32.59105303 81.12239279 31.3125 83.3125 C27.83335059 83.34137814 24.35423169 83.35925687 20.875 83.375 C19.38516602 83.38756836 19.38516602 83.38756836 17.86523438 83.40039062 C16.44887695 83.40522461 16.44887695 83.40522461 15.00390625 83.41015625 C14.12935791 83.41539307 13.25480957 83.42062988 12.35375977 83.42602539 C10.3125 83.3125 10.3125 83.3125 9.3125 82.3125 C9.20022591 80.75410672 9.15575209 79.19075969 9.13891602 77.62841797 C9.12542618 76.63002899 9.11193634 75.63164001 9.09803772 74.60299683 C9.08759933 73.51455475 9.07716095 72.42611267 9.06640625 71.3046875 C9.03345107 69.01562142 9.00023972 66.72655901 8.96679688 64.4375 C8.91947815 60.81675912 8.87509283 57.19603133 8.83569336 53.57519531 C8.79585008 50.08902732 8.74431455 46.60317831 8.69140625 43.1171875 C8.6829921 42.04089081 8.67457794 40.96459412 8.66590881 39.85568237 C8.7407251 30.43395663 8.7407251 30.43395663 4.5078125 22.40234375 C1.89414084 21.10480924 0.1024128 20.87924914 -2.8125 20.875 C-3.68132813 20.85566406 -4.55015625 20.83632813 -5.4453125 20.81640625 C-8.589275 21.29747039 -10.96178677 22.14161566 -13.89013672 23.34350586 C-14.78900604 23.71027939 -15.68787537 24.07705292 -16.61398315 24.4549408 C-17.29824371 24.73793533 -17.98250427 25.02092987 -18.6875 25.3125 C-18.69558685 25.99488235 -18.70367371 26.67726471 -18.71200562 27.38032532 C-18.7979228 34.4691564 -18.89742069 41.55770369 -19.00488281 48.64624023 C-19.04321579 51.29332725 -19.07806094 53.94046713 -19.109375 56.58764648 C-19.15493145 60.38805056 -19.21294197 64.18808932 -19.2734375 67.98828125 C-19.29076431 69.76964226 -19.29076431 69.76964226 -19.30844116 71.58699036 C-19.32831085 72.68790512 -19.34818054 73.78881989 -19.36865234 74.9230957 C-19.38197601 75.89350296 -19.39529968 76.86391022 -19.4090271 77.86372375 C-19.6875 80.3125 -19.6875 80.3125 -21.6875 83.3125 C-23.82641602 83.66894531 -23.82641602 83.66894531 -26.44140625 83.640625 C-27.84616211 83.63289063 -27.84616211 83.63289063 -29.27929688 83.625 C-30.25962891 83.604375 -31.23996094 83.58375 -32.25 83.5625 C-33.72629883 83.55476563 -33.72629883 83.55476563 -35.23242188 83.546875 C-42.53363458 83.46636542 -42.53363458 83.46636542 -43.6875 82.3125 C-43.80797846 80.2534961 -43.85775852 78.1903314 -43.88037109 76.12792969 C-43.88854858 75.4823259 -43.89672607 74.83672211 -43.90515137 74.17155457 C-43.93004925 72.02583758 -43.94653481 69.88018707 -43.9609375 67.734375 C-43.96892302 66.63633923 -43.96892302 66.63633923 -43.97706985 65.51612091 C-44.00382408 61.6395014 -44.02318919 57.76291431 -44.03759766 53.88623047 C-44.05422638 49.88327098 -44.09898121 45.88113792 -44.1499691 41.87849045 C-44.1836505 38.80036489 -44.19517612 35.72243491 -44.20082474 32.64414215 C-44.20753789 31.16893468 -44.22276197 29.69374011 -44.24671555 28.21871185 C-44.27838537 26.15001068 -44.27840291 24.083529 -44.27099609 22.01464844 C-44.27908295 20.8385199 -44.2871698 19.66239136 -44.29550171 18.45062256 C-43.50678701 14.37977317 -41.82377238 12.92931543 -38.6875 10.3125 C-27.2096146 2.855916 -13.44745242 0.13510501 0 0 Z " fill="#090909" transform="translate(63.6875,35.6875)"/>
<path d="M0 0 C0.8353125 -0.00257812 1.670625 -0.00515625 2.53125 -0.0078125 C3.82675781 0.00378906 3.82675781 0.00378906 5.1484375 0.015625 C6.45554688 0.00402344 6.45554688 0.00402344 7.7890625 -0.0078125 C9.03816406 -0.00394531 9.03816406 -0.00394531 10.3125 0 C11.45259521 0.00338379 11.45259521 0.00338379 12.61572266 0.00683594 C14.5234375 0.265625 14.5234375 0.265625 16.5234375 2.265625 C17.20605469 4.65380859 17.20605469 4.65380859 17.8203125 7.6640625 C18.17053467 9.32900757 18.17053467 9.32900757 18.52783203 11.02758789 C18.77388184 12.21989014 19.01993164 13.41219238 19.2734375 14.640625 C23.08320273 38.86879811 23.08320273 38.86879811 33.5234375 60.265625 C40.79102871 44.44414325 44.87219763 27.63542649 48.51928711 10.67138672 C48.75268799 9.60678223 48.98608887 8.54217773 49.2265625 7.4453125 C49.42926758 6.49382324 49.63197266 5.54233398 49.84082031 4.56201172 C50.5234375 2.265625 50.5234375 2.265625 52.5234375 0.265625 C55.49932562 0.06586153 58.3616489 -0.0124564 61.3359375 0.015625 C62.14353516 0.00789063 62.95113281 0.00015625 63.78320312 -0.0078125 C64.57017578 -0.00523438 65.35714844 -0.00265625 66.16796875 0 C67.24075073 0.00338379 67.24075073 0.00338379 68.33520508 0.00683594 C70.97016636 0.31845693 73.10560979 1.19833623 75.5234375 2.265625 C75.03110378 9.94304146 73.85775551 17.18875163 71.9609375 24.640625 C71.69700195 25.67936768 71.43306641 26.71811035 71.16113281 27.78833008 C67.30289086 42.43961361 61.64512872 56.19852468 55.2109375 69.890625 C54.58010254 71.23386841 54.58010254 71.23386841 53.93652344 72.60424805 C53.53594727 73.43351807 53.13537109 74.26278809 52.72265625 75.1171875 C52.37033936 75.84760254 52.01802246 76.57801758 51.6550293 77.33056641 C50.00471251 80.15266153 48.54415275 81.94161814 45.39453125 82.94140625 C41.45033547 83.38680523 37.55253836 83.44988696 33.5859375 83.453125 C32.80025391 83.46537109 32.01457031 83.47761719 31.20507812 83.49023438 C22.5915527 83.51185829 22.5915527 83.51185829 18.5234375 81.265625 C13.55672354 75.53418971 10.53370659 68.49175621 7.5859375 61.578125 C6.94470947 60.08406128 6.94470947 60.08406128 6.29052734 58.55981445 C0.67330492 45.19284703 -3.68019538 31.45974178 -6.9140625 17.328125 C-7.160354 16.25534302 -7.160354 16.25534302 -7.41162109 15.16088867 C-8.35088268 10.75014571 -8.62246539 6.7419258 -8.4765625 2.265625 C-5.52441117 0.57796313 -3.39127255 0.01003547 0 0 Z " fill="#0E0E0E" transform="translate(204.4765625,36.734375)"/>
<path d="M0 0 C1.47049805 -0.0309375 1.47049805 -0.0309375 2.97070312 -0.0625 C3.90720703 -0.06765625 4.84371094 -0.0728125 5.80859375 -0.078125 C6.67154053 -0.0874707 7.5344873 -0.09681641 8.42358398 -0.10644531 C9.48234741 0.06999512 9.48234741 0.06999512 10.5625 0.25 C12.66473697 3.40335545 12.81306585 4.13282986 12.81646729 7.7286377 C12.82210693 8.645569 12.82774658 9.56250031 12.83355713 10.50721741 C12.82950867 11.51094894 12.82546021 12.51468048 12.82128906 13.54882812 C12.8247937 14.60758652 12.82829834 15.66634491 12.83190918 16.75718689 C12.84072885 20.26527415 12.83487642 23.7731606 12.828125 27.28125 C12.82947158 29.71358275 12.83141205 32.14591524 12.83392334 34.57824707 C12.83687493 39.67930663 12.83257579 44.78029622 12.82324219 49.88134766 C12.8118477 56.42880066 12.81840698 62.9760897 12.83038712 69.52353668 C12.83760474 74.54715211 12.83531822 79.5707285 12.83013153 84.59434509 C12.82879477 87.00894693 12.83044368 89.42355229 12.83509064 91.83815002 C12.84015419 95.20925321 12.83244782 98.58008869 12.82128906 101.95117188 C12.82533752 102.95490341 12.82938599 103.95863495 12.83355713 104.99278259 C12.82791748 105.9097139 12.82227783 106.8266452 12.81646729 107.7713623 C12.81571323 108.56850395 12.81495918 109.3656456 12.81418228 110.18694305 C12.5625 112.25 12.5625 112.25 10.5625 115.25 C7.20117058 116.56861676 3.69757137 116.4168493 0.125 116.4375 C-1.54369141 116.45876953 -1.54369141 116.45876953 -3.24609375 116.48046875 C-6.42836434 116.25065974 -8.53493577 115.49351606 -11.4375 114.25 C-11.46082994 99.53390435 -11.47847964 84.81781115 -11.48931217 70.10170078 C-11.49447493 63.26921026 -11.50151723 56.43673121 -11.51293945 49.60424805 C-11.52394707 43.01664695 -11.52977623 36.42905469 -11.53237724 29.84144402 C-11.534232 27.32191721 -11.53785357 24.80239109 -11.54323006 22.28286934 C-11.55043676 18.76742235 -11.5514911 15.25202539 -11.55102539 11.73657227 C-11.55462067 10.68353409 -11.55821594 9.63049591 -11.56192017 8.54554749 C-11.55985817 7.11728638 -11.55985817 7.11728638 -11.55775452 5.66017151 C-11.55867631 4.82779244 -11.5595981 3.99541338 -11.56054783 3.13781071 C-11.23624611 -1.83765505 -3.74626741 0.01962681 0 0 Z " fill="#090909" transform="translate(383.4375,3.75)"/>
<path d="M0 0 C0.495 0.495 0.495 0.495 1 1 C0.9618087 3.10639727 0.84407557 5.21158302 0.6875 7.3125 C0.60886719 8.46363281 0.53023437 9.61476563 0.44921875 10.80078125 C-0.28908192 16.05876603 -0.28908192 16.05876603 -2 18 C-4.58605536 18.36638329 -6.84893092 18.50504537 -9.4375 18.5 C-15.83963445 18.66650451 -21.00270874 19.63105915 -26.9609375 22.16015625 C-29 23 -29 23 -31 23 C-31 41.81 -31 60.62 -31 80 C-35.56556181 81.82622472 -37.7658796 82.27212206 -42.5 82.25 C-43.6034375 82.25515625 -44.706875 82.2603125 -45.84375 82.265625 C-48.99565049 82.00036605 -51.19672777 81.44226325 -54 80 C-55.38264404 77.23471192 -55.14251931 74.98010267 -55.16113281 71.88549805 C-55.17074036 70.60043869 -55.1803479 69.31537933 -55.19024658 67.99137878 C-55.19509484 66.58149391 -55.1993736 65.17160697 -55.203125 63.76171875 C-55.20887704 62.31923928 -55.21463476 60.87675982 -55.22039795 59.4342804 C-55.23090948 56.40711104 -55.23675086 53.37996825 -55.24023438 50.3527832 C-55.24571357 46.47899298 -55.26972825 42.60555523 -55.29820633 38.73187542 C-55.31685815 35.7506865 -55.32203969 32.76958195 -55.32357025 29.78833961 C-55.32659257 28.3606251 -55.33460694 26.93291192 -55.34775543 25.50525475 C-55.36486396 23.50446939 -55.36108393 21.50353867 -55.35644531 19.50268555 C-55.36009094 18.365103 -55.36373657 17.22752045 -55.36749268 16.0554657 C-54.95259583 12.60586478 -54.07454109 10.76411733 -52 8 C-36.65771687 -2.01027794 -17.62344904 -5.22828988 0 0 Z " fill="#0E0E0E" transform="translate(599,38)"/>
<path d="M0 0 C3.45645946 1.41400614 4.76662994 2.65772391 6.875 5.75 C8.25544544 9.7379535 8.10685711 11.94152394 7 16 C6.319375 16.804375 5.63875 17.60875 4.9375 18.4375 C2.8179501 21.24077568 2.7737439 21.825492 2.87890625 25.16015625 C2.93884766 27.06087891 2.93884766 27.06087891 3 29 C3.6705542 29.01458252 4.3411084 29.02916504 5.03198242 29.04418945 C8.08438822 29.118883 11.13572585 29.21547299 14.1875 29.3125 C15.77014648 29.34633789 15.77014648 29.34633789 17.38476562 29.38085938 C18.40634766 29.41630859 19.42792969 29.45175781 20.48046875 29.48828125 C21.88655396 29.52755737 21.88655396 29.52755737 23.32104492 29.56762695 C29.39715841 30.5482883 32.45996293 34.37828493 36 39 C37.20272819 41.40545638 37.10071472 42.94996953 37.0625 45.625 C37.05347656 46.44226563 37.04445313 47.25953125 37.03515625 48.1015625 C37.02355469 48.72804687 37.01195312 49.35453125 37 50 C38.093125 50.0825 39.18625 50.165 40.3125 50.25 C44 51 44 51 45.9375 52.6875 C47.3613395 55.7864448 47.55153827 57.62182812 47 61 C44.58447681 64.10567268 42.98995534 65.7140129 39.1875 66.8125 C38.465625 66.874375 37.74375 66.93625 37 67 C37.0928125 68.794375 37.0928125 68.794375 37.1875 70.625 C37.20943937 74.73497595 36.13130434 77.4478261 34 81 C33.34 81 32.68 81 32 81 C32 81.66 32 82.32 32 83 C28.30456103 85.7834127 25.57536311 86.37768926 21.00390625 86.38818359 C19.81917725 86.39764008 18.63444824 86.40709656 17.41381836 86.4168396 C16.1428833 86.41076691 14.87194824 86.40469421 13.5625 86.3984375 C11.59325562 86.40274277 11.59325562 86.40274277 9.58422852 86.40713501 C6.81027596 86.41154861 4.03661398 86.40515885 1.26269531 86.39111328 C-2.28487785 86.37402145 -5.83177003 86.38386788 -9.37931824 86.40183067 C-12.7737661 86.41530585 -16.16803282 86.40585867 -19.5625 86.3984375 C-20.83343506 86.40451019 -22.10437012 86.41058289 -23.41381836 86.4168396 C-25.19091187 86.40265488 -25.19091187 86.40265488 -27.00390625 86.38818359 C-28.04361572 86.38579681 -29.0833252 86.38341003 -30.15454102 86.38095093 C-36.35678978 85.55059195 -39.41133027 81.6852077 -43 77 C-44.60725635 73.78548731 -44.05748185 70.56387464 -44 67 C-45.11375 66.71125 -46.2275 66.4225 -47.375 66.125 C-51 65 -51 65 -53 63 C-53.3359375 60.72265625 -53.3359375 60.72265625 -53.375 58.0625 C-53.40335937 57.18722656 -53.43171875 56.31195313 -53.4609375 55.41015625 C-53 53 -53 53 -51.1484375 51.1953125 C-48.58189579 49.76738202 -46.89330934 49.75889089 -44 50 C-44.04640625 49.41992188 -44.0928125 48.83984375 -44.140625 48.2421875 C-44.40259557 42.57239594 -43.84022146 39.46296007 -40 35 C-35.62242406 31.14356406 -33.3424774 29.8718817 -27.5546875 29.90234375 C-25.94013672 29.90717773 -25.94013672 29.90717773 -24.29296875 29.91210938 C-23.16503906 29.92048828 -22.03710938 29.92886719 -20.875 29.9375 C-19.17150391 29.94426758 -19.17150391 29.94426758 -17.43359375 29.95117188 C-14.62234362 29.96298385 -11.8111977 29.97945493 -9 30 C-9.11256863 28.38720543 -9.23889959 26.77536716 -9.37109375 25.1640625 C-9.47442017 23.81755615 -9.47442017 23.81755615 -9.57983398 22.44384766 C-10.14260841 19.17053446 -11.93013116 17.53725858 -14 15 C-14.91825498 8.57221516 -14.91825498 8.57221516 -12.94140625 5.1875 C-8.88709884 0.18277631 -6.32052417 -0.42851011 0 0 Z M-35.25732422 39.08447266 C-37.43517984 42.72806355 -37.64543234 45.07546896 -37.6640625 49.3125 C-37.66884613 50.00384033 -37.67362976 50.69518066 -37.67855835 51.4074707 C-37.68194736 52.86314176 -37.6728145 54.31888996 -37.65185547 55.77441406 C-37.62506546 57.99457497 -37.65162647 60.20968261 -37.68359375 62.4296875 C-37.68028946 63.84896942 -37.67388281 65.26824821 -37.6640625 66.6875 C-37.65842285 67.97011719 -37.6527832 69.25273438 -37.64697266 70.57421875 C-37.19306051 74.05752279 -37.19306051 74.05752279 -35.25732422 76.91552734 C-30.14573934 80.18660452 -25.1654989 79.71399802 -19.21875 79.6640625 C-17.34938782 79.67123795 -17.34938782 79.67123795 -15.44226074 79.67855835 C-12.13609018 79.68282782 -8.83109939 79.66274459 -5.52508545 79.63476562 C-3.50153122 79.62500738 -1.47906102 79.63473053 0.54443359 79.65185547 C4.43638353 79.68274773 8.32673315 79.6790018 12.21875 79.6640625 C14.02672058 79.67924423 14.02672058 79.67924423 15.87121582 79.69473267 C22.42741948 79.62929332 22.42741948 79.62929332 28.25732422 76.91552734 C30.43517984 73.27193645 30.64543234 70.92453104 30.6640625 66.6875 C30.66884613 65.99615967 30.67362976 65.30481934 30.67855835 64.5925293 C30.68194736 63.13685824 30.6728145 61.68111004 30.65185547 60.22558594 C30.62506546 58.00542503 30.65162647 55.79031739 30.68359375 53.5703125 C30.68028946 52.15103058 30.67388281 50.73175179 30.6640625 49.3125 C30.65842285 48.02988281 30.6527832 46.74726562 30.64697266 45.42578125 C30.19306051 41.94247721 30.19306051 41.94247721 28.25732422 39.08447266 C23.14573934 35.81339548 18.1654989 36.28600198 12.21875 36.3359375 C10.34938782 36.32876205 10.34938782 36.32876205 8.44226074 36.32144165 C5.13609018 36.31717218 1.83109939 36.33725541 -1.47491455 36.36523438 C-3.49846878 36.37499262 -5.52093898 36.36526947 -7.54443359 36.34814453 C-11.43638353 36.31725227 -15.32673315 36.3209982 -19.21875 36.3359375 C-21.02672058 36.32075577 -21.02672058 36.32075577 -22.87121582 36.30526733 C-29.42741948 36.37070668 -29.42741948 36.37070668 -35.25732422 39.08447266 Z " fill="#88C8F6" transform="translate(155,36)"/>
<path d="M0 0 C3.458176 -0.0868329 6.91607344 -0.14033282 10.375 -0.1875 C11.35984375 -0.21263672 12.3446875 -0.23777344 13.359375 -0.26367188 C14.77089844 -0.27817383 14.77089844 -0.27817383 16.2109375 -0.29296875 C17.08024902 -0.3086792 17.94956055 -0.32438965 18.84521484 -0.34057617 C19.55629395 -0.22818604 20.26737305 -0.1157959 21 0 C23.49819853 3.7472978 23.24776796 5.69834913 23.24291992 10.17773438 C23.24481827 10.90487137 23.24671661 11.63200836 23.24867249 12.38117981 C23.25237806 14.78547945 23.24167899 17.18947718 23.23046875 19.59375 C23.22927667 21.26379358 23.22882385 22.93383785 23.2290802 24.60388184 C23.22751569 28.10429073 23.2192287 31.60459731 23.20581055 35.10498047 C23.18882079 39.59424342 23.18499625 44.0833939 23.18575573 48.57268524 C23.18548393 52.02131221 23.1800011 55.46991455 23.17275429 58.91853333 C23.1695698 60.57395745 23.16760073 62.22938438 23.16686058 63.8848114 C23.16469469 66.19734461 23.15594504 68.5097581 23.14526367 70.82226562 C23.13954597 72.79725037 23.13954597 72.79725037 23.13371277 74.81213379 C23 78 23 78 22 81 C18.54252237 82.4343972 14.75175643 82.16781347 11.0625 82.1875 C9.25458984 82.20876953 9.25458984 82.20876953 7.41015625 82.23046875 C4.10390571 82.00702226 2.00331918 81.29437382 -1 80 C-1.02313729 69.86460923 -1.04092219 59.72922471 -1.05181217 49.59381294 C-1.05703795 44.88789057 -1.0641301 40.18198622 -1.07543945 35.47607422 C-1.08627912 30.93736468 -1.09227914 26.3986725 -1.09487724 21.85995102 C-1.09672954 20.12554526 -1.10034643 18.39114049 -1.10573006 16.6567421 C-1.11295478 14.23354259 -1.11399033 11.81041552 -1.11352539 9.38720703 C-1.11712067 8.66503998 -1.12071594 7.94287292 -1.12442017 7.19882202 C-1.11405216 2.22810432 -1.11405216 2.22810432 0 0 Z " fill="#0E0E0E" transform="translate(505,38)"/>
<path d="M0 0 C0.86883706 1.57533086 1.71959068 3.16064509 2.5625 4.75 C3.03816406 5.63171875 3.51382813 6.5134375 4.00390625 7.421875 C5.09545232 10.24705305 5.09775405 11.24061823 4 14 C3.67 14.66 3.34 15.32 3 16 C3.66 16.33 4.32 16.66 5 17 C4.505 17.680625 4.01 18.36125 3.5 19.0625 C1.46942665 22.48931969 1.46942665 22.48931969 2 29 C15.86 29.495 15.86 29.495 30 30 C30.99 31.98 30.99 31.98 32 34 C30.89245865 33.98334541 30.89245865 33.98334541 29.76254272 33.96635437 C22.78910059 33.86598501 15.81576702 33.78995028 8.84178734 33.74093914 C5.25667776 33.71489389 1.6721672 33.6795917 -1.91259766 33.62280273 C-5.3750633 33.56829726 -8.83695444 33.53854133 -12.29981613 33.52561378 C-14.25749428 33.51193926 -16.21494268 33.47293477 -18.17227173 33.43351746 C-25.47582006 33.25225009 -25.47582006 33.25225009 -31.79443359 36.40551758 C-36.32529521 41.73532346 -35.2594388 47.81727881 -35.29516602 54.49316406 C-35.31232983 56.72784469 -35.35620843 58.96102621 -35.40039062 61.1953125 C-35.41052243 62.62498915 -35.41903701 64.05467836 -35.42578125 65.484375 C-35.44036377 66.78084961 -35.45494629 68.07732422 -35.4699707 69.41308594 C-34.87602009 73.94624045 -34.38377476 75.85108111 -31 79 C-26.76703116 79.88629239 -22.59182404 79.78896006 -18.28125 79.734375 C-17.03122192 79.74333801 -15.78119385 79.75230103 -14.49328613 79.76153564 C-11.17330259 79.78158548 -7.85532262 79.77704365 -4.53546143 79.75897217 C0.14084125 79.73835936 4.81702602 79.75788668 9.49328613 79.78131104 C11.98179145 79.79153579 14.47038064 79.78975056 16.9588623 79.77484131 C18.65081726 79.77559662 18.65081726 79.77559662 20.37695312 79.77636719 C21.86443054 79.76920685 21.86443054 79.76920685 23.38195801 79.76190186 C26.06979693 80.00634769 27.70209083 80.62559338 30 82 C28.28561988 83.71438012 26.03119313 83.15403914 23.68920898 83.17700195 C21.98624916 83.19625481 21.98624916 83.19625481 20.24888611 83.21589661 C19.01046463 83.22328354 17.77204315 83.23067047 16.49609375 83.23828125 C15.22911148 83.246353 13.96212921 83.25442474 12.65675354 83.26274109 C9.96571172 83.27660695 7.27479342 83.28761438 4.58374023 83.29516602 C1.15287101 83.30617826 -2.27734019 83.340507 -5.70797825 83.38033772 C-8.9940552 83.41295053 -12.28019215 83.4172976 -15.56640625 83.42578125 C-16.79065811 83.44328934 -18.01490997 83.46079742 -19.27626038 83.47883606 C-26.33882058 83.46098354 -31.02406975 82.86532934 -37 79 C-40.1164045 75.57195504 -41.21787356 73.17089124 -41.25 68.625 C-41.1675 67.42875 -41.085 66.2325 -41 65 C-42.11375 64.71125 -43.2275 64.4225 -44.375 64.125 C-48 63 -48 63 -50 61 C-50.3359375 58.72265625 -50.3359375 58.72265625 -50.375 56.0625 C-50.40335937 55.18722656 -50.43171875 54.31195313 -50.4609375 53.41015625 C-50 51 -50 51 -48.1484375 49.1953125 C-45.58189579 47.76738202 -43.89330934 47.75889089 -41 48 C-41.04640625 47.41992188 -41.0928125 46.83984375 -41.140625 46.2421875 C-41.40259557 40.57239594 -40.84022146 37.46296007 -37 33 C-32.62242406 29.14356406 -30.3424774 27.8718817 -24.5546875 27.90234375 C-22.94013672 27.90717773 -22.94013672 27.90717773 -21.29296875 27.91210938 C-20.16503906 27.92048828 -19.03710938 27.92886719 -17.875 27.9375 C-16.17150391 27.94426758 -16.17150391 27.94426758 -14.43359375 27.95117188 C-11.62234362 27.96298385 -8.8111977 27.97945493 -6 28 C-6.11256863 26.38720543 -6.23889959 24.77536716 -6.37109375 23.1640625 C-6.47442017 21.81755615 -6.47442017 21.81755615 -6.57983398 20.44384766 C-7.14260841 17.17053446 -8.93013116 15.53725858 -11 13 C-11.7206164 8.72716865 -11.44914159 5.67371239 -9 2 C-5.91277739 -0.02266309 -3.62540739 -0.07790132 0 0 Z " fill="#52AFF3" transform="translate(152,38)"/>
<path d="M0 0 C1.14806625 -0.00945648 2.29613251 -0.01891296 3.47898865 -0.02865601 C5.33995934 -0.01954697 5.33995934 -0.01954697 7.23852539 -0.01025391 C9.14898399 -0.01455917 9.14898399 -0.01455917 11.09803772 -0.01895142 C13.79418387 -0.0209949 16.48951673 -0.01694972 19.18554688 -0.00292969 C22.6368767 0.01414554 26.08750578 0.00433174 29.53880978 -0.01364708 C32.83457322 -0.02711344 36.13025279 -0.01767544 39.42602539 -0.01025391 C40.66464828 -0.0163266 41.90327118 -0.02239929 43.1794281 -0.02865601 C44.33064651 -0.01919952 45.48186493 -0.00974304 46.66796875 0 C48.18661781 0.00358017 48.18661781 0.00358017 49.73594666 0.00723267 C52.84051765 0.45139598 54.21883335 1.14657337 56.39868164 3.38818359 C56.77911872 6.44315068 56.91200637 9.13206165 56.85961914 12.18505859 C56.8587027 13.05205383 56.85778625 13.91904907 56.85684204 14.81231689 C56.85079899 16.64820827 56.83503184 18.48408946 56.81030273 20.31982422 C56.77399823 23.11381892 56.76928206 25.90647858 56.76977539 28.70068359 C56.75993584 30.48715327 56.7482752 32.27361402 56.73461914 34.06005859 C56.73239349 34.8894696 56.73016785 35.71888062 56.72787476 36.57342529 C56.64796699 41.52467937 56.12589961 45.72675766 54.39868164 50.38818359 C51.74400116 51.71552384 49.71601504 51.52991733 46.74316406 51.54931641 C45.55820847 51.55892395 44.37325287 51.56853149 43.15238953 51.57843018 C41.86597061 51.58268005 40.5795517 51.58692993 39.25415039 51.59130859 C37.93707596 51.59700867 36.62000153 51.60270874 35.26301575 51.60858154 C32.47123834 51.61909184 29.67948972 51.62493397 26.88769531 51.62841797 C23.31656272 51.63389594 19.74581271 51.65790836 16.17479992 51.68638992 C12.76375744 51.70953891 9.35276736 51.71146779 5.94165039 51.71630859 C4.66130417 51.7286554 3.38095795 51.7410022 2.06181335 51.75372314 C0.86740128 51.75072205 -0.3270108 51.74772095 -1.55761719 51.74462891 C-2.60637527 51.74827454 -3.65513336 51.75192017 -4.735672 51.75567627 C-8.00709974 51.33614588 -9.9166468 50.25750331 -12.60131836 48.38818359 C-9.60131836 48.38818359 -9.60131836 48.38818359 -6.60131836 49.38818359 C-4.71475021 49.47671178 -2.82516311 49.50580582 -0.93652344 49.50170898 C0.80494209 49.50159569 0.80494209 49.50159569 2.58158875 49.5014801 C4.46138176 49.49373817 4.46138176 49.49373817 6.37915039 49.48583984 C7.66227615 49.4844249 8.94540192 49.48300995 10.26741028 49.48155212 C13.67538405 49.47773765 17.08331507 49.4679165 20.49127197 49.45684814 C23.97016827 49.44661103 27.44907149 49.44204957 30.92797852 49.43701172 C37.75156376 49.42629327 44.57512065 49.40922968 51.39868164 49.38818359 C48.29825127 48.3547068 46.12459225 48.25165404 42.87329102 48.23046875 C41.74201782 48.2202066 40.61074463 48.20994446 39.44519043 48.19937134 C38.22328003 48.19207001 37.00136963 48.18476868 35.74243164 48.17724609 C33.16820642 48.14918807 30.59398774 48.12052369 28.01977539 48.09130859 C23.95096235 48.04880771 19.88219097 48.01202137 15.81323242 47.98681641 C11.89357862 47.96188439 7.9743639 47.91344779 4.05493164 47.86474609 C2.83302124 47.86149323 1.61111084 47.85824036 0.35217285 47.85488892 C-1.34473694 47.83003922 -1.34473694 47.83003922 -3.07592773 47.8046875 C-4.07281616 47.79660065 -5.06970459 47.78851379 -6.09680176 47.78018188 C-8.99517947 47.32653781 -9.83144701 46.66913749 -11.60131836 44.38818359 C-15.05281236 39.27258928 -13.93454381 32.5137427 -13.91699219 26.5793457 C-13.91382386 24.32958911 -13.93733701 22.08113791 -13.96264648 19.83154297 C-13.96491881 18.40120608 -13.96562328 16.97086567 -13.96459961 15.54052734 C-13.96758057 14.24107178 -13.97056152 12.94161621 -13.97363281 11.6027832 C-13.60131836 8.38818359 -13.60131836 8.38818359 -12.07861328 6.44116211 C-11.59110596 6.0936792 -11.10359863 5.74619629 -10.60131836 5.38818359 C-10.62226562 6.39719727 -10.64321289 7.40621094 -10.66479492 8.44580078 C-10.73728621 12.19533046 -10.78315056 15.94479841 -10.82104492 19.69482422 C-10.8411398 21.31667503 -10.8684209 22.93845357 -10.90307617 24.56005859 C-10.95169106 26.8935734 -10.97430725 29.22612917 -10.99194336 31.56005859 C-11.0125885 32.28312195 -11.03323364 33.0061853 -11.05450439 33.75115967 C-11.05595111 37.00925124 -10.93308027 38.95470149 -8.92437744 41.57928467 C-6.05251486 43.81552101 -4.5875821 43.89417885 -0.97827148 43.90576172 C0.14969849 43.91837036 1.27766846 43.930979 2.43981934 43.94396973 C3.6534314 43.9358728 4.86704346 43.92777588 6.11743164 43.91943359 C7.36745972 43.9232605 8.61748779 43.9270874 9.90539551 43.93103027 C12.54874069 43.93375274 15.1906065 43.92838313 17.83374023 43.90966797 C21.21685655 43.88687713 24.59870361 43.90000342 27.98177338 43.92395782 C31.21453797 43.94191043 34.44715046 43.92933061 37.67993164 43.91943359 C39.50034973 43.93157898 39.50034973 43.93157898 41.35754395 43.94396973 C42.48551392 43.93136108 43.61348389 43.91875244 44.77563477 43.90576172 C45.76728638 43.90257935 46.75893799 43.89939697 47.78063965 43.89611816 C51.13945121 43.24446456 52.3286668 42.06747731 54.39868164 39.38818359 C55.01474874 35.97552429 55.01474874 35.97552429 54.92993164 32.13818359 C54.93375854 31.44305664 54.93758545 30.74792969 54.94152832 30.03173828 C54.94424344 28.56590319 54.93690999 27.10001932 54.92016602 25.63427734 C54.89874583 23.39489384 54.91997607 21.15871773 54.94555664 18.91943359 C54.94291329 17.4923432 54.93778814 16.06525481 54.92993164 14.63818359 C54.92541992 13.34396484 54.9209082 12.04974609 54.91625977 10.71630859 C54.29943954 6.75003815 53.51843944 5.82084265 50.39868164 3.38818359 C47.62141561 2.81185256 47.62141561 2.81185256 44.52856445 2.93408203 C42.75718109 2.93453522 42.75718109 2.93453522 40.95001221 2.93499756 C39.04515045 2.96596527 39.04515045 2.96596527 37.10180664 2.99755859 C35.79789978 3.00321838 34.49399292 3.00887817 33.15057373 3.01470947 C29.69135641 3.02995021 26.23281558 3.06921697 22.77386475 3.11352539 C19.24134471 3.15451273 15.7087149 3.17272778 12.17602539 3.19287109 C5.24996702 3.23571391 -1.67564316 3.30394544 -8.60131836 3.38818359 C-6.02910621 0.08715354 -4.08033107 0.00962682 0 0 Z " fill="#79BBEA" transform="translate(129.601318359375,70.61181640625)"/>
<path d="M0 0 C1.31613281 -0.02578125 2.63226562 -0.0515625 3.98828125 -0.078125 C7.83880658 0.26342107 9.67804026 0.88263279 12.6875 3.25 C14.9771944 7.8293888 14.87425897 11.32038581 13.6875 16.25 C12.13675699 18.92810857 11.22751677 20.04638712 8.3046875 21.1484375 C2.09939207 22.22685067 -3.40214235 22.80052778 -9.3125 20.25 C-12.06237902 18.03668274 -13.08338664 16.57885751 -13.68359375 13.09765625 C-13.90950461 8.98334033 -13.65814553 6.80303285 -11.4375 3.25 C-7.81685155 -0.15766913 -4.75674043 0.03627638 0 0 Z " fill="#131313" transform="translate(515.3125,4.75)"/>
<path d="M0 0 C0.86883706 1.57533086 1.71959068 3.16064509 2.5625 4.75 C3.03816406 5.63171875 3.51382813 6.5134375 4.00390625 7.421875 C5.09545232 10.24705305 5.09775405 11.24061823 4 14 C3.67 14.66 3.34 15.32 3 16 C3.66 16.33 4.32 16.66 5 17 C4.505 17.680625 4.01 18.36125 3.5 19.0625 C1.46942665 22.48931969 1.46942665 22.48931969 2 29 C15.86 29.495 15.86 29.495 30 30 C30.66 31.32 31.32 32.64 32 34 C12.2 33.505 12.2 33.505 -8 33 C-7.34 31.68 -6.68 30.36 -6 29 C-5.06948964 21.20731909 -5.06948964 21.20731909 -8 14.3125 C-8.66 13.549375 -9.32 12.78625 -10 12 C-10.62916952 8.88755963 -10.69371196 6.10376298 -10 3 C-6.7589268 -0.05586901 -4.28722454 -0.10808129 0 0 Z " fill="#157DC8" transform="translate(152,38)"/>
<path d="M0 0 C-0.04125 1.0725 -0.0825 2.145 -0.125 3.25 C-0.01142928 6.65712165 0.10464685 8.26226767 2 11 C2.66 11.33 3.32 11.66 4 12 C4.82283363 14.6538645 5.40827871 17.3340466 6.0234375 20.04296875 C7.30292653 23.91726153 8.13330214 25.99992568 11 29 C15.22387338 29.91476217 19.41215856 29.78890962 23.71875 29.734375 C24.96877808 29.74333801 26.21880615 29.75230103 27.50671387 29.76153564 C30.82669741 29.78158548 34.14467738 29.77704365 37.46453857 29.75897217 C42.14084125 29.73835936 46.81702602 29.75788668 51.49328613 29.78131104 C53.98179145 29.79153579 56.47038064 29.78975056 58.9588623 29.77484131 C60.65081726 29.77559662 60.65081726 29.77559662 62.37695312 29.77636719 C63.86443054 29.76920685 63.86443054 29.76920685 65.38195801 29.76190186 C68.06979693 30.00634769 69.70209083 30.62559338 72 32 C70.28561988 33.71438012 68.03119313 33.15403914 65.68920898 33.17700195 C63.98624916 33.19625481 63.98624916 33.19625481 62.24888611 33.21589661 C61.01046463 33.22328354 59.77204315 33.23067047 58.49609375 33.23828125 C57.22911148 33.246353 55.96212921 33.25442474 54.65675354 33.26274109 C51.96571172 33.27660695 49.27479342 33.28761438 46.58374023 33.29516602 C43.15287101 33.30617826 39.72265981 33.340507 36.29202175 33.38033772 C33.0059448 33.41295053 29.71980785 33.4172976 26.43359375 33.42578125 C25.20934189 33.44328934 23.98509003 33.46079742 22.72373962 33.47883606 C15.66117942 33.46098354 10.97593025 32.86532934 5 29 C1.8835955 25.57195504 0.78212644 23.17089124 0.75 18.625 C0.8325 17.42875 0.915 16.2325 1 15 C-0.11375 14.71125 -1.2275 14.4225 -2.375 14.125 C-6 13 -6 13 -8 11 C-8.56005895 3.94325718 -8.56005895 3.94325718 -6.8125 1 C-4.44004321 -0.30894168 -2.6664882 -0.21620175 0 0 Z " fill="#4078A1" transform="translate(110,88)"/>
<path d="M0 0 C0.33 0.66 0.66 1.32 1 2 C1.66 2 2.32 2 3 2 C3.08636719 2.59167969 3.17273438 3.18335937 3.26171875 3.79296875 C4.2782929 9.51003255 5.65737981 11.98307632 10 16 C11.38855075 19.09268121 12.15568729 21.01398052 11.625 24.375 C11.41875 24.91125 11.2125 25.4475 11 26 C9.35 26.33 7.7 26.66 6 27 C6.061875 28.19625 6.12375 29.3925 6.1875 30.625 C6.20943937 34.73497595 5.13130434 37.4478261 3 41 C2.34 41 1.68 41 1 41 C1 41.66 1 42.32 1 43 C0.34 43 -0.32 43 -1 43 C-1.495 41.515 -1.495 41.515 -2 40 C-1.67 39.34 -1.34 38.68 -1 38 C-0.84293669 35.15791974 -0.7415043 32.33662693 -0.68359375 29.4921875 C-0.66281265 28.65156769 -0.64203156 27.81094788 -0.62062073 26.94485474 C-0.55514561 24.25498765 -0.4962498 21.56502157 -0.4375 18.875 C-0.39431284 17.05337511 -0.35069848 15.23176029 -0.30664062 13.41015625 C-0.19946632 8.94020606 -0.09819315 4.47015614 0 0 Z " fill="#3C90CC" transform="translate(186,76)"/>
<path d="M0 0 C3.5 0.6875 3.5 0.6875 6.5 3.3125 C8.5 6.6875 8.5 6.6875 8.5625 9.8125 C7.34884955 13.09649535 6.29550869 14.59086848 3.5 16.6875 C1.0625 17.625 1.0625 17.625 -1.5 17.6875 C-4.98634601 16.06594371 -6.34302194 14.92296708 -8.5 11.6875 C-9.11420709 7.65128195 -8.84355123 6.16638959 -6.4375 2.8125 C-3.5 0.6875 -3.5 0.6875 0 0 Z " fill="#7CB8E4" transform="translate(134.5,85.3125)"/>
<path d="M0 0 C3.2883921 2.71292348 3.90851499 4.34816929 4.5 8.5625 C4 12 4 12 2.3125 14.375 C-0.31196417 16.21921807 -1.78929947 16.92169023 -5 17 C-8.1098704 15.6671984 -9.7668208 14.27831066 -11.9375 11.6875 C-13 9 -13 9 -12.375 5.875 C-9.60640672 0.08612313 -6.52694049 -1.37893109 0 0 Z " fill="#60B6F3" transform="translate(173,86)"/>
<path d="M0 0 C1.14806625 -0.00945648 2.29613251 -0.01891296 3.47898865 -0.02865601 C5.33995934 -0.01954697 5.33995934 -0.01954697 7.23852539 -0.01025391 C9.14898399 -0.01455917 9.14898399 -0.01455917 11.09803772 -0.01895142 C13.79418387 -0.0209949 16.48951673 -0.01694972 19.18554688 -0.00292969 C22.6368767 0.01414554 26.08750578 0.00433174 29.53880978 -0.01364708 C32.83457322 -0.02711344 36.13025279 -0.01767544 39.42602539 -0.01025391 C40.66464828 -0.0163266 41.90327118 -0.02239929 43.1794281 -0.02865601 C44.33064651 -0.01919952 45.48186493 -0.00974304 46.66796875 0 C48.18661781 0.00358017 48.18661781 0.00358017 49.73594666 0.00723267 C52.83841357 0.45109496 54.21889035 1.14988431 56.39868164 3.38818359 C56.75387401 6.38306635 56.86495656 9.0046135 56.78930664 11.99365234 C56.78364685 12.83285721 56.77798706 13.67206207 56.77215576 14.53669739 C56.74976571 17.21693992 56.69956617 19.89584522 56.64868164 22.57568359 C56.62861996 24.39272158 56.61036861 26.20978052 56.59399414 28.02685547 C56.5498925 32.48114671 56.48084823 36.93443845 56.39868164 41.38818359 C55.73868164 41.38818359 55.07868164 41.38818359 54.39868164 41.38818359 C54.41962891 40.37916992 54.44057617 39.37015625 54.4621582 38.33056641 C54.53464949 34.58103673 54.58051384 30.83156877 54.6184082 27.08154297 C54.63850308 25.45969216 54.66578418 23.83791362 54.70043945 22.21630859 C54.74905434 19.88279379 54.77167053 17.55023802 54.78930664 15.21630859 C54.80995178 14.49324524 54.83059692 13.77018188 54.85186768 13.02520752 C54.85331027 9.77638538 54.72552978 7.81999486 52.73718262 5.19311523 C49.78472604 2.91431256 48.22980019 2.90244754 44.52856445 2.93408203 C42.75718109 2.93453522 42.75718109 2.93453522 40.95001221 2.93499756 C39.04515045 2.96596527 39.04515045 2.96596527 37.10180664 2.99755859 C35.79789978 3.00321838 34.49399292 3.00887817 33.15057373 3.01470947 C29.69135641 3.02995021 26.23281558 3.06921697 22.77386475 3.11352539 C19.24134471 3.15451273 15.7087149 3.17272778 12.17602539 3.19287109 C5.24996702 3.23571391 -1.67564316 3.30394544 -8.60131836 3.38818359 C-6.02910621 0.08715354 -4.08033107 0.00962682 0 0 Z " fill="#B9D3E5" transform="translate(129.601318359375,70.61181640625)"/>
<path d="M0 0 C0.33 0 0.66 0 1 0 C1.10957031 0.61488281 1.21914062 1.22976562 1.33203125 1.86328125 C1.49058594 2.67152344 1.64914063 3.47976562 1.8125 4.3125 C1.96332031 5.11300781 2.11414063 5.91351563 2.26953125 6.73828125 C2.81323985 9.06840364 2.81323985 9.06840364 4.5625 10.40625 C6.7655438 12.84875508 6.29092752 14.98124695 6.1875 18.1875 C6.14689453 19.81751953 6.14689453 19.81751953 6.10546875 21.48046875 C6.07066406 22.31191406 6.03585938 23.14335938 6 24 C2.94329382 25.76955659 0.74338736 26.24000755 -2.7734375 26.23828125 C-3.6809375 26.25439453 -4.5884375 26.27050781 -5.5234375 26.28710938 C-7.41659878 26.30396629 -9.30989996 26.30927175 -11.203125 26.30273438 C-17.70294937 26.4454359 -20.35615699 27.47836338 -25 32 C-25.99 32 -26.98 32 -28 32 C-26.27592413 27.61144323 -23.17026127 25.08513063 -19 23 C-17.18658158 22.91528636 -15.37005839 22.89278917 -13.5546875 22.90234375 C-11.94013672 22.90717773 -11.94013672 22.90717773 -10.29296875 22.91210938 C-9.16503906 22.92048828 -8.03710938 22.92886719 -6.875 22.9375 C-5.73933594 22.94201172 -4.60367188 22.94652344 -3.43359375 22.95117188 C-0.62234362 22.96298385 2.1888023 22.97945493 5 23 C4.88743137 21.38720543 4.76110041 19.77536716 4.62890625 18.1640625 C4.52557983 16.81755615 4.52557983 16.81755615 4.42016602 15.44384766 C3.85739159 12.17053446 2.06986884 10.53725858 0 8 C-0.3480253 5.24176966 -0.1894662 2.7946264 0 0 Z " fill="#78BAEA" transform="translate(141,43)"/>
<path d="M0 0 C0.66 0 1.32 0 2 0 C2.12117187 0.62648437 2.24234375 1.25296875 2.3671875 1.8984375 C2.53476563 2.71570312 2.70234375 3.53296875 2.875 4.375 C3.03742188 5.18710937 3.19984375 5.99921875 3.3671875 6.8359375 C3.86658932 9.18673923 3.86658932 9.18673923 6 11 C6.29136369 14.14967841 6.41495326 17.25410486 6.47851562 20.4140625 C6.66375002 25.00426117 7.0863219 26.11509586 10 30 C6.7 30 3.4 30 0 30 C0.66 28.68 1.32 27.36 2 26 C2.62983868 20.67566604 3.17959562 15.65880634 0 11.1875 C-0.66 10.465625 -1.32 9.74375 -2 9 C-2.375 5.3125 -2.375 5.3125 -2 2 C-1.34 1.34 -0.68 0.68 0 0 Z " fill="#094E81" transform="translate(144,41)"/>
<path d="M0 0 C0.99 0 1.98 0 3 0 C3.86883706 1.57533086 4.71959068 3.16064509 5.5625 4.75 C6.03816406 5.63171875 6.51382813 6.5134375 7.00390625 7.421875 C8.09545232 10.24705305 8.09775405 11.24061823 7 14 C6.67 14.66 6.34 15.32 6 16 C6.66 16.33 7.32 16.66 8 17 C7.525625 17.70125 7.05125 18.4025 6.5625 19.125 C4.91260143 22.16081337 4.39631536 24.59168786 4 28 C3.34 28 2.68 28 2 28 C1.93941406 26.86820313 1.87882813 25.73640625 1.81640625 24.5703125 C1.73200083 23.08852855 1.64735283 21.6067584 1.5625 20.125 C1.50352539 19.00544922 1.50352539 19.00544922 1.44335938 17.86328125 C1.28426376 13.80013136 1.28426376 13.80013136 0 10 C-0.06996014 8.29297265 -0.08440154 6.58331997 -0.0625 4.875 C-0.05347656 3.96492188 -0.04445312 3.05484375 -0.03515625 2.1171875 C-0.02355469 1.41851562 -0.01195312 0.71984375 0 0 Z " fill="#0A8CEB" transform="translate(149,38)"/>
<path d="M0 0 C0.66 0 1.32 0 2 0 C1.67 0.99 1.34 1.98 1 3 C0.899594 4.52252218 0.85384995 6.0489712 0.84178162 7.57475281 C0.8319928 8.5128479 0.82220398 9.45094299 0.81211853 10.41746521 C0.80636307 11.44461136 0.8006076 12.47175751 0.79467773 13.5300293 C0.78477814 14.61311371 0.77487854 15.69619812 0.76467896 16.81210327 C0.73303945 20.3994527 0.70829674 23.98681539 0.68359375 27.57421875 C0.66302635 30.05858203 0.64202993 32.5429418 0.62062073 35.02729797 C0.57102732 40.90268324 0.52576769 46.77808945 0.48259836 52.65352517 C0.42836417 59.99887146 0.36741788 67.3441583 0.30664062 74.68945312 C0.19903214 87.79292909 0.09740657 100.89644443 0 114 C-0.33 114 -0.66 114 -1 114 C-1.02332994 99.28390435 -1.04097964 84.56781115 -1.05181217 69.85170078 C-1.05697493 63.01921026 -1.06401723 56.18673121 -1.07543945 49.35424805 C-1.08644707 42.76664695 -1.09227623 36.17905469 -1.09487724 29.59144402 C-1.096732 27.07191721 -1.10035357 24.55239109 -1.10573006 22.03286934 C-1.11293676 18.51742235 -1.1139911 15.00202539 -1.11352539 11.48657227 C-1.11712067 10.43353409 -1.12071594 9.38049591 -1.12442017 8.29554749 C-1.12235817 6.86728638 -1.12235817 6.86728638 -1.12025452 5.41017151 C-1.12117631 4.57779244 -1.1220981 3.74541338 -1.12304783 2.88781071 C-1 1 -1 1 0 0 Z " fill="#545454" transform="translate(373,4)"/>
<path d="M0 0 C0.66 0 1.32 0 2 0 C1.67 0.99 1.34 1.98 1 3 C0.899594 4.52252218 0.85384995 6.0489712 0.84178162 7.57475281 C0.8319928 8.5128479 0.82220398 9.45094299 0.81211853 10.41746521 C0.80636307 11.44461136 0.8006076 12.47175751 0.79467773 13.5300293 C0.78477814 14.61311371 0.77487854 15.69619812 0.76467896 16.81210327 C0.73303945 20.3994527 0.70829674 23.98681539 0.68359375 27.57421875 C0.66302635 30.05858203 0.64202993 32.5429418 0.62062073 35.02729797 C0.57102732 40.90268324 0.52576769 46.77808945 0.48259836 52.65352517 C0.42836417 59.99887146 0.36741788 67.3441583 0.30664062 74.68945312 C0.19903214 87.79292909 0.09740657 100.89644443 0 114 C-0.33 114 -0.66 114 -1 114 C-1.02332994 99.28390435 -1.04097964 84.56781115 -1.05181217 69.85170078 C-1.05697493 63.01921026 -1.06401723 56.18673121 -1.07543945 49.35424805 C-1.08644707 42.76664695 -1.09227623 36.17905469 -1.09487724 29.59144402 C-1.096732 27.07191721 -1.10035357 24.55239109 -1.10573006 22.03286934 C-1.11293676 18.51742235 -1.1139911 15.00202539 -1.11352539 11.48657227 C-1.11712067 10.43353409 -1.12071594 9.38049591 -1.12442017 8.29554749 C-1.12235817 6.86728638 -1.12235817 6.86728638 -1.12025452 5.41017151 C-1.12117631 4.57779244 -1.1220981 3.74541338 -1.12304783 2.88781071 C-1 1 -1 1 0 0 Z " fill="#545454" transform="translate(413,4)"/>
<path d="M0 0 C7.75957454 -0.05066736 15.51910648 -0.08571984 23.27880859 -0.10986328 C25.91912429 -0.11992719 28.55942883 -0.13357952 31.19970703 -0.15087891 C34.99254103 -0.17510971 38.78522779 -0.18647923 42.578125 -0.1953125 C44.35174408 -0.21079636 44.35174408 -0.21079636 46.16119385 -0.22659302 C47.26203308 -0.22674408 48.36287231 -0.22689514 49.49707031 -0.22705078 C50.46525696 -0.231492 51.4334436 -0.23593323 52.43096924 -0.24050903 C55.08981662 0.0084085 56.72274387 0.64441446 59 2 C55.43803894 2.82211874 52.21824162 3.10015316 48.56713867 3.02172852 C47.50641647 3.00163223 46.44569427 2.98153595 45.35282898 2.96083069 C44.2193251 2.93379562 43.08582123 2.90676056 41.91796875 2.87890625 C40.74865311 2.85529526 39.57933746 2.83168427 38.37458801 2.80735779 C34.64543035 2.73087814 30.91648859 2.64678585 27.1875 2.5625 C24.65691155 2.50926363 22.12631262 2.45652334 19.59570312 2.40429688 C13.39700228 2.27528418 7.19846137 2.14002339 1 2 C0.67 1.34 0.34 0.68 0 0 Z " fill="#0E8AE3" transform="translate(123,118)"/>
<path d="M0 0 C1.38126111 2.4665377 2.15888685 4.61284929 2.875 7.375 C4.47165204 12.51976767 6.49540804 15.9969387 11 19 C13.44368974 19.32783829 13.44368974 19.32783829 16.20581055 19.31884766 C17.26668381 19.33871735 18.32755707 19.35858704 19.420578 19.37905884 C21.13631767 19.39638565 21.13631767 19.39638565 22.88671875 19.4140625 C24.05886429 19.43342865 25.23100983 19.4527948 26.43867493 19.4727478 C30.1882089 19.53260197 33.93777348 19.57895283 37.6875 19.625 C40.22722705 19.66317436 42.76694107 19.70222576 45.30664062 19.7421875 C51.53764497 19.83830835 57.76872751 19.92333885 64 20 C64 20.33 64 20.66 64 21 C56.45617231 21.1017192 48.9125226 21.17159975 41.36816406 21.21972656 C38.8036437 21.23979728 36.23916885 21.26706001 33.67480469 21.30175781 C29.98100529 21.35047355 26.28781291 21.37301513 22.59375 21.390625 C20.8839093 21.42159271 20.8839093 21.42159271 19.13952637 21.45318604 C12.82807903 21.45495078 7.04446047 21.20289742 2 17 C0.79138184 14.86090088 0.79138184 14.86090088 0 13 C0.66 13 1.32 13 2 13 C1.67 12.34 1.34 11.68 1 11 C-0.28687011 7.13938967 -0.13757618 4.05849717 0 0 Z " fill="#0D70B9" transform="translate(113,100)"/>
<path d="M0 0 C0.66 0.33 1.32 0.66 2 1 C1.34 1.99 0.68 2.98 0 4 C-1.96777344 4.35302734 -1.96777344 4.35302734 -4.359375 4.3359375 C-5.66261719 4.35527344 -5.66261719 4.35527344 -6.9921875 4.375 C-8.81512091 4.375 -10.63807222 4.36732214 -12.4609375 4.3515625 C-16.71123097 4.42678893 -20.00250346 4.49498472 -23.4609375 7.14453125 C-26.12041129 10.13541639 -27.47987613 12.578492 -28.875 16.3125 C-29.28492187 17.38113281 -29.69484375 18.44976562 -30.1171875 19.55078125 C-30.55417969 20.76314453 -30.55417969 20.76314453 -31 22 C-31.33 22 -31.66 22 -32 22 C-32.40025688 10.54820583 -32.40025688 10.54820583 -30 7 C-25.71145309 3.9618487 -21.70118859 1.91194651 -16.46484375 1.71875 C-15.57345703 1.68136719 -14.68207031 1.64398438 -13.76367188 1.60546875 C-11.87565647 1.53501068 -9.9876356 1.46469878 -8.09960938 1.39453125 C-7.20951172 1.35714844 -6.31941406 1.31976563 -5.40234375 1.28125 C-4.17245728 1.23581055 -4.17245728 1.23581055 -2.91772461 1.18945312 C-0.99254576 1.20393384 -0.99254576 1.20393384 0 0 Z " fill="#158ADF" transform="translate(144,67)"/>
<path d="M0 0 C2.34918977 2.34918977 2.41011715 3.35299868 2.9375 6.5625 C3.71892269 10.91704093 4.90850752 14.87398614 6.51171875 18.9921875 C7.09779113 21.40211711 6.97122419 22.72230672 6 25 C5.01 25.33 4.02 25.66 3 26 C2.67 27.65 2.34 29.3 2 31 C1.67 31 1.34 31 1 31 C0.67 20.77 0.34 10.54 0 0 Z " fill="#05558F" transform="translate(186,76)"/>
<path d="M0 0 C0.66 0.33 1.32 0.66 2 1 C1.02659668 1.6801416 0.05319336 2.3602832 -0.94970703 3.06103516 C-5.11349779 7.264602 -4.78952694 12.13898668 -4.83224487 17.74252319 C-4.8236966 19.16949859 -4.81449569 20.59647021 -4.8046875 22.0234375 C-4.81594588 23.49462046 -4.82983013 24.96578545 -4.84622192 26.43692017 C-4.88218579 30.29386172 -4.88264319 34.15000943 -4.87554932 38.00708008 C-4.87463489 41.94887396 -4.90751635 45.89037273 -4.9375 49.83203125 C-4.99129218 57.55479283 -5.0075527 65.27702883 -5 73 C-5.33 73 -5.66 73 -6 73 C-6.11594308 64.35075167 -6.20473943 55.70177157 -6.25906086 47.05191517 C-6.28513507 43.03522572 -6.32049178 39.01906862 -6.37719727 35.00268555 C-6.43159709 31.12526419 -6.46143691 27.24835425 -6.47438622 23.37058067 C-6.48361202 21.89256426 -6.50162858 20.41457529 -6.52865028 18.93677711 C-6.56505088 16.86324626 -6.56994139 14.79181746 -6.56762695 12.71801758 C-6.57873001 11.53887283 -6.58983307 10.35972809 -6.60127258 9.14485168 C-5.82549645 5.08728954 -4.09844271 3.62712155 -1 1 C-0.67 0.67 -0.34 0.34 0 0 Z " fill="#545454" transform="translate(26,45)"/>
<path d="M0 0 C0.66 0 1.32 0 2 0 C2.33 1.98 2.66 3.96 3 6 C3.99 6.33 4.98 6.66 6 7 C7.1875 10.0625 7.1875 10.0625 8 13 C1.69181722 13.35706695 1.69181722 13.35706695 -0.9375 12 C-2.71953537 8.64558048 -2.29858742 5.76220155 -2 2 C-1.34 1.34 -0.68 0.68 0 0 Z " fill="#064F84" transform="translate(130,88)"/>
<path d="M0 0 C1.49893291 2.99786582 1.07331792 5.71609662 1.02734375 9.0546875 C1.01469472 10.48827881 1.00233396 11.92187269 0.99023438 13.35546875 C0.965436 15.61580388 0.93748512 17.87600593 0.90405273 20.13623047 C0.87379193 22.31739132 0.85605562 24.49838327 0.83984375 26.6796875 C0.82300537 27.98663574 0.80616699 29.29358398 0.78881836 30.64013672 C0.98461032 33.75515287 1.3394633 35.41275688 3 38 C2.01 38 1.02 38 0 38 C-2.49095696 34.26356456 -2.25791662 32.27455265 -2.265625 27.8125 C-2.26753845 27.11358643 -2.2694519 26.41467285 -2.27142334 25.69458008 C-2.27278283 24.21858357 -2.26910282 22.74257502 -2.26074219 21.26660156 C-2.25003882 19.00819016 -2.2606449 16.75057418 -2.2734375 14.4921875 C-2.27211586 13.05728991 -2.26955338 11.62239282 -2.265625 10.1875 C-2.26224121 8.22876953 -2.26224121 8.22876953 -2.25878906 6.23046875 C-2 3 -2 3 0 0 Z " fill="#AAD7F8" transform="translate(118,76)"/>
<path d="M0 0 C2 0 2 0 4.4375 2.3125 C5.283125 3.199375 6.12875 4.08625 7 5 C7.598125 5.598125 8.19625 6.19625 8.8125 6.8125 C9.204375 7.204375 9.59625 7.59625 10 8 C9.67 8.99 9.34 9.98 9 11 C7.52031676 10.85950482 6.04125484 10.71245174 4.5625 10.5625 C3.73878906 10.48128906 2.91507813 10.40007812 2.06640625 10.31640625 C0 10 0 10 -1 9 C-1.1328125 7.1875 -1.1328125 7.1875 -1.125 5 C-1.12757813 4.278125 -1.13015625 3.55625 -1.1328125 2.8125 C-1 1 -1 1 0 0 Z " fill="#10609B" transform="translate(163,90)"/>
<path d="M0 0 C0.28875 1.093125 0.5775 2.18625 0.875 3.3125 C1.81893204 7.04013845 1.81893204 7.04013845 4 10 C3.625 12.6875 3.625 12.6875 3 15 C0.08517222 15.80967438 -1.46113217 16.21845993 -4.3125 15.0625 C-4.869375 14.711875 -5.42625 14.36125 -6 14 C-3.29120665 12.64560332 -0.99066732 12.93498549 2 13 C0.49961812 9.18084612 -1.83265418 7.50053617 -5 5 C-5 4.34 -5 3.68 -5 3 C-5.99 3.495 -5.99 3.495 -7 4 C-7.40729228 6.32156597 -7.74438677 8.6568787 -8 11 C-8.66 10.01 -9.32 9.02 -10 8 C-9.32693773 4.7019949 -8.89499806 2.65633191 -6.125 0.625 C-4 0 -4 0 0 0 Z " fill="#5CAFEC" transform="translate(170,87)"/>
<path d="M0 0 C4.96682232 -0.29216602 8.10349334 -0.24708889 12 3 C14.45088533 6.59463182 15.02773223 8.43611137 14.8125 12.8125 C14.544375 13.864375 14.27625 14.91625 14 16 C13.34 16.33 12.68 16.66 12 17 C11.5978125 15.63875 11.5978125 15.63875 11.1875 14.25 C10.20986687 11.05713954 10.20986687 11.05713954 8.4375 9 C6.57767338 6.41241514 6.35536009 4.12716875 6 1 C4.02 1 2.04 1 0 1 C0 0.67 0 0.34 0 0 Z " fill="#98CFF7" transform="translate(148,36)"/>
<path d="M0 0 C0.33 0 0.66 0 1 0 C1.08636719 0.59167969 1.17273438 1.18335937 1.26171875 1.79296875 C2.2782929 7.51003255 3.65737981 9.98307632 8 14 C10.27586207 19.17241379 10.27586207 19.17241379 9 23 C7.35 23 5.7 23 4 23 C3.96261719 22.41992188 3.92523438 21.83984375 3.88671875 21.2421875 C3.55814211 17.33792391 3.2397948 14.46999781 1.4375 10.9375 C-0.47521609 7.02890625 -0.22313866 4.31401408 0 0 Z " fill="#2096EB" transform="translate(188,78)"/>
<path d="M0 0 C9.24 0 18.48 0 28 0 C28.66 1.32 29.32 2.64 30 4 C28.94002808 3.76228882 28.94002808 3.76228882 27.85864258 3.51977539 C24.95824766 2.99240834 22.2061873 2.7938145 19.26171875 2.68359375 C18.19501953 2.64169922 17.12832031 2.59980469 16.02929688 2.55664062 C14.92650391 2.51732422 13.82371094 2.47800781 12.6875 2.4375 C11.00430664 2.37272461 11.00430664 2.37272461 9.28710938 2.30664062 C6.52485431 2.20085213 3.7625137 2.09876328 1 2 C0.67 1.34 0.34 0.68 0 0 Z " fill="#1691EA" transform="translate(154,68)"/>
<path d="M0 0 C1.9453125 -0.29296875 1.9453125 -0.29296875 4.125 -0.1875 C5.40375 -0.125625 6.6825 -0.06375 8 0 C8.433125 1.0725 8.86625 2.145 9.3125 3.25 C10.28097575 5.55128286 11.0894841 7.10936945 12.6875 9.0625 C14.50160454 11.74046384 14.21524545 13.84306671 14 17 C13.01 17.33 12.02 17.66 11 18 C10.34 17.67 9.68 17.34 9 17 C9.2475 16.154375 9.495 15.30875 9.75 14.4375 C10.093134 9.71940744 8.47401441 7.97341709 6 4 C6 3.01 6 2.02 6 1 C3.36 1.66 0.72 2.32 -2 3 C-1.34 2.01 -0.68 1.02 0 0 Z " fill="#52AEF1" transform="translate(146,37)"/>
<path d="M0 0 C0.99 0.66 1.98 1.32 3 2 C3.30662223 4.51784026 3.46656046 6.85270318 3.5 9.375 C3.56782512 14.43281578 3.78244393 16.70992524 7 21 C3.7 21 0.4 21 -3 21 C-1 17 -1 17 0.11328125 15.06640625 C1.19004607 12.5571173 1.23265449 10.65908404 1.1875 7.9375 C1.18105469 7.08027344 1.17460937 6.22304688 1.16796875 5.33984375 C1.08590034 2.84522032 1.08590034 2.84522032 0 0 Z " fill="#055E9E" transform="translate(147,50)"/>
<path d="M0 0 C2.52940738 3.13164723 4.44920018 6.27808042 6 10 C5.73153611 12.41617501 5.08220255 13.8355949 4 16 C4.66 16.33 5.32 16.66 6 17 C5.525625 17.70125 5.05125 18.4025 4.5625 19.125 C2.91260143 22.16081337 2.39631536 24.59168786 2 28 C1.67 28 1.34 28 1 28 C0.87688293 21.69367031 1.16605291 15.60659144 1.9765625 9.34765625 C2.22305067 6.7246823 2.22305067 6.7246823 0 4 C0 2.68 0 1.36 0 0 Z " fill="#249AF0" transform="translate(151,38)"/>
<path d="M0 0 C1.61631559 4.57559929 0.72380153 9.33997377 0.31640625 14.06835938 C0.02062337 17.91714387 0.00408181 21.25798385 1 25 C-0.70840281 23.36587557 -1.93453047 22.13093906 -3 20 C-3.039992 18.00039988 -3.04346799 15.99952758 -3 14 C-6.60992379 14.65585189 -6.60992379 14.65585189 -10 16 C-9.4375 14.0625 -9.4375 14.0625 -8 12 C-4.375 11.25 -4.375 11.25 -1 11 C-1.01160156 10.37351562 -1.02320312 9.74703125 -1.03515625 9.1015625 C-1.04417969 8.28429687 -1.05320312 7.46703125 -1.0625 6.625 C-1.07410156 5.81289062 -1.08570312 5.00078125 -1.09765625 4.1640625 C-1 2 -1 2 0 0 Z " fill="#66B1E7" transform="translate(112,75)"/>
<path d="M0 0 C1.36618676 2.43961922 2.15498037 4.58671141 2.875 7.3125 C4.11652965 11.38195829 5.78743308 14.38614069 8 18 C3.48279689 18.36625971 3.48279689 18.36625971 1.1875 16.625 C0 15 0 15 0 13 C0.66 13 1.32 13 2 13 C1.67 12.34 1.34 11.68 1 11 C-0.28687011 7.13938967 -0.13757618 4.05849717 0 0 Z " fill="#207DC1" transform="translate(113,100)"/>
<path d="M0 0 C0.33 0 0.66 0 1 0 C1 3.96 1 7.92 1 12 C1.99 12.33 2.98 12.66 4 13 C4.33 13.66 4.66 14.32 5 15 C12.92 15.33 20.84 15.66 29 16 C29 16.33 29 16.66 29 17 C24.9169058 17.11614929 20.83423623 17.18723457 16.75 17.25 C15.59113281 17.28351563 14.43226563 17.31703125 13.23828125 17.3515625 C12.12324219 17.36445312 11.00820312 17.37734375 9.859375 17.390625 C8.83295898 17.41157227 7.80654297 17.43251953 6.74902344 17.45410156 C3.26869931 16.879199 2.1133965 15.77554429 0 13 C-0.390625 9.765625 -0.390625 9.765625 -0.25 6.25 C-0.21390625 5.07953125 -0.1778125 3.9090625 -0.140625 2.703125 C-0.09421875 1.81109375 -0.0478125 0.9190625 0 0 Z " fill="#0672C1" transform="translate(150,54)"/>
<path d="M0 0 C1.4540625 0.0309375 1.4540625 0.0309375 2.9375 0.0625 C2.2775 0.7225 1.6175 1.3825 0.9375 2.0625 C-0.0525 2.0625 -1.0425 2.0625 -2.0625 2.0625 C-2.000625 3.25875 -1.93875 4.455 -1.875 5.6875 C-1.85306063 9.79747595 -2.93119566 12.5103261 -5.0625 16.0625 C-5.7225 15.7325 -6.3825 15.4025 -7.0625 15.0625 C-6.5878725 12.7490641 -6.10767721 10.43676981 -5.625 8.125 C-5.35816406 6.83722656 -5.09132812 5.54945312 -4.81640625 4.22265625 C-3.8276592 0.07811549 -3.8276592 0.07811549 0 0 Z " fill="#8ECAF5" transform="translate(194.0625,100.9375)"/>
<path d="M0 0 C4.95274102 4.95274102 4.95274102 4.95274102 5.09765625 8.1640625 C5.08605469 8.97617188 5.07445312 9.78828125 5.0625 10.625 C5.05347656 11.44226563 5.04445312 12.25953125 5.03515625 13.1015625 C5.02355469 13.72804688 5.01195312 14.35453125 5 15 C6.65 15 8.3 15 10 15 C10 15.33 10 15.66 10 16 C7.69 16 5.38 16 3 16 C2.01 10.72 1.02 5.44 0 0 Z " fill="#97CFF7" transform="translate(187,71)"/>
<path d="M0 0 C3.1875 -0.375 3.1875 -0.375 7 0 C10 2.625 10 2.625 12 6 C11.8125 9.375 11.8125 9.375 11 12 C10.67 12 10.34 12 10 12 C10 10.35 10 8.7 10 7 C8.68 7 7.36 7 6 7 C5.67 5.02 5.34 3.04 5 1 C3.35 1 1.7 1 0 1 C0 0.67 0 0.34 0 0 Z " fill="#A5D5F8" transform="translate(131,86)"/>
<path d="M0 0 C0.66 0 1.32 0 2 0 C2.33 2.97 2.66 5.94 3 9 C3.66 9 4.32 9 5 9 C5 12.63 5 16.26 5 20 C4.67 20 4.34 20 4 20 C2.01302694 13.31427305 0.57021375 6.95660771 0 0 Z " fill="#35A2F1" transform="translate(111,89)"/>
<path d="M0 0 C0.66 0 1.32 0 2 0 C2.33 1.98 2.66 3.96 3 6 C3.99 6.33 4.98 6.66 6 7 C7.1875 10.0625 7.1875 10.0625 8 13 C7.34 13 6.68 13 6 13 C5.731875 12.195625 5.46375 11.39125 5.1875 10.5625 C4.795625 9.716875 4.40375 8.87125 4 8 C3.01 7.67 2.02 7.34 1 7 C0.6278958 5.67696283 0.29369827 4.34262065 0 3 C-0.66 2.67 -1.32 2.34 -2 2 C-1.34 1.34 -0.68 0.68 0 0 Z " fill="#0A75C2" transform="translate(130,88)"/>
<path d="M0 0 C3.29906522 0.09597281 3.95423613 0.29661981 6.625 2.5 C8.43354114 6.0417264 8.43288712 8.51193924 8.125 12.4375 C7.795 12.4375 7.465 12.4375 7.125 12.4375 C7.125 10.7875 7.125 9.1375 7.125 7.4375 C6.135 7.1075 5.145 6.7775 4.125 6.4375 C3.4375 4.375 3.4375 4.375 3.125 2.4375 C2.196875 2.4375 1.26875 2.4375 0.3125 2.4375 C-1.75 2.4375 -3.8125 2.4375 -5.875 2.4375 C-3.875 0.4375 -3.875 0.4375 0 0 Z " fill="#B6DCF7" transform="translate(168.875,85.5625)"/>
<path d="M0 0 C0.80050781 0.12761719 1.60101563 0.25523438 2.42578125 0.38671875 C3.23402344 0.50660156 4.04226562 0.62648438 4.875 0.75 C5.48988281 0.85699219 6.10476562 0.96398437 6.73828125 1.07421875 C6.13242188 1.20957031 5.5265625 1.34492187 4.90234375 1.484375 C1.21832874 2.48850184 -1.5814467 4.3939467 -4.26171875 7.07421875 C-5.25171875 7.07421875 -6.24171875 7.07421875 -7.26171875 7.07421875 C-4.15158819 0.13623519 -4.15158819 0.13623519 0 0 Z " fill="#44A0E3" transform="translate(120.26171875,67.92578125)"/>
<path d="M0 0 C3.73764507 1.86882253 5.23916443 6.34287996 7 10 C6.67 10.33 6.34 10.66 6 11 C4.35 11 2.7 11 1 11 C0.67 7.37 0.34 3.74 0 0 Z " fill="#0B87E1" transform="translate(191,90)"/>
<path d="M0 0 C3.15111212 2.52952288 3.58798017 4.76756266 4.1875 8.6875 C4.42533203 10.17830078 4.42533203 10.17830078 4.66796875 11.69921875 C4.77753906 12.45847656 4.88710937 13.21773437 5 14 C4.01 14.66 3.02 15.32 2 16 C2 12.04 2 8.08 2 4 C1.34 4 0.68 4 0 4 C0 2.68 0 1.36 0 0 Z " fill="#056DB7" transform="translate(188,86)"/>
<path d="M0 0 C0.33 2.31 0.66 4.62 1 7 C-1 5.625 -1 5.625 -3 4 C-3 3.34 -3 2.68 -3 2 C-3.99 2.495 -3.99 2.495 -5 3 C-5.40729228 5.32156597 -5.74438677 7.6568787 -6 10 C-6.66 9.01 -7.32 8.02 -8 7 C-7.3125 3.875 -7.3125 3.875 -6 1 C-3 0 -3 0 0 0 Z " fill="#529FD6" transform="translate(168,88)"/>
<path d="M0 0 C0.78375 0.04125 1.5675 0.0825 2.375 0.125 C2.375 3.095 2.375 6.065 2.375 9.125 C0.99937146 7.83534824 -0.33266393 6.49810707 -1.625 5.125 C-1.625 4.465 -1.625 3.805 -1.625 3.125 C-2.615 2.795 -3.605 2.465 -4.625 2.125 C-2.625 0.125 -2.625 0.125 0 0 Z " fill="#0873C1" transform="translate(107.625,87.875)"/>
<path d="M0 0 C0.66 0 1.32 0 2 0 C2.2475 0.7425 2.495 1.485 2.75 2.25 C4.09147301 5.20124062 5.60905526 6.84814974 8 9 C7.34 10.32 6.68 11.64 6 13 C5.54625 12.030625 5.0925 11.06125 4.625 10.0625 C3.34213779 6.92920418 3.34213779 6.92920418 1 6 C0.375 2.9375 0.375 2.9375 0 0 Z " fill="#1F96EC" transform="translate(132,88)"/>
<path d="M0 0 C0.66 0.33 1.32 0.66 2 1 C-0.97 3.97 -3.94 6.94 -7 10 C-7.66 9.67 -8.32 9.34 -9 9 C-6.21000549 5.51250686 -3.74764169 2.49842779 0 0 Z " fill="#696969" transform="translate(619,41)"/>
<path d="M0 0 C0.66 0.33 1.32 0.66 2 1 C-0.97 3.97 -3.94 6.94 -7 10 C-7.66 9.67 -8.32 9.34 -9 9 C-6.21000549 5.51250686 -3.74764169 2.49842779 0 0 Z " fill="#696969" transform="translate(301,41)"/>
<path d="M0 0 C4.75 0.75 4.75 0.75 7 3 C7 4.32 7 5.64 7 7 C6.34 7 5.68 7 5 7 C0 1.4047619 0 1.4047619 0 0 Z " fill="#5596C5" transform="translate(179,71)"/>
<path d="M0 0 C0.95465783 2.16967689 1.14401212 3.56328793 0.3984375 5.82421875 C-0.35870385 7.5684743 -1.17609198 9.28627131 -2 11 C-2.33 11 -2.66 11 -3 11 C-2.88590407 9.54077307 -2.75834456 8.08259402 -2.625 6.625 C-2.55539063 5.81289062 -2.48578125 5.00078125 -2.4140625 4.1640625 C-2 2 -2 2 0 0 Z " fill="#1472B6" transform="translate(115,73)"/>
<path d="M0 0 C1.98 0.99 1.98 0.99 4 2 C4 3.98 4 5.96 4 8 C3.01 8 2.02 8 1 8 C0.67 5.36 0.34 2.72 0 0 Z " fill="#59B2F3" transform="translate(196,92)"/>
<path d="M0 0 C0.66 0.33 1.32 0.66 2 1 C1.2884375 2.051875 1.2884375 2.051875 0.5625 3.125 C-1.08739857 6.16081337 -1.60368464 8.59168786 -2 12 C-2.33 12 -2.66 12 -3 12 C-3.08090971 10.37581255 -3.13914995 8.75048255 -3.1875 7.125 C-3.22230469 6.22007813 -3.25710937 5.31515625 -3.29296875 4.3828125 C-3.19628906 3.59648438 -3.09960938 2.81015625 -3 2 C-2.01 1.34 -1.02 0.68 0 0 Z " fill="#36A2F1" transform="translate(155,54)"/>
<path d="M0 0 C0.66 0.33 1.32 0.66 2 1 C1.38511719 1.59748047 1.38511719 1.59748047 0.7578125 2.20703125 C0.21898437 2.73683594 -0.31984375 3.26664063 -0.875 3.8125 C-1.40867187 4.33457031 -1.94234375 4.85664062 -2.4921875 5.39453125 C-4.20776561 7.13259904 -4.20776561 7.13259904 -6 10 C-5.72510809 5.96825194 -5.46508424 4.43105369 -2.4375 1.625 C-1.633125 1.08875 -0.82875 0.5525 0 0 Z " fill="#6B6B6B" transform="translate(26,45)"/>
<path d="M0 0 C1.32 0.33 2.64 0.66 4 1 C4.33 3.31 4.66 5.62 5 8 C2.74754119 5.31158141 1.11786042 3.35358125 0 0 Z " fill="#3AA4F0" transform="translate(183,70)"/>
</svg>
