<svg width="1440" height="339" viewBox="0 0 1440 339" fill="none" xmlns="http://www.w3.org/2000/svg">
<path d="M1416.14 4.27624L1404.95 1.81378M1416.14 4.27624H1382.99M1416.14 4.27624L1427.69 6.82002M1416.14 4.27624H1439.61M1404.95 1.81378L1409.02 1.81474L1413.05 1.82007L1416.99 1.83506L1420.81 1.86459L1424.47 1.9125L1427.92 1.98462L1431.12 2.08481L1434.1 2.21257L1436.65 2.38923L1438.97 2.59395L1439.61 2.66566V4.27624M1404.95 1.81378H1372.33M1372.33 1.81378H1339.72M1372.33 1.81378L1382.99 4.27624M1339.72 1.81378H1307.1M1339.72 1.81378L1349.84 4.27624M1307.1 1.81378H1274.48M1307.1 1.81378L1316.69 4.27624M1274.48 1.81378H1241.87M1274.48 1.81378L1283.54 4.27624M1241.87 1.81378H1209.25M1241.87 1.81378L1250.39 4.27624M1209.25 1.81378H1176.63M1209.25 1.81378L1217.24 4.27624M1176.63 1.81378H1144.02M1176.63 1.81378L1184.09 4.27624M1144.02 1.81378H1111.4M1144.02 1.81378L1150.94 4.27624M1111.4 1.81378H1078.78M1111.4 1.81378L1117.79 4.27624M1078.78 1.81378H1046.17M1078.78 1.81378L1084.64 4.27624M1046.17 1.81378H1013.55M1046.17 1.81378L1051.49 4.27624M1013.55 1.81378H980.933M1013.55 1.81378L1014.73 2.42213L1016.53 3.34315L1018.34 4.27624M980.933 1.81378H948.317M980.933 1.81378L981.985 2.42213L985.194 4.27624M948.317 1.81378H915.7M948.317 1.81378L952.045 4.27624M915.7 1.81378H883.083M915.7 1.81378L916.886 2.728L918.088 3.65288L918.491 3.96408L918.896 4.27624M883.083 1.81378H850.467M883.083 1.81378L884.072 2.728L884.404 3.03484L884.738 3.34315L885.747 4.27624M850.467 1.81378H817.85M850.467 1.81378L852.598 4.27624M817.85 1.81378L818.047 2.11723L818.244 2.42213L819.245 3.96408L819.448 4.27624M817.85 1.81378H785.234M785.234 1.81378H752.616M785.234 1.81378L786.299 4.27624M752.616 1.81378H720M752.616 1.81378L752.814 2.728L753.149 4.27624M720 1.81378H687.384M720 1.81378V4.27624M687.384 1.81378H654.766M687.384 1.81378L687.186 2.728L686.851 4.27624M654.766 1.81378H622.15M654.766 1.81378L653.701 4.27624M622.15 1.81378L621.953 2.11723L621.756 2.42213L620.755 3.96408L620.552 4.27624M622.15 1.81378H589.534M589.534 1.81378H556.916M589.534 1.81378L587.673 3.96408L587.402 4.27624M556.916 1.81378H524.3M556.916 1.81378L555.928 2.728L555.596 3.03484L554.927 3.65288L554.591 3.96408L554.253 4.27624M524.3 1.81378H491.683M524.3 1.81378L523.114 2.728L521.913 3.65288L521.509 3.96408L521.104 4.27624M491.683 1.81378H459.067M491.683 1.81378L487.955 4.27624M459.067 1.81378H426.45M459.067 1.81378L458.015 2.42213L454.806 4.27624M426.45 1.81378H393.833M426.45 1.81378L421.656 4.27624M393.833 1.81378H361.217M393.833 1.81378L388.507 4.27624M361.217 1.81378H328.6M361.217 1.81378L355.357 4.27624M328.6 1.81378H295.983M328.6 1.81378L322.208 4.27624M295.983 1.81378H263.367M295.983 1.81378L289.059 4.27624M263.367 1.81378H230.751M263.367 1.81378L255.909 4.27624M230.751 1.81378H198.133M230.751 1.81378L222.76 4.27624M198.133 1.81378H165.517M198.133 1.81378L189.61 4.27624M165.517 1.81378H132.9M165.517 1.81378L156.461 4.27624M132.9 1.81378H100.283M132.9 1.81378L123.312 4.27624M100.283 1.81378H67.6668M100.283 1.81378L90.163 4.27624M67.6668 1.81378H35.0504M67.6668 1.81378L57.0136 4.27624M35.0504 1.81378L30.9801 1.81474L26.9517 1.82007L23.0074 1.83506L19.1867 1.86459L15.5316 1.9125L12.0812 1.98462L8.87672 2.08481L5.90232 2.21257L3.34995 2.38923L1.0262 2.59395L0.387546 2.66567V4.27624M35.0504 1.81378L23.8641 4.27624M90.163 4.27624H123.312M90.163 4.27624H57.0136M90.163 4.27624L79.7053 6.82002M123.312 4.27624L113.405 6.82002M123.312 4.27624H156.461M222.76 4.27624H255.909M222.76 4.27624H189.61M222.76 4.27624L220.722 4.90444L214.504 6.82002M255.909 4.27624L248.204 6.82002M255.909 4.27624H289.059M355.357 4.27624H388.507M355.357 4.27624H322.208M355.357 4.27624L353.863 4.90444L353.11 5.22L349.303 6.82002M388.507 4.27624L387.828 4.58937L387.148 4.90444L383.003 6.82002M388.507 4.27624H421.656M487.955 4.27624L487.48 4.58937L484.102 6.82002M487.955 4.27624H521.104M487.955 4.27624H454.806M521.104 4.27624L520.289 4.90444L519.878 5.22L519.467 5.53749L517.802 6.82002M521.104 4.27624H554.253M620.552 4.27624H653.701M620.552 4.27624H587.402M620.552 4.27624L618.901 6.82002M653.701 4.27624L653.566 4.58937L653.43 4.90444L653.293 5.22L652.879 6.17585L652.601 6.82002M653.701 4.27624H686.851M753.149 4.27624H786.299M753.149 4.27624H720M753.149 4.27624L753.7 6.82002M786.299 4.27624L786.434 4.58937L786.57 4.90444L786.707 5.22L787.399 6.82002M786.299 4.27624H819.448M885.747 4.27624H918.896M885.747 4.27624H852.598M885.747 4.27624L886.426 4.90444L887.802 6.17585L888.149 6.49721L888.499 6.82002M918.896 4.27624L919.711 4.90444L920.122 5.22L920.534 5.53749L922.198 6.82002M918.896 4.27624H952.045M1018.34 4.27624H1051.49M1018.34 4.27624H985.194M1018.34 4.27624L1019.57 4.90444L1020.18 5.22L1023.3 6.82002M1051.49 4.27624L1052.17 4.58937L1052.85 4.90444L1057 6.82002M1051.49 4.27624H1084.64M1150.94 4.27624H1184.09M1150.94 4.27624H1117.79M1150.94 4.27624L1152.71 4.90444L1153.6 5.22L1158.1 6.82002M1184.09 4.27624L1191.8 6.82002M1184.09 4.27624H1217.24M1283.54 4.27624H1316.69M1283.54 4.27624H1250.39M1283.54 4.27624L1292.89 6.82002M1316.69 4.27624L1326.6 6.82002M1316.69 4.27624H1349.84M0.271359 27.3038H0.387546M33.6366 27.3038L46.2928 24.0539M33.6366 27.3038L20.4955 30.6781M33.6366 27.3038H71.7679M33.6366 27.3038H0.387546M46.2928 24.0539H8.86473M46.2928 24.0539L58.491 20.9216M46.2928 24.0539H83.7209M8.86473 24.0539L21.7405 20.9216M8.86473 24.0539H0.387546M8.86473 24.0539L0.387546 26.1157M46.1414 14.9852H81.6078M46.1414 14.9852L57.7137 12.1699M46.1414 14.9852H10.6758M46.1414 14.9852L34.1576 17.9006M81.6078 14.9852L92.5714 12.1699M81.6078 14.9852L70.2552 17.9006M81.6078 14.9852H117.074M57.7137 12.1699H92.5714M57.7137 12.1699L68.8954 9.44994M57.7137 12.1699H22.8567M92.5714 12.1699H127.428M92.5714 12.1699L103.164 9.44994M0.0224927 78.6003H0.387546M30.7904 78.6003L47.1106 73.2122M30.7904 78.6003L13.6591 84.2566M30.7904 78.6003H80.0202M30.7904 78.6003H0.387546M47.1106 73.2122L62.676 68.0734M47.1106 73.2122H95.174M47.1106 73.2122H0.387546M15.7243 68.0734H62.676M15.7243 68.0734L31.6472 63.1669M15.7243 68.0734H0.387546M15.7243 68.0734L0.387546 72.7993M46.8655 58.4771H91.7409M46.8655 58.4771L61.4257 53.9907M46.8655 58.4771H1.99018M46.8655 58.4771L31.6472 63.1669M91.7409 58.4771L105.331 53.9907M91.7409 58.4771L77.5368 63.1669M91.7409 58.4771H136.617M61.4257 53.9907H105.331M61.4257 53.9907H17.5211M61.4257 53.9907L75.3697 49.694M105.331 53.9907L118.345 49.694M105.331 53.9907H149.236M101.558 41.6241H142.787M101.558 41.6241L113.87 37.8303M101.558 41.6241H60.3283M101.558 41.6241L88.735 45.5753M142.787 41.6241L154.278 37.8303M142.787 41.6241L130.82 45.5753M142.787 41.6241H184.017M113.87 37.8303H154.278M113.87 37.8303H73.4612M113.87 37.8303L125.701 34.1845M154.278 37.8303L165.321 34.1845M154.278 37.8303H194.687M148.03 27.3038H186.162M148.03 27.3038L158.577 24.0539M148.03 27.3038H109.899M148.03 27.3038L137.079 30.6781M186.162 27.3038L196.005 24.0539M186.162 27.3038L175.941 30.6781M186.162 27.3038H224.293M158.577 24.0539H196.005M158.577 24.0539H121.149M158.577 24.0539L168.742 20.9216M196.005 24.0539L205.493 20.9216M196.005 24.0539H233.433M188.006 14.9852H223.473M188.006 14.9852L197.142 12.1699M188.006 14.9852H152.541M188.006 14.9852L178.546 17.9006M223.473 14.9852L231.999 12.1699M223.473 14.9852L214.642 17.9006M223.473 14.9852H258.939M197.142 12.1699H231.999M197.142 12.1699L205.97 9.44994M197.142 12.1699H162.285M231.999 12.1699H266.857M231.999 12.1699L240.239 9.44994M25.6092 172.014L48.5784 161.397M25.6092 172.014L1.01196 183.383M25.6092 172.014H95.0481M25.6092 172.014H0.387546M48.5784 161.397L70.0775 151.46M48.5784 161.397H115.72M48.5784 161.397H0.387546M48.1121 133.38H109.193M48.1121 133.38L67.7403 125.133M48.1121 133.38L27.2658 142.14M48.1121 133.38H0.387546M109.193 133.38L127.036 125.133M109.193 133.38L90.2417 142.14M109.193 133.38H170.274M67.7403 125.133H127.036M67.7403 125.133H8.44421M67.7403 125.133L86.2546 117.353M127.036 125.133L143.868 117.353M127.036 125.133H186.333M120.298 103.047H174.817M120.298 103.047L135.985 96.4562M120.298 103.047H65.7801M120.298 103.047L103.746 110.003M174.817 103.047L189.077 96.4562M174.817 103.047L159.769 110.003M174.817 103.047H229.335M135.985 96.4562H189.077M135.985 96.4562H82.8926M135.985 96.4562L150.871 90.2008M189.077 96.4562L202.611 90.2008M189.077 96.4562H242.169M178.478 78.6003H227.708M178.478 78.6003L191.301 73.2122M178.478 78.6003H129.249M178.478 78.6003L165.018 84.2566M227.708 78.6003L239.365 73.2122M227.708 78.6003L215.471 84.2566M227.708 78.6003H276.937M191.301 73.2122H239.365M191.301 73.2122H143.238M191.301 73.2122L203.531 68.0734M239.365 73.2122L250.483 68.0734M239.365 73.2122H287.428M226.368 58.4771H271.244M226.368 58.4771L237.046 53.9907M226.368 58.4771H181.492M226.368 58.4771L215.208 63.1669M271.244 58.4771L280.951 53.9907M271.244 58.4771L261.098 63.1669M271.244 58.4771H316.119M237.046 53.9907H280.951M237.046 53.9907H193.141M237.046 53.9907L247.271 49.694M280.951 53.9907L290.247 49.694M280.951 53.9907H324.856M266.476 41.6241H307.705M266.476 41.6241L275.504 37.8303M266.476 41.6241H225.246M266.476 41.6241L257.073 45.5753M307.705 41.6241L308.75 41.1416L315.913 37.8303M307.705 41.6241L299.157 45.5753M307.705 41.6241H348.935M275.504 37.8303H315.913M275.504 37.8303H235.096M275.504 37.8303L284.181 34.1845M315.913 37.8303L323.801 34.1845M315.913 37.8303H356.322M300.555 27.3038H338.687M300.555 27.3038L308.29 24.0539M300.555 27.3038H262.424M300.555 27.3038L292.525 30.6781M338.687 27.3038L345.718 24.0539M338.687 27.3038L335.982 28.5544L331.386 30.6781M338.687 27.3038H376.818M308.29 24.0539H345.718M308.29 24.0539H270.862M308.29 24.0539L315.744 20.9216M345.718 24.0539L352.495 20.9216M345.718 24.0539H383.146M329.871 14.9852H365.338M329.871 14.9852L336.571 12.1699M329.871 14.9852H294.405M329.871 14.9852L322.934 17.9006M365.338 14.9852L369.926 12.8649L370.678 12.5164L371.429 12.1699M365.338 14.9852L359.03 17.9006M365.338 14.9852H400.804M336.571 12.1699H371.429M336.571 12.1699L343.045 9.44994M336.571 12.1699H301.714M371.429 12.1699H406.286M371.429 12.1699L377.313 9.44994M50.7679 292.956H146.373M50.7679 292.956L80.8717 273.078M50.7679 292.956L17.6882 314.799M50.7679 292.956L0.387546 292.956M146.373 292.956L172.176 273.078M146.373 292.956L118.019 314.799M146.373 292.956H241.977M80.8717 273.078H172.176M80.8717 273.078L108.384 254.912M80.8717 273.078H0.387546M172.176 273.078L195.758 254.912M172.176 273.078H263.48M156.866 222.899H237.314M156.866 222.899L178.334 208.722M156.866 222.899H76.4183M156.866 222.899L133.625 238.245M237.314 222.899L255.715 208.722M237.314 222.899L217.393 238.245M237.314 222.899H317.761M178.334 208.722H255.715M178.334 208.722H100.953M178.334 208.722L198.226 195.588M255.715 208.722L272.765 195.588M255.715 208.722H333.096M233.927 172.014H303.365M233.927 172.014L250.005 161.397M233.927 172.014H164.487M233.927 172.014L216.708 183.383M303.365 172.014L317.147 161.397M303.365 172.014L288.607 183.383M303.365 172.014H372.804M250.005 161.397H317.147M250.005 161.397H182.863M250.005 161.397L265.054 151.46M317.147 161.397L330.047 151.46M317.147 161.397H384.29M292.435 133.38H353.516M292.435 133.38L304.926 125.133M292.435 133.38H231.355M292.435 133.38L279.169 142.14M353.516 133.38L364.222 125.133M353.516 133.38L342.145 142.14M353.516 133.38H414.597M304.926 125.133H364.222M304.926 125.133H245.629M304.926 125.133L316.707 117.353M364.222 125.133L374.321 117.353M364.222 125.133H423.518M338.372 103.047H392.89M338.372 103.047L348.354 96.4562M338.372 103.047H283.853M338.372 103.047L327.838 110.003M392.89 103.047L401.446 96.4562M392.89 103.047L383.862 110.003M392.89 103.047H447.409M348.354 96.4562H401.446M348.354 96.4562H295.262M348.354 96.4562L357.827 90.2008M401.446 96.4562L409.566 90.2008M401.446 96.4562H454.539M375.396 78.6003H424.625M375.396 78.6003L383.556 73.2122M375.396 78.6003H326.166M375.396 78.6003L366.83 84.2566M424.625 78.6003L431.619 73.2122M424.625 78.6003L417.282 84.2566M424.625 78.6003H473.854M383.556 73.2122H431.619M383.556 73.2122H335.492M383.556 73.2122L391.338 68.0734M431.619 73.2122L438.29 68.0734M431.619 73.2122H479.682M405.87 58.4771H450.747M405.87 58.4771L412.666 53.9907M405.87 58.4771H360.995M405.87 58.4771L398.769 63.1669M450.747 58.4771L456.57 53.9907M450.747 58.4771L444.659 63.1669M450.747 58.4771H495.622M412.666 53.9907H456.57M412.666 53.9907H368.76M412.666 53.9907L419.173 49.694M456.57 53.9907L462.148 49.694M456.57 53.9907H500.476M431.393 41.6241H472.624M431.393 41.6241L437.139 37.8303M431.393 41.6241H390.164M431.393 41.6241L425.409 45.5753M472.624 41.6241L471.993 42.1091L467.494 45.5753M472.624 41.6241L477.548 37.8303M472.624 41.6241H513.853M437.139 37.8303H477.548M437.139 37.8303H396.731M437.139 37.8303L442.661 34.1845M477.548 37.8303L482.281 34.1845M477.548 37.8303H517.957M453.081 27.3038H491.212M453.081 27.3038L458.003 24.0539M453.081 27.3038H414.95M453.081 27.3038L447.971 30.6781M491.212 27.3038L495.431 24.0539M491.212 27.3038L489.589 28.5544L488.494 29.398L486.832 30.6781M491.212 27.3038H529.343M458.003 24.0539H495.431M458.003 24.0539H420.575M458.003 24.0539L462.746 20.9216M495.431 24.0539L496.973 22.8657L497.99 22.0827L499.497 20.9216M495.431 24.0539H532.859M471.737 14.9852H507.202M471.737 14.9852L474.948 12.8649L476 12.1699M471.737 14.9852H436.27M471.737 14.9852L467.882 17.5304L467.322 17.9006M507.202 14.9852L509.956 12.8649L510.407 12.5164L510.857 12.1699M507.202 14.9852L505.327 16.4298L503.418 17.9006M507.202 14.9852H542.669M476 12.1699H510.857M476 12.1699L480.119 9.44994M476 12.1699H441.143M510.857 12.1699H545.714M510.857 12.1699L514.388 9.44994M433.186 292.956H528.791M433.186 292.956L446.088 273.078M433.186 292.956H337.582M433.186 292.956L419.009 314.799M528.791 292.956L537.392 273.078M528.791 292.956L519.34 314.799M528.791 292.956H624.396M446.088 273.078H537.392M446.088 273.078H354.784M446.088 273.078L457.879 254.912M537.392 273.078L545.253 254.912M537.392 273.078H628.696M478.657 222.899H559.104M478.657 222.899L487.858 208.722M478.657 222.899H398.209M478.657 222.899L468.696 238.245M559.104 222.899L565.238 208.722M559.104 222.899L552.465 238.245M559.104 222.899H639.553M487.858 208.722H565.238M487.858 208.722H410.477M487.858 208.722L496.383 195.588M565.238 208.722L570.922 195.588M565.238 208.722H642.619M511.683 172.014H581.122M511.683 172.014L518.574 161.397M511.683 172.014H442.244M511.683 172.014L504.304 183.383M581.122 172.014L585.716 161.397M581.122 172.014L576.203 183.383M581.122 172.014H650.561M518.574 161.397H585.716M518.574 161.397H451.432M518.574 161.397L525.023 151.46M585.716 161.397L590.016 151.46M585.716 161.397H652.858M536.758 133.38H597.838M536.758 133.38L542.111 125.133M536.758 133.38H475.677M536.758 133.38L531.073 142.14M597.838 133.38L601.407 125.133M597.838 133.38L594.048 142.14M597.838 133.38H658.919M542.111 125.133H601.407M542.111 125.133H482.815M542.111 125.133L547.16 117.353M601.407 125.133L604.774 117.353M601.407 125.133H660.704M556.445 103.047H610.964M556.445 103.047L560.723 96.4562M556.445 103.047H501.927M556.445 103.047L551.931 110.003M610.964 103.047L613.815 96.4562M610.964 103.047L607.954 110.003M610.964 103.047H665.482M560.723 96.4562H613.815M560.723 96.4562H507.631M560.723 96.4562L564.783 90.2008M613.815 96.4562L616.522 90.2008M613.815 96.4562H666.908M572.312 78.6003H621.541M572.312 78.6003L575.809 73.2122M572.312 78.6003H523.083M572.312 78.6003L568.642 84.2566M621.541 78.6003L623.873 73.2122M621.541 78.6003L619.094 84.2566M621.541 78.6003H670.771M575.809 73.2122H623.873M575.809 73.2122H527.746M575.809 73.2122L577.079 71.257L579.145 68.0734M623.873 73.2122L626.097 68.0734M623.873 73.2122H671.937M585.373 58.4771H630.249M585.373 58.4771L588.285 53.9907M585.373 58.4771H540.497M585.373 58.4771L583.104 61.9748L582.329 63.1669M630.249 58.4771L630.987 56.7716L632.19 53.9907M630.249 58.4771L628.219 63.1669M630.249 58.4771H675.125M588.285 53.9907L588.64 53.4433L591.074 49.694M588.285 53.9907H632.19M588.285 53.9907H544.38M632.19 53.9907L632.897 52.3578L633.129 51.8191L633.362 51.2838L634.049 49.694M632.19 53.9907H676.095M596.311 41.6241H637.541M596.311 41.6241L597.555 39.7081L597.862 39.2352L598.167 38.7643L598.472 38.2963L598.774 37.8303M596.311 41.6241H555.082M596.311 41.6241L593.747 45.5753M637.541 41.6241L638.778 38.7643L638.981 38.2963L639.182 37.8303M637.541 41.6241L635.832 45.5753M637.541 41.6241H678.771M598.774 37.8303H639.182M598.774 37.8303H558.365M598.774 37.8303L600.264 35.5348L600.557 35.0823L601.14 34.1845M639.182 37.8303L640.176 35.5348L640.372 35.0823L640.566 34.6322L640.76 34.1845M639.182 37.8303H679.592M605.606 27.3038H643.738M605.606 27.3038L607.716 24.0539M605.606 27.3038H567.474M605.606 27.3038L605.066 28.1353L604.247 29.398L603.416 30.6781M643.738 27.3038L643.558 27.7186L642.463 30.2493L642.277 30.6781M643.738 27.3038L645.144 24.0539M643.738 27.3038H681.869M607.716 24.0539H645.144M607.716 24.0539H570.288M607.716 24.0539L609.749 20.9216M645.144 24.0539L645.658 22.8657L645.827 22.4732L645.997 22.0827L646.499 20.9216M645.144 24.0539H682.572M613.602 14.9852H649.067M613.602 14.9852L614.978 12.8649L615.428 12.1699M613.602 14.9852H578.135M613.602 14.9852L612.899 16.0664L612.664 16.4298L612.426 16.7952L611.709 17.9006M649.067 14.9852L649.222 14.628L649.529 13.918L649.834 13.2143L650.285 12.1699M649.067 14.9852L648.442 16.4298L648.285 16.7952L647.966 17.5304L647.806 17.9006M649.067 14.9852H684.534M615.428 12.1699H650.285M615.428 12.1699L616.976 9.78486L617.194 9.44994M615.428 12.1699H580.571M650.285 12.1699L650.435 11.8248L650.584 11.4812L650.732 11.139L650.879 10.7983L651.318 9.78486L651.463 9.44994M650.285 12.1699H685.143M815.604 292.956H911.209M815.604 292.956L811.304 273.078M815.604 292.956H720M815.604 292.956L820.33 314.799M911.209 292.956L902.608 273.078M911.209 292.956L920.66 314.799M911.209 292.956H1006.81M811.304 273.078H902.608M811.304 273.078H720M811.304 273.078L807.374 254.912M902.608 273.078L894.747 254.912M902.608 273.078H993.912M800.447 222.899H880.896M800.447 222.899L797.381 208.722M800.447 222.899H720M800.447 222.899L803.768 238.245M880.896 222.899L874.762 208.722M880.896 222.899L887.536 238.245M880.896 222.899H961.343M797.381 208.722H874.762M797.381 208.722H720M797.381 208.722L794.539 195.588M874.762 208.722L869.078 195.588M874.762 208.722H952.142M789.439 172.014H858.878M789.439 172.014L787.142 161.397M789.439 172.014H720M789.439 172.014L791.899 183.383M858.878 172.014L854.284 161.397M858.878 172.014L863.797 183.383M858.878 172.014H928.317M787.142 161.397H854.284M787.142 161.397H720M787.142 161.397L784.992 151.46M854.284 161.397L849.985 151.46M854.284 161.397H921.426M781.081 133.38H842.162M781.081 133.38L779.296 125.133M781.081 133.38H720M781.081 133.38L782.976 142.14M842.162 133.38L838.593 125.133M842.162 133.38L845.952 142.14M842.162 133.38H903.242M779.296 125.133H838.593M779.296 125.133H720M779.296 125.133L777.613 117.353M838.593 125.133L835.226 117.353M838.593 125.133H897.889M774.518 103.047H829.036M774.518 103.047L773.092 96.4562M774.518 103.047H720M774.518 103.047L776.023 110.003M829.036 103.047L826.185 96.4562M829.036 103.047L832.046 110.003M829.036 103.047H883.555M773.092 96.4562H826.185M773.092 96.4562H720M773.092 96.4562L771.739 90.2008M826.185 96.4562L823.478 90.2008M826.185 96.4562H879.277M769.229 78.6003H818.459M769.229 78.6003L768.063 73.2122M769.229 78.6003H720M769.229 78.6003L770.453 84.2566M818.459 78.6003L816.127 73.2122M818.459 78.6003L820.906 84.2566M818.459 78.6003H867.688M768.063 73.2122H816.127M768.063 73.2122H720M768.063 73.2122L766.952 68.0734M816.127 73.2122L813.903 68.0734M816.127 73.2122H864.191M764.875 58.4771H809.751M764.875 58.4771L763.905 53.9907M764.875 58.4771H720M764.875 58.4771L765.89 63.1669M809.751 58.4771L808.048 54.541L807.81 53.9907M809.751 58.4771L811.781 63.1669M809.751 58.4771H854.627M763.905 53.9907L763.787 53.4433L762.975 49.694M763.905 53.9907H807.81M763.905 53.9907H720M807.81 53.9907L807.103 52.3578L806.871 51.8191L806.638 51.2838L805.951 49.694M807.81 53.9907H851.715M761.229 41.6241H802.459M761.229 41.6241L760.409 37.8303M761.229 41.6241H720M761.229 41.6241L761.546 43.0867L761.653 43.5794L761.759 44.0745L761.975 45.0725L762.085 45.5753M802.459 41.6241L801.222 38.7643L800.817 37.8303M802.459 41.6241L804.168 45.5753M802.459 41.6241H843.689M760.409 37.8303H800.817M760.409 37.8303H720M760.409 37.8303L759.62 34.1845M800.817 37.8303L799.825 35.5348L799.628 35.0823L799.434 34.6322L799.24 34.1845M800.817 37.8303H841.226M758.131 27.3038H796.262M758.131 27.3038L757.428 24.0539M758.131 27.3038H720M758.131 27.3038L758.861 30.6781M796.262 27.3038L796.442 27.7186L797.537 30.2493L797.723 30.6781M796.262 27.3038L794.856 24.0539M796.262 27.3038H834.394M757.428 24.0539H794.856M757.428 24.0539H720M757.428 24.0539L756.751 20.9216M794.856 24.0539L794.342 22.8657L794.173 22.4732L794.003 22.0827L793.501 20.9216M794.856 24.0539H832.284M755.467 14.9852H790.933M755.467 14.9852L754.857 12.1699M755.467 14.9852H720M755.467 14.9852L756.097 17.9006M790.933 14.9852L790.778 14.628L790.47 13.918L790.318 13.5652L790.015 12.8649L789.865 12.5164L789.714 12.1699M790.933 14.9852L791.558 16.4298L791.715 16.7952L792.034 17.5304L792.194 17.9006M790.933 14.9852H826.399M754.857 12.1699L754.783 11.8248L754.708 11.4812L754.634 11.139L754.269 9.44994M754.857 12.1699H789.714M754.857 12.1699H720M789.714 12.1699H824.572M789.714 12.1699L789.416 11.4812L789.268 11.139L789.121 10.7983L788.683 9.78486L788.537 9.44994M1198.02 292.956H1293.63M1198.02 292.956L1176.52 273.078M1198.02 292.956H1102.42M1198.02 292.956L1221.65 314.799M1293.63 292.956L1267.82 273.078M1293.63 292.956L1321.98 314.799M1293.63 292.956H1389.23M1176.52 273.078H1267.82M1176.52 273.078H1085.22M1176.52 273.078L1156.87 254.912M1267.82 273.078L1244.24 254.912M1267.82 273.078H1359.13M1122.24 222.899H1202.69M1122.24 222.899L1106.9 208.722M1122.24 222.899H1041.79M1122.24 222.899L1138.84 238.245M1202.69 222.899L1184.29 208.722M1202.69 222.899L1222.61 238.245M1202.69 222.899H1283.13M1106.9 208.722H1184.29M1106.9 208.722H1029.52M1106.9 208.722L1092.7 195.588M1184.29 208.722L1167.23 195.588M1184.29 208.722H1261.67M1067.2 172.014H1136.63M1067.2 172.014L1055.71 161.397M1067.2 172.014H997.756M1067.2 172.014L1079.49 183.383M1136.63 172.014L1122.85 161.397M1136.63 172.014L1151.39 183.383M1136.63 172.014H1206.07M1055.71 161.397H1122.85M1055.71 161.397H988.568M1055.71 161.397L1044.96 151.46M1122.85 161.397L1109.95 151.46M1122.85 161.397H1189.99M1025.4 133.38H1086.48M1025.4 133.38L1016.48 125.133M1025.4 133.38H964.323M1025.4 133.38L1034.88 142.14M1086.48 133.38L1075.78 125.133M1086.48 133.38L1097.86 142.14M1086.48 133.38H1147.57M1016.48 125.133H1075.78M1016.48 125.133H957.185M1016.48 125.133L1008.07 117.353M1075.78 125.133L1065.68 117.353M1075.78 125.133H1135.07M992.591 103.047H1047.11M992.591 103.047L985.461 96.4562M992.591 103.047H938.073M992.591 103.047L1000.12 110.003M1047.11 103.047L1038.55 96.4562M1047.11 103.047L1056.14 110.003M1047.11 103.047H1101.63M985.461 96.4562H1038.55M985.461 96.4562H932.369M985.461 96.4562L978.695 90.2008M1038.55 96.4562L1030.43 90.2008M1038.55 96.4562H1091.65M966.146 78.6003H1015.38M966.146 78.6003L960.318 73.2122M966.146 78.6003H916.917M966.146 78.6003L972.265 84.2566M1015.38 78.6003L1008.38 73.2122M1015.38 78.6003L1022.72 84.2566M1015.38 78.6003H1064.6M960.318 73.2122H1008.38M960.318 73.2122H912.254M960.318 73.2122L954.759 68.0734M1008.38 73.2122L1001.71 68.0734M1008.38 73.2122H1056.44M944.378 58.4771L945 59.0521L945.626 59.63L949.451 63.1669M944.378 58.4771H989.254M944.378 58.4771L939.525 53.9907M944.378 58.4771H899.503M989.254 58.4771L983.43 53.9907M989.254 58.4771L995.341 63.1669M989.254 58.4771H1034.13M939.525 53.9907H983.43M939.525 53.9907H895.62M939.525 53.9907L934.877 49.694M983.43 53.9907L977.852 49.694M983.43 53.9907H1027.33M926.147 41.6241H967.377M926.147 41.6241L922.043 37.8303M926.147 41.6241H884.918M926.147 41.6241L930.421 45.5753M967.377 41.6241L964.275 39.2352L962.452 37.8303M967.377 41.6241L972.506 45.5753M967.377 41.6241H1008.61M922.043 37.8303H962.452M922.043 37.8303H881.635M922.043 37.8303L918.585 34.6322L918.1 34.1845M962.452 37.8303L957.72 34.1845M962.452 37.8303H1002.86M910.657 27.3038H948.788M910.657 27.3038L909.766 26.4796L907.141 24.0539M910.657 27.3038H872.526M910.657 27.3038L911.556 28.1353L913.382 29.8224L914.307 30.6781M948.788 27.3038L944.569 24.0539M948.788 27.3038L950.411 28.5544L951.506 29.398L953.168 30.6781M948.788 27.3038H986.919M907.141 24.0539H944.569M907.141 24.0539H869.712M907.141 24.0539L904.588 21.6936L903.752 20.9216M944.569 24.0539L943.027 22.8657L942.01 22.0827L940.503 20.9216M944.569 24.0539H981.997M897.331 14.9852H932.798M897.331 14.9852L895.415 13.2143L894.286 12.1699M897.331 14.9852H861.865M897.331 14.9852L900.485 17.9006M932.798 14.9852L930.044 12.8649L929.593 12.5164L929.143 12.1699M932.798 14.9852L934.673 16.4298L936.582 17.9006M932.798 14.9852H968.263M894.286 12.1699H929.143M894.286 12.1699L892.802 10.7983L892.07 10.1212L891.706 9.78486L891.344 9.44994M894.286 12.1699H859.429M929.143 12.1699H964M929.143 12.1699L925.612 9.44994M1416.43 208.722H1339.05M1416.43 208.722L1390.85 195.588M1416.43 208.722H1439.61M1416.43 208.722L1439.61 220.63M1344.95 172.014H1414.39M1344.95 172.014L1324.28 161.397M1344.95 172.014H1275.51M1344.95 172.014L1367.09 183.383M1414.39 172.014L1391.42 161.397M1414.39 172.014L1438.99 183.383M1414.39 172.014H1439.61M1324.28 161.397H1391.42M1324.28 161.397H1257.14M1324.28 161.397L1304.93 151.46M1391.42 161.397L1369.92 151.46M1391.42 161.397H1439.61M1269.73 133.38H1330.81M1269.73 133.38L1253.67 125.133M1269.73 133.38H1208.65M1269.73 133.38L1286.78 142.14M1330.81 133.38L1312.96 125.133M1330.81 133.38L1349.76 142.14M1330.81 133.38H1391.89M1253.67 125.133H1312.96M1253.67 125.133H1194.37M1253.67 125.133L1238.52 117.353M1312.96 125.133L1296.13 117.353M1312.96 125.133H1372.26M1210.66 103.047H1265.18M1210.66 103.047L1197.83 96.4562M1210.66 103.047H1156.15M1210.66 103.047L1224.21 110.003M1265.18 103.047L1250.92 96.4562M1265.18 103.047L1280.23 110.003M1265.18 103.047H1319.7M1197.83 96.4562H1250.92M1197.83 96.4562H1144.74M1197.83 96.4562L1185.65 90.2008M1250.92 96.4562L1237.39 90.2008M1250.92 96.4562H1304.02M1163.06 78.6003H1212.29M1163.06 78.6003L1152.57 73.2122M1163.06 78.6003H1113.83M1163.06 78.6003L1174.08 84.2566M1212.29 78.6003L1200.64 73.2122M1212.29 78.6003L1224.53 84.2566M1212.29 78.6003H1261.52M1152.57 73.2122H1200.64M1152.57 73.2122H1104.51M1152.57 73.2122L1142.57 68.0734M1200.64 73.2122L1189.52 68.0734M1200.64 73.2122H1248.7M1123.88 58.4771H1168.76M1123.88 58.4771L1115.14 53.9907M1123.88 58.4771H1079M1123.88 58.4771L1133.01 63.1669M1168.76 58.4771L1159.05 53.9907M1168.76 58.4771L1178.9 63.1669M1168.76 58.4771H1213.63M1115.14 53.9907H1159.05M1115.14 53.9907H1071.24M1115.14 53.9907L1106.78 49.694M1159.05 53.9907L1149.75 49.694M1159.05 53.9907H1202.95M1091.07 41.6241H1132.29M1091.07 41.6241L1083.68 37.8303M1091.07 41.6241H1049.84M1091.07 41.6241L1098.76 45.5753M1132.29 41.6241L1124.09 37.8303M1132.29 41.6241L1140.84 45.5753M1132.29 41.6241H1173.52M1083.68 37.8303H1124.09M1083.68 37.8303H1043.27M1083.68 37.8303L1076.58 34.1845M1124.09 37.8303L1116.2 34.1845M1124.09 37.8303H1164.5M1063.18 27.3038H1101.31M1063.18 27.3038L1056.85 24.0539M1063.18 27.3038H1025.05M1063.18 27.3038L1064.8 28.1353L1065.62 28.5544L1069.75 30.6781M1101.31 27.3038L1094.28 24.0539M1101.31 27.3038L1108.61 30.6781M1101.31 27.3038H1139.44M1056.85 24.0539H1094.28M1056.85 24.0539H1019.43M1056.85 24.0539L1050.75 20.9216M1094.28 24.0539L1087.51 20.9216M1094.28 24.0539H1131.71M1039.2 14.9852H1074.66M1039.2 14.9852L1033.71 12.1699M1039.2 14.9852H1003.73M1039.2 14.9852L1044.87 17.9006M1074.66 14.9852L1070.07 12.8649L1069.32 12.5164L1068.57 12.1699M1074.66 14.9852L1080.97 17.9006M1074.66 14.9852H1110.13M1033.71 12.1699H1068.57M1033.71 12.1699L1029.07 9.78486L1028.42 9.44994M1033.71 12.1699H998.857M1068.57 12.1699H1103.43M1068.57 12.1699L1062.69 9.44994M1428.74 103.047L1410.2 96.4562M1428.74 103.047H1374.22M1428.74 103.047L1439.61 106.914M1428.74 103.047H1439.61M1410.2 96.4562H1357.11M1410.2 96.4562L1392.61 90.2008M1410.2 96.4562H1439.61M1359.98 78.6003H1409.21M1359.98 78.6003L1344.83 73.2122M1359.98 78.6003H1310.75M1359.98 78.6003L1375.89 84.2566M1409.21 78.6003L1392.89 73.2122M1409.21 78.6003L1426.34 84.2566M1409.21 78.6003H1439.61M1344.83 73.2122H1392.89M1344.83 73.2122H1296.76M1344.83 73.2122L1330.37 68.0734M1392.89 73.2122L1377.32 68.0734M1392.89 73.2122H1439.61M1303.38 58.4771H1348.26M1303.38 58.4771L1290.76 53.9907M1303.38 58.4771H1258.51M1303.38 58.4771L1316.57 63.1669M1348.26 58.4771L1334.67 53.9907M1348.26 58.4771L1362.46 63.1669M1348.26 58.4771H1393.13M1290.76 53.9907H1334.67M1290.76 53.9907H1246.86M1290.76 53.9907L1278.68 49.694M1334.67 53.9907L1321.66 49.694M1334.67 53.9907H1378.57M1255.98 41.6241H1297.21M1255.98 41.6241L1245.31 37.8303M1255.98 41.6241H1214.75M1255.98 41.6241L1267.1 45.5753M1297.21 41.6241L1285.72 37.8303M1297.21 41.6241L1309.18 45.5753M1297.21 41.6241H1338.44M1245.31 37.8303H1285.72M1245.31 37.8303H1204.9M1245.31 37.8303L1235.06 34.1845M1285.72 37.8303L1274.68 34.1845M1285.72 37.8303H1326.13M1215.71 27.3038H1253.84M1215.71 27.3038L1206.57 24.0539M1215.71 27.3038H1177.58M1215.71 27.3038L1225.2 30.6781M1253.84 27.3038L1243.99 24.0539M1253.84 27.3038L1264.06 30.6781M1253.84 27.3038H1291.97M1206.57 24.0539H1243.99M1206.57 24.0539H1169.14M1206.57 24.0539L1197.76 20.9216M1243.99 24.0539L1234.51 20.9216M1243.99 24.0539H1281.42M1181.06 14.9852H1216.53M1181.06 14.9852L1173.14 12.1699M1181.06 14.9852H1145.59M1181.06 14.9852L1189.26 17.9006M1216.53 14.9852L1208 12.1699M1216.53 14.9852L1225.36 17.9006M1216.53 14.9852H1251.99M1173.14 12.1699H1208M1173.14 12.1699L1165.49 9.44994M1173.14 12.1699H1138.29M1208 12.1699H1242.86M1208 12.1699L1199.76 9.44994M1420.9 41.6241L1406.95 37.8303M1420.9 41.6241H1379.67M1420.9 41.6241L1435.43 45.5753M1420.9 41.6241H1439.61M1406.95 37.8303H1366.54M1406.95 37.8303L1393.54 34.1845M1406.95 37.8303H1439.61M1368.23 27.3038H1406.36M1368.23 27.3038L1356.28 24.0539M1368.23 27.3038H1330.1M1368.23 27.3038L1380.64 30.6781M1406.36 27.3038L1393.71 24.0539M1406.36 27.3038L1419.5 30.6781M1406.36 27.3038H1439.61M1356.28 24.0539H1393.71M1356.28 24.0539H1318.85M1356.28 24.0539L1344.76 20.9216M1393.71 24.0539L1381.51 20.9216M1393.71 24.0539H1431.14M1322.93 14.9852H1358.39M1322.93 14.9852L1312.57 12.1699M1322.93 14.9852H1287.46M1322.93 14.9852L1333.65 17.9006M1358.39 14.9852L1347.43 12.1699M1358.39 14.9852L1369.74 17.9006M1358.39 14.9852H1393.86M1312.57 12.1699H1347.43M1312.57 12.1699L1302.57 9.44994M1312.57 12.1699H1277.71M1347.43 12.1699H1382.29M1347.43 12.1699L1336.84 9.44994M1369.74 17.9006L1381.51 20.9216M1369.74 17.9006H1405.84M1369.74 17.9006H1333.65M1393.86 14.9852L1382.29 12.1699M1393.86 14.9852L1405.84 17.9006M1393.86 14.9852H1429.32M1382.29 12.1699H1417.14M1382.29 12.1699L1371.1 9.44994M1336.84 9.44994H1302.57M1336.84 9.44994H1371.1M1336.84 9.44994L1326.6 6.82002M1405.84 17.9006L1418.26 20.9216M1405.84 17.9006H1439.61M1429.32 14.9852L1417.14 12.1699M1429.32 14.9852L1439.61 17.3627M1429.32 14.9852H1439.61M1417.14 12.1699L1405.37 9.44994M1417.14 12.1699H1439.61M1371.1 9.44994H1405.37M1371.1 9.44994L1360.29 6.82002M1405.37 9.44994L1393.99 6.82002M1405.37 9.44994H1439.61M1381.51 20.9216H1418.26M1381.51 20.9216H1344.76M1431.14 24.0539L1418.26 20.9216M1431.14 24.0539L1439.61 26.1157M1431.14 24.0539H1439.61M1418.26 20.9216H1439.61M1344.76 20.9216H1308.01M1344.76 20.9216L1333.65 17.9006M1333.65 17.9006H1297.55M1419.5 30.6781L1433.16 34.1845M1419.5 30.6781H1380.64M1419.5 30.6781H1439.61M1439.73 27.3038H1439.61M1433.16 34.1845H1393.54M1433.16 34.1845L1439.61 35.8416M1433.16 34.1845H1439.61M1393.54 34.1845H1353.92M1393.54 34.1845L1380.64 30.6781M1380.64 30.6781H1341.78M1225.36 17.9006L1234.51 20.9216M1225.36 17.9006H1261.45M1225.36 17.9006H1189.26M1251.99 14.9852L1242.86 12.1699M1251.99 14.9852L1261.45 17.9006M1251.99 14.9852H1287.46M1242.86 12.1699H1277.71M1242.86 12.1699L1234.03 9.44994M1199.76 9.44994H1234.03M1199.76 9.44994L1191.8 6.82002M1199.76 9.44994H1165.49M1261.45 17.9006L1271.26 20.9216M1261.45 17.9006H1297.55M1287.46 14.9852L1277.71 12.1699M1287.46 14.9852L1297.55 17.9006M1277.71 12.1699L1268.3 9.44994M1234.03 9.44994H1268.3M1234.03 9.44994L1225.5 6.82002M1297.55 17.9006L1308.01 20.9216M1302.57 9.44994H1268.3M1302.57 9.44994L1292.89 6.82002M1268.3 9.44994L1259.2 6.82002M1234.51 20.9216H1271.26M1234.51 20.9216H1197.76M1281.42 24.0539L1271.26 20.9216M1281.42 24.0539L1291.97 27.3038M1281.42 24.0539H1318.85M1271.26 20.9216H1308.01M1197.76 20.9216H1161.01M1197.76 20.9216L1189.26 17.9006M1308.01 20.9216L1318.85 24.0539M1189.26 17.9006H1153.16M1291.97 27.3038L1302.92 30.6781M1291.97 27.3038H1330.1M1318.85 24.0539L1330.1 27.3038M1330.1 27.3038L1341.78 30.6781M1264.06 30.6781L1274.68 34.1845M1264.06 30.6781H1302.92M1264.06 30.6781H1225.2M1302.92 30.6781L1314.3 34.1845M1302.92 30.6781H1341.78M1341.78 30.6781L1353.92 34.1845M1274.68 34.1845H1314.3M1274.68 34.1845H1235.06M1326.13 37.8303L1314.3 34.1845M1326.13 37.8303L1338.44 41.6241M1326.13 37.8303H1366.54M1314.3 34.1845H1353.92M1235.06 34.1845H1195.44M1235.06 34.1845L1225.2 30.6781M1353.92 34.1845L1366.54 37.8303M1225.2 30.6781H1186.34M1338.44 41.6241L1351.27 45.5753M1338.44 41.6241H1379.67M1366.54 37.8303L1379.67 41.6241M1379.67 41.6241L1393.35 45.5753M1309.18 45.5753L1321.66 49.694M1309.18 45.5753H1351.27M1309.18 45.5753H1267.1M1351.27 45.5753L1364.63 49.694M1351.27 45.5753H1393.35M1393.35 45.5753L1407.61 49.694M1393.35 45.5753H1435.43M1435.43 45.5753H1439.61M1435.43 45.5753L1439.61 46.7114M1321.66 49.694H1364.63M1321.66 49.694H1278.68M1378.57 53.9907L1364.63 49.694M1378.57 53.9907L1393.13 58.4771M1378.57 53.9907H1422.48M1364.63 49.694H1407.61M1278.68 49.694H1235.7M1278.68 49.694L1267.1 45.5753M1407.61 49.694L1422.48 53.9907M1407.61 49.694H1439.61M1267.1 45.5753H1225.01M1393.13 58.4771L1408.35 63.1669M1393.13 58.4771H1438.01M1422.48 53.9907L1438.01 58.4771M1422.48 53.9907H1439.61M1439.84 49.694H1439.61M1438.01 58.4771L1439.61 58.9402M1438.01 58.4771H1439.61M1362.46 63.1669L1377.32 68.0734M1362.46 63.1669H1408.35M1362.46 63.1669H1316.57M1408.35 63.1669L1424.28 68.0734M1408.35 63.1669H1439.61M1440 59.0521L1439.61 58.9402M1377.32 68.0734H1424.28M1377.32 68.0734H1330.37M1424.28 68.0734H1439.61M1424.28 68.0734L1439.61 72.7993M1330.37 68.0734H1283.42M1330.37 68.0734L1316.57 63.1669M1316.57 63.1669H1270.68M1426.34 84.2566H1375.89M1426.34 84.2566L1439.61 88.6382M1426.34 84.2566H1439.61M1439.98 78.6003H1439.61M1375.89 84.2566H1325.43M1375.89 84.2566L1392.61 90.2008M1439.76 88.6864L1439.61 88.6382M1080.97 17.9006L1087.51 20.9216M1080.97 17.9006H1117.07M1080.97 17.9006H1044.87M1110.13 14.9852L1103.43 12.1699M1110.13 14.9852L1117.07 17.9006M1110.13 14.9852H1145.59M1103.43 12.1699H1138.29M1103.43 12.1699L1096.96 9.44994M1062.69 9.44994H1096.96M1062.69 9.44994L1060.53 8.45344L1057 6.82002M1062.69 9.44994H1028.42M1117.07 17.9006L1124.26 20.9216M1117.07 17.9006H1153.16M1145.59 14.9852L1138.29 12.1699M1145.59 14.9852L1153.16 17.9006M1138.29 12.1699L1131.22 9.44994M1096.96 9.44994H1131.22M1096.96 9.44994L1090.7 6.82002M1153.16 17.9006L1161.01 20.9216M1165.49 9.44994L1158.1 6.82002M1165.49 9.44994H1131.22M1131.22 9.44994L1130.36 9.116L1128.64 8.45344L1124.4 6.82002M1087.51 20.9216H1124.26M1087.51 20.9216H1050.75M1131.71 24.0539L1124.26 20.9216M1131.71 24.0539L1139.44 27.3038M1131.71 24.0539H1169.14M1124.26 20.9216H1161.01M1050.75 20.9216H1014M1050.75 20.9216L1044.87 17.9006M1161.01 20.9216L1169.14 24.0539M1044.87 17.9006H1008.78M1139.44 27.3038L1147.48 30.6781M1139.44 27.3038H1177.58M1169.14 24.0539L1170.18 24.4532L1177.58 27.3038M1177.58 27.3038L1186.34 30.6781M1108.61 30.6781L1109.55 31.1093L1116.2 34.1845M1108.61 30.6781H1147.48M1108.61 30.6781H1069.75M1147.48 30.6781L1155.82 34.1845M1147.48 30.6781H1186.34M1186.34 30.6781L1195.44 34.1845M1116.2 34.1845H1155.82M1116.2 34.1845H1076.58M1164.5 37.8303L1155.82 34.1845M1164.5 37.8303L1173.52 41.6241M1164.5 37.8303H1204.9M1155.82 34.1845H1195.44M1076.58 34.1845H1036.96M1076.58 34.1845L1069.75 30.6781M1195.44 34.1845L1204.9 37.8303M1069.75 30.6781H1030.89M1173.52 41.6241L1182.93 45.5753M1173.52 41.6241H1214.75M1204.9 37.8303L1214.75 41.6241M1214.75 41.6241L1225.01 45.5753M1140.84 45.5753L1149.75 49.694M1140.84 45.5753H1182.93M1140.84 45.5753H1098.76M1182.93 45.5753L1192.73 49.694M1182.93 45.5753H1225.01M1225.01 45.5753L1235.7 49.694M1149.75 49.694H1192.73M1149.75 49.694H1106.78M1202.95 53.9907L1192.73 49.694M1202.95 53.9907L1213.63 58.4771M1202.95 53.9907H1246.86M1192.73 49.694H1235.7M1106.78 49.694H1063.8M1106.78 49.694L1098.76 45.5753M1235.7 49.694L1246.86 53.9907M1098.76 45.5753H1056.67M1213.63 58.4771L1224.79 63.1669M1213.63 58.4771H1258.51M1246.86 53.9907L1258.51 58.4771M1258.51 58.4771L1270.68 63.1669M1178.9 63.1669L1189.52 68.0734M1178.9 63.1669H1224.79M1178.9 63.1669H1133.01M1224.79 63.1669L1236.47 68.0734M1224.79 63.1669H1270.68M1270.68 63.1669L1283.42 68.0734M1189.52 68.0734H1236.47M1189.52 68.0734H1142.57M1248.7 73.2122L1236.47 68.0734M1248.7 73.2122L1261.52 78.6003M1248.7 73.2122H1296.76M1236.47 68.0734H1283.42M1142.57 68.0734H1095.61M1142.57 68.0734L1133.01 63.1669M1283.42 68.0734L1296.76 73.2122M1133.01 63.1669H1087.12M1261.52 78.6003L1274.98 84.2566M1261.52 78.6003H1310.75M1296.76 73.2122L1310.75 78.6003M1310.75 78.6003L1325.43 84.2566M1224.53 84.2566L1237.39 90.2008M1224.53 84.2566H1274.98M1224.53 84.2566H1174.08M1274.98 84.2566L1289.13 90.2008M1274.98 84.2566H1325.43M1325.43 84.2566L1340.87 90.2008M1237.39 90.2008H1289.13M1237.39 90.2008H1185.65M1304.02 96.4562L1289.13 90.2008M1304.02 96.4562L1319.7 103.047M1304.02 96.4562H1357.11M1289.13 90.2008H1340.87M1185.65 90.2008H1133.91M1185.65 90.2008L1174.08 84.2566M1340.87 90.2008L1357.11 96.4562M1340.87 90.2008H1392.61M1174.08 84.2566H1123.62M1319.7 103.047L1336.25 110.003M1319.7 103.047H1374.22M1357.11 96.4562L1374.22 103.047M1392.61 90.2008H1439.61M1374.22 103.047L1392.28 110.003M1280.23 110.003L1296.13 117.353M1280.23 110.003H1336.25M1280.23 110.003H1224.21M1336.25 110.003L1353.75 117.353M1336.25 110.003H1392.28M1392.28 110.003L1411.36 117.353M1392.28 110.003H1439.61M1296.13 117.353H1353.75M1296.13 117.353H1238.52M1372.26 125.133L1353.75 117.353M1372.26 125.133L1391.89 133.38M1372.26 125.133H1431.56M1353.75 117.353H1411.36M1238.52 117.353H1180.91M1238.52 117.353L1224.21 110.003M1411.36 117.353L1431.56 125.133M1411.36 117.353H1439.61M1224.21 110.003H1168.18M1391.89 133.38L1412.73 142.14M1391.89 133.38H1439.61M1431.56 125.133H1439.61M1431.56 125.133L1439.61 128.236M1349.76 142.14L1369.92 151.46M1349.76 142.14H1412.73M1349.76 142.14H1286.78M1412.73 142.14L1434.91 151.46M1412.73 142.14H1439.61M1369.92 151.46H1434.91M1369.92 151.46H1304.93M1434.91 151.46L1439.61 153.434M1434.91 151.46H1439.61M1304.93 151.46H1239.94M1304.93 151.46L1286.78 142.14M1286.78 142.14H1223.81M1438.99 183.383H1367.09M1438.99 183.383H1439.61M1438.99 183.383L1439.61 183.672M1367.09 183.383H1295.19M1367.09 183.383L1390.85 195.588M936.582 17.9006L938.036 19.0206L938.525 19.3976L940.503 20.9216M936.582 17.9006H972.679M936.582 17.9006H900.485M968.263 14.9852L965.052 12.8649L964 12.1699M968.263 14.9852L972.119 17.5304L972.679 17.9006M968.263 14.9852H1003.73M964 12.1699H998.857M964 12.1699L959.881 9.44994M925.612 9.44994H959.881M925.612 9.44994L924.318 8.45344L922.198 6.82002M925.612 9.44994H891.344M972.679 17.9006L973.807 18.6455L977.254 20.9216M972.679 17.9006H1008.78M1003.73 14.9852L998.857 12.1699M1003.73 14.9852L1008.78 17.9006M998.857 12.1699L995.311 10.1212L994.149 9.44994M959.881 9.44994H994.149M959.881 9.44994L955.898 6.82002M1008.78 17.9006L1014 20.9216M1028.42 9.44994L1027.77 9.116L1023.3 6.82002M1028.42 9.44994H994.149M994.149 9.44994L992.424 8.45344L989.598 6.82002M940.503 20.9216H977.254M940.503 20.9216H903.752M981.997 24.0539L977.254 20.9216M981.997 24.0539L986.919 27.3038M981.997 24.0539H1019.43M977.254 20.9216H1014M903.752 20.9216H867.002M903.752 20.9216L900.485 17.9006M1014 20.9216L1019.43 24.0539M900.485 17.9006H864.388M986.919 27.3038L990.09 29.398L990.734 29.8224L992.029 30.6781M986.919 27.3038H1025.05M1019.43 24.0539L1025.05 27.3038M1025.05 27.3038L1030.89 30.6781M953.168 30.6781L957.72 34.1845M953.168 30.6781H992.029M953.168 30.6781H914.307M992.029 30.6781L997.339 34.1845M992.029 30.6781H1030.89M1030.89 30.6781L1036.96 34.1845M957.72 34.1845H997.339M957.72 34.1845H918.1M1002.86 37.8303L999.384 35.5348L998.7 35.0823L997.339 34.1845M1002.86 37.8303L1008.61 41.6241M1002.86 37.8303H1043.27M997.339 34.1845H1036.96M918.1 34.1845H878.48M918.1 34.1845L914.307 30.6781M1036.96 34.1845L1043.27 37.8303M914.307 30.6781H875.445M1008.61 41.6241L1014.59 45.5753M1008.61 41.6241H1049.84M1043.27 37.8303L1049.84 41.6241M1049.84 41.6241L1056.67 45.5753M972.506 45.5753L975.151 47.6129L975.821 48.1293L977.852 49.694M972.506 45.5753H1014.59M972.506 45.5753H930.421M1014.59 45.5753L1020.83 49.694M1014.59 45.5753H1056.67M1056.67 45.5753L1063.8 49.694M977.852 49.694H1020.83M977.852 49.694H934.877M1027.33 53.9907L1020.83 49.694M1027.33 53.9907L1034.13 58.4771M1027.33 53.9907H1071.24M1020.83 49.694H1063.8M934.877 49.694H891.901M934.877 49.694L933.745 48.6481L930.421 45.5753M1063.8 49.694L1071.24 53.9907M930.421 45.5753H888.338M1034.13 58.4771L1041.23 63.1669M1034.13 58.4771H1079M1071.24 53.9907L1079 58.4771M1079 58.4771L1087.12 63.1669M995.341 63.1669L1001.71 68.0734M995.341 63.1669H1041.23M995.341 63.1669H949.451M1041.23 63.1669L1048.66 68.0734M1041.23 63.1669H1087.12M1087.12 63.1669L1095.61 68.0734M1001.71 68.0734H1048.66M1001.71 68.0734H954.759M1056.44 73.2122L1048.66 68.0734M1056.44 73.2122L1064.6 78.6003M1056.44 73.2122H1104.51M1048.66 68.0734H1095.61M954.759 68.0734H907.807M954.759 68.0734L949.451 63.1669M1095.61 68.0734L1104.51 73.2122M949.451 63.1669H903.561M1064.6 78.6003L1073.17 84.2566M1064.6 78.6003H1113.83M1104.51 73.2122L1113.83 78.6003M1113.83 78.6003L1123.62 84.2566M1022.72 84.2566L1030.43 90.2008M1022.72 84.2566H1073.17M1022.72 84.2566H972.265M1073.17 84.2566L1082.17 90.2008M1073.17 84.2566H1123.62M1123.62 84.2566L1133.91 90.2008M1030.43 90.2008H1082.17M1030.43 90.2008H978.695M1091.65 96.4562L1082.17 90.2008M1091.65 96.4562L1101.63 103.047M1091.65 96.4562H1144.74M1082.17 90.2008H1133.91M978.695 90.2008H926.956M978.695 90.2008L972.265 84.2566M1133.91 90.2008L1144.74 96.4562M972.265 84.2566H921.812M1101.63 103.047L1112.16 110.003M1101.63 103.047H1156.15M1144.74 96.4562L1156.15 103.047M1156.15 103.047L1168.18 110.003M1056.14 110.003L1065.68 117.353M1056.14 110.003H1112.16M1056.14 110.003H1000.12M1112.16 110.003L1123.29 117.353M1112.16 110.003H1168.18M1168.18 110.003L1180.91 117.353M1065.68 117.353H1123.29M1065.68 117.353H1008.07M1135.07 125.133L1123.29 117.353M1135.07 125.133L1147.57 133.38M1135.07 125.133H1194.37M1123.29 117.353H1180.91M1008.07 117.353H950.453M1008.07 117.353L1000.12 110.003M1180.91 117.353L1194.37 125.133M1000.12 110.003H944.093M1147.57 133.38L1160.83 142.14M1147.57 133.38H1208.65M1194.37 125.133L1208.65 133.38M1208.65 133.38L1223.81 142.14M1097.86 142.14L1109.95 151.46M1097.86 142.14H1160.83M1097.86 142.14H1034.88M1160.83 142.14L1174.95 151.46M1160.83 142.14H1223.81M1223.81 142.14L1239.94 151.46M1109.95 151.46H1174.95M1109.95 151.46H1044.96M1189.99 161.397L1174.95 151.46M1189.99 161.397L1206.07 172.014M1189.99 161.397H1257.14M1174.95 151.46H1239.94M1044.96 151.46H979.969M1044.96 151.46L1034.88 142.14M1239.94 151.46L1257.14 161.397M1034.88 142.14H971.903M1206.07 172.014L1223.29 183.383M1206.07 172.014H1275.51M1257.14 161.397L1275.51 172.014M1275.51 172.014L1295.19 183.383M1151.39 183.383L1167.23 195.588M1151.39 183.383H1223.29M1151.39 183.383H1079.49M1223.29 183.383L1241.77 195.588M1223.29 183.383H1295.19M1295.19 183.383L1316.31 195.588M1167.23 195.588H1241.77M1167.23 195.588H1092.7M1261.67 208.722L1241.77 195.588M1261.67 208.722L1283.13 222.899M1261.67 208.722H1339.05M1241.77 195.588H1316.31M1092.7 195.588H1018.16M1092.7 195.588L1079.49 183.383M1316.31 195.588L1339.05 208.722M1316.31 195.588H1390.85M1079.49 183.383H1007.6M1283.13 222.899L1306.37 238.245M1283.13 222.899H1363.58M1339.05 208.722L1363.58 222.899M1390.85 195.588H1439.61M1363.58 222.899L1390.14 238.245M1363.58 222.899H1439.61M1222.61 238.245L1244.24 254.912M1222.61 238.245H1306.37M1222.61 238.245H1138.84M1306.37 238.245L1331.62 254.912M1306.37 238.245H1390.14M1390.14 238.245L1418.99 254.912M1390.14 238.245H1439.61M1244.24 254.912H1331.62M1244.24 254.912H1156.87M1359.13 273.078L1331.62 254.912M1359.13 273.078L1389.23 292.956M1359.13 273.078H1439.61M1331.62 254.912H1418.99M1156.87 254.912H1069.49M1156.87 254.912L1138.84 238.245M1418.99 254.912H1439.61M1418.99 254.912L1439.61 266.827M1138.84 238.245H1055.07M1389.23 292.956L1422.31 314.799M1389.23 292.956H1439.61M1321.98 314.799L1353.28 338.914M1321.98 314.799H1422.31M1321.98 314.799H1221.65M1422.31 314.799L1439.61 326.223M1422.31 314.799H1439.61M1353.28 338.914H1247.74M1353.28 338.914L1439.61 338.914M1247.74 338.914H1142.19M1247.74 338.914L1221.65 314.799M1221.65 314.799H1121.32M792.194 17.9006L792.355 18.2723L792.516 18.6455L792.679 19.0206L792.841 19.3976L793.335 20.5378L793.501 20.9216M792.194 17.9006H828.291M792.194 17.9006H756.097M826.399 14.9852L825.022 12.8649L824.572 12.1699M826.399 14.9852L827.574 16.7952L828.291 17.9006M826.399 14.9852H861.865M824.572 12.1699H859.429M824.572 12.1699L823.242 10.1212L822.806 9.44994M788.537 9.44994L788.393 9.116L787.822 7.79571L787.399 6.82002M788.537 9.44994H822.806M788.537 9.44994H754.269M828.291 17.9006L828.532 18.2723L828.775 18.6455L829.018 19.0206L829.263 19.3976L830.251 20.9216M828.291 17.9006H864.388M861.865 14.9852L860.03 12.8649L859.429 12.1699M861.865 14.9852L864.388 17.9006M859.429 12.1699L858.241 10.7983L857.364 9.78486L857.075 9.44994M822.806 9.44994L822.59 9.116L822.16 8.45344L821.732 7.79571L821.521 7.46903L821.099 6.82002M822.806 9.44994H857.075M864.388 17.9006L866.34 20.156L867.002 20.9216M891.344 9.44994L889.201 7.46903L888.499 6.82002M891.344 9.44994H857.075M857.075 9.44994L855.08 7.1438L854.798 6.82002M793.501 20.9216H830.251M793.501 20.9216H756.751M832.284 24.0539L830.251 20.9216M832.284 24.0539L834.394 27.3038M832.284 24.0539H869.712M830.251 20.9216H867.002M756.751 20.9216H720M756.751 20.9216L756.097 17.9006M867.002 20.9216L869.712 24.0539M756.097 17.9006H720M834.394 27.3038L834.934 28.1353L835.753 29.398L836.584 30.6781M834.394 27.3038H872.526M869.712 24.0539L870.059 24.4532L872.526 27.3038M872.526 27.3038L872.884 27.7186L873.245 28.1353L873.607 28.5544L875.445 30.6781M797.723 30.6781L799.24 34.1845M797.723 30.6781H836.584M797.723 30.6781H758.861M836.584 30.6781L838.86 34.1845M836.584 30.6781H875.445M875.445 30.6781L877.71 33.2949L878.094 33.7387L878.48 34.1845M799.24 34.1845H838.86M799.24 34.1845H759.62M841.226 37.8303L841.528 38.2963L841.833 38.7643L842.138 39.2352L843.689 41.6241M841.226 37.8303L840.031 35.9892L839.736 35.5348L839.443 35.0823L838.86 34.1845M841.226 37.8303H881.635M838.86 34.1845H878.48M759.62 34.1845H720M759.62 34.1845L758.861 30.6781M878.48 34.1845L881.635 37.8303M758.861 30.6781H720M843.689 41.6241L845.927 45.0725L846.253 45.5753M843.689 41.6241H884.918M881.635 37.8303L882.444 38.7643L884.918 41.6241M884.918 41.6241L886.184 43.0867L888.338 45.5753M804.168 45.5753L805.051 47.6129L805.273 48.1293L805.951 49.694M804.168 45.5753H846.253M804.168 45.5753H762.085M846.253 45.5753L848.926 49.694M846.253 45.5753H888.338M888.338 45.5753L891.901 49.694M805.951 49.694H848.926M805.951 49.694H762.975M851.715 53.9907L848.926 49.694M851.715 53.9907L854.627 58.4771M851.715 53.9907H895.62M848.926 49.694H891.901M762.975 49.694H720M762.975 49.694L762.749 48.6481L762.304 46.5888L762.085 45.5753M891.901 49.694L895.62 53.9907M762.085 45.5753H720M854.627 58.4771L856.897 61.9748L857.671 63.1669M854.627 58.4771H899.503M895.62 53.9907L899.503 58.4771M899.503 58.4771L901.509 60.7959L903.561 63.1669M811.781 63.1669L813.903 68.0734M811.781 63.1669H857.671M811.781 63.1669H765.89M857.671 63.1669L860.855 68.0734M857.671 63.1669H903.561M903.561 63.1669L907.807 68.0734M813.903 68.0734H860.855M813.903 68.0734H766.952M864.191 73.2122L863.342 71.905L860.855 68.0734M864.191 73.2122L867.688 78.6003M864.191 73.2122H912.254M860.855 68.0734H907.807M766.952 68.0734H720M766.952 68.0734L765.89 63.1669M907.807 68.0734L912.254 73.2122M765.89 63.1669H720M867.688 78.6003L871.359 84.2566M867.688 78.6003H916.917M912.254 73.2122L916.917 78.6003M916.917 78.6003L921.812 84.2566M820.906 84.2566L823.478 90.2008M820.906 84.2566H871.359M820.906 84.2566H770.453M871.359 84.2566L875.217 90.2008M871.359 84.2566H921.812M921.812 84.2566L926.956 90.2008M823.478 90.2008H875.217M823.478 90.2008H771.739M879.277 96.4562L875.217 90.2008M879.277 96.4562L883.555 103.047M879.277 96.4562H932.369M875.217 90.2008H926.956M771.739 90.2008H720M771.739 90.2008L770.61 84.9835L770.453 84.2566M926.956 90.2008L932.369 96.4562M770.453 84.2566H720M883.555 103.047L888.069 110.003M883.555 103.047H938.073M932.369 96.4562L936.618 101.367L938.073 103.047M938.073 103.047L944.093 110.003M832.046 110.003L835.226 117.353M832.046 110.003H888.069M832.046 110.003H776.023M888.069 110.003L892.84 117.353M888.069 110.003H944.093M944.093 110.003L950.453 117.353M835.226 117.353H892.84M835.226 117.353H777.613M897.889 125.133L892.84 117.353M897.889 125.133L903.242 133.38M897.889 125.133H957.185M892.84 117.353H950.453M777.613 117.353H720M777.613 117.353L776.023 110.003M950.453 117.353L957.185 125.133M776.023 110.003H720M903.242 133.38L908.927 142.14M903.242 133.38H964.323M957.185 125.133L964.323 133.38M964.323 133.38L971.903 142.14M845.952 142.14L849.985 151.46M845.952 142.14H908.927M845.952 142.14H782.976M908.927 142.14L914.977 151.46M908.927 142.14H971.903M971.903 142.14L979.969 151.46M849.985 151.46H914.977M849.985 151.46H784.992M921.426 161.397L914.977 151.46M921.426 161.397L928.317 172.014M921.426 161.397H988.568M914.977 151.46H979.969M784.992 151.46H720M784.992 151.46L782.976 142.14M979.969 151.46L988.568 161.397M782.976 142.14H720M928.317 172.014L935.696 183.383M928.317 172.014H997.756M988.568 161.397L997.756 172.014M997.756 172.014L1007.6 183.383M863.797 183.383L869.078 195.588M863.797 183.383H935.696M863.797 183.383H791.899M935.696 183.383L943.617 195.588M935.696 183.383H1007.6M1007.6 183.383L1018.16 195.588M869.078 195.588H943.617M869.078 195.588H794.539M952.142 208.722L943.617 195.588M952.142 208.722L961.343 222.899M952.142 208.722H1029.52M943.617 195.588H1018.16M794.539 195.588H720M794.539 195.588L791.899 183.383M1018.16 195.588L1029.52 208.722M791.899 183.383H720M961.343 222.899L971.304 238.245M961.343 222.899H1041.79M1029.52 208.722L1041.79 222.899M1041.79 222.899L1055.07 238.245M887.536 238.245L894.747 254.912M887.536 238.245H971.304M887.536 238.245H803.768M971.304 238.245L982.121 254.912M971.304 238.245H1055.07M1055.07 238.245L1069.49 254.912M894.747 254.912H982.121M894.747 254.912H807.374M993.912 273.078L982.121 254.912M993.912 273.078L1006.81 292.956M993.912 273.078H1085.22M982.121 254.912H1069.49M807.374 254.912H720M807.374 254.912L803.768 238.245M1069.49 254.912L1085.22 273.078M803.768 238.245H720M1006.81 292.956L1020.99 314.799M1006.81 292.956H1102.42M1085.22 273.078L1102.42 292.956M1102.42 292.956L1121.32 314.799M920.66 314.799L931.095 338.914M920.66 314.799H1020.99M920.66 314.799H820.33M1020.99 314.799L1036.64 338.914M1020.99 314.799H1121.32M1121.32 314.799L1142.19 338.914M1036.64 338.914H931.095M1036.64 338.914H1142.19M931.095 338.914H825.548M825.548 338.914H720M825.548 338.914L820.33 314.799M820.33 314.799H720M647.806 17.9006L647.645 18.2723L647.484 18.6455L647.321 19.0206L647.159 19.3976L646.83 20.156L646.665 20.5378L646.499 20.9216M647.806 17.9006H683.903M647.806 17.9006H611.709M684.534 14.9852L685.143 12.1699M684.534 14.9852L683.903 17.9006M684.534 14.9852H720M685.143 12.1699L685.217 11.8248L685.292 11.4812L685.366 11.139L685.732 9.44994M685.143 12.1699H720M651.463 9.44994L651.607 9.116L652.178 7.79571L652.601 6.82002M651.463 9.44994H685.732M651.463 9.44994H617.194M683.903 17.9006L683.822 18.2723L683.742 18.6455L683.66 19.0206L683.25 20.9216M683.903 17.9006H720M720 14.9852V12.1699M720 14.9852V17.9006M720 12.1699V9.44994M685.732 9.44994H720M685.732 9.44994L685.947 8.45344L686.019 8.12385L686.3 6.82002M720 17.9006V20.9216M754.269 9.44994L754.054 8.45344L753.982 8.12385L753.911 7.79571L753.84 7.46903L753.77 7.1438L753.7 6.82002M754.269 9.44994H720M720 9.44994V6.82002M646.499 20.9216H683.25M646.499 20.9216H609.749M682.572 24.0539L682.485 24.4532L682.399 24.8549L681.869 27.3038M682.572 24.0539L683.25 20.9216M682.572 24.0539H720M683.25 20.9216H720M609.749 20.9216H572.998M609.749 20.9216L610.245 20.156L610.492 19.776L610.737 19.3976L610.983 19.0206L611.225 18.6455L611.468 18.2723L611.709 17.9006M720 20.9216V24.0539M611.709 17.9006H575.612M681.869 27.3038L681.139 30.6781M681.869 27.3038H720M720 24.0539V27.3038M720 27.3038V30.6781M642.277 30.6781L640.76 34.1845M642.277 30.6781H681.139M642.277 30.6781H603.416M681.139 30.6781L680.38 34.1845M681.139 30.6781H720M720 30.6781V34.1845M640.76 34.1845H680.38M640.76 34.1845H601.14M679.592 37.8303L680.38 34.1845M679.592 37.8303L678.771 41.6241M679.592 37.8303H720M680.38 34.1845H720M601.14 34.1845H561.52M601.14 34.1845L603.416 30.6781M720 34.1845V37.8303M603.416 30.6781H564.555M678.771 41.6241L678.454 43.0867L678.133 44.572L677.915 45.5753M678.771 41.6241H720M720 37.8303V41.6241M720 41.6241V45.5753M635.832 45.5753L634.949 47.6129L634.727 48.1293L634.049 49.694M635.832 45.5753H677.915M635.832 45.5753H593.747M677.915 45.5753L677.697 46.5888L677.251 48.6481L677.025 49.694M677.915 45.5753H720M720 45.5753V49.694M634.049 49.694H677.025M634.049 49.694H591.074M676.095 53.9907L676.213 53.4433L677.025 49.694M676.095 53.9907L675.125 58.4771M676.095 53.9907H720M677.025 49.694H720M591.074 49.694H548.099M591.074 49.694L593.747 45.5753M720 49.694V53.9907M593.747 45.5753H551.662M675.125 58.4771L674.11 63.1669M675.125 58.4771H720M720 53.9907V58.4771M720 58.4771V63.1669M628.219 63.1669L626.097 68.0734M628.219 63.1669H674.11M628.219 63.1669H582.329M674.11 63.1669L673.048 68.0734M674.11 63.1669H720M720 63.1669V68.0734M626.097 68.0734H673.048M626.097 68.0734H579.145M671.937 73.2122L673.048 68.0734M671.937 73.2122L670.771 78.6003M671.937 73.2122H720M673.048 68.0734H720M579.145 68.0734H532.193M579.145 68.0734L582.329 63.1669M720 68.0734V73.2122M582.329 63.1669H536.439M670.771 78.6003L669.547 84.2566M670.771 78.6003H720M720 73.2122V78.6003M720 78.6003V84.2566M619.094 84.2566L616.522 90.2008M619.094 84.2566H669.547M619.094 84.2566H568.642M669.547 84.2566L668.261 90.2008M669.547 84.2566H720M720 84.2566V90.2008M616.522 90.2008H668.261M616.522 90.2008H564.783M666.908 96.4562L668.261 90.2008M666.908 96.4562L665.482 103.047M666.908 96.4562H720M668.261 90.2008H720M564.783 90.2008H513.044M564.783 90.2008L568.642 84.2566M720 90.2008V96.4562M568.642 84.2566H518.188M665.482 103.047L663.977 110.003M665.482 103.047H720M720 96.4562V103.047M720 103.047V110.003M607.954 110.003L604.774 117.353M607.954 110.003H663.977M607.954 110.003H551.931M663.977 110.003L662.387 117.353M663.977 110.003H720M720 110.003V117.353M604.774 117.353H662.387M604.774 117.353H547.16M660.704 125.133L662.387 117.353M660.704 125.133L658.919 133.38M660.704 125.133H720M662.387 117.353H720M547.16 117.353H489.547M547.16 117.353L551.931 110.003M720 117.353V125.133M551.931 110.003H495.907M658.919 133.38L657.024 142.14M658.919 133.38H720M720 125.133V133.38M720 133.38V142.14M594.048 142.14L590.016 151.46M594.048 142.14H657.024M594.048 142.14H531.073M657.024 142.14L655.008 151.46M657.024 142.14H720M720 142.14V151.46M590.016 151.46H655.008M590.016 151.46H525.023M652.858 161.397L655.008 151.46M652.858 161.397L650.561 172.014M652.858 161.397H720M655.008 151.46H720M525.023 151.46H460.031M525.023 151.46L531.073 142.14M720 151.46V161.397M531.073 142.14H468.097M650.561 172.014L648.101 183.383M650.561 172.014H720M720 161.397V172.014M720 172.014V183.383M576.203 183.383L570.922 195.588M576.203 183.383H648.101M576.203 183.383H504.304M648.101 183.383L645.461 195.588M648.101 183.383H720M720 183.383V195.588M570.922 195.588H645.461M570.922 195.588H496.383M642.619 208.722L645.461 195.588M642.619 208.722L639.553 222.899M642.619 208.722H720M645.461 195.588H720M496.383 195.588H421.844M496.383 195.588L504.304 183.383M720 195.588V208.722M504.304 183.383H432.405M639.553 222.899L636.232 238.245M639.553 222.899H720M720 208.722V222.899M720 222.899V238.245M552.465 238.245L545.253 254.912M552.465 238.245H636.232M552.465 238.245H468.696M636.232 238.245L632.626 254.912M636.232 238.245H720M720 238.245V254.912M545.253 254.912H632.626M545.253 254.912H457.879M628.696 273.078L632.626 254.912M628.696 273.078L624.396 292.956M628.696 273.078H720M632.626 254.912H720M457.879 254.912H370.505M457.879 254.912L468.696 238.245M720 254.912V273.078M468.696 238.245H384.929M624.396 292.956L619.67 314.799M624.396 292.956H720M720 273.078V292.956M720 292.956V314.799M519.34 314.799L508.905 338.914M519.34 314.799H619.67M519.34 314.799H419.009M619.67 314.799L614.452 338.914M619.67 314.799H720M720 314.799V338.914M614.452 338.914H508.905M614.452 338.914H720M508.905 338.914H403.358M403.358 338.914H297.81M403.358 338.914L419.009 314.799M419.009 314.799H318.679M503.418 17.9006L501.475 19.3976L499.497 20.9216M503.418 17.9006H539.515M503.418 17.9006H467.322M542.669 14.9852L545.714 12.1699M542.669 14.9852L539.515 17.9006M542.669 14.9852H578.135M545.714 12.1699H580.571M545.714 12.1699L547.93 10.1212L548.657 9.44994M514.388 9.44994H548.657M514.388 9.44994L515.682 8.45344L517.802 6.82002M514.388 9.44994H480.119M539.515 17.9006L536.248 20.9216M539.515 17.9006H575.612M578.135 14.9852L580.571 12.1699M578.135 14.9852L575.612 17.9006M580.571 12.1699L581.759 10.7983L582.636 9.78486L582.925 9.44994M548.657 9.44994H582.925M548.657 9.44994L550.799 7.46903L551.501 6.82002M575.612 17.9006L573.66 20.156L572.998 20.9216M617.194 9.44994L617.41 9.116L617.841 8.45344L618.479 7.46903L618.901 6.82002M617.194 9.44994H582.925M582.925 9.44994L583.214 9.116L583.788 8.45344L585.201 6.82002M499.497 20.9216H536.248M499.497 20.9216H462.746M532.859 24.0539L533.29 23.6561L533.718 23.2597L535.412 21.6936L536.248 20.9216M532.859 24.0539L530.235 26.4796L529.343 27.3038M532.859 24.0539H570.288M536.248 20.9216H572.998M462.746 20.9216H425.996M462.746 20.9216L466.193 18.6455L467.322 17.9006M572.998 20.9216L570.288 24.0539M467.322 17.9006H431.224M529.343 27.3038L528.895 27.7186L528.444 28.1353L527.079 29.398L526.618 29.8224L525.693 30.6781M529.343 27.3038H567.474M570.288 24.0539L569.941 24.4532L567.474 27.3038M567.474 27.3038L567.116 27.7186L566.755 28.1353L566.393 28.5544L564.555 30.6781M486.832 30.6781L482.281 34.1845M486.832 30.6781H525.693M486.832 30.6781H447.971M525.693 30.6781L521.9 34.1845M525.693 30.6781H564.555M564.555 30.6781L561.52 34.1845M482.281 34.1845H521.9M482.281 34.1845H442.661M517.957 37.8303L521.9 34.1845M517.957 37.8303L513.853 41.6241M517.957 37.8303H558.365M521.9 34.1845H561.52M442.661 34.1845H403.041M442.661 34.1845L447.971 30.6781M561.52 34.1845L558.365 37.8303M447.971 30.6781H409.109M513.853 41.6241L509.579 45.5753M513.853 41.6241H555.082M558.365 37.8303L557.557 38.7643L555.082 41.6241M555.082 41.6241L553.816 43.0867L552.53 44.572L551.662 45.5753M467.494 45.5753L464.849 47.6129L462.148 49.694M467.494 45.5753H509.579M467.494 45.5753H425.409M509.579 45.5753L505.123 49.694M509.579 45.5753H551.662M551.662 45.5753L548.099 49.694M462.148 49.694H505.123M462.148 49.694H419.173M500.476 53.9907L505.123 49.694M500.476 53.9907L495.622 58.4771M500.476 53.9907H544.38M505.123 49.694H548.099M419.173 49.694H376.197M419.173 49.694L425.409 45.5753M548.099 49.694L544.38 53.9907M425.409 45.5753H383.326M495.622 58.4771L494.375 59.63L490.549 63.1669M495.622 58.4771H540.497M544.38 53.9907L540.497 58.4771M540.497 58.4771L540 59.0521L538.491 60.7959L536.439 63.1669M444.659 63.1669L438.29 68.0734M444.659 63.1669H490.549M444.659 63.1669H398.769M490.549 63.1669L485.241 68.0734M490.549 63.1669H536.439M536.439 63.1669L532.193 68.0734M438.29 68.0734H485.241M438.29 68.0734H391.338M479.682 73.2122L483.188 69.9725L485.241 68.0734M479.682 73.2122L473.854 78.6003M479.682 73.2122H527.746M485.241 68.0734H532.193M391.338 68.0734H344.386M391.338 68.0734L398.769 63.1669M532.193 68.0734L527.746 73.2122M398.769 63.1669H352.878M473.854 78.6003L467.735 84.2566M473.854 78.6003H523.083M527.746 73.2122L523.083 78.6003M523.083 78.6003L518.188 84.2566M417.282 84.2566L409.566 90.2008M417.282 84.2566H467.735M417.282 84.2566H366.83M467.735 84.2566L461.305 90.2008M467.735 84.2566H518.188M518.188 84.2566L513.044 90.2008M409.566 90.2008H461.305M409.566 90.2008H357.827M454.539 96.4562L461.305 90.2008M454.539 96.4562L447.409 103.047M454.539 96.4562H507.631M461.305 90.2008H513.044M357.827 90.2008H306.089M357.827 90.2008L366.83 84.2566M513.044 90.2008L507.631 96.4562M366.83 84.2566H316.377M447.409 103.047L439.885 110.003M447.409 103.047H501.927M507.631 96.4562L501.927 103.047M501.927 103.047L495.907 110.003M383.862 110.003L374.321 117.353M383.862 110.003H439.885M383.862 110.003H327.838M439.885 110.003L431.934 117.353M439.885 110.003H495.907M495.907 110.003L489.547 117.353M374.321 117.353H431.934M374.321 117.353H316.707M423.518 125.133L431.934 117.353M423.518 125.133L414.597 133.38M423.518 125.133H482.815M431.934 117.353H489.547M316.707 117.353H259.094M316.707 117.353L327.838 110.003M489.547 117.353L482.815 125.133M327.838 110.003H271.816M414.597 133.38L405.121 142.14M414.597 133.38H475.677M482.815 125.133L475.677 133.38M475.677 133.38L468.097 142.14M342.145 142.14L330.047 151.46M342.145 142.14H405.121M342.145 142.14H279.169M405.121 142.14L395.039 151.46M405.121 142.14H468.097M468.097 142.14L460.031 151.46M330.047 151.46H395.039M330.047 151.46H265.054M384.29 161.397L395.039 151.46M384.29 161.397L372.804 172.014M384.29 161.397H451.432M395.039 151.46H460.031M265.054 151.46H200.062M265.054 151.46L279.169 142.14M460.031 151.46L451.432 161.397M279.169 142.14H216.193M372.804 172.014L360.506 183.383M372.804 172.014H442.244M451.432 161.397L442.244 172.014M442.244 172.014L432.405 183.383M288.607 183.383L272.765 195.588M288.607 183.383H360.506M288.607 183.383H216.708M360.506 183.383L347.304 195.588M360.506 183.383H432.405M432.405 183.383L421.844 195.588M272.765 195.588H347.304M272.765 195.588H198.226M333.096 208.722L347.304 195.588M333.096 208.722L317.761 222.899M333.096 208.722H410.477M347.304 195.588H421.844M198.226 195.588H123.687M198.226 195.588L216.708 183.383M421.844 195.588L410.477 208.722M216.708 183.383H144.809M317.761 222.899L301.161 238.245M317.761 222.899H398.209M410.477 208.722L398.209 222.899M398.209 222.899L384.929 238.245M217.393 238.245L195.758 254.912M217.393 238.245H301.161M217.393 238.245H133.625M301.161 238.245L283.132 254.912M301.161 238.245H384.929M384.929 238.245L370.505 254.912M195.758 254.912H283.132M195.758 254.912H108.384M263.48 273.078L283.132 254.912M263.48 273.078L241.977 292.956M263.48 273.078H354.784M283.132 254.912H370.505M108.384 254.912H21.0104M108.384 254.912L133.625 238.245M370.505 254.912L354.784 273.078M133.625 238.245H49.8579M241.977 292.956L218.349 314.799M241.977 292.956H337.582M354.784 273.078L337.582 292.956M337.582 292.956L318.679 314.799M118.019 314.799L86.7156 338.914M118.019 314.799H218.349M118.019 314.799H17.6882M218.349 314.799L192.263 338.914M218.349 314.799H318.679M318.679 314.799L297.81 338.914M192.263 338.914H86.7156M192.263 338.914H297.81M86.7156 338.914L0.387546 338.914M17.6882 314.799L0.387546 326.223M17.6882 314.799H0.387546M359.03 17.9006L352.495 20.9216M359.03 17.9006H395.127M359.03 17.9006H322.934M400.804 14.9852L406.286 12.1699M400.804 14.9852L395.127 17.9006M400.804 14.9852H436.27M406.286 12.1699H441.143M406.286 12.1699L411.582 9.44994M377.313 9.44994H411.582M377.313 9.44994L379.47 8.45344L383.003 6.82002M377.313 9.44994H343.045M395.127 17.9006L389.245 20.9216M395.127 17.9006H431.224M436.27 14.9852L441.143 12.1699M436.27 14.9852L431.224 17.9006M441.143 12.1699L444.689 10.1212L445.851 9.44994M411.582 9.44994L412.232 9.116L416.703 6.82002M411.582 9.44994H445.851M431.224 17.9006L425.996 20.9216M480.119 9.44994L484.102 6.82002M480.119 9.44994H445.851M445.851 9.44994L447.576 8.45344L450.403 6.82002M352.495 20.9216H389.245M352.495 20.9216H315.744M383.146 24.0539L389.245 20.9216M383.146 24.0539L376.818 27.3038M383.146 24.0539H420.575M389.245 20.9216H425.996M315.744 20.9216H278.994M315.744 20.9216L322.934 17.9006M425.996 20.9216L420.575 24.0539M322.934 17.9006H286.837M376.818 27.3038L375.198 28.1353L370.247 30.6781M376.818 27.3038H414.95M420.575 24.0539L414.95 27.3038M414.95 27.3038L409.109 30.6781M331.386 30.6781L330.454 31.1093L323.801 34.1845M331.386 30.6781H370.247M331.386 30.6781H292.525M370.247 30.6781L363.421 34.1845M370.247 30.6781H409.109M409.109 30.6781L408.364 31.1093L403.041 34.1845M323.801 34.1845H363.421M323.801 34.1845H284.181M356.322 37.8303L363.421 34.1845M356.322 37.8303L348.935 41.6241M356.322 37.8303H396.731M363.421 34.1845H403.041M284.181 34.1845H244.561M284.181 34.1845L292.525 30.6781M403.041 34.1845L396.731 37.8303M292.525 30.6781H253.663M348.935 41.6241L341.241 45.5753M348.935 41.6241H390.164M396.731 37.8303L390.164 41.6241M390.164 41.6241L383.326 45.5753M299.157 45.5753L290.247 49.694M299.157 45.5753H341.241M299.157 45.5753H257.073M341.241 45.5753L333.222 49.694M341.241 45.5753H383.326M383.326 45.5753L376.197 49.694M290.247 49.694H333.222M290.247 49.694H247.271M324.856 53.9907L333.222 49.694M324.856 53.9907L316.119 58.4771M324.856 53.9907H368.76M333.222 49.694H376.197M247.271 49.694H204.296M247.271 49.694L257.073 45.5753M376.197 49.694L368.76 53.9907M257.073 45.5753H214.988M316.119 58.4771L306.988 63.1669M316.119 58.4771H360.995M368.76 53.9907L360.995 58.4771M360.995 58.4771L352.878 63.1669M261.098 63.1669L250.483 68.0734M261.098 63.1669H306.988M261.098 63.1669H215.208M306.988 63.1669L297.435 68.0734M306.988 63.1669H352.878M352.878 63.1669L344.386 68.0734M250.483 68.0734H297.435M250.483 68.0734H203.531M287.428 73.2122L297.435 68.0734M287.428 73.2122L276.937 78.6003M287.428 73.2122H335.492M297.435 68.0734H344.386M203.531 68.0734H156.579M203.531 68.0734L215.208 63.1669M344.386 68.0734L335.492 73.2122M215.208 63.1669H169.317M276.937 78.6003L265.924 84.2566M276.937 78.6003H326.166M335.492 73.2122L326.166 78.6003M326.166 78.6003L316.377 84.2566M215.471 84.2566L202.611 90.2008M215.471 84.2566H265.924M215.471 84.2566H165.018M265.924 84.2566L254.349 90.2008M265.924 84.2566H316.377M316.377 84.2566L306.089 90.2008M202.611 90.2008H254.349M202.611 90.2008H150.871M242.169 96.4562L254.349 90.2008M242.169 96.4562L229.335 103.047M242.169 96.4562H295.262M254.349 90.2008H306.089M150.871 90.2008H99.1326M150.871 90.2008L165.018 84.2566M306.089 90.2008L295.262 96.4562M165.018 84.2566H114.565M229.335 103.047L215.792 110.003M229.335 103.047H283.853M295.262 96.4562L283.853 103.047M283.853 103.047L271.816 110.003M159.769 110.003L143.868 117.353M159.769 110.003H215.792M159.769 110.003H103.746M215.792 110.003L201.481 117.353M215.792 110.003H271.816M271.816 110.003L259.094 117.353M143.868 117.353H201.481M143.868 117.353H86.2546M186.333 125.133L201.481 117.353M186.333 125.133L170.274 133.38M186.333 125.133H245.629M201.481 117.353H259.094M86.2546 117.353H28.6413M86.2546 117.353L103.746 110.003M259.094 117.353L245.629 125.133M103.746 110.003H47.7231M170.274 133.38L153.217 142.14M170.274 133.38H231.355M245.629 125.133L231.355 133.38M231.355 133.38L216.193 142.14M90.2417 142.14L70.0775 151.46M90.2417 142.14H153.217M90.2417 142.14H27.2658M153.217 142.14L135.07 151.46M153.217 142.14H216.193M216.193 142.14L200.062 151.46M70.0775 151.46H135.07M70.0775 151.46H5.08526M115.72 161.397L135.07 151.46M115.72 161.397L95.0481 172.014M115.72 161.397H182.863M135.07 151.46H200.062M5.08526 151.46L27.2658 142.14M5.08526 151.46H0.387546M5.08526 151.46L0.387546 153.434M200.062 151.46L182.863 161.397M27.2658 142.14H0.387546M95.0481 172.014L72.911 183.383M95.0481 172.014H164.487M182.863 161.397L164.487 172.014M164.487 172.014L144.809 183.383M1.01196 183.383H72.911M1.01196 183.383H0.387546M1.01196 183.383L0.387546 183.672M72.911 183.383L49.1473 195.588M72.911 183.383H144.809M144.809 183.383L123.687 195.588M23.5726 208.722L49.1473 195.588M23.5726 208.722H100.953M23.5726 208.722H0.387546M23.5726 208.722L0.387546 220.63M49.1473 195.588H123.687M49.1473 195.588H0.387546M123.687 195.588L100.953 208.722M100.953 208.722L76.4183 222.899M76.4183 222.899L49.8579 238.245M76.4183 222.899H0.387546M49.8579 238.245L21.0104 254.912M49.8579 238.245H0.387546M21.0104 254.912H0.387546M21.0104 254.912L0.387546 266.827M214.642 17.9006L205.493 20.9216M214.642 17.9006H250.74M214.642 17.9006H178.546M258.939 14.9852L266.857 12.1699M258.939 14.9852L250.74 17.9006M258.939 14.9852H294.405M266.857 12.1699H301.714M266.857 12.1699L274.507 9.44994M240.239 9.44994H274.507M240.239 9.44994L248.204 6.82002M240.239 9.44994H205.97M250.74 17.9006L242.243 20.9216M250.74 17.9006H286.837M294.405 14.9852L301.714 12.1699M294.405 14.9852L286.837 17.9006M301.714 12.1699L308.776 9.44994M274.507 9.44994L275.445 9.116L281.904 6.82002M274.507 9.44994H308.776M286.837 17.9006L278.994 20.9216M343.045 9.44994L349.303 6.82002M343.045 9.44994H308.776M308.776 9.44994L309.642 9.116L315.603 6.82002M205.493 20.9216H242.243M205.493 20.9216H168.742M233.433 24.0539L242.243 20.9216M233.433 24.0539L224.293 27.3038M233.433 24.0539H270.862M242.243 20.9216H278.994M168.742 20.9216H131.992M168.742 20.9216L178.546 17.9006M278.994 20.9216L270.862 24.0539M178.546 17.9006H142.449M224.293 27.3038L214.802 30.6781M224.293 27.3038H262.424M270.862 24.0539L269.824 24.4532L262.424 27.3038M262.424 27.3038L253.663 30.6781M175.941 30.6781L165.321 34.1845M175.941 30.6781H214.802M175.941 30.6781H137.079M214.802 30.6781L204.941 34.1845M214.802 30.6781H253.663M253.663 30.6781L244.561 34.1845M165.321 34.1845H204.941M165.321 34.1845H125.701M194.687 37.8303L204.941 34.1845M194.687 37.8303L184.017 41.6241M194.687 37.8303H235.096M204.941 34.1845H244.561M125.701 34.1845H86.0814M125.701 34.1845L137.079 30.6781M244.561 34.1845L235.096 37.8303M137.079 30.6781H98.2181M184.017 41.6241L172.904 45.5753M184.017 41.6241H225.246M235.096 37.8303L225.246 41.6241M225.246 41.6241L214.988 45.5753M130.82 45.5753L118.345 49.694M130.82 45.5753H172.904M130.82 45.5753H88.735M172.904 45.5753L161.321 49.694M172.904 45.5753H214.988M214.988 45.5753L204.296 49.694M118.345 49.694H161.321M118.345 49.694H75.3697M149.236 53.9907L161.321 49.694M149.236 53.9907L136.617 58.4771M149.236 53.9907H193.141M161.321 49.694H204.296M75.3697 49.694H32.3946M75.3697 49.694L88.735 45.5753M204.296 49.694L193.141 53.9907M88.735 45.5753H46.6511M136.617 58.4771L123.427 63.1669M136.617 58.4771H181.492M193.141 53.9907L181.492 58.4771M181.492 58.4771L169.317 63.1669M77.5368 63.1669L62.676 68.0734M77.5368 63.1669H123.427M77.5368 63.1669H31.6472M123.427 63.1669L109.628 68.0734M123.427 63.1669H169.317M169.317 63.1669L156.579 68.0734M62.676 68.0734H109.628M95.174 73.2122L109.628 68.0734M95.174 73.2122L80.0202 78.6003M95.174 73.2122H143.238M109.628 68.0734H156.579M156.579 68.0734L143.238 73.2122M31.6472 63.1669H0.387546M80.0202 78.6003L64.1122 84.2566M80.0202 78.6003H129.249M143.238 73.2122L129.249 78.6003M129.249 78.6003L114.565 84.2566M13.6591 84.2566H64.1122M13.6591 84.2566H0.387546M13.6591 84.2566L0.387546 88.6381M64.1122 84.2566L47.3932 90.2008M64.1122 84.2566H114.565M114.565 84.2566L99.1326 90.2008M29.8002 96.4562L47.3932 90.2008M29.8002 96.4562L11.2619 103.047M29.8002 96.4562H82.8926M29.8002 96.4562H0.387546M47.3932 90.2008H99.1326M47.3932 90.2008H0.387546M99.1326 90.2008L82.8926 96.4562M0.241375 88.6864L0.387546 88.6381M11.2619 103.047H65.7801M11.2619 103.047H0.387546M11.2619 103.047L0.387546 106.914M82.8926 96.4562L65.7801 103.047M65.7801 103.047L47.7231 110.003M47.7231 110.003L28.6413 117.353M47.7231 110.003H0.387546M8.44421 125.133L28.6413 117.353M8.44421 125.133H0.387546M8.44421 125.133L0.387546 128.236M28.6413 117.353H0.387546M70.2552 17.9006L58.491 20.9216M70.2552 17.9006H106.352M70.2552 17.9006H34.1576M117.074 14.9852L127.428 12.1699M117.074 14.9852L106.352 17.9006M117.074 14.9852H152.541M127.428 12.1699H162.285M127.428 12.1699L137.433 9.44994M103.164 9.44994H137.433M103.164 9.44994L113.405 6.82002M103.164 9.44994H68.8954M106.352 17.9006L95.2415 20.9216M106.352 17.9006H142.449M152.541 14.9852L162.285 12.1699M152.541 14.9852L142.449 17.9006M162.285 12.1699L171.701 9.44994M137.433 9.44994H171.701M137.433 9.44994L147.105 6.82002M142.449 17.9006L131.992 20.9216M205.97 9.44994L214.504 6.82002M205.97 9.44994H171.701M171.701 9.44994L180.805 6.82002M58.491 20.9216H95.2415M58.491 20.9216H21.7405M83.7209 24.0539L95.2415 20.9216M83.7209 24.0539L71.7679 27.3038M83.7209 24.0539H121.149M95.2415 20.9216H131.992M21.7405 20.9216L34.1576 17.9006M21.7405 20.9216H0.387546M131.992 20.9216L121.149 24.0539M34.1576 17.9006H0.387546M71.7679 27.3038L59.3568 30.6781M71.7679 27.3038H109.899M121.149 24.0539L109.899 27.3038M109.899 27.3038L98.2181 30.6781M20.4955 30.6781L6.84157 34.1845M20.4955 30.6781H59.3568M20.4955 30.6781H0.387546M59.3568 30.6781L46.4615 34.1845M59.3568 30.6781H98.2181M98.2181 30.6781L86.0814 34.1845M33.0527 37.8303L46.4615 34.1845M33.0527 37.8303L19.099 41.6241M33.0527 37.8303H73.4612M33.0527 37.8303H0.387546M46.4615 34.1845H6.84157M46.4615 34.1845H86.0814M6.84157 34.1845L0.387546 35.8416M6.84157 34.1845H0.387546M86.0814 34.1845L73.4612 37.8303M19.099 41.6241L4.56654 45.5753M19.099 41.6241H60.3283M19.099 41.6241H0.387546M73.4612 37.8303L60.3283 41.6241M60.3283 41.6241L46.6511 45.5753M4.56654 45.5753H46.6511M4.56654 45.5753L0.387546 46.7114M4.56654 45.5753H0.387546M46.6511 45.5753L32.3946 49.694M17.5211 53.9907L32.3946 49.694M17.5211 53.9907L1.99018 58.4771M17.5211 53.9907H0.387546M32.3946 49.694H0.387546M0.162665 49.694H0.387546M1.99018 58.4771H0.387546M1.99018 58.4771L0.387546 58.9401M0 59.0521L0.387546 58.9401M10.6758 14.9852L22.8567 12.1699M10.6758 14.9852H0.387546M10.6758 14.9852L0.387546 17.3627M22.8567 12.1699L34.6269 9.44994M22.8567 12.1699H0.387546M68.8954 9.44994L79.7053 6.82002M68.8954 9.44994H34.6269M34.6269 9.44994L46.0057 6.82002M34.6269 9.44994H0.387546M1191.8 6.82002H1225.5M1191.8 6.82002H1158.1M1217.24 4.27624L1219.28 4.90444L1225.5 6.82002M1217.24 4.27624H1250.39M1225.5 6.82002H1259.2M1250.39 4.27624L1252.56 4.90444L1253.66 5.22L1259.2 6.82002M1259.2 6.82002H1292.89M1292.89 6.82002H1326.6M1158.1 6.82002H1124.4M1326.6 6.82002H1360.29M1360.29 6.82002L1349.84 4.27624M1360.29 6.82002H1393.99M1349.84 4.27624H1382.99M1057 6.82002H1090.7M1057 6.82002H1023.3M1084.64 4.27624L1086.14 4.90444L1086.89 5.22L1090.7 6.82002M1084.64 4.27624H1117.79M1090.7 6.82002H1124.4M1117.79 4.27624L1124.4 6.82002M1023.3 6.82002H989.598M922.198 6.82002H955.898M922.198 6.82002H888.499M952.045 4.27624L952.52 4.58937L952.996 4.90444L953.475 5.22L955.898 6.82002M952.045 4.27624H985.194M955.898 6.82002H989.598M985.194 4.27624L989.598 6.82002M888.499 6.82002H854.798M787.399 6.82002H821.099M787.399 6.82002H753.7M819.448 4.27624L821.099 6.82002M819.448 4.27624H852.598M821.099 6.82002H854.798M852.598 4.27624L852.869 4.58937L853.141 4.90444L853.415 5.22L854.798 6.82002M753.7 6.82002H720M652.601 6.82002H686.3M652.601 6.82002H618.901M686.851 4.27624L686.3 6.82002M686.851 4.27624H720M686.3 6.82002H720M720 4.27624V6.82002M618.901 6.82002H585.201M517.802 6.82002H551.501M517.802 6.82002H484.102M554.253 4.27624L553.574 4.90444L552.198 6.17585L551.501 6.82002M554.253 4.27624H587.402M551.501 6.82002H585.201M587.402 4.27624L587.131 4.58937L586.859 4.90444L586.585 5.22L585.201 6.82002M484.102 6.82002H450.403M383.003 6.82002H416.703M383.003 6.82002H349.303M421.656 4.27624L420.433 4.90444L419.817 5.22L416.703 6.82002M421.656 4.27624H454.806M416.703 6.82002H450.403M454.806 4.27624L454.263 4.58937L450.403 6.82002M349.303 6.82002H315.603M248.204 6.82002H281.904M248.204 6.82002H214.504M289.059 4.27624L287.292 4.90444L286.403 5.22L281.904 6.82002M289.059 4.27624H322.208M281.904 6.82002H315.603M322.208 4.27624L321.394 4.58937L315.603 6.82002M214.504 6.82002H180.805M113.405 6.82002H147.105M113.405 6.82002H79.7053M156.461 4.27624L147.105 6.82002M156.461 4.27624H189.61M147.105 6.82002H180.805M189.61 4.27624L187.437 4.90444L186.342 5.22L180.805 6.82002M79.7053 6.82002H46.0057M23.8641 4.27624L12.3061 6.82002M23.8641 4.27624H57.0136M23.8641 4.27624H0.387546M12.3061 6.82002H46.0057M12.3061 6.82002L0.387546 9.4435M12.3061 6.82002H0.387546M57.0136 4.27624L54.2955 4.90444L46.0057 6.82002M1382.99 4.27624L1385.7 4.90444L1393.99 6.82002M1393.99 6.82002H1427.69M1427.69 6.82002L1439.61 9.44351M1427.69 6.82002H1439.61M1439.61 128.236V125.133M1439.61 128.236V133.38M1439.61 125.133V117.353M1439.61 133.38V134.917V142.14M1439.61 142.14V151.46M1439.61 68.0734V63.1669M1439.61 68.0734V72.7993M1439.61 4.27624V6.82002M1439.61 6.82002V9.44351M1439.61 9.44351L1439.64 9.44994H1439.61M1439.61 9.44351V9.44994M1439.61 9.44994V12.1699M1439.61 12.1699V14.9852M1439.61 14.9852V17.3627M1439.61 17.3627V17.9006M1439.61 17.9006V20.9216M1439.61 20.9216V24.0539M1439.61 24.0539V26.1157M1439.61 26.1157V27.3038M1439.61 27.3038V30.6781M1439.61 30.6781V34.1845M1439.61 34.1845V35.8416M1439.61 35.8416V37.8303M1439.61 37.8303V41.6241M1439.61 41.6241V45.5753M1439.61 45.5753V46.7114M1439.61 46.7114V49.694M1439.61 49.694V53.9907M1439.61 53.9907V58.4771M1439.61 58.4771V58.9402M1439.61 58.9402V63.1669M1439.61 73.2122V78.6003M1439.61 73.2122V72.7993M1439.61 78.6003V84.2566M1439.61 84.2566V88.6382M1439.61 88.6382V90.2008M1439.61 90.2008V96.4562M1439.61 96.4562V103.047M1439.61 103.047V106.914M1439.61 106.914V110.003M1439.61 110.003V117.353M1439.61 151.46V153.434M1439.61 153.434V161.397M1439.61 161.397V172.014M1439.61 172.014V183.383M1439.61 183.383V183.672M1439.61 183.672V195.588M1439.61 195.588V208.722M1439.61 208.722V220.63M1439.61 220.63V222.899M1439.61 222.899V238.245M1439.61 238.245V254.912M1439.61 254.912V266.827M1439.61 266.827V273.078M1439.61 273.078V292.956M1439.61 292.956V314.799M1439.61 314.799V326.223M1439.61 326.223V338.914M1439.61 338.914V339H0.387546V338.914M0.387546 73.2122V78.6003M0.387546 73.2122V72.7993M0.387546 72.7993V68.0734M0.387546 68.0734V63.1669M0.387546 63.1669V58.9401M0.387546 58.9401V58.4771M0.387546 58.4771V53.9907M0.387546 53.9907V49.694M0.387546 49.694V46.7114M0.387546 46.7114V45.5753M0.387546 45.5753V41.6241M0.387546 41.6241V37.8303M0.387546 37.8303V35.8416M0.387546 35.8416V34.1845M0.387546 34.1845V30.6781M0.387546 30.6781V27.3038M0.387546 27.3038V26.1157M0.387546 26.1157V24.0539M0.387546 24.0539V20.9216M0.387546 20.9216V17.9006M0.387546 17.9006V17.3627M0.387546 17.3627V14.9852M0.387546 14.9852V12.1699M0.387546 12.1699V9.44994M0.387546 9.44994H0.35831L0.387546 9.4435M0.387546 9.44994V9.4435M0.387546 9.4435V6.82002M0.387546 6.82002V4.27624M0.387546 338.914V326.223M0.387546 326.223V314.799M0.387546 314.799V292.956M0.387546 292.956V273.078M0.387546 273.078V266.827M0.387546 266.827V254.912M0.387546 254.912V238.245M0.387546 238.245V222.899M0.387546 222.899V220.63M0.387546 220.63V208.722M0.387546 208.722V195.588M0.387546 195.588V183.672M0.387546 183.672V183.383M0.387546 183.383V172.014M0.387546 172.014V161.397M0.387546 161.397V153.434M0.387546 153.434V151.46M0.387546 151.46V142.14M0.387546 142.14V133.38M0.387546 133.38V128.236M0.387546 128.236V125.133M0.387546 125.133V117.353M0.387546 117.353V110.003M0.387546 110.003V106.914M0.387546 106.914V103.047M0.387546 103.047V96.4562M0.387546 96.4562V90.2008M0.387546 90.2008V88.6381M0.387546 88.6381V84.2566M0.387546 84.2566V78.6003" stroke="url(#paint0_linear_468_691)" stroke-width="1.8895" stroke-miterlimit="10" stroke-linecap="round" stroke-linejoin="round"/>
<defs>
<linearGradient id="paint0_linear_468_691" x1="720" y1="1.81378" x2="720" y2="238.223" gradientUnits="userSpaceOnUse">
<stop stop-color="#CED2DF" stop-opacity="0"/>
<stop offset="1" stop-color="#5D606A"/>
</linearGradient>
</defs>
</svg>
