<svg width="1440" height="339" viewBox="0 0 1440 339" fill="none" xmlns="http://www.w3.org/2000/svg">
<path d="M23.8641 334.724L35.0503 337.186M23.8641 334.724L57.0135 334.724M23.8641 334.724L12.3061 332.18M23.8641 334.724L0.387477 334.724M35.0503 337.186L30.9799 337.185L26.9516 337.18L23.0072 337.165L19.1865 337.135L15.5315 337.087L12.0811 337.015L8.87653 336.915L5.90221 336.787L3.34981 336.611L1.02608 336.406L0.387477 336.334L0.387477 334.724M35.0503 337.186L67.6667 337.186M67.6667 337.186L100.283 337.186M67.6667 337.186L57.0135 334.724M100.283 337.186L132.9 337.186M100.283 337.186L90.1629 334.724M132.9 337.186L165.517 337.186M132.9 337.186L123.312 334.724M165.517 337.186L198.133 337.186M165.517 337.186L156.461 334.724M198.133 337.186L230.75 337.186M198.133 337.186L189.61 334.724M230.75 337.186L263.367 337.186M230.75 337.186L222.76 334.724M263.367 337.186L295.983 337.186M263.367 337.186L255.909 334.724M295.983 337.186L328.6 337.186M295.983 337.186L289.059 334.724M328.6 337.186L361.217 337.186M328.6 337.186L322.208 334.724M361.217 337.186L393.833 337.186M361.217 337.186L355.357 334.724M393.833 337.186L426.45 337.186M393.833 337.186L388.507 334.724M426.45 337.186L459.067 337.186M426.45 337.186L425.266 336.578L423.472 335.657L421.656 334.724M459.067 337.186L491.683 337.186M459.067 337.186L458.015 336.578L454.806 334.724M491.683 337.186L524.3 337.186M491.683 337.186L487.955 334.724M524.3 337.186L556.917 337.186M524.3 337.186L523.114 336.272L521.912 335.347L521.509 335.036L521.104 334.724M556.917 337.186L589.533 337.186M556.917 337.186L555.928 336.272L555.596 335.965L555.262 335.657L554.253 334.724M589.533 337.186L622.15 337.186M589.533 337.186L587.402 334.724M622.15 337.186L621.953 336.883L621.756 336.578L620.755 335.036L620.552 334.724M622.15 337.186L654.766 337.186M654.766 337.186L687.384 337.186M654.766 337.186L653.701 334.724M687.384 337.186L720 337.186M687.384 337.186L687.186 336.272L686.851 334.724M720 337.186L752.616 337.186M720 337.186L720 334.724M752.616 337.186L785.234 337.186M752.616 337.186L752.814 336.272L753.149 334.724M785.234 337.186L817.85 337.186M785.234 337.186L786.299 334.724M817.85 337.186L818.047 336.883L818.244 336.578L819.245 335.036L819.448 334.724M817.85 337.186L850.466 337.186M850.466 337.186L883.084 337.186M850.466 337.186L852.327 335.036L852.598 334.724M883.084 337.186L915.7 337.186M883.084 337.186L884.072 336.272L884.404 335.965L885.073 335.347L885.409 335.036L885.747 334.724M915.7 337.186L948.317 337.186M915.7 337.186L916.886 336.272L918.087 335.347L918.491 335.036L918.896 334.724M948.317 337.186L980.933 337.186M948.317 337.186L952.045 334.724M980.933 337.186L1013.55 337.186M980.933 337.186L981.985 336.578L985.194 334.724M1013.55 337.186L1046.17 337.186M1013.55 337.186L1018.34 334.724M1046.17 337.186L1078.78 337.186M1046.17 337.186L1051.49 334.724M1078.78 337.186L1111.4 337.186M1078.78 337.186L1084.64 334.724M1111.4 337.186L1144.02 337.186M1111.4 337.186L1117.79 334.724M1144.02 337.186L1176.63 337.186M1144.02 337.186L1150.94 334.724M1176.63 337.186L1209.25 337.186M1176.63 337.186L1184.09 334.724M1209.25 337.186L1241.87 337.186M1209.25 337.186L1217.24 334.724M1241.87 337.186L1274.48 337.186M1241.87 337.186L1250.39 334.724M1274.48 337.186L1307.1 337.186M1274.48 337.186L1283.54 334.724M1307.1 337.186L1339.72 337.186M1307.1 337.186L1316.69 334.724M1339.72 337.186L1372.33 337.186M1339.72 337.186L1349.84 334.724M1372.33 337.186L1404.95 337.186M1372.33 337.186L1382.99 334.724M1404.95 337.186L1409.02 337.185L1413.05 337.18L1416.99 337.165L1420.81 337.135L1424.47 337.087L1427.92 337.015L1431.12 336.915L1434.1 336.787L1436.65 336.611L1438.97 336.406L1439.61 336.334L1439.61 334.724M1404.95 337.186L1416.14 334.724M1349.84 334.724L1316.69 334.724M1349.84 334.724L1382.99 334.724M1349.84 334.724L1360.29 332.18M1316.69 334.724L1326.6 332.18M1316.69 334.724L1283.54 334.724M1217.24 334.724L1184.09 334.724M1217.24 334.724L1250.39 334.724M1217.24 334.724L1219.28 334.096L1225.5 332.18M1184.09 334.724L1191.8 332.18M1184.09 334.724L1150.94 334.724M1084.64 334.724L1051.49 334.724M1084.64 334.724L1117.79 334.724M1084.64 334.724L1086.14 334.096L1086.89 333.78L1090.7 332.18M1051.49 334.724L1052.17 334.411L1052.85 334.096L1057 332.18M1051.49 334.724L1018.34 334.724M952.045 334.724L952.52 334.411L955.898 332.18M952.045 334.724L918.896 334.724M952.045 334.724L985.194 334.724M918.896 334.724L919.711 334.096L920.122 333.78L920.533 333.462L922.198 332.18M918.896 334.724L885.747 334.724M819.448 334.724L786.299 334.724M819.448 334.724L852.598 334.724M819.448 334.724L821.099 332.18M786.299 334.724L786.434 334.411L786.57 334.096L786.707 333.78L787.121 332.824L787.399 332.18M786.299 334.724L753.149 334.724M686.851 334.724L653.701 334.724M686.851 334.724L720 334.724M686.851 334.724L686.3 332.18M653.701 334.724L653.566 334.411L653.43 334.095L653.293 333.78L652.601 332.18M653.701 334.724L620.552 334.724M554.253 334.724L521.104 334.724M554.253 334.724L587.402 334.724M554.253 334.724L553.574 334.095L552.198 332.824L551.851 332.503L551.501 332.18M521.104 334.724L520.289 334.095L519.878 333.78L519.466 333.462L517.802 332.18M521.104 334.724L487.955 334.724M421.656 334.724L388.507 334.724M421.656 334.724L454.806 334.724M421.656 334.724L420.433 334.095L419.817 333.78L416.703 332.18M388.507 334.724L387.828 334.411L387.148 334.095L383.003 332.18M388.507 334.724L355.357 334.724M289.059 334.724L255.909 334.724M289.059 334.724L322.208 334.724M289.059 334.724L287.292 334.095L286.403 333.78L281.904 332.18M255.909 334.724L248.204 332.18M255.909 334.724L222.76 334.724M156.461 334.724L123.312 334.724M156.461 334.724L189.61 334.724M156.461 334.724L147.105 332.18M123.312 334.724L113.405 332.18M123.312 334.724L90.1629 334.724M1439.73 311.696L1439.61 311.696M1406.36 311.696L1393.71 314.946M1406.36 311.696L1419.5 308.322M1406.36 311.696L1368.23 311.696M1406.36 311.696L1439.61 311.696M1393.71 314.946L1431.14 314.946M1393.71 314.946L1381.51 318.078M1393.71 314.946L1356.28 314.946M1431.14 314.946L1418.26 318.078M1431.14 314.946L1439.61 314.946M1431.14 314.946L1439.61 312.884M1393.86 324.015L1358.39 324.015M1393.86 324.015L1382.29 326.83M1393.86 324.015L1429.32 324.015M1393.86 324.015L1405.84 321.099M1358.39 324.015L1347.43 326.83M1358.39 324.015L1369.74 321.099M1358.39 324.015L1322.93 324.015M1382.29 326.83L1347.43 326.83M1382.29 326.83L1371.1 329.55M1382.29 326.83L1417.14 326.83M1347.43 326.83L1312.57 326.83M1347.43 326.83L1336.84 329.55M1439.98 260.4L1439.61 260.4M1409.21 260.4L1392.89 265.788M1409.21 260.4L1426.34 254.743M1409.21 260.4L1359.98 260.4M1409.21 260.4L1439.61 260.4M1392.89 265.788L1377.32 270.927M1392.89 265.788L1344.83 265.788M1392.89 265.788L1439.61 265.788M1424.28 270.927L1377.32 270.927M1424.28 270.927L1408.35 275.833M1424.28 270.927L1439.61 270.927M1424.28 270.927L1439.61 266.201M1393.13 280.523L1348.26 280.523M1393.13 280.523L1378.57 285.009M1393.13 280.523L1438.01 280.523M1393.13 280.523L1408.35 275.833M1348.26 280.523L1334.67 285.009M1348.26 280.523L1362.46 275.833M1348.26 280.523L1303.38 280.523M1378.57 285.009L1334.67 285.009M1378.57 285.009L1422.48 285.009M1378.57 285.009L1364.63 289.306M1334.67 285.009L1321.66 289.306M1334.67 285.009L1290.76 285.009M1338.44 297.376L1297.21 297.376M1338.44 297.376L1326.13 301.17M1338.44 297.376L1379.67 297.376M1338.44 297.376L1351.27 293.425M1297.21 297.376L1285.72 301.17M1297.21 297.376L1309.18 293.425M1297.21 297.376L1255.98 297.376M1326.13 301.17L1285.72 301.17M1326.13 301.17L1366.54 301.17M1326.13 301.17L1314.3 304.816M1285.72 301.17L1274.68 304.816M1285.72 301.17L1245.31 301.17M1291.97 311.696L1253.84 311.696M1291.97 311.696L1281.42 314.946M1291.97 311.696L1330.1 311.696M1291.97 311.696L1302.92 308.322M1253.84 311.696L1243.99 314.946M1253.84 311.696L1264.06 308.322M1253.84 311.696L1215.71 311.696M1281.42 314.946L1243.99 314.946M1281.42 314.946L1318.85 314.946M1281.42 314.946L1271.26 318.078M1243.99 314.946L1234.51 318.078M1243.99 314.946L1206.57 314.946M1251.99 324.015L1216.53 324.015M1251.99 324.015L1242.86 326.83M1251.99 324.015L1287.46 324.015M1251.99 324.015L1261.45 321.099M1216.53 324.015L1208 326.83M1216.53 324.015L1225.36 321.099M1216.53 324.015L1181.06 324.015M1242.86 326.83L1208 326.83M1242.86 326.83L1234.03 329.55M1242.86 326.83L1277.71 326.83M1208 326.83L1173.14 326.83M1208 326.83L1199.76 329.55M1414.39 166.986L1391.42 177.603M1414.39 166.986L1438.99 155.617M1414.39 166.986L1344.95 166.986M1414.39 166.986L1439.61 166.986M1391.42 177.603L1369.92 187.54M1391.42 177.603L1324.28 177.603M1391.42 177.603L1439.61 177.603M1391.89 205.62L1330.81 205.62M1391.89 205.62L1372.26 213.867M1391.89 205.62L1412.73 196.86M1391.89 205.62L1439.61 205.62M1330.81 205.62L1312.96 213.867M1330.81 205.62L1349.76 196.86M1330.81 205.62L1269.73 205.62M1372.26 213.867L1312.96 213.867M1372.26 213.867L1431.56 213.867M1372.26 213.867L1353.75 221.647M1312.96 213.867L1296.13 221.647M1312.96 213.867L1253.67 213.867M1319.7 235.953L1265.18 235.953M1319.7 235.953L1304.01 242.544M1319.7 235.953L1374.22 235.953M1319.7 235.953L1336.25 228.997M1265.18 235.953L1250.92 242.544M1265.18 235.953L1280.23 228.997M1265.18 235.953L1210.66 235.953M1304.01 242.544L1250.92 242.544M1304.01 242.544L1357.11 242.544M1304.01 242.544L1289.13 248.799M1250.92 242.544L1237.39 248.799M1250.92 242.544L1197.83 242.544M1261.52 260.4L1212.29 260.4M1261.52 260.4L1248.7 265.788M1261.52 260.4L1310.75 260.4M1261.52 260.4L1274.98 254.743M1212.29 260.4L1200.64 265.788M1212.29 260.4L1224.53 254.743M1212.29 260.4L1163.06 260.4M1248.7 265.788L1200.64 265.788M1248.7 265.788L1296.76 265.788M1248.7 265.788L1236.47 270.927M1200.64 265.788L1189.52 270.927M1200.64 265.788L1152.57 265.788M1213.63 280.523L1168.76 280.523M1213.63 280.523L1202.95 285.009M1213.63 280.523L1258.51 280.523M1213.63 280.523L1224.79 275.833M1168.76 280.523L1159.05 285.009M1168.76 280.523L1178.9 275.833M1168.76 280.523L1123.88 280.523M1202.95 285.009L1159.05 285.009M1202.95 285.009L1246.86 285.009M1202.95 285.009L1192.73 289.306M1159.05 285.009L1149.75 289.306M1159.05 285.009L1115.14 285.009M1173.52 297.376L1132.3 297.376M1173.52 297.376L1164.5 301.17M1173.52 297.376L1214.75 297.376M1173.52 297.376L1182.93 293.425M1132.3 297.376L1131.25 297.858L1124.09 301.17M1132.3 297.376L1140.84 293.425M1132.3 297.376L1091.07 297.376M1164.5 301.17L1124.09 301.17M1164.5 301.17L1204.9 301.17M1164.5 301.17L1155.82 304.816M1124.09 301.17L1116.2 304.816M1124.09 301.17L1083.68 301.17M1139.44 311.696L1101.31 311.696M1139.44 311.696L1131.71 314.946M1139.44 311.696L1177.58 311.696M1139.44 311.696L1147.48 308.322M1101.31 311.696L1094.28 314.946M1101.31 311.696L1104.02 310.446L1108.61 308.322M1101.31 311.696L1063.18 311.696M1131.71 314.946L1094.28 314.946M1131.71 314.946L1169.14 314.946M1131.71 314.946L1124.26 318.078M1094.28 314.946L1087.51 318.078M1094.28 314.946L1056.85 314.946M1110.13 324.015L1074.66 324.015M1110.13 324.015L1103.43 326.83M1110.13 324.015L1145.59 324.015M1110.13 324.015L1117.07 321.099M1074.66 324.015L1070.07 326.135L1069.32 326.484L1068.57 326.83M1074.66 324.015L1080.97 321.099M1074.66 324.015L1039.2 324.015M1103.43 326.83L1068.57 326.83M1103.43 326.83L1096.96 329.55M1103.43 326.83L1138.29 326.83M1068.57 326.83L1033.71 326.83M1068.57 326.83L1062.69 329.55M1389.23 46.0441L1293.63 46.0441M1389.23 46.0441L1359.13 65.9219M1389.23 46.0441L1422.31 24.2009M1389.23 46.0441L1439.61 46.0437M1293.63 46.0441L1267.82 65.9219M1293.63 46.0441L1321.98 24.2009M1293.63 46.0441L1198.02 46.0441M1359.13 65.9219L1267.82 65.9219M1359.13 65.9219L1331.62 84.0884M1359.13 65.9219L1439.61 65.9219M1267.82 65.9219L1244.24 84.0884M1267.82 65.9219L1176.52 65.9219M1283.13 116.101L1202.69 116.101M1283.13 116.101L1261.67 130.278M1283.13 116.101L1363.58 116.101M1283.13 116.101L1306.37 100.756M1202.69 116.101L1184.28 130.278M1202.69 116.101L1222.61 100.756M1202.69 116.101L1122.24 116.101M1261.67 130.278L1184.28 130.278M1261.67 130.278L1339.05 130.278M1261.67 130.278L1241.77 143.412M1184.28 130.278L1167.23 143.412M1184.28 130.278L1106.9 130.278M1206.07 166.986L1136.63 166.986M1206.07 166.986L1189.99 177.603M1206.07 166.986L1275.51 166.986M1206.07 166.986L1223.29 155.617M1136.63 166.986L1122.85 177.603M1136.63 166.986L1151.39 155.617M1136.63 166.986L1067.2 166.986M1189.99 177.603L1122.85 177.603M1189.99 177.603L1257.14 177.603M1189.99 177.603L1174.95 187.54M1122.85 177.603L1109.95 187.54M1122.85 177.603L1055.71 177.603M1147.57 205.62L1086.48 205.62M1147.57 205.62L1135.07 213.867M1147.57 205.62L1208.65 205.62M1147.57 205.62L1160.83 196.86M1086.48 205.62L1075.78 213.867M1086.48 205.62L1097.86 196.86M1086.48 205.62L1025.4 205.62M1135.07 213.867L1075.78 213.867M1135.07 213.867L1194.37 213.867M1135.07 213.867L1123.29 221.647M1075.78 213.867L1065.68 221.647M1075.78 213.867L1016.48 213.867M1101.63 235.953L1047.11 235.953M1101.63 235.953L1091.65 242.544M1101.63 235.953L1156.15 235.953M1101.63 235.953L1112.16 228.997M1047.11 235.953L1038.55 242.544M1047.11 235.953L1056.14 228.997M1047.11 235.953L992.591 235.953M1091.65 242.544L1038.55 242.544M1091.65 242.544L1144.74 242.544M1091.65 242.544L1082.17 248.799M1038.55 242.544L1030.43 248.799M1038.55 242.544L985.461 242.544M1064.6 260.4L1015.38 260.4M1064.6 260.4L1056.44 265.788M1064.6 260.4L1113.83 260.4M1064.6 260.4L1073.17 254.743M1015.38 260.4L1008.38 265.788M1015.38 260.4L1022.72 254.743M1015.38 260.4L966.146 260.4M1056.44 265.788L1008.38 265.788M1056.44 265.788L1104.51 265.788M1056.44 265.788L1048.66 270.927M1008.38 265.788L1001.71 270.927M1008.38 265.788L960.318 265.788M1034.13 280.523L989.253 280.523M1034.13 280.523L1027.33 285.009M1034.13 280.523L1079 280.523M1034.13 280.523L1041.23 275.833M989.253 280.523L983.43 285.009M989.253 280.523L995.341 275.833M989.253 280.523L944.378 280.523M1027.33 285.009L983.43 285.009M1027.33 285.009L1071.24 285.009M1027.33 285.009L1020.83 289.306M983.43 285.009L977.852 289.306M983.43 285.009L939.524 285.009M1008.61 297.376L967.376 297.376M1008.61 297.376L1002.86 301.17M1008.61 297.376L1049.84 297.376M1008.61 297.376L1014.59 293.425M967.376 297.376L968.007 296.891L972.506 293.425M967.376 297.376L962.452 301.17M967.376 297.376L926.147 297.376M1002.86 301.17L962.452 301.17M1002.86 301.17L1043.27 301.17M1002.86 301.17L997.339 304.816M962.452 301.17L957.719 304.816M962.452 301.17L922.043 301.17M986.919 311.696L948.788 311.696M986.919 311.696L981.997 314.946M986.919 311.696L1025.05 311.696M986.919 311.696L992.029 308.322M948.788 311.696L944.569 314.946M948.788 311.696L950.411 310.446L951.506 309.602L953.168 308.322M948.788 311.696L910.657 311.696M981.997 314.946L944.569 314.946M981.997 314.946L1019.43 314.946M981.997 314.946L977.254 318.078M944.569 314.946L943.027 316.134L942.01 316.917L940.503 318.078M944.569 314.946L907.141 314.946M968.263 324.015L932.798 324.015M968.263 324.015L965.052 326.135L964 326.83M968.263 324.015L1003.73 324.015M968.263 324.015L972.118 321.47L972.678 321.099M932.798 324.015L930.044 326.135L929.593 326.484L929.143 326.83M932.798 324.015L934.673 322.57L936.582 321.099M932.798 324.015L897.331 324.015M964 326.83L929.143 326.83M964 326.83L959.881 329.55M964 326.83L998.857 326.83M929.143 326.83L894.286 326.83M929.143 326.83L925.612 329.55M1006.81 46.0441L911.209 46.0441M1006.81 46.0441L993.912 65.9219M1006.81 46.0441L1102.42 46.0441M1006.81 46.0441L1020.99 24.2008M911.209 46.0441L902.608 65.9219M911.209 46.0441L920.66 24.2008M911.209 46.0441L815.604 46.0441M993.912 65.9219L902.608 65.9219M993.912 65.9219L1085.22 65.9219M993.912 65.9219L982.121 84.0884M902.608 65.9219L894.747 84.0884M902.608 65.9219L811.304 65.9219M961.343 116.101L880.896 116.101M961.343 116.101L952.142 130.278M961.343 116.101L1041.79 116.101M961.343 116.101L971.304 100.756M880.896 116.101L874.762 130.278M880.896 116.101L887.535 100.756M880.896 116.101L800.447 116.101M952.142 130.278L874.762 130.278M952.142 130.278L1029.52 130.278M952.142 130.278L943.617 143.412M874.762 130.278L869.078 143.412M874.762 130.278L797.381 130.278M928.317 166.986L858.878 166.986M928.317 166.986L921.426 177.603M928.317 166.986L997.756 166.986M928.317 166.986L935.696 155.617M858.878 166.986L854.284 177.603M858.878 166.986L863.797 155.617M858.878 166.986L789.439 166.986M921.426 177.603L854.284 177.603M921.426 177.603L988.568 177.603M921.426 177.603L914.977 187.54M854.284 177.603L849.984 187.54M854.284 177.603L787.142 177.603M903.242 205.62L842.162 205.62M903.242 205.62L897.889 213.867M903.242 205.62L964.323 205.62M903.242 205.62L908.927 196.86M842.162 205.62L838.593 213.867M842.162 205.62L845.952 196.86M842.162 205.62L781.081 205.62M897.889 213.867L838.593 213.867M897.889 213.867L957.185 213.867M897.889 213.867L892.84 221.647M838.593 213.867L835.226 221.647M838.593 213.867L779.296 213.867M883.555 235.953L829.036 235.953M883.555 235.953L879.277 242.544M883.555 235.953L938.073 235.953M883.555 235.953L888.069 228.997M829.036 235.953L826.185 242.544M829.036 235.953L832.046 228.997M829.036 235.953L774.518 235.953M879.277 242.544L826.185 242.544M879.277 242.544L932.369 242.544M879.277 242.544L875.217 248.799M826.185 242.544L823.478 248.799M826.185 242.544L773.092 242.544M867.688 260.4L818.459 260.4M867.688 260.4L864.191 265.788M867.688 260.4L916.917 260.4M867.688 260.4L871.358 254.743M818.459 260.4L816.127 265.788M818.459 260.4L820.906 254.743M818.459 260.4L769.229 260.4M864.191 265.788L816.127 265.788M864.191 265.788L912.254 265.788M864.191 265.788L862.921 267.743L860.855 270.927M816.127 265.788L813.903 270.927M816.127 265.788L768.063 265.788M854.627 280.523L809.751 280.523M854.627 280.523L851.715 285.009M854.627 280.523L899.503 280.523M854.627 280.523L856.896 277.025L857.671 275.833M809.751 280.523L809.013 282.228L807.81 285.009M809.751 280.523L811.781 275.833M809.751 280.523L764.875 280.523M851.715 285.009L851.36 285.557L848.926 289.306M851.715 285.009L807.81 285.009M851.715 285.009L895.62 285.009M807.81 285.009L807.103 286.642L806.871 287.181L806.638 287.716L805.951 289.306M807.81 285.009L763.905 285.009M843.689 297.376L802.459 297.376M843.689 297.376L842.445 299.292L842.138 299.765L841.833 300.236L841.528 300.704L841.226 301.17M843.689 297.376L884.918 297.376M843.689 297.376L846.253 293.425M802.459 297.376L801.222 300.236L801.019 300.704L800.818 301.17M802.459 297.376L804.168 293.425M802.459 297.376L761.229 297.376M841.226 301.17L800.818 301.17M841.226 301.17L881.635 301.17M841.226 301.17L839.736 303.465L839.443 303.918L838.86 304.815M800.818 301.17L799.824 303.465L799.628 303.918L799.434 304.368L799.24 304.815M800.818 301.17L760.408 301.17M834.394 311.696L796.262 311.696M834.394 311.696L832.284 314.946M834.394 311.696L872.526 311.696M834.394 311.696L834.934 310.865L835.753 309.602L836.584 308.322M796.262 311.696L796.442 311.281L797.537 308.751L797.723 308.322M796.262 311.696L794.856 314.946M796.262 311.696L758.131 311.696M832.284 314.946L794.856 314.946M832.284 314.946L869.712 314.946M832.284 314.946L830.251 318.078M794.856 314.946L794.342 316.134L794.173 316.527L794.003 316.917L793.501 318.078M794.856 314.946L757.428 314.946M826.398 324.015L790.933 324.015M826.398 324.015L825.022 326.135L824.572 326.83M826.398 324.015L861.865 324.015M826.398 324.015L827.101 322.934L827.336 322.57L827.574 322.205L828.291 321.099M790.933 324.015L790.778 324.372L790.471 325.082L790.166 325.786L789.715 326.83M790.933 324.015L791.558 322.57L791.715 322.205L792.034 321.47L792.194 321.099M790.933 324.015L755.466 324.015M824.572 326.83L789.715 326.83M824.572 326.83L823.024 329.215L822.806 329.55M824.572 326.83L859.429 326.83M789.715 326.83L789.565 327.175L789.416 327.519L789.268 327.861L789.121 328.202L788.682 329.215L788.537 329.55M789.715 326.83L754.857 326.83M624.396 46.0441L528.791 46.044M624.396 46.0441L628.696 65.9219M624.396 46.0441L720 46.0441M624.396 46.0441L619.67 24.2008M528.791 46.044L537.392 65.9219M528.791 46.044L519.34 24.2008M528.791 46.044L433.186 46.044M628.696 65.9219L537.392 65.9219M628.696 65.9219L720 65.9219M628.696 65.9219L632.626 84.0884M537.392 65.9219L545.253 84.0884M537.392 65.9219L446.088 65.9219M639.553 116.101L559.104 116.101M639.553 116.101L642.619 130.278M639.553 116.101L720 116.101M639.553 116.101L636.232 100.756M559.104 116.101L565.238 130.278M559.104 116.101L552.464 100.756M559.104 116.101L478.657 116.101M642.619 130.278L565.238 130.278M642.619 130.278L720 130.278M642.619 130.278L645.461 143.412M565.238 130.278L570.922 143.412M565.238 130.278L487.858 130.278M650.561 166.986L581.122 166.986M650.561 166.986L652.858 177.603M650.561 166.986L720 166.986M650.561 166.986L648.101 155.617M581.122 166.986L585.716 177.603M581.122 166.986L576.203 155.617M581.122 166.986L511.683 166.986M652.858 177.603L585.716 177.603M652.858 177.603L720 177.603M652.858 177.603L655.008 187.54M585.716 177.603L590.015 187.54M585.716 177.603L518.574 177.603M658.919 205.62L597.838 205.62M658.919 205.62L660.704 213.867M658.919 205.62L720 205.62M658.919 205.62L657.024 196.86M597.838 205.62L601.407 213.867M597.838 205.62L594.048 196.86M597.838 205.62L536.758 205.62M660.704 213.867L601.407 213.867M660.704 213.867L720 213.867M660.704 213.867L662.387 221.647M601.407 213.867L604.774 221.647M601.407 213.867L542.111 213.867M665.482 235.953L610.964 235.953M665.482 235.953L666.908 242.544M665.482 235.953L720 235.953M665.482 235.953L663.977 228.997M610.964 235.953L613.815 242.544M610.964 235.953L607.954 228.997M610.964 235.953L556.445 235.953M666.908 242.544L613.815 242.544M666.908 242.544L720 242.544M666.908 242.544L668.261 248.799M613.815 242.544L616.522 248.799M613.815 242.544L560.723 242.544M670.771 260.4L621.541 260.4M670.771 260.4L671.937 265.788M670.771 260.4L720 260.4M670.771 260.4L669.547 254.743M621.541 260.4L623.873 265.788M621.541 260.4L619.094 254.743M621.541 260.4L572.312 260.4M671.937 265.788L623.873 265.788M671.937 265.788L720 265.788M671.937 265.788L673.048 270.927M623.873 265.788L626.097 270.927M623.873 265.788L575.809 265.788M675.125 280.523L630.249 280.523M675.125 280.523L676.095 285.009M675.125 280.523L720 280.523M675.125 280.523L674.11 275.833M630.249 280.523L631.952 284.459L632.19 285.009M630.249 280.523L628.219 275.833M630.249 280.523L585.373 280.523M676.095 285.009L676.213 285.557L677.025 289.306M676.095 285.009L632.19 285.009M676.095 285.009L720 285.009M632.19 285.009L632.897 286.642L633.129 287.181L633.362 287.716L634.049 289.306M632.19 285.009L588.285 285.009M678.771 297.376L637.541 297.376M678.771 297.376L679.591 301.17M678.771 297.376L720 297.376M678.771 297.376L678.454 295.913L678.347 295.421L678.241 294.925L678.025 293.927L677.915 293.425M637.541 297.376L638.778 300.236L639.183 301.17M637.541 297.376L635.832 293.425M637.541 297.376L596.311 297.376M679.591 301.17L639.183 301.17M679.591 301.17L720 301.17M679.591 301.17L680.38 304.815M639.183 301.17L640.175 303.465L640.372 303.918L640.566 304.368L640.76 304.815M639.183 301.17L598.774 301.17M681.869 311.696L643.738 311.696M681.869 311.696L682.572 314.946M681.869 311.696L720 311.696M681.869 311.696L681.139 308.322M643.738 311.696L643.558 311.281L642.463 308.751L642.277 308.322M643.738 311.696L645.144 314.946M643.738 311.696L605.606 311.696M682.572 314.946L645.144 314.946M682.572 314.946L720 314.946M682.572 314.946L683.249 318.078M645.144 314.946L645.658 316.134L645.827 316.527L645.997 316.917L646.499 318.078M645.144 314.946L607.716 314.946M684.533 324.015L649.067 324.015M684.533 324.015L685.143 326.83M684.533 324.015L720 324.015M684.533 324.015L683.903 321.099M649.067 324.015L649.222 324.372L649.53 325.082L649.682 325.435L649.985 326.135L650.135 326.484L650.286 326.83M649.067 324.015L648.442 322.57L648.285 322.205L647.966 321.47L647.806 321.099M649.067 324.015L613.601 324.015M685.143 326.83L685.217 327.175L685.292 327.519L685.366 327.861L685.731 329.55M685.143 326.83L650.286 326.83M685.143 326.83L720 326.83M650.286 326.83L615.428 326.83M650.286 326.83L650.584 327.519L650.732 327.861L650.879 328.202L651.317 329.215L651.463 329.55M241.977 46.044L146.373 46.044M241.977 46.044L263.48 65.9218M241.977 46.044L337.581 46.044M241.977 46.044L218.348 24.2008M146.373 46.044L172.176 65.9218M146.373 46.044L118.019 24.2008M146.373 46.044L50.7678 46.044M263.48 65.9218L172.176 65.9218M263.48 65.9218L354.784 65.9218M263.48 65.9218L283.131 84.0883M172.176 65.9218L195.758 84.0883M172.176 65.9218L80.8717 65.9218M317.761 116.101L237.313 116.101M317.761 116.101L333.096 130.278M317.761 116.101L398.209 116.101M317.761 116.101L301.161 100.755M237.313 116.101L255.715 130.277M237.313 116.101L217.393 100.755M237.313 116.101L156.866 116.101M333.096 130.278L255.715 130.277M333.096 130.278L410.477 130.278M333.096 130.278L347.304 143.412M255.715 130.277L272.765 143.412M255.715 130.277L178.334 130.277M372.804 166.986L303.365 166.986M372.804 166.986L384.29 177.603M372.804 166.986L442.244 166.986M372.804 166.986L360.506 155.617M303.365 166.986L317.147 177.603M303.365 166.986L288.607 155.617M303.365 166.986L233.926 166.986M384.29 177.603L317.147 177.603M384.29 177.603L451.432 177.603M384.29 177.603L395.039 187.54M317.147 177.603L330.046 187.54M317.147 177.603L250.005 177.603M414.596 205.62L353.516 205.62M414.596 205.62L423.518 213.867M414.596 205.62L475.677 205.62M414.596 205.62L405.121 196.86M353.516 205.62L364.222 213.867M353.516 205.62L342.145 196.86M353.516 205.62L292.435 205.62M423.518 213.867L364.222 213.867M423.518 213.867L482.815 213.867M423.518 213.867L431.934 221.647M364.222 213.867L374.321 221.647M364.222 213.867L304.926 213.867M447.409 235.953L392.89 235.953M447.409 235.953L454.539 242.544M447.409 235.953L501.927 235.953M447.409 235.953L439.885 228.997M392.89 235.953L401.446 242.544M392.89 235.953L383.861 228.997M392.89 235.953L338.371 235.953M454.539 242.544L401.446 242.544M454.539 242.544L507.631 242.544M454.539 242.544L461.305 248.799M401.446 242.544L409.566 248.799M401.446 242.544L348.354 242.544M473.854 260.4L424.625 260.4M473.854 260.4L479.682 265.788M473.854 260.4L523.083 260.4M473.854 260.4L467.735 254.743M424.625 260.4L431.619 265.788M424.625 260.4L417.282 254.743M424.625 260.4L375.396 260.4M479.682 265.788L431.619 265.788M479.682 265.788L527.746 265.788M479.682 265.788L485.241 270.927M431.619 265.788L438.29 270.927M431.619 265.788L383.556 265.788M495.622 280.523L495 279.948L494.375 279.37L490.549 275.833M495.622 280.523L450.746 280.523M495.622 280.523L500.475 285.009M495.622 280.523L540.497 280.523M450.746 280.523L456.57 285.009M450.746 280.523L444.659 275.833M450.746 280.523L405.87 280.523M500.475 285.009L456.57 285.009M500.475 285.009L544.38 285.009M500.475 285.009L505.123 289.306M456.57 285.009L462.148 289.306M456.57 285.009L412.665 285.009M513.853 297.376L472.623 297.376M513.853 297.376L517.957 301.17M513.853 297.376L555.082 297.376M513.853 297.376L509.579 293.425M472.623 297.376L475.725 299.765L477.548 301.17M472.623 297.376L467.494 293.425M472.623 297.376L431.393 297.376M517.957 301.17L477.548 301.17M517.957 301.17L558.365 301.17M517.957 301.17L521.415 304.368L521.9 304.815M477.548 301.17L482.28 304.815M477.548 301.17L437.139 301.17M529.343 311.696L491.212 311.696M529.343 311.696L530.234 312.52L532.859 314.946M529.343 311.696L567.474 311.696M529.343 311.696L528.444 310.865L526.618 309.178L525.693 308.322M491.212 311.696L495.431 314.946M491.212 311.696L489.589 310.446L488.494 309.602L486.832 308.322M491.212 311.696L453.081 311.696M532.859 314.946L495.431 314.946M532.859 314.946L570.288 314.946M532.859 314.946L535.412 317.306L536.248 318.078M495.431 314.946L496.973 316.134L497.99 316.917L499.497 318.078M495.431 314.946L458.003 314.946M542.669 324.015L507.202 324.015M542.669 324.015L544.585 325.786L545.714 326.83M542.669 324.015L578.135 324.015M542.669 324.015L539.515 321.099M507.202 324.015L509.956 326.135L510.407 326.484L510.857 326.83M507.202 324.015L505.327 322.57L503.418 321.099M507.202 324.015L471.737 324.015M545.714 326.83L510.857 326.83M545.714 326.83L547.198 328.202L547.93 328.879L548.294 329.215L548.656 329.55M545.714 326.83L580.571 326.83M510.857 326.83L476 326.83M510.857 326.83L514.388 329.55M23.5726 130.277L100.953 130.277M23.5726 130.277L49.1472 143.412M23.5726 130.277L0.387496 130.277M23.5726 130.277L0.387497 118.37M95.048 166.986L25.6091 166.986M95.048 166.986L115.72 177.603M95.048 166.986L164.487 166.986M95.048 166.986L72.9109 155.617M25.6091 166.986L48.5782 177.603M25.6091 166.986L1.01191 155.616M25.6091 166.986L0.387492 166.986M115.72 177.603L48.5782 177.603M115.72 177.603L182.863 177.603M115.72 177.603L135.07 187.539M48.5782 177.603L70.0774 187.539M48.5782 177.603L0.387491 177.603M170.274 205.62L109.193 205.62M170.274 205.62L186.333 213.867M170.274 205.62L231.355 205.62M170.274 205.62L153.217 196.86M109.193 205.62L127.036 213.867M109.193 205.62L90.2416 196.86M109.193 205.62L48.112 205.62M186.333 213.867L127.036 213.867M186.333 213.867L245.629 213.867M186.333 213.867L201.481 221.647M127.036 213.867L143.868 221.647M127.036 213.867L67.7403 213.867M229.335 235.953L174.817 235.953M229.335 235.953L242.169 242.544M229.335 235.953L283.853 235.953M229.335 235.953L215.792 228.997M174.817 235.953L189.077 242.544M174.817 235.953L159.769 228.997M174.817 235.953L120.298 235.953M242.169 242.544L189.077 242.544M242.169 242.544L295.261 242.544M242.169 242.544L254.349 248.799M189.077 242.544L202.611 248.799M189.077 242.544L135.985 242.544M276.937 260.4L227.708 260.4M276.937 260.4L287.428 265.788M276.937 260.4L326.166 260.4M276.937 260.4L265.924 254.743M227.708 260.4L239.365 265.788M227.708 260.4L215.471 254.743M227.708 260.4L178.479 260.4M287.428 265.788L239.365 265.788M287.428 265.788L335.492 265.788M287.428 265.788L297.435 270.927M239.365 265.788L250.483 270.927M239.365 265.788L191.301 265.788M316.119 280.523L271.244 280.523M316.119 280.523L324.856 285.009M316.119 280.523L360.995 280.523M316.119 280.523L306.988 275.833M271.244 280.523L280.951 285.009M271.244 280.523L261.098 275.833M271.244 280.523L226.368 280.523M324.856 285.009L280.951 285.009M324.856 285.009L368.76 285.009M324.856 285.009L333.222 289.306M280.951 285.009L290.247 289.306M280.951 285.009L237.046 285.009M348.935 297.376L307.706 297.376M348.935 297.376L356.322 301.17M348.935 297.376L390.164 297.376M348.935 297.376L341.241 293.425M307.706 297.376L315.913 301.17M307.706 297.376L299.156 293.425M307.706 297.376L266.475 297.376M356.322 301.17L315.913 301.17M356.322 301.17L396.731 301.17M356.322 301.17L363.421 304.815M315.913 301.17L323.801 304.815M315.913 301.17L275.504 301.17M376.818 311.696L338.687 311.696M376.818 311.696L383.146 314.946M376.818 311.696L414.949 311.696M376.818 311.696L375.198 310.865L374.384 310.446L370.247 308.322M338.687 311.696L345.718 314.946M338.687 311.696L331.386 308.322M338.687 311.696L300.556 311.696M383.146 314.946L345.718 314.946M383.146 314.946L420.574 314.946M383.146 314.946L389.245 318.078M345.718 314.946L352.495 318.078M345.718 314.946L308.29 314.946M400.804 324.015L365.338 324.015M400.804 324.015L406.286 326.83M400.804 324.015L436.27 324.015M400.804 324.015L395.127 321.099M365.338 324.015L369.926 326.135L370.678 326.484L371.429 326.83M365.338 324.015L359.03 321.099M365.338 324.015L329.872 324.015M406.286 326.83L371.429 326.83M406.286 326.83L410.929 329.215L411.582 329.55M406.286 326.83L441.143 326.83M371.429 326.83L336.571 326.83M371.429 326.83L377.313 329.55M11.2618 235.953L29.8002 242.544M11.2618 235.953L65.7801 235.953M11.2618 235.953L0.387486 232.086M11.2618 235.953L0.387486 235.953M29.8002 242.544L82.8926 242.544M29.8002 242.544L47.3932 248.799M29.8002 242.544L0.387485 242.544M80.0201 260.4L30.7903 260.4M80.0201 260.4L95.1747 265.788M80.0201 260.4L129.249 260.4M80.0201 260.4L64.1121 254.743M30.7903 260.4L47.1106 265.788M30.7903 260.4L13.6591 254.743M30.7903 260.4L0.387484 260.4M95.1747 265.788L47.1106 265.788M95.1747 265.788L143.238 265.788M95.1747 265.788L109.628 270.927M47.1106 265.788L62.6759 270.927M47.1106 265.788L0.387483 265.788M136.617 280.523L91.7408 280.523M136.617 280.523L149.236 285.009M136.617 280.523L181.492 280.523M136.617 280.523L123.427 275.833M91.7408 280.523L105.331 285.009M91.7408 280.523L77.5374 275.833M91.7408 280.523L46.8655 280.523M149.236 285.009L105.331 285.009M149.236 285.009L193.141 285.009M149.236 285.009L161.321 289.306M105.331 285.009L118.345 289.306M105.331 285.009L61.4256 285.009M184.017 297.376L142.788 297.376M184.017 297.376L194.687 301.17M184.017 297.376L225.246 297.376M184.017 297.376L172.904 293.425M142.788 297.376L154.278 301.17M142.788 297.376L130.82 293.425M142.788 297.376L101.557 297.376M194.687 301.17L154.278 301.17M194.687 301.17L235.096 301.17M194.687 301.17L204.941 304.815M154.278 301.17L165.321 304.815M154.278 301.17L113.87 301.17M224.293 311.696L186.161 311.696M224.293 311.696L233.433 314.946M224.293 311.696L262.424 311.696M224.293 311.696L214.802 308.322M186.161 311.696L196.005 314.946M186.161 311.696L175.941 308.322M186.161 311.696L148.03 311.696M233.433 314.946L196.005 314.946M233.433 314.946L270.862 314.946M233.433 314.946L242.243 318.078M196.005 314.946L205.493 318.078M196.005 314.946L158.577 314.946M258.939 324.015L223.473 324.015M258.939 324.015L266.857 326.83M258.939 324.015L294.405 324.015M258.939 324.015L250.74 321.099M223.473 324.015L232 326.83M223.473 324.015L214.642 321.099M223.473 324.015L188.006 324.015M266.857 326.83L232 326.83M266.857 326.83L274.507 329.55M266.857 326.83L301.714 326.83M232 326.83L197.142 326.83M232 326.83L240.239 329.55M19.0989 297.376L33.0527 301.17M19.0989 297.376L60.3282 297.376M19.0989 297.376L4.56644 293.425M19.0989 297.376L0.38748 297.376M33.0527 301.17L73.4611 301.17M33.0527 301.17L46.4614 304.815M33.0527 301.17L0.38748 301.17M71.7678 311.696L33.6365 311.696M71.7678 311.696L83.7209 314.946M71.7678 311.696L109.899 311.696M71.7678 311.696L59.3567 308.322M33.6365 311.696L46.2928 314.946M33.6365 311.696L20.4954 308.322M33.6365 311.696L0.387479 311.696M83.7209 314.946L46.2928 314.946M83.7209 314.946L121.149 314.946M83.7209 314.946L95.2414 318.078M46.2928 314.946L58.4909 318.078M46.2928 314.946L8.86463 314.946M117.074 324.015L81.6078 324.015M117.074 324.015L127.428 326.83M117.074 324.015L152.541 324.015M117.074 324.015L106.352 321.099M81.6078 324.015L92.5714 326.83M81.6078 324.015L70.2551 321.099M81.6078 324.015L46.1413 324.015M127.428 326.83L92.5714 326.83M127.428 326.83L137.432 329.55M127.428 326.83L162.285 326.83M92.5714 326.83L57.7136 326.83M92.5714 326.83L103.164 329.55M70.2551 321.099L58.4909 318.078M70.2551 321.099L34.1576 321.099M70.2551 321.099L106.352 321.099M46.1413 324.015L57.7136 326.83M46.1413 324.015L34.1576 321.099M46.1413 324.015L10.6757 324.015M57.7136 326.83L22.8566 326.83M57.7136 326.83L68.8953 329.55M103.164 329.55L137.432 329.55M103.164 329.55L68.8953 329.55M103.164 329.55L113.405 332.18M34.1576 321.099L21.7397 318.078M34.1576 321.099L0.387478 321.099M10.6757 324.015L22.8566 326.83M10.6757 324.015L0.387478 321.637M10.6757 324.015L0.387478 324.015M22.8566 326.83L34.6268 329.55M22.8566 326.83L0.387478 326.83M68.8953 329.55L34.6268 329.55M68.8953 329.55L79.7052 332.18M34.6268 329.55L46.0057 332.18M34.6268 329.55L0.387477 329.55M58.4909 318.078L21.7397 318.078M58.4909 318.078L95.2414 318.078M8.86463 314.946L21.7397 318.078M8.86463 314.946L0.387479 312.884M8.86463 314.946L0.387479 314.946M21.7397 318.078L0.387478 318.078M95.2414 318.078L131.992 318.078M95.2414 318.078L106.352 321.099M106.352 321.099L142.449 321.099M20.4954 308.322L6.84149 304.815M20.4954 308.322L59.3567 308.322M20.4954 308.322L0.387479 308.322M0.27127 311.696L0.387479 311.696M6.84149 304.815L46.4614 304.815M6.84149 304.815L0.38748 303.158M6.84149 304.815L0.38748 304.815M46.4614 304.815L86.0813 304.815M46.4614 304.815L59.3567 308.322M59.3567 308.322L98.218 308.322M214.642 321.099L205.493 318.078M214.642 321.099L178.546 321.099M214.642 321.099L250.74 321.099M188.006 324.015L197.142 326.83M188.006 324.015L178.546 321.099M188.006 324.015L152.541 324.015M197.142 326.83L162.285 326.83M197.142 326.83L205.97 329.55M240.239 329.55L205.97 329.55M240.239 329.55L248.204 332.18M240.239 329.55L274.507 329.55M178.546 321.099L168.742 318.078M178.546 321.099L142.449 321.099M152.541 324.015L162.285 326.83M152.541 324.015L142.449 321.099M162.285 326.83L171.701 329.55M205.97 329.55L171.701 329.55M205.97 329.55L214.504 332.18M142.449 321.099L131.992 318.078M137.432 329.55L171.701 329.55M137.432 329.55L147.105 332.18M171.701 329.55L180.805 332.18M205.493 318.078L168.742 318.078M205.493 318.078L242.243 318.078M158.577 314.946L168.742 318.078M158.577 314.946L148.03 311.696M158.577 314.946L121.149 314.946M168.742 318.078L131.992 318.078M242.243 318.078L278.994 318.078M242.243 318.078L250.74 321.099M131.992 318.078L121.149 314.946M250.74 321.099L286.837 321.099M148.03 311.696L137.079 308.322M148.03 311.696L109.899 311.696M121.149 314.946L109.899 311.696M109.899 311.696L98.218 308.322M175.941 308.322L165.321 304.815M175.941 308.322L137.079 308.322M175.941 308.322L214.802 308.322M137.079 308.322L125.701 304.815M137.079 308.322L98.218 308.322M98.218 308.322L86.0813 304.815M165.321 304.815L125.701 304.815M165.321 304.815L204.941 304.815M113.87 301.17L125.701 304.815M113.87 301.17L101.557 297.376M113.87 301.17L73.4611 301.17M125.701 304.815L86.0813 304.815M204.941 304.815L244.561 304.815M204.941 304.815L214.802 308.322M86.0813 304.815L73.4611 301.17M214.802 308.322L253.663 308.322M101.557 297.376L88.7349 293.425M101.557 297.376L60.3282 297.376M73.4611 301.17L60.3282 297.376M60.3282 297.376L46.6511 293.425M130.82 293.425L118.345 289.306M130.82 293.425L88.7349 293.425M130.82 293.425L172.904 293.425M88.7349 293.425L75.3696 289.306M88.7349 293.425L46.6511 293.425M46.6511 293.425L32.3945 289.306M46.6511 293.425L4.56644 293.425M4.56644 293.425L0.387481 293.425M4.56644 293.425L0.387481 292.289M118.345 289.306L75.3696 289.306M118.345 289.306L161.321 289.306M61.4256 285.009L75.3696 289.306M61.4256 285.009L46.8655 280.523M61.4256 285.009L17.521 285.009M75.3696 289.306L32.3945 289.306M161.321 289.306L204.296 289.306M161.321 289.306L172.904 293.425M32.3945 289.306L17.521 285.009M32.3945 289.306L0.387481 289.306M172.904 293.425L214.988 293.425M46.8655 280.523L31.6472 275.833M46.8655 280.523L1.99007 280.523M17.521 285.009L1.99007 280.523M17.521 285.009L0.387482 285.009M0.162566 289.306L0.387481 289.306M1.99007 280.523L0.387482 280.06M1.99007 280.523L0.387482 280.523M77.5374 275.833L62.6759 270.927M77.5374 275.833L31.6472 275.833M77.5374 275.833L123.427 275.833M31.6472 275.833L15.7242 270.927M31.6472 275.833L0.387482 275.833M-3.51428e-05 279.948L0.387482 280.06M62.6759 270.927L15.7242 270.927M62.6759 270.927L109.628 270.927M15.7242 270.927L0.387483 270.927M15.7242 270.927L0.387483 266.201M109.628 270.927L156.579 270.927M109.628 270.927L123.427 275.833M123.427 275.833L169.317 275.833M13.6591 254.743L64.1121 254.743M13.6591 254.743L0.387485 250.362M13.6591 254.743L0.387484 254.743M0.022385 260.4L0.387484 260.4M64.1121 254.743L114.565 254.743M64.1121 254.743L47.3932 248.799M0.241354 250.314L0.387485 250.362M359.03 321.099L352.495 318.078M359.03 321.099L322.934 321.099M359.03 321.099L395.127 321.099M329.872 324.015L336.571 326.83M329.872 324.015L322.934 321.099M329.872 324.015L294.405 324.015M336.571 326.83L301.714 326.83M336.571 326.83L343.044 329.55M377.313 329.55L343.044 329.55M377.313 329.55L379.47 330.546L383.003 332.18M377.313 329.55L411.582 329.55M322.934 321.099L315.744 318.078M322.934 321.099L286.837 321.099M294.405 324.015L301.714 326.83M294.405 324.015L286.837 321.099M301.714 326.83L308.776 329.55M343.044 329.55L308.776 329.55M343.044 329.55L349.303 332.18M286.837 321.099L278.994 318.078M274.507 329.55L281.904 332.18M274.507 329.55L308.776 329.55M308.776 329.55L309.642 329.884L311.364 330.546L315.603 332.18M352.495 318.078L315.744 318.078M352.495 318.078L389.245 318.078M308.29 314.946L315.744 318.078M308.29 314.946L300.556 311.696M308.29 314.946L270.862 314.946M315.744 318.078L278.994 318.078M389.245 318.078L425.996 318.078M389.245 318.078L395.127 321.099M278.994 318.078L270.862 314.946M395.127 321.099L431.225 321.099M300.556 311.696L292.525 308.322M300.556 311.696L262.424 311.696M270.862 314.946L269.824 314.547L262.424 311.696M262.424 311.696L253.663 308.322M331.386 308.322L330.454 307.891L323.801 304.815M331.386 308.322L292.525 308.322M331.386 308.322L370.247 308.322M292.525 308.322L284.181 304.815M292.525 308.322L253.663 308.322M253.663 308.322L244.561 304.815M323.801 304.815L284.181 304.815M323.801 304.815L363.421 304.815M275.504 301.17L284.181 304.815M275.504 301.17L266.475 297.376M275.504 301.17L235.096 301.17M284.181 304.815L244.561 304.815M363.421 304.815L403.041 304.815M363.421 304.815L370.247 308.322M244.561 304.815L235.096 301.17M370.247 308.322L409.109 308.322M266.475 297.376L257.073 293.425M266.475 297.376L225.246 297.376M235.096 301.17L225.246 297.376M225.246 297.376L214.988 293.425M299.156 293.425L290.247 289.306M299.156 293.425L257.073 293.425M299.156 293.425L341.241 293.425M257.073 293.425L247.271 289.306M257.073 293.425L214.988 293.425M214.988 293.425L204.296 289.306M290.247 289.306L247.271 289.306M290.247 289.306L333.222 289.306M237.046 285.009L247.271 289.306M237.046 285.009L226.368 280.523M237.046 285.009L193.141 285.009M247.271 289.306L204.296 289.306M333.222 289.306L376.197 289.306M333.222 289.306L341.241 293.425M204.296 289.306L193.141 285.009M341.241 293.425L383.326 293.425M226.368 280.523L215.208 275.833M226.368 280.523L181.492 280.523M193.141 285.009L181.492 280.523M181.492 280.523L169.317 275.833M261.098 275.833L250.483 270.927M261.098 275.833L215.208 275.833M261.098 275.833L306.988 275.833M215.208 275.833L203.531 270.927M215.208 275.833L169.317 275.833M169.317 275.833L156.579 270.927M250.483 270.927L203.531 270.927M250.483 270.927L297.435 270.927M191.301 265.788L203.531 270.927M191.301 265.788L178.479 260.4M191.301 265.788L143.238 265.788M203.531 270.927L156.579 270.927M297.435 270.927L344.386 270.927M297.435 270.927L306.988 275.833M156.579 270.927L143.238 265.788M306.988 275.833L352.878 275.833M178.479 260.4L165.018 254.743M178.479 260.4L129.249 260.4M143.238 265.788L129.249 260.4M129.249 260.4L114.565 254.743M215.471 254.743L202.611 248.799M215.471 254.743L165.018 254.743M215.471 254.743L265.924 254.743M165.018 254.743L150.871 248.799M165.018 254.743L114.565 254.743M114.565 254.743L99.1325 248.799M202.611 248.799L150.871 248.799M202.611 248.799L254.349 248.799M135.985 242.544L150.871 248.799M135.985 242.544L120.298 235.953M135.985 242.544L82.8926 242.544M150.871 248.799L99.1325 248.799M254.349 248.799L306.089 248.799M254.349 248.799L265.924 254.743M99.1325 248.799L82.8926 242.544M99.1325 248.799L47.3932 248.799M265.924 254.743L316.377 254.743M120.298 235.953L103.746 228.997M120.298 235.953L65.7801 235.953M82.8926 242.544L65.7801 235.953M47.3932 248.799L0.387485 248.799M65.7801 235.953L47.723 228.997M159.769 228.997L143.868 221.647M159.769 228.997L103.746 228.997M159.769 228.997L215.792 228.997M103.746 228.997L86.2545 221.647M103.746 228.997L47.723 228.997M47.723 228.997L28.6413 221.647M47.723 228.997L0.387487 228.997M143.868 221.647L86.2545 221.647M143.868 221.647L201.481 221.647M67.7403 213.867L86.2545 221.647M67.7403 213.867L48.112 205.62M67.7403 213.867L8.44418 213.867M86.2545 221.647L28.6413 221.647M201.481 221.647L259.094 221.647M201.481 221.647L215.792 228.997M28.6413 221.647L8.44418 213.867M28.6413 221.647L0.387487 221.647M215.792 228.997L271.816 228.997M48.112 205.62L27.2658 196.86M48.112 205.62L0.387489 205.62M8.44418 213.867L0.387488 213.867M8.44418 213.867L0.387488 210.764M90.2416 196.86L70.0774 187.539M90.2416 196.86L27.2658 196.86M90.2416 196.86L153.217 196.86M27.2658 196.86L5.08519 187.539M27.2658 196.86L0.38749 196.86M70.0774 187.539L5.08519 187.539M70.0774 187.539L135.07 187.539M5.08519 187.539L0.387491 185.566M5.08519 187.539L0.387491 187.539M135.07 187.539L200.062 187.54M135.07 187.539L153.217 196.86M153.217 196.86L216.193 196.86M1.01191 155.616L72.9109 155.617M1.01191 155.616L0.387493 155.616M1.01191 155.616L0.387494 155.328M72.9109 155.617L144.809 155.617M72.9109 155.617L49.1472 143.412M503.418 321.099L501.964 319.979L501.475 319.602L499.497 318.078M503.418 321.099L467.321 321.099M503.418 321.099L539.515 321.099M471.737 324.015L474.948 326.135L476 326.83M471.737 324.015L467.882 321.47L467.321 321.099M471.737 324.015L436.27 324.015M476 326.83L441.143 326.83M476 326.83L480.119 329.55M514.388 329.55L480.119 329.55M514.388 329.55L515.682 330.546L517.802 332.18M514.388 329.55L548.656 329.55M467.321 321.099L466.193 320.354L462.746 318.078M467.321 321.099L431.225 321.099M436.27 324.015L441.143 326.83M436.27 324.015L431.225 321.099M441.143 326.83L444.689 328.879L445.851 329.55M480.119 329.55L445.851 329.55M480.119 329.55L484.102 332.18M431.225 321.099L425.996 318.078M411.582 329.55L412.231 329.884L416.703 332.18M411.582 329.55L445.851 329.55M445.851 329.55L447.576 330.546L450.402 332.18M499.497 318.078L462.746 318.078M499.497 318.078L536.248 318.078M458.003 314.946L462.746 318.078M458.003 314.946L453.081 311.696M458.003 314.946L420.574 314.946M462.746 318.078L425.996 318.078M536.248 318.078L572.998 318.078M536.248 318.078L539.515 321.099M425.996 318.078L420.574 314.946M539.515 321.099L575.612 321.099M453.081 311.696L449.91 309.602L449.266 309.178L447.971 308.322M453.081 311.696L414.949 311.696M420.574 314.946L414.949 311.696M414.949 311.696L409.109 308.322M486.832 308.322L482.28 304.815M486.832 308.322L447.971 308.322M486.832 308.322L525.693 308.322M447.971 308.322L442.661 304.815M447.971 308.322L409.109 308.322M409.109 308.322L403.041 304.815M482.28 304.815L442.661 304.815M482.28 304.815L521.9 304.815M437.139 301.17L440.616 303.465L441.3 303.918L442.661 304.815M437.139 301.17L431.393 297.376M437.139 301.17L396.731 301.17M442.661 304.815L403.041 304.815M521.9 304.815L561.52 304.815M521.9 304.815L525.693 308.322M403.041 304.815L396.731 301.17M525.693 308.322L564.555 308.322M431.393 297.376L425.409 293.425M431.393 297.376L390.164 297.376M396.731 301.17L390.164 297.376M390.164 297.376L383.326 293.425M467.494 293.425L464.849 291.387L464.179 290.871L462.148 289.306M467.494 293.425L425.409 293.425M467.494 293.425L509.579 293.425M425.409 293.425L419.173 289.306M425.409 293.425L383.326 293.425M383.326 293.425L376.197 289.306M462.148 289.306L419.173 289.306M462.148 289.306L505.123 289.306M412.665 285.009L419.173 289.306M412.665 285.009L405.87 280.523M412.665 285.009L368.76 285.009M419.173 289.306L376.197 289.306M505.123 289.306L548.099 289.306M505.123 289.306L506.255 290.352L509.579 293.425M376.197 289.306L368.76 285.009M509.579 293.425L551.662 293.425M405.87 280.523L398.769 275.833M405.87 280.523L360.995 280.523M368.76 285.009L360.995 280.523M360.995 280.523L352.878 275.833M444.659 275.833L438.29 270.927M444.659 275.833L398.769 275.833M444.659 275.833L490.549 275.833M398.769 275.833L391.338 270.927M398.769 275.833L352.878 275.833M352.878 275.833L344.386 270.927M438.29 270.927L391.338 270.927M438.29 270.927L485.241 270.927M383.556 265.788L391.338 270.927M383.556 265.788L375.396 260.4M383.556 265.788L335.492 265.788M391.338 270.927L344.386 270.927M485.241 270.927L532.193 270.927M485.241 270.927L490.549 275.833M344.386 270.927L335.492 265.788M490.549 275.833L536.439 275.833M375.396 260.4L366.83 254.743M375.396 260.4L326.166 260.4M335.492 265.788L326.166 260.4M326.166 260.4L316.377 254.743M417.282 254.743L409.566 248.799M417.282 254.743L366.83 254.743M417.282 254.743L467.735 254.743M366.83 254.743L357.827 248.799M366.83 254.743L316.377 254.743M316.377 254.743L306.089 248.799M409.566 248.799L357.827 248.799M409.566 248.799L461.305 248.799M348.354 242.544L357.827 248.799M348.354 242.544L338.371 235.953M348.354 242.544L295.261 242.544M357.827 248.799L306.089 248.799M461.305 248.799L513.044 248.799M461.305 248.799L467.735 254.743M306.089 248.799L295.261 242.544M467.735 254.743L518.188 254.743M338.371 235.953L327.838 228.997M338.371 235.953L283.853 235.953M295.261 242.544L283.853 235.953M283.853 235.953L271.816 228.997M383.861 228.997L374.321 221.647M383.861 228.997L327.838 228.997M383.861 228.997L439.885 228.997M327.838 228.997L316.707 221.647M327.838 228.997L271.816 228.997M271.816 228.997L259.094 221.647M374.321 221.647L316.707 221.647M374.321 221.647L431.934 221.647M304.926 213.867L316.707 221.647M304.926 213.867L292.435 205.62M304.926 213.867L245.629 213.867M316.707 221.647L259.094 221.647M431.934 221.647L489.547 221.647M431.934 221.647L439.885 228.997M259.094 221.647L245.629 213.867M439.885 228.997L495.907 228.997M292.435 205.62L279.169 196.86M292.435 205.62L231.355 205.62M245.629 213.867L231.355 205.62M231.355 205.62L216.193 196.86M342.145 196.86L330.046 187.54M342.145 196.86L279.169 196.86M342.145 196.86L405.121 196.86M279.169 196.86L265.054 187.54M279.169 196.86L216.193 196.86M216.193 196.86L200.062 187.54M330.046 187.54L265.054 187.54M330.046 187.54L395.039 187.54M250.005 177.603L265.054 187.54M250.005 177.603L233.926 166.986M250.005 177.603L182.863 177.603M265.054 187.54L200.062 187.54M395.039 187.54L460.031 187.54M395.039 187.54L405.121 196.86M200.062 187.54L182.863 177.603M405.121 196.86L468.097 196.86M233.926 166.986L216.708 155.617M233.926 166.986L164.487 166.986M182.863 177.603L164.487 166.986M164.487 166.986L144.809 155.617M288.607 155.617L272.765 143.412M288.607 155.617L216.708 155.617M288.607 155.617L360.506 155.617M216.708 155.617L198.226 143.412M216.708 155.617L144.809 155.617M144.809 155.617L123.686 143.412M272.765 143.412L198.226 143.412M272.765 143.412L347.304 143.412M178.334 130.277L198.226 143.412M178.334 130.277L156.866 116.101M178.334 130.277L100.953 130.277M198.226 143.412L123.686 143.412M347.304 143.412L421.844 143.412M347.304 143.412L360.506 155.617M123.686 143.412L100.953 130.277M123.686 143.412L49.1472 143.412M360.506 155.617L432.405 155.617M156.866 116.101L133.625 100.755M156.866 116.101L76.4183 116.101M100.953 130.277L76.4183 116.101M49.1472 143.412L0.387495 143.412M76.4183 116.101L49.8571 100.755M76.4183 116.101L0.387497 116.101M217.393 100.755L195.758 84.0883M217.393 100.755L133.625 100.755M217.393 100.755L301.161 100.755M133.625 100.755L108.384 84.0883M133.625 100.755L49.8571 100.755M49.8571 100.755L21.0104 84.0883M49.8571 100.755L0.387499 100.755M195.758 84.0883L108.384 84.0883M195.758 84.0883L283.131 84.0883M80.8717 65.9218L108.384 84.0883M80.8717 65.9218L50.7678 46.044M80.8717 65.9218L0.387502 65.9218M108.384 84.0883L21.0104 84.0883M283.131 84.0883L370.505 84.0884M283.131 84.0883L301.161 100.755M21.0104 84.0883L0.3875 84.0883M21.0104 84.0883L0.387501 72.1728M301.161 100.755L384.929 100.755M50.7678 46.044L17.6882 24.2008M50.7678 46.044L0.387504 46.044M118.019 24.2008L86.7155 0.0857068M118.019 24.2008L17.6882 24.2008M118.019 24.2008L218.348 24.2008M17.6882 24.2008L0.387507 12.7766M17.6882 24.2008L0.387506 24.2007M86.7155 0.0857068L192.263 0.0857155M86.7155 0.0857068L0.387508 0.0861427M192.263 0.0857155L297.81 0.0857243M192.263 0.0857155L218.348 24.2008M218.348 24.2008L318.679 24.2008M647.806 321.099L647.645 320.728L647.484 320.354L647.321 319.979L647.159 319.602L646.665 318.462L646.499 318.078M647.806 321.099L611.709 321.099M647.806 321.099L683.903 321.099M613.601 324.015L614.978 326.135L615.428 326.83M613.601 324.015L612.426 322.205L611.709 321.099M613.601 324.015L578.135 324.015M615.428 326.83L580.571 326.83M615.428 326.83L616.758 328.879L617.194 329.55M651.463 329.55L651.607 329.884L652.178 331.204L652.601 332.18M651.463 329.55L617.194 329.55M651.463 329.55L685.731 329.55M611.709 321.099L611.468 320.728L611.225 320.354L610.982 319.979L610.737 319.602L609.749 318.078M611.709 321.099L575.612 321.099M578.135 324.015L579.97 326.135L580.571 326.83M578.135 324.015L575.612 321.099M580.571 326.83L581.759 328.202L582.636 329.215L582.925 329.55M617.194 329.55L617.41 329.884L617.84 330.546L618.268 331.204L618.479 331.531L618.901 332.18M617.194 329.55L582.925 329.55M575.612 321.099L573.66 318.844L572.998 318.078M548.656 329.55L550.799 331.531L551.501 332.18M548.656 329.55L582.925 329.55M582.925 329.55L584.92 331.856L585.202 332.18M646.499 318.078L609.749 318.078M646.499 318.078L683.249 318.078M607.716 314.946L609.749 318.078M607.716 314.946L605.606 311.696M607.716 314.946L570.288 314.946M609.749 318.078L572.998 318.078M683.249 318.078L720 318.078M683.249 318.078L683.903 321.099M572.998 318.078L570.288 314.946M683.903 321.099L720 321.099M605.606 311.696L605.066 310.865L604.247 309.602L603.416 308.322M605.606 311.696L567.474 311.696M570.288 314.946L569.941 314.547L567.474 311.696M567.474 311.696L567.116 311.281L566.755 310.865L566.393 310.446L564.555 308.322M642.277 308.322L640.76 304.815M642.277 308.322L603.416 308.322M642.277 308.322L681.139 308.322M603.416 308.322L601.14 304.815M603.416 308.322L564.555 308.322M564.555 308.322L562.29 305.705L561.906 305.261L561.52 304.815M640.76 304.815L601.14 304.815M640.76 304.815L680.38 304.815M598.774 301.17L598.472 300.704L598.167 300.236L597.862 299.765L596.311 297.376M598.774 301.17L599.969 303.011L600.264 303.465L600.557 303.918L601.14 304.815M598.774 301.17L558.365 301.17M601.14 304.815L561.52 304.815M680.38 304.815L720 304.815M680.38 304.815L681.139 308.322M561.52 304.815L558.365 301.17M681.139 308.322L720 308.322M596.311 297.376L594.073 293.927L593.747 293.425M596.311 297.376L555.082 297.376M558.365 301.17L557.556 300.236L555.082 297.376M555.082 297.376L553.816 295.913L551.662 293.425M635.832 293.425L634.949 291.387L634.727 290.871L634.049 289.306M635.832 293.425L593.747 293.425M635.832 293.425L677.915 293.425M593.747 293.425L591.074 289.306M593.747 293.425L551.662 293.425M551.662 293.425L548.099 289.306M634.049 289.306L591.074 289.306M634.049 289.306L677.025 289.306M588.285 285.009L591.074 289.306M588.285 285.009L585.373 280.523M588.285 285.009L544.38 285.009M591.074 289.306L548.099 289.306M677.025 289.306L720 289.306M677.025 289.306L677.251 290.352L677.696 292.411L677.915 293.425M548.099 289.306L544.38 285.009M677.915 293.425L720 293.425M585.373 280.523L583.103 277.025L582.329 275.833M585.373 280.523L540.497 280.523M544.38 285.009L540.497 280.523M540.497 280.523L538.491 278.204L536.439 275.833M628.219 275.833L626.097 270.927M628.219 275.833L582.329 275.833M628.219 275.833L674.11 275.833M582.329 275.833L579.145 270.927M582.329 275.833L536.439 275.833M536.439 275.833L532.193 270.927M626.097 270.927L579.145 270.927M626.097 270.927L673.048 270.927M575.809 265.788L576.658 267.095L579.145 270.927M575.809 265.788L572.312 260.4M575.809 265.788L527.746 265.788M579.145 270.927L532.193 270.927M673.048 270.927L720 270.927M673.048 270.927L674.11 275.833M532.193 270.927L527.746 265.788M674.11 275.833L720 275.833M572.312 260.4L568.641 254.743M572.312 260.4L523.083 260.4M527.746 265.788L523.083 260.4M523.083 260.4L518.188 254.743M619.094 254.743L616.522 248.799M619.094 254.743L568.641 254.743M619.094 254.743L669.547 254.743M568.641 254.743L564.783 248.799M568.641 254.743L518.188 254.743M518.188 254.743L513.044 248.799M616.522 248.799L564.783 248.799M616.522 248.799L668.261 248.799M560.723 242.544L564.783 248.799M560.723 242.544L556.445 235.953M560.723 242.544L507.631 242.544M564.783 248.799L513.044 248.799M668.261 248.799L720 248.799M668.261 248.799L669.39 254.016L669.547 254.743M513.044 248.799L507.631 242.544M669.547 254.743L720 254.743M556.445 235.953L551.931 228.997M556.445 235.953L501.927 235.953M507.631 242.544L503.382 237.633L501.927 235.953M501.927 235.953L495.907 228.997M607.954 228.997L604.774 221.647M607.954 228.997L551.931 228.997M607.954 228.997L663.977 228.997M551.931 228.997L547.16 221.647M551.931 228.997L495.907 228.997M495.907 228.997L489.547 221.647M604.774 221.647L547.16 221.647M604.774 221.647L662.387 221.647M542.111 213.867L547.16 221.647M542.111 213.867L536.758 205.62M542.111 213.867L482.815 213.867M547.16 221.647L489.547 221.647M662.387 221.647L720 221.647M662.387 221.647L663.977 228.997M489.547 221.647L482.815 213.867M663.977 228.997L720 228.997M536.758 205.62L531.073 196.86M536.758 205.62L475.677 205.62M482.815 213.867L475.677 205.62M475.677 205.62L468.097 196.86M594.048 196.86L590.015 187.54M594.048 196.86L531.073 196.86M594.048 196.86L657.024 196.86M531.073 196.86L525.023 187.54M531.073 196.86L468.097 196.86M468.097 196.86L460.031 187.54M590.015 187.54L525.023 187.54M590.015 187.54L655.008 187.54M518.574 177.603L525.023 187.54M518.574 177.603L511.683 166.986M518.574 177.603L451.432 177.603M525.023 187.54L460.031 187.54M655.008 187.54L720 187.54M655.008 187.54L657.024 196.86M460.031 187.54L451.432 177.603M657.024 196.86L720 196.86M511.683 166.986L504.304 155.617M511.683 166.986L442.244 166.986M451.432 177.603L442.244 166.986M442.244 166.986L432.405 155.617M576.203 155.617L570.922 143.412M576.203 155.617L504.304 155.617M576.203 155.617L648.101 155.617M504.304 155.617L496.383 143.412M504.304 155.617L432.405 155.617M432.405 155.617L421.844 143.412M570.922 143.412L496.383 143.412M570.922 143.412L645.461 143.412M487.858 130.278L496.383 143.412M487.858 130.278L478.657 116.101M487.858 130.278L410.477 130.278M496.383 143.412L421.844 143.412M645.461 143.412L720 143.412M645.461 143.412L648.101 155.617M421.844 143.412L410.477 130.278M648.101 155.617L720 155.617M478.657 116.101L468.696 100.755M478.657 116.101L398.209 116.101M410.477 130.278L398.209 116.101M398.209 116.101L384.929 100.755M552.464 100.756L545.253 84.0884M552.464 100.756L468.696 100.755M552.464 100.756L636.232 100.756M468.696 100.755L457.879 84.0884M468.696 100.755L384.929 100.755M384.929 100.755L370.505 84.0884M545.253 84.0884L457.879 84.0884M545.253 84.0884L632.626 84.0884M446.088 65.9219L457.879 84.0884M446.088 65.9219L433.186 46.044M446.088 65.9219L354.784 65.9218M457.879 84.0884L370.505 84.0884M632.626 84.0884L720 84.0884M632.626 84.0884L636.232 100.756M370.505 84.0884L354.784 65.9218M636.232 100.756L720 100.756M433.186 46.044L419.009 24.2008M433.186 46.044L337.581 46.044M354.784 65.9218L337.581 46.044M337.581 46.044L318.679 24.2008M519.34 24.2008L508.905 0.0857417M519.34 24.2008L419.009 24.2008M519.34 24.2008L619.67 24.2008M419.009 24.2008L403.358 0.085733M419.009 24.2008L318.679 24.2008M318.679 24.2008L297.81 0.0857243M403.358 0.085733L508.905 0.0857417M403.358 0.085733L297.81 0.0857243M508.905 0.0857417L614.452 0.0857505M614.452 0.0857505L720 0.0857592M614.452 0.0857505L619.67 24.2008M619.67 24.2008L720 24.2008M792.194 321.099L792.355 320.728L792.516 320.354L792.679 319.979L792.841 319.602L793.17 318.844L793.335 318.462L793.501 318.078M792.194 321.099L756.097 321.099M792.194 321.099L828.291 321.099M755.466 324.015L754.857 326.83M755.466 324.015L756.097 321.099M755.466 324.015L720 324.015M754.857 326.83L754.783 327.175L754.708 327.519L754.634 327.861L754.268 329.55M754.857 326.83L720 326.83M788.537 329.55L788.393 329.884L787.822 331.204L787.399 332.18M788.537 329.55L754.268 329.55M788.537 329.55L822.806 329.55M756.097 321.099L756.178 320.728L756.258 320.354L756.34 319.979L756.75 318.078M756.097 321.099L720 321.099M720 324.015L720 326.83M720 324.015L720 321.099M720 326.83L720 329.55M754.268 329.55L720 329.55M754.268 329.55L754.053 330.547L753.981 330.876L753.7 332.18M720 321.099L720 318.078M685.731 329.55L685.946 330.547L686.018 330.876L686.089 331.204L686.16 331.531L686.23 331.856L686.3 332.18M685.731 329.55L720 329.55M720 329.55L720 332.18M793.501 318.078L756.75 318.078M793.501 318.078L830.251 318.078M757.428 314.946L757.515 314.547L757.601 314.145L758.131 311.696M757.428 314.946L756.75 318.078M757.428 314.946L720 314.946M756.75 318.078L720 318.078M830.251 318.078L867.002 318.078M830.251 318.078L829.755 318.844L829.508 319.224L829.263 319.602L829.017 319.979L828.775 320.354L828.532 320.728L828.291 321.099M720 318.078L720 314.946M828.291 321.099L864.388 321.099M758.131 311.696L758.861 308.322M758.131 311.696L720 311.696M720 314.946L720 311.696M720 311.696L720 308.322M797.723 308.322L799.24 304.815M797.723 308.322L758.861 308.322M797.723 308.322L836.584 308.322M758.861 308.322L759.62 304.815M758.861 308.322L720 308.322M720 308.322L720 304.815M799.24 304.815L759.62 304.815M799.24 304.815L838.86 304.815M760.408 301.17L759.62 304.815M760.408 301.17L761.229 297.376M760.408 301.17L720 301.17M759.62 304.815L720 304.815M838.86 304.815L878.48 304.815M838.86 304.815L836.584 308.322M720 304.815L720 301.17M836.584 308.322L875.445 308.322M761.229 297.376L761.546 295.913L761.867 294.428L762.085 293.425M761.229 297.376L720 297.376M720 301.17L720 297.376M720 297.376L720 293.425M804.168 293.425L805.051 291.387L805.273 290.871L805.951 289.306M804.168 293.425L762.085 293.425M804.168 293.425L846.253 293.425M762.085 293.425L762.303 292.411L762.749 290.352L762.975 289.306M762.085 293.425L720 293.425M720 293.425L720 289.306M805.951 289.306L762.975 289.306M805.951 289.306L848.926 289.306M763.905 285.009L763.787 285.557L762.975 289.306M763.905 285.009L764.875 280.523M763.905 285.009L720 285.009M762.975 289.306L720 289.306M848.926 289.306L891.901 289.306M848.926 289.306L846.253 293.425M720 289.306L720 285.009M846.253 293.425L888.338 293.425M764.875 280.523L765.89 275.833M764.875 280.523L720 280.523M720 285.009L720 280.523M720 280.523L720 275.833M811.781 275.833L813.903 270.927M811.781 275.833L765.89 275.833M811.781 275.833L857.671 275.833M765.89 275.833L766.952 270.927M765.89 275.833L720 275.833M720 275.833L720 270.927M813.903 270.927L766.952 270.927M813.903 270.927L860.855 270.927M768.063 265.788L766.952 270.927M768.063 265.788L769.229 260.4M768.063 265.788L720 265.788M766.952 270.927L720 270.927M860.855 270.927L907.807 270.927M860.855 270.927L857.671 275.833M720 270.927L720 265.788M857.671 275.833L903.561 275.833M769.229 260.4L770.453 254.743M769.229 260.4L720 260.4M720 265.788L720 260.4M720 260.4L720 254.743M820.906 254.743L823.478 248.799M820.906 254.743L770.453 254.743M820.906 254.743L871.358 254.743M770.453 254.743L771.739 248.799M770.453 254.743L720 254.743M720 254.743L720 248.799M823.478 248.799L771.739 248.799M823.478 248.799L875.217 248.799M773.092 242.544L771.739 248.799M773.092 242.544L774.518 235.953M773.092 242.544L720 242.544M771.739 248.799L720 248.799M875.217 248.799L926.956 248.799M875.217 248.799L871.358 254.743M720 248.799L720 242.544M871.358 254.743L921.812 254.743M774.518 235.953L776.023 228.997M774.518 235.953L720 235.953M720 242.544L720 235.953M720 235.953L720 228.997M832.046 228.997L835.226 221.647M832.046 228.997L776.023 228.997M832.046 228.997L888.069 228.997M776.023 228.997L777.613 221.647M776.023 228.997L720 228.997M720 228.997L720 221.647M835.226 221.647L777.613 221.647M835.226 221.647L892.84 221.647M779.296 213.867L777.613 221.647M779.296 213.867L781.081 205.62M779.296 213.867L720 213.867M777.613 221.647L720 221.647M892.84 221.647L950.453 221.647M892.84 221.647L888.069 228.997M720 221.647L720 213.867M888.069 228.997L944.093 228.997M781.081 205.62L782.976 196.86M781.081 205.62L720 205.62M720 213.867L720 205.62M720 205.62L720 196.86M845.952 196.86L849.984 187.54M845.952 196.86L782.976 196.86M845.952 196.86L908.927 196.86M782.976 196.86L784.992 187.54M782.976 196.86L720 196.86M720 196.86L720 187.54M849.984 187.54L784.992 187.54M849.984 187.54L914.977 187.54M787.142 177.603L784.992 187.54M787.142 177.603L789.439 166.986M787.142 177.603L720 177.603M784.992 187.54L720 187.54M914.977 187.54L979.969 187.54M914.977 187.54L908.927 196.86M720 187.54L720 177.603M908.927 196.86L971.903 196.86M789.439 166.986L791.899 155.617M789.439 166.986L720 166.986M720 177.603L720 166.986M720 166.986L720 155.617M863.797 155.617L869.078 143.412M863.797 155.617L791.899 155.617M863.797 155.617L935.696 155.617M791.899 155.617L794.539 143.412M791.899 155.617L720 155.617M720 155.617L720 143.412M869.078 143.412L794.539 143.412M869.078 143.412L943.617 143.412M797.381 130.278L794.539 143.412M797.381 130.278L800.447 116.101M797.381 130.278L720 130.278M794.539 143.412L720 143.412M943.617 143.412L1018.16 143.412M943.617 143.412L935.696 155.617M720 143.412L720 130.278M935.696 155.617L1007.6 155.617M800.447 116.101L803.768 100.756M800.447 116.101L720 116.101M720 130.278L720 116.101M720 116.101L720 100.756M887.535 100.756L894.747 84.0884M887.535 100.756L803.768 100.756M887.535 100.756L971.304 100.756M803.768 100.756L807.374 84.0884M803.768 100.756L720 100.756M720 100.756L720 84.0884M894.747 84.0884L807.374 84.0884M894.747 84.0884L982.121 84.0884M811.304 65.9219L807.374 84.0884M811.304 65.9219L815.604 46.0441M811.304 65.9219L720 65.9219M807.374 84.0884L720 84.0884M982.121 84.0884L1069.49 84.0884M982.121 84.0884L971.304 100.756M720 84.0884L720 65.9219M971.304 100.756L1055.07 100.756M815.604 46.0441L820.33 24.2008M815.604 46.0441L720 46.0441M720 65.9219L720 46.0441M720 46.0441L720 24.2008M920.66 24.2008L931.095 0.0857767M920.66 24.2008L820.33 24.2008M920.66 24.2008L1020.99 24.2008M820.33 24.2008L825.548 0.085768M820.33 24.2008L720 24.2008M720 24.2008L720 0.0857592M825.548 0.085768L931.095 0.0857767M825.548 0.085768L720 0.0857592M931.095 0.0857767L1036.64 0.0857855M1036.64 0.0857855L1142.19 0.0857942M1036.64 0.0857855L1020.99 24.2008M1020.99 24.2008L1121.32 24.2008M936.582 321.099L938.525 319.602L940.503 318.078M936.582 321.099L900.485 321.099M936.582 321.099L972.678 321.099M897.331 324.015L894.286 326.83M897.331 324.015L900.485 321.099M897.331 324.015L861.865 324.015M894.286 326.83L859.429 326.83M894.286 326.83L892.07 328.879L891.343 329.55M925.612 329.55L891.343 329.55M925.612 329.55L924.318 330.547L922.198 332.18M925.612 329.55L959.881 329.55M900.485 321.099L903.752 318.078M900.485 321.099L864.388 321.099M861.865 324.015L859.429 326.83M861.865 324.015L864.388 321.099M859.429 326.83L858.241 328.202L857.364 329.215L857.075 329.55M891.343 329.55L857.075 329.55M891.343 329.55L889.201 331.531L888.499 332.18M864.388 321.099L866.34 318.844L867.002 318.078M822.806 329.55L822.59 329.884L822.159 330.547L821.521 331.531L821.099 332.18M822.806 329.55L857.075 329.55M857.075 329.55L856.786 329.884L856.212 330.547L854.799 332.18M940.503 318.078L903.752 318.078M940.503 318.078L977.254 318.078M907.141 314.946L906.71 315.344L906.282 315.74L904.588 317.306L903.752 318.078M907.141 314.946L909.765 312.52L910.657 311.696M907.141 314.946L869.712 314.946M903.752 318.078L867.002 318.078M977.254 318.078L1014 318.078M977.254 318.078L973.807 320.354L972.678 321.099M867.002 318.078L869.712 314.946M972.678 321.099L1008.78 321.099M910.657 311.696L911.105 311.281L911.556 310.865L912.921 309.602L913.382 309.178L914.307 308.322M910.657 311.696L872.526 311.696M869.712 314.946L870.059 314.547L872.526 311.696M872.526 311.696L872.884 311.281L873.245 310.865L873.607 310.446L875.445 308.322M953.168 308.322L957.719 304.816M953.168 308.322L914.307 308.322M953.168 308.322L992.029 308.322M914.307 308.322L918.1 304.815M914.307 308.322L875.445 308.322M875.445 308.322L878.48 304.815M957.719 304.816L918.1 304.815M957.719 304.816L997.339 304.816M922.043 301.17L918.1 304.815M922.043 301.17L926.147 297.376M922.043 301.17L881.635 301.17M918.1 304.815L878.48 304.815M997.339 304.816L1036.96 304.816M997.339 304.816L992.029 308.322M878.48 304.815L881.635 301.17M992.029 308.322L1030.89 308.322M926.147 297.376L930.421 293.425M926.147 297.376L884.918 297.376M881.635 301.17L882.443 300.236L884.918 297.376M884.918 297.376L886.184 295.913L887.47 294.428L888.338 293.425M972.506 293.425L975.151 291.387L977.852 289.306M972.506 293.425L930.421 293.425M972.506 293.425L1014.59 293.425M930.421 293.425L934.877 289.306M930.421 293.425L888.338 293.425M888.338 293.425L891.901 289.306M977.852 289.306L934.877 289.306M977.852 289.306L1020.83 289.306M939.524 285.009L934.877 289.306M939.524 285.009L944.378 280.523M939.524 285.009L895.62 285.009M934.877 289.306L891.901 289.306M1020.83 289.306L1063.8 289.306M1020.83 289.306L1014.59 293.425M891.901 289.306L895.62 285.009M1014.59 293.425L1056.67 293.425M944.378 280.523L945.625 279.37L949.451 275.833M944.378 280.523L899.503 280.523M895.62 285.009L899.503 280.523M899.503 280.523L900 279.948L901.509 278.204L903.561 275.833M995.341 275.833L1001.71 270.927M995.341 275.833L949.451 275.833M995.341 275.833L1041.23 275.833M949.451 275.833L954.759 270.927M949.451 275.833L903.561 275.833M903.561 275.833L907.807 270.927M1001.71 270.927L954.759 270.927M1001.71 270.927L1048.66 270.927M960.318 265.788L956.812 269.027L954.759 270.927M960.318 265.788L966.146 260.4M960.318 265.788L912.254 265.788M954.759 270.927L907.807 270.927M1048.66 270.927L1095.61 270.927M1048.66 270.927L1041.23 275.833M907.807 270.927L912.254 265.788M1041.23 275.833L1087.12 275.833M966.146 260.4L972.265 254.743M966.146 260.4L916.917 260.4M912.254 265.788L916.917 260.4M916.917 260.4L921.812 254.743M1022.72 254.743L1030.43 248.799M1022.72 254.743L972.265 254.743M1022.72 254.743L1073.17 254.743M972.265 254.743L978.695 248.799M972.265 254.743L921.812 254.743M921.812 254.743L926.956 248.799M1030.43 248.799L978.695 248.799M1030.43 248.799L1082.17 248.799M985.461 242.544L978.695 248.799M985.461 242.544L992.591 235.953M985.461 242.544L932.369 242.544M978.695 248.799L926.956 248.799M1082.17 248.799L1133.91 248.799M1082.17 248.799L1073.17 254.743M926.956 248.799L932.369 242.544M1073.17 254.743L1123.62 254.743M992.591 235.953L1000.12 228.997M992.591 235.953L938.073 235.953M932.369 242.544L938.073 235.953M938.073 235.953L944.093 228.997M1056.14 228.997L1065.68 221.647M1056.14 228.997L1000.12 228.997M1056.14 228.997L1112.16 228.997M1000.12 228.997L1008.07 221.647M1000.12 228.997L944.093 228.997M944.093 228.997L950.453 221.647M1065.68 221.647L1008.07 221.647M1065.68 221.647L1123.29 221.647M1016.48 213.867L1008.07 221.647M1016.48 213.867L1025.4 205.62M1016.48 213.867L957.185 213.867M1008.07 221.647L950.453 221.647M1123.29 221.647L1180.91 221.647M1123.29 221.647L1112.16 228.997M950.453 221.647L957.185 213.867M1112.16 228.997L1168.18 228.997M1025.4 205.62L1034.88 196.86M1025.4 205.62L964.323 205.62M957.185 213.867L964.323 205.62M964.323 205.62L971.903 196.86M1097.86 196.86L1109.95 187.54M1097.86 196.86L1034.88 196.86M1097.86 196.86L1160.83 196.86M1034.88 196.86L1044.96 187.54M1034.88 196.86L971.903 196.86M971.903 196.86L979.969 187.54M1109.95 187.54L1044.96 187.54M1109.95 187.54L1174.95 187.54M1055.71 177.603L1044.96 187.54M1055.71 177.603L1067.2 166.986M1055.71 177.603L988.568 177.603M1044.96 187.54L979.969 187.54M1174.95 187.54L1239.94 187.54M1174.95 187.54L1160.83 196.86M979.969 187.54L988.568 177.603M1160.83 196.86L1223.81 196.86M1067.2 166.986L1079.49 155.617M1067.2 166.986L997.756 166.986M988.568 177.603L997.756 166.986M997.756 166.986L1007.6 155.617M1151.39 155.617L1167.23 143.412M1151.39 155.617L1079.49 155.617M1151.39 155.617L1223.29 155.617M1079.49 155.617L1092.7 143.412M1079.49 155.617L1007.6 155.617M1007.6 155.617L1018.16 143.412M1167.23 143.412L1092.7 143.412M1167.23 143.412L1241.77 143.412M1106.9 130.278L1092.7 143.412M1106.9 130.278L1122.24 116.101M1106.9 130.278L1029.52 130.278M1092.7 143.412L1018.16 143.412M1241.77 143.412L1316.31 143.412M1241.77 143.412L1223.29 155.617M1018.16 143.412L1029.52 130.278M1223.29 155.617L1295.19 155.617M1122.24 116.101L1138.84 100.756M1122.24 116.101L1041.79 116.101M1029.52 130.278L1041.79 116.101M1041.79 116.101L1055.07 100.756M1222.61 100.756L1244.24 84.0884M1222.61 100.756L1138.84 100.756M1222.61 100.756L1306.37 100.756M1138.84 100.756L1156.87 84.0884M1138.84 100.756L1055.07 100.756M1055.07 100.756L1069.49 84.0884M1244.24 84.0884L1156.87 84.0884M1244.24 84.0884L1331.62 84.0884M1176.52 65.9219L1156.87 84.0884M1176.52 65.9219L1198.02 46.0441M1176.52 65.9219L1085.22 65.9219M1156.87 84.0884L1069.49 84.0884M1331.62 84.0884L1418.99 84.0884M1331.62 84.0884L1306.37 100.756M1069.49 84.0884L1085.22 65.9219M1306.37 100.756L1390.14 100.756M1198.02 46.0441L1221.65 24.2009M1198.02 46.0441L1102.42 46.0441M1085.22 65.9219L1102.42 46.0441M1102.42 46.0441L1121.32 24.2008M1321.98 24.2009L1353.28 0.0858117M1321.98 24.2009L1221.65 24.2009M1321.98 24.2009L1422.31 24.2009M1221.65 24.2009L1247.74 0.0858029M1221.65 24.2009L1121.32 24.2008M1121.32 24.2008L1142.19 0.0857942M1247.74 0.0858029L1353.28 0.0858117M1247.74 0.0858029L1142.19 0.0857942M1353.28 0.0858117L1439.61 0.0862619M1422.31 24.2009L1439.61 12.7767M1422.31 24.2009L1439.61 24.2009M1080.97 321.099L1087.51 318.078M1080.97 321.099L1044.87 321.099M1080.97 321.099L1117.07 321.099M1039.2 324.015L1033.71 326.83M1039.2 324.015L1044.87 321.099M1039.2 324.015L1003.73 324.015M1033.71 326.83L998.857 326.83M1033.71 326.83L1028.42 329.55M1062.69 329.55L1028.42 329.55M1062.69 329.55L1060.53 330.547L1057 332.18M1062.69 329.55L1096.96 329.55M1044.87 321.099L1050.75 318.078M1044.87 321.099L1008.78 321.099M1003.73 324.015L998.857 326.83M1003.73 324.015L1008.78 321.099M998.857 326.83L995.311 328.879L994.149 329.55M1028.42 329.55L1027.77 329.884L1023.3 332.18M1028.42 329.55L994.149 329.55M1008.78 321.099L1014 318.078M959.881 329.55L955.898 332.18M959.881 329.55L994.149 329.55M994.149 329.55L992.424 330.547L989.597 332.18M1087.51 318.078L1050.75 318.078M1087.51 318.078L1124.26 318.078M1056.85 314.946L1050.75 318.078M1056.85 314.946L1063.18 311.696M1056.85 314.946L1019.43 314.946M1050.75 318.078L1014 318.078M1124.26 318.078L1161.01 318.078M1124.26 318.078L1117.07 321.099M1014 318.078L1019.43 314.946M1117.07 321.099L1153.16 321.099M1063.18 311.696L1064.8 310.865L1069.75 308.322M1063.18 311.696L1025.05 311.696M1019.43 314.946L1025.05 311.696M1025.05 311.696L1030.89 308.322M1108.61 308.322L1109.55 307.891L1116.2 304.816M1108.61 308.322L1069.75 308.322M1108.61 308.322L1147.48 308.322M1069.75 308.322L1076.58 304.816M1069.75 308.322L1030.89 308.322M1030.89 308.322L1031.64 307.891L1036.96 304.816M1116.2 304.816L1076.58 304.816M1116.2 304.816L1155.82 304.816M1083.68 301.17L1076.58 304.816M1083.68 301.17L1091.07 297.376M1083.68 301.17L1043.27 301.17M1076.58 304.816L1036.96 304.816M1155.82 304.816L1195.44 304.816M1155.82 304.816L1147.48 308.322M1036.96 304.816L1043.27 301.17M1147.48 308.322L1186.34 308.322M1091.07 297.376L1098.76 293.425M1091.07 297.376L1049.84 297.376M1043.27 301.17L1049.84 297.376M1049.84 297.376L1056.67 293.425M1140.84 293.425L1149.75 289.306M1140.84 293.425L1098.76 293.425M1140.84 293.425L1182.93 293.425M1098.76 293.425L1106.78 289.306M1098.76 293.425L1056.67 293.425M1056.67 293.425L1063.8 289.306M1149.75 289.306L1106.78 289.306M1149.75 289.306L1192.73 289.306M1115.14 285.009L1106.78 289.306M1115.14 285.009L1123.88 280.523M1115.14 285.009L1071.24 285.009M1106.78 289.306L1063.8 289.306M1192.73 289.306L1235.7 289.306M1192.73 289.306L1182.93 293.425M1063.8 289.306L1071.24 285.009M1182.93 293.425L1225.01 293.425M1123.88 280.523L1133.01 275.833M1123.88 280.523L1079 280.523M1071.24 285.009L1079 280.523M1079 280.523L1087.12 275.833M1178.9 275.833L1189.52 270.927M1178.9 275.833L1133.01 275.833M1178.9 275.833L1224.79 275.833M1133.01 275.833L1142.57 270.927M1133.01 275.833L1087.12 275.833M1087.12 275.833L1095.61 270.927M1189.52 270.927L1142.57 270.927M1189.52 270.927L1236.47 270.927M1152.57 265.788L1142.57 270.927M1152.57 265.788L1163.06 260.4M1152.57 265.788L1104.51 265.788M1142.57 270.927L1095.61 270.927M1236.47 270.927L1283.42 270.927M1236.47 270.927L1224.79 275.833M1095.61 270.927L1104.51 265.788M1224.79 275.833L1270.68 275.833M1163.06 260.4L1174.08 254.743M1163.06 260.4L1113.83 260.4M1104.51 265.788L1113.83 260.4M1113.83 260.4L1123.62 254.743M1224.53 254.743L1237.39 248.799M1224.53 254.743L1174.08 254.743M1224.53 254.743L1274.98 254.743M1174.08 254.743L1185.65 248.799M1174.08 254.743L1123.62 254.743M1123.62 254.743L1133.91 248.799M1237.39 248.799L1185.65 248.799M1237.39 248.799L1289.13 248.799M1197.83 242.544L1185.65 248.799M1197.83 242.544L1210.66 235.953M1197.83 242.544L1144.74 242.544M1185.65 248.799L1133.91 248.799M1289.13 248.799L1340.87 248.799M1289.13 248.799L1274.98 254.743M1133.91 248.799L1144.74 242.544M1274.98 254.743L1325.43 254.743M1210.66 235.953L1224.21 228.997M1210.66 235.953L1156.15 235.953M1144.74 242.544L1156.15 235.953M1156.15 235.953L1168.18 228.997M1280.23 228.997L1296.13 221.647M1280.23 228.997L1224.21 228.997M1280.23 228.997L1336.25 228.997M1224.21 228.997L1238.52 221.647M1224.21 228.997L1168.18 228.997M1168.18 228.997L1180.91 221.647M1296.13 221.647L1238.52 221.647M1296.13 221.647L1353.75 221.647M1253.67 213.867L1238.52 221.647M1253.67 213.867L1269.73 205.62M1253.67 213.867L1194.37 213.867M1238.52 221.647L1180.91 221.647M1353.75 221.647L1411.36 221.647M1353.75 221.647L1336.25 228.997M1180.91 221.647L1194.37 213.867M1336.25 228.997L1392.28 228.997M1269.73 205.62L1286.78 196.86M1269.73 205.62L1208.65 205.62M1194.37 213.867L1208.65 205.62M1208.65 205.62L1223.81 196.86M1349.76 196.86L1369.92 187.54M1349.76 196.86L1286.78 196.86M1349.76 196.86L1412.73 196.86M1286.78 196.86L1304.93 187.54M1286.78 196.86L1223.81 196.86M1223.81 196.86L1239.94 187.54M1369.92 187.54L1304.93 187.54M1369.92 187.54L1434.91 187.54M1324.28 177.603L1304.93 187.54M1324.28 177.603L1344.95 166.986M1324.28 177.603L1257.14 177.603M1304.93 187.54L1239.94 187.54M1434.91 187.54L1412.73 196.86M1434.91 187.54L1439.61 187.54M1434.91 187.54L1439.61 185.566M1239.94 187.54L1257.14 177.603M1412.73 196.86L1439.61 196.86M1344.95 166.986L1367.09 155.617M1344.95 166.986L1275.51 166.986M1257.14 177.603L1275.51 166.986M1275.51 166.986L1295.19 155.617M1438.99 155.617L1367.09 155.617M1438.99 155.617L1439.61 155.617M1438.99 155.617L1439.61 155.328M1367.09 155.617L1390.85 143.412M1367.09 155.617L1295.19 155.617M1295.19 155.617L1316.31 143.412M1416.43 130.278L1390.85 143.412M1416.43 130.278L1339.05 130.278M1416.43 130.278L1439.61 130.278M1416.43 130.278L1439.61 118.37M1390.85 143.412L1316.31 143.412M1390.85 143.412L1439.61 143.412M1316.31 143.412L1339.05 130.278M1339.05 130.278L1363.58 116.101M1363.58 116.101L1390.14 100.756M1363.58 116.101L1439.61 116.101M1390.14 100.756L1418.99 84.0884M1390.14 100.756L1439.61 100.756M1418.99 84.0884L1439.61 84.0884M1418.99 84.0884L1439.61 72.1729M1225.36 321.099L1234.51 318.078M1225.36 321.099L1189.26 321.099M1225.36 321.099L1261.45 321.099M1181.06 324.015L1173.14 326.83M1181.06 324.015L1189.26 321.099M1181.06 324.015L1145.59 324.015M1173.14 326.83L1138.29 326.83M1173.14 326.83L1165.49 329.55M1199.76 329.55L1165.49 329.55M1199.76 329.55L1191.8 332.18M1199.76 329.55L1234.03 329.55M1189.26 321.099L1197.76 318.078M1189.26 321.099L1153.16 321.099M1145.59 324.015L1138.29 326.83M1145.59 324.015L1153.16 321.099M1138.29 326.83L1131.22 329.55M1165.49 329.55L1164.55 329.884L1158.1 332.18M1165.49 329.55L1131.22 329.55M1153.16 321.099L1161.01 318.078M1096.96 329.55L1090.7 332.18M1096.96 329.55L1131.22 329.55M1131.22 329.55L1130.36 329.884L1124.4 332.18M1234.51 318.078L1197.76 318.078M1234.51 318.078L1271.26 318.078M1206.57 314.946L1197.76 318.078M1206.57 314.946L1215.71 311.696M1206.57 314.946L1169.14 314.946M1197.76 318.078L1161.01 318.078M1271.26 318.078L1308.01 318.078M1271.26 318.078L1261.45 321.099M1161.01 318.078L1169.14 314.946M1261.45 321.099L1297.55 321.099M1215.71 311.696L1225.2 308.322M1215.71 311.696L1177.58 311.696M1169.14 314.946L1170.18 314.547L1177.58 311.696M1177.58 311.696L1186.34 308.322M1264.06 308.322L1274.68 304.816M1264.06 308.322L1225.2 308.322M1264.06 308.322L1302.92 308.322M1225.2 308.322L1235.06 304.816M1225.2 308.322L1186.34 308.322M1186.34 308.322L1195.44 304.816M1274.68 304.816L1235.06 304.816M1274.68 304.816L1314.3 304.816M1245.31 301.17L1235.06 304.816M1245.31 301.17L1255.98 297.376M1245.31 301.17L1204.9 301.17M1235.06 304.816L1195.44 304.816M1314.3 304.816L1353.92 304.816M1314.3 304.816L1302.92 308.322M1195.44 304.816L1204.9 301.17M1302.92 308.322L1341.78 308.322M1255.98 297.376L1267.1 293.425M1255.98 297.376L1214.75 297.376M1204.9 301.17L1214.75 297.376M1214.75 297.376L1225.01 293.425M1309.18 293.425L1321.66 289.306M1309.18 293.425L1267.1 293.425M1309.18 293.425L1351.27 293.425M1267.1 293.425L1278.68 289.306M1267.1 293.425L1225.01 293.425M1225.01 293.425L1235.7 289.306M1321.66 289.306L1278.68 289.306M1321.66 289.306L1364.63 289.306M1290.76 285.009L1278.68 289.306M1290.76 285.009L1303.38 280.523M1290.76 285.009L1246.86 285.009M1278.68 289.306L1235.7 289.306M1364.63 289.306L1407.61 289.306M1364.63 289.306L1351.27 293.425M1235.7 289.306L1246.86 285.009M1351.27 293.425L1393.35 293.425M1303.38 280.523L1316.57 275.833M1303.38 280.523L1258.51 280.523M1246.86 285.009L1258.51 280.523M1258.51 280.523L1270.68 275.833M1362.46 275.833L1377.32 270.927M1362.46 275.833L1316.57 275.833M1362.46 275.833L1408.35 275.833M1316.57 275.833L1330.37 270.927M1316.57 275.833L1270.68 275.833M1270.68 275.833L1283.42 270.927M1377.32 270.927L1330.37 270.927M1344.83 265.788L1330.37 270.927M1344.83 265.788L1359.98 260.4M1344.83 265.788L1296.76 265.788M1330.37 270.927L1283.42 270.927M1283.42 270.927L1296.76 265.788M1408.35 275.833L1439.61 275.833M1359.98 260.4L1375.89 254.743M1359.98 260.4L1310.75 260.4M1296.76 265.788L1310.75 260.4M1310.75 260.4L1325.43 254.743M1426.34 254.743L1375.89 254.743M1426.34 254.743L1439.61 254.743M1426.34 254.743L1439.61 250.362M1375.89 254.743L1392.61 248.799M1375.89 254.743L1325.43 254.743M1325.43 254.743L1340.87 248.799M1410.2 242.544L1392.61 248.799M1410.2 242.544L1428.74 235.953M1410.2 242.544L1357.11 242.544M1410.2 242.544L1439.61 242.544M1392.61 248.799L1340.87 248.799M1392.61 248.799L1439.61 248.799M1340.87 248.799L1357.11 242.544M1439.76 250.314L1439.61 250.362M1428.74 235.953L1374.22 235.953M1428.74 235.953L1439.61 235.953M1428.74 235.953L1439.61 232.086M1357.11 242.544L1374.22 235.953M1374.22 235.953L1392.28 228.997M1392.28 228.997L1411.36 221.647M1392.28 228.997L1439.61 228.997M1431.56 213.867L1411.36 221.647M1431.56 213.867L1439.61 213.867M1431.56 213.867L1439.61 210.764M1411.36 221.647L1439.61 221.647M1369.74 321.099L1381.51 318.078M1369.74 321.099L1333.65 321.099M1369.74 321.099L1405.84 321.099M1322.93 324.015L1312.57 326.83M1322.93 324.015L1333.65 321.099M1322.93 324.015L1287.46 324.015M1312.57 326.83L1277.71 326.83M1312.57 326.83L1302.57 329.55M1336.84 329.55L1302.57 329.55M1336.84 329.55L1326.6 332.18M1336.84 329.55L1371.1 329.55M1333.65 321.099L1344.76 318.078M1333.65 321.099L1297.55 321.099M1287.46 324.015L1277.71 326.83M1287.46 324.015L1297.55 321.099M1277.71 326.83L1268.3 329.55M1302.57 329.55L1268.3 329.55M1302.57 329.55L1292.89 332.18M1297.55 321.099L1308.01 318.078M1234.03 329.55L1225.5 332.18M1234.03 329.55L1268.3 329.55M1268.3 329.55L1259.2 332.18M1381.51 318.078L1344.76 318.078M1381.51 318.078L1418.26 318.078M1356.28 314.946L1344.76 318.078M1356.28 314.946L1368.23 311.696M1356.28 314.946L1318.85 314.946M1344.76 318.078L1308.01 318.078M1418.26 318.078L1405.84 321.099M1418.26 318.078L1439.61 318.078M1308.01 318.078L1318.85 314.946M1405.84 321.099L1439.61 321.099M1368.23 311.696L1380.64 308.322M1368.23 311.696L1330.1 311.696M1318.85 314.946L1330.1 311.696M1330.1 311.696L1341.78 308.322M1419.5 308.322L1433.16 304.816M1419.5 308.322L1380.64 308.322M1419.5 308.322L1439.61 308.322M1380.64 308.322L1393.54 304.816M1380.64 308.322L1341.78 308.322M1341.78 308.322L1353.92 304.816M1406.95 301.17L1393.54 304.816M1406.95 301.17L1420.9 297.376M1406.95 301.17L1366.54 301.17M1406.95 301.17L1439.61 301.17M1393.54 304.816L1433.16 304.816M1393.54 304.816L1353.92 304.816M1433.16 304.816L1439.61 303.158M1433.16 304.816L1439.61 304.816M1353.92 304.816L1366.54 301.17M1420.9 297.376L1435.43 293.425M1420.9 297.376L1379.67 297.376M1420.9 297.376L1439.61 297.376M1366.54 301.17L1379.67 297.376M1379.67 297.376L1393.35 293.425M1435.43 293.425L1393.35 293.425M1435.43 293.425L1439.61 292.289M1435.43 293.425L1439.61 293.425M1393.35 293.425L1407.61 289.306M1422.48 285.009L1407.61 289.306M1422.48 285.009L1438.01 280.523M1422.48 285.009L1439.61 285.009M1407.61 289.306L1439.61 289.306M1439.84 289.306L1439.61 289.306M1438.01 280.523L1439.61 280.523M1438.01 280.523L1439.61 280.06M1440 279.948L1439.61 280.06M1429.32 324.015L1417.14 326.83M1429.32 324.015L1439.61 324.015M1429.32 324.015L1439.61 321.637M1417.14 326.83L1405.37 329.55M1417.14 326.83L1439.61 326.83M1371.1 329.55L1360.29 332.18M1371.1 329.55L1405.37 329.55M1405.37 329.55L1393.99 332.18M1405.37 329.55L1439.61 329.55M248.204 332.18L214.504 332.18M248.204 332.18L281.904 332.18M222.76 334.724L220.722 334.095L214.504 332.18M222.76 334.724L189.61 334.724M214.504 332.18L180.805 332.18M189.61 334.724L187.436 334.095L186.342 333.78L180.805 332.18M180.805 332.18L147.105 332.18M147.105 332.18L113.405 332.18M281.904 332.18L315.603 332.18M113.405 332.18L79.7052 332.18M79.7052 332.18L90.1629 334.724M79.7052 332.18L46.0057 332.18M90.1629 334.724L57.0135 334.724M383.003 332.18L349.303 332.18M383.003 332.18L416.703 332.18M355.357 334.724L353.863 334.095L353.11 333.78L349.303 332.18M355.357 334.724L322.208 334.724M349.303 332.18L315.603 332.18M322.208 334.724L315.603 332.18M416.703 332.18L450.402 332.18M517.802 332.18L484.102 332.18M517.802 332.18L551.501 332.18M487.955 334.724L487.48 334.411L487.004 334.095L486.525 333.78L484.102 332.18M487.955 334.724L454.806 334.724M484.102 332.18L450.402 332.18M454.806 334.724L450.402 332.18M551.501 332.18L585.202 332.18M652.601 332.18L618.901 332.18M652.601 332.18L686.3 332.18M620.552 334.724L618.901 332.18M620.552 334.724L587.402 334.724M618.901 332.18L585.202 332.18M587.402 334.724L587.131 334.411L586.859 334.095L586.585 333.78L585.202 332.18M686.3 332.18L720 332.18M787.399 332.18L753.7 332.18M787.399 332.18L821.099 332.18M753.149 334.724L753.7 332.18M753.149 334.724L720 334.724M753.7 332.18L720 332.18M720 334.724L720 332.18M821.099 332.18L854.799 332.18M922.198 332.18L888.499 332.18M922.198 332.18L955.898 332.18M885.747 334.724L886.426 334.096L887.802 332.824L888.499 332.18M885.747 334.724L852.598 334.724M888.499 332.18L854.799 332.18M852.598 334.724L852.869 334.411L853.141 334.096L853.415 333.78L854.799 332.18M955.898 332.18L989.597 332.18M1057 332.18L1023.3 332.18M1057 332.18L1090.7 332.18M1018.34 334.724L1019.57 334.096L1020.18 333.78L1023.3 332.18M1018.34 334.724L985.194 334.724M1023.3 332.18L989.597 332.18M985.194 334.724L985.737 334.411L989.597 332.18M1090.7 332.18L1124.4 332.18M1191.8 332.18L1158.1 332.18M1191.8 332.18L1225.5 332.18M1150.94 334.724L1152.71 334.096L1153.6 333.78L1158.1 332.18M1150.94 334.724L1117.79 334.724M1158.1 332.18L1124.4 332.18M1117.79 334.724L1118.61 334.411L1124.4 332.18M1225.5 332.18L1259.2 332.18M1326.6 332.18L1292.89 332.18M1326.6 332.18L1360.29 332.18M1283.54 334.724L1292.89 332.18M1283.54 334.724L1250.39 334.724M1292.89 332.18L1259.2 332.18M1250.39 334.724L1252.56 334.096L1253.66 333.78L1259.2 332.18M1360.29 332.18L1393.99 332.18M1416.14 334.724L1427.69 332.18M1416.14 334.724L1382.99 334.724M1416.14 334.724L1439.61 334.724M1427.69 332.18L1393.99 332.18M1427.69 332.18L1439.61 329.556M1427.69 332.18L1439.61 332.18M1382.99 334.724L1385.7 334.096L1393.99 332.18M57.0135 334.724L54.2955 334.095L46.0057 332.18M46.0057 332.18L12.3061 332.18M12.3061 332.18L0.387477 329.556M12.3061 332.18L0.387477 332.18M0.387488 210.764L0.387488 213.867M0.387488 210.764L0.387489 205.62M0.387488 213.867L0.387487 221.647M0.387489 205.62L0.387489 204.083L0.38749 196.86M0.38749 196.86L0.387491 187.539M0.387483 270.927L0.387482 275.833M0.387483 270.927L0.387483 266.201M0.387477 334.724L0.387477 332.18M0.387477 332.18L0.387477 329.556M0.387477 329.556L0.358288 329.55L0.387477 329.55M0.387477 329.556L0.387477 329.55M0.387477 329.55L0.387478 326.83M0.387478 326.83L0.387478 324.015M0.387478 324.015L0.387478 321.637M0.387478 321.637L0.387478 321.099M0.387478 321.099L0.387478 318.078M0.387478 318.078L0.387479 314.946M0.387479 314.946L0.387479 312.884M0.387479 312.884L0.387479 311.696M0.387479 311.696L0.387479 308.322M0.387479 308.322L0.38748 304.815M0.38748 304.815L0.38748 303.158M0.38748 303.158L0.38748 301.17M0.38748 301.17L0.38748 297.376M0.38748 297.376L0.387481 293.425M0.387481 293.425L0.387481 292.289M0.387481 292.289L0.387481 289.306M0.387481 289.306L0.387482 285.009M0.387482 285.009L0.387482 280.523M0.387482 280.523L0.387482 280.06M0.387482 280.06L0.387482 275.833M0.387483 265.788L0.387484 260.4M0.387483 265.788L0.387483 266.201M0.387484 260.4L0.387484 254.743M0.387484 254.743L0.387485 250.362M0.387485 250.362L0.387485 248.799M0.387485 248.799L0.387485 242.544M0.387485 242.544L0.387486 235.953M0.387486 235.953L0.387486 232.086M0.387486 232.086L0.387487 228.997M0.387487 228.997L0.387487 221.647M0.387491 187.539L0.387491 185.566M0.387491 185.566L0.387491 177.603M0.387491 177.603L0.387492 166.986M0.387492 166.986L0.387493 155.616M0.387493 155.616L0.387494 155.328M0.387494 155.328L0.387495 143.412M0.387495 143.412L0.387496 130.277M0.387496 130.277L0.387497 118.37M0.387497 118.37L0.387497 116.101M0.387497 116.101L0.387499 100.755M0.387499 100.755L0.3875 84.0883M0.3875 84.0883L0.387501 72.1728M0.387501 72.1728L0.387502 65.9218M0.387502 65.9218L0.387504 46.044M0.387504 46.044L0.387506 24.2007M0.387506 24.2007L0.387507 12.7766M0.387507 12.7766L0.387508 0.0861427M0.387508 0.0861427L0.387508 3.50397e-05L1439.61 0.000154274L1439.61 0.0862619M1439.61 265.788L1439.61 260.4M1439.61 265.788L1439.61 266.201M1439.61 266.201L1439.61 270.927M1439.61 270.927L1439.61 275.833M1439.61 275.833L1439.61 280.06M1439.61 280.06L1439.61 280.523M1439.61 280.523L1439.61 285.009M1439.61 285.009L1439.61 289.306M1439.61 289.306L1439.61 292.289M1439.61 292.289L1439.61 293.425M1439.61 293.425L1439.61 297.376M1439.61 297.376L1439.61 301.17M1439.61 301.17L1439.61 303.158M1439.61 303.158L1439.61 304.816M1439.61 304.816L1439.61 308.322M1439.61 308.322L1439.61 311.696M1439.61 311.696L1439.61 312.884M1439.61 312.884L1439.61 314.946M1439.61 314.946L1439.61 318.078M1439.61 318.078L1439.61 321.099M1439.61 321.099L1439.61 321.637M1439.61 321.637L1439.61 324.015M1439.61 324.015L1439.61 326.83M1439.61 326.83L1439.61 329.55M1439.61 329.55L1439.64 329.55L1439.61 329.556M1439.61 329.55L1439.61 329.556M1439.61 329.556L1439.61 332.18M1439.61 332.18L1439.61 334.724M1439.61 0.0862619L1439.61 12.7767M1439.61 12.7767L1439.61 24.2009M1439.61 24.2009L1439.61 46.0437M1439.61 46.0437L1439.61 65.9219M1439.61 65.9219L1439.61 72.1729M1439.61 72.1729L1439.61 84.0884M1439.61 84.0884L1439.61 100.756M1439.61 100.756L1439.61 116.101M1439.61 116.101L1439.61 118.37M1439.61 118.37L1439.61 130.278M1439.61 130.278L1439.61 143.412M1439.61 143.412L1439.61 155.328M1439.61 155.328L1439.61 155.617M1439.61 155.617L1439.61 166.986M1439.61 166.986L1439.61 177.603M1439.61 177.603L1439.61 185.566M1439.61 185.566L1439.61 187.54M1439.61 187.54L1439.61 196.86M1439.61 196.86L1439.61 205.62M1439.61 205.62L1439.61 210.764M1439.61 210.764L1439.61 213.867M1439.61 213.867L1439.61 221.647M1439.61 221.647L1439.61 228.997M1439.61 228.997L1439.61 232.086M1439.61 232.086L1439.61 235.953M1439.61 235.953L1439.61 242.544M1439.61 242.544L1439.61 248.799M1439.61 248.799L1439.61 250.362M1439.61 250.362L1439.61 254.743M1439.61 254.743L1439.61 260.4" stroke="url(#paint0_linear_468_692)" stroke-width="1.8895" stroke-miterlimit="10" stroke-linecap="round" stroke-linejoin="round"/>
<defs>
<linearGradient id="paint0_linear_468_692" x1="720" y1="337.186" x2="720" y2="100.777" gradientUnits="userSpaceOnUse">
<stop stop-color="#CED2DF" stop-opacity="0"/>
<stop offset="1" stop-color="#5D606A"/>
</linearGradient>
</defs>
</svg>
