<svg width="384" height="320" viewBox="0 0 384 320" fill="none" xmlns="http://www.w3.org/2000/svg">
<rect width="384" height="320" fill="#F9F7F7"/>
<rect x="32" y="32" width="320" height="256" rx="8" fill="white"/>
<path d="M56.499 60.32V59.324H58.755V68H57.651V60.32H56.499ZM60.6307 63.572C60.6307 62.196 60.8547 61.124 61.3027 60.356C61.7507 59.58 62.5347 59.192 63.6547 59.192C64.7667 59.192 65.5467 59.58 65.9947 60.356C66.4427 61.124 66.6667 62.196 66.6667 63.572C66.6667 64.972 66.4427 66.06 65.9947 66.836C65.5467 67.612 64.7667 68 63.6547 68C62.5347 68 61.7507 67.612 61.3027 66.836C60.8547 66.06 60.6307 64.972 60.6307 63.572ZM65.5867 63.572C65.5867 62.876 65.5387 62.288 65.4427 61.808C65.3547 61.32 65.1667 60.928 64.8787 60.632C64.5987 60.336 64.1907 60.188 63.6547 60.188C63.1107 60.188 62.6947 60.336 62.4067 60.632C62.1267 60.928 61.9387 61.32 61.8427 61.808C61.7547 62.288 61.7107 62.876 61.7107 63.572C61.7107 64.292 61.7547 64.896 61.8427 65.384C61.9387 65.872 62.1267 66.264 62.4067 66.56C62.6947 66.856 63.1107 67.004 63.6547 67.004C64.1907 67.004 64.5987 66.856 64.8787 66.56C65.1667 66.264 65.3547 65.872 65.4427 65.384C65.5387 64.896 65.5867 64.292 65.5867 63.572ZM68.1659 63.572C68.1659 62.196 68.3899 61.124 68.8379 60.356C69.2859 59.58 70.0699 59.192 71.1899 59.192C72.3019 59.192 73.0819 59.58 73.5299 60.356C73.9779 61.124 74.2019 62.196 74.2019 63.572C74.2019 64.972 73.9779 66.06 73.5299 66.836C73.0819 67.612 72.3019 68 71.1899 68C70.0699 68 69.2859 67.612 68.8379 66.836C68.3899 66.06 68.1659 64.972 68.1659 63.572ZM73.1219 63.572C73.1219 62.876 73.0739 62.288 72.9779 61.808C72.8899 61.32 72.7019 60.928 72.4139 60.632C72.1339 60.336 71.7259 60.188 71.1899 60.188C70.6459 60.188 70.2299 60.336 69.9419 60.632C69.6619 60.928 69.4739 61.32 69.3779 61.808C69.2899 62.288 69.2459 62.876 69.2459 63.572C69.2459 64.292 69.2899 64.896 69.3779 65.384C69.4739 65.872 69.6619 66.264 69.9419 66.56C70.2299 66.856 70.6459 67.004 71.1899 67.004C71.7259 67.004 72.1339 66.856 72.4139 66.56C72.7019 66.264 72.8899 65.872 72.9779 65.384C73.0739 64.896 73.1219 64.292 73.1219 63.572Z" fill="#A88E8B"/>
<path d="M62.541 99.176L59.205 107H58.101L61.485 99.284H56.853V98.348H62.541V99.176ZM69.2838 99.272H65.0718V102.008C65.2558 101.752 65.5278 101.544 65.8878 101.384C66.2478 101.216 66.6358 101.132 67.0518 101.132C67.7158 101.132 68.2558 101.272 68.6718 101.552C69.0878 101.824 69.3838 102.18 69.5598 102.62C69.7438 103.052 69.8358 103.512 69.8358 104C69.8358 104.576 69.7278 105.092 69.5118 105.548C69.2958 106.004 68.9638 106.364 68.5158 106.628C68.0758 106.892 67.5278 107.024 66.8718 107.024C66.0318 107.024 65.3518 106.808 64.8318 106.376C64.3118 105.944 63.9958 105.368 63.8838 104.648H64.9518C65.0558 105.104 65.2758 105.46 65.6118 105.716C65.9478 105.972 66.3718 106.1 66.8838 106.1C67.5158 106.1 67.9918 105.912 68.3118 105.536C68.6318 105.152 68.7918 104.648 68.7918 104.024C68.7918 103.4 68.6318 102.92 68.3118 102.584C67.9918 102.24 67.5198 102.068 66.8958 102.068C66.4718 102.068 66.0998 102.172 65.7798 102.38C65.4678 102.58 65.2398 102.856 65.0958 103.208H64.0638V98.312H69.2838V99.272Z" fill="#A88E8B"/>
<path d="M62.7408 138.272H58.5288V141.008C58.7128 140.752 58.9848 140.544 59.3448 140.384C59.7048 140.216 60.0928 140.132 60.5088 140.132C61.1728 140.132 61.7128 140.272 62.1288 140.552C62.5448 140.824 62.8408 141.18 63.0168 141.62C63.2008 142.052 63.2928 142.512 63.2928 143C63.2928 143.576 63.1848 144.092 62.9688 144.548C62.7528 145.004 62.4208 145.364 61.9728 145.628C61.5328 145.892 60.9848 146.024 60.3288 146.024C59.4888 146.024 58.8088 145.808 58.2888 145.376C57.7688 144.944 57.4528 144.368 57.3408 143.648H58.4088C58.5128 144.104 58.7328 144.46 59.0688 144.716C59.4048 144.972 59.8288 145.1 60.3408 145.1C60.9728 145.1 61.4488 144.912 61.7688 144.536C62.0888 144.152 62.2488 143.648 62.2488 143.024C62.2488 142.4 62.0888 141.92 61.7688 141.584C61.4488 141.24 60.9768 141.068 60.3528 141.068C59.9288 141.068 59.5568 141.172 59.2368 141.38C58.9248 141.58 58.6968 141.856 58.5528 142.208H57.5208V137.312H62.7408V138.272ZM64.744 141.572C64.744 140.196 64.968 139.124 65.416 138.356C65.864 137.58 66.648 137.192 67.768 137.192C68.88 137.192 69.66 137.58 70.108 138.356C70.556 139.124 70.78 140.196 70.78 141.572C70.78 142.972 70.556 144.06 70.108 144.836C69.66 145.612 68.88 146 67.768 146C66.648 146 65.864 145.612 65.416 144.836C64.968 144.06 64.744 142.972 64.744 141.572ZM69.7 141.572C69.7 140.876 69.652 140.288 69.556 139.808C69.468 139.32 69.28 138.928 68.992 138.632C68.712 138.336 68.304 138.188 67.768 138.188C67.224 138.188 66.808 138.336 66.52 138.632C66.24 138.928 66.052 139.32 65.956 139.808C65.868 140.288 65.824 140.876 65.824 141.572C65.824 142.292 65.868 142.896 65.956 143.384C66.052 143.872 66.24 144.264 66.52 144.56C66.808 144.856 67.224 145.004 67.768 145.004C68.304 145.004 68.712 144.856 68.992 144.56C69.28 144.264 69.468 143.872 69.556 143.384C69.652 142.896 69.7 142.292 69.7 141.572Z" fill="#A88E8B"/>
<path d="M56.8933 184.124C57.9093 183.308 58.7053 182.64 59.2812 182.12C59.8573 181.592 60.3413 181.044 60.7333 180.476C61.1333 179.9 61.3333 179.336 61.3333 178.784C61.3333 178.264 61.2053 177.856 60.9493 177.56C60.7013 177.256 60.2973 177.104 59.7373 177.104C59.1933 177.104 58.7693 177.276 58.4653 177.62C58.1693 177.956 58.0093 178.408 57.9853 178.976H56.9293C56.9613 178.08 57.2333 177.388 57.7453 176.9C58.2573 176.412 58.9173 176.168 59.7253 176.168C60.5493 176.168 61.2013 176.396 61.6813 176.852C62.1693 177.308 62.4133 177.936 62.4133 178.736C62.4133 179.4 62.2133 180.048 61.8133 180.68C61.4213 181.304 60.9733 181.856 60.4693 182.336C59.9653 182.808 59.3213 183.36 58.5373 183.992H62.6653V184.904H56.8933V184.124ZM69.4596 177.272H65.2476V180.008C65.4316 179.752 65.7036 179.544 66.0636 179.384C66.4236 179.216 66.8116 179.132 67.2276 179.132C67.8916 179.132 68.4316 179.272 68.8476 179.552C69.2636 179.824 69.5596 180.18 69.7356 180.62C69.9196 181.052 70.0116 181.512 70.0116 182C70.0116 182.576 69.9036 183.092 69.6876 183.548C69.4716 184.004 69.1396 184.364 68.6916 184.628C68.2516 184.892 67.7036 185.024 67.0476 185.024C66.2076 185.024 65.5276 184.808 65.0076 184.376C64.4876 183.944 64.1716 183.368 64.0596 182.648H65.1276C65.2316 183.104 65.4516 183.46 65.7876 183.716C66.1236 183.972 66.5476 184.1 67.0596 184.1C67.6916 184.1 68.1676 183.912 68.4876 183.536C68.8076 183.152 68.9676 182.648 68.9676 182.024C68.9676 181.4 68.8076 180.92 68.4876 180.584C68.1676 180.24 67.6956 180.068 67.0716 180.068C66.6476 180.068 66.2756 180.172 65.9556 180.38C65.6436 180.58 65.4156 180.856 65.2716 181.208H64.2396V176.312H69.4596V177.272Z" fill="#A88E8B"/>
<path d="M56.9764 219.572C56.9764 218.196 57.2004 217.124 57.6484 216.356C58.0964 215.58 58.8804 215.192 60.0004 215.192C61.1124 215.192 61.8924 215.58 62.3404 216.356C62.7884 217.124 63.0124 218.196 63.0124 219.572C63.0124 220.972 62.7884 222.06 62.3404 222.836C61.8924 223.612 61.1124 224 60.0004 224C58.8804 224 58.0964 223.612 57.6484 222.836C57.2004 222.06 56.9764 220.972 56.9764 219.572ZM61.9324 219.572C61.9324 218.876 61.8844 218.288 61.7884 217.808C61.7004 217.32 61.5124 216.928 61.2244 216.632C60.9444 216.336 60.5364 216.188 60.0004 216.188C59.4564 216.188 59.0404 216.336 58.7524 216.632C58.4724 216.928 58.2844 217.32 58.1884 217.808C58.1004 218.288 58.0564 218.876 58.0564 219.572C58.0564 220.292 58.1004 220.896 58.1884 221.384C58.2844 221.872 58.4724 222.264 58.7524 222.56C59.0404 222.856 59.4564 223.004 60.0004 223.004C60.5364 223.004 60.9444 222.856 61.2244 222.56C61.5124 222.264 61.7004 221.872 61.7884 221.384C61.8844 220.896 61.9324 220.292 61.9324 219.572Z" fill="#A88E8B"/>
<line x1="83.5" y1="65.5" x2="327.5" y2="65.5" stroke="#D8CBC9" stroke-linecap="round"/>
<line x1="83.5" y1="97" x2="327.5" y2="97" stroke="#D8CBC9" stroke-linecap="round"/>
<line x1="83.5" y1="128.5" x2="327.5" y2="128.5" stroke="#D8CBC9" stroke-linecap="round"/>
<line x1="83.5" y1="160" x2="327.5" y2="160" stroke="#D8CBC9" stroke-linecap="round"/>
<line x1="83.5" y1="191.5" x2="327.5" y2="191.5" stroke="#D8CBC9" stroke-linecap="round"/>
<path d="M99.5 74C99.5 71.7909 101.291 70 103.5 70H111.5C113.709 70 115.5 71.7909 115.5 74V202C115.5 204.209 113.709 206 111.5 206H103.5C101.291 206 99.5 204.209 99.5 202V74Z" fill="#AB90AB"/>
<path d="M99.5 113.667C99.5 111.458 101.291 109.667 103.5 109.667H111.5C113.709 109.667 115.5 111.458 115.5 113.667V202C115.5 204.209 113.709 206 111.5 206H103.5C101.291 206 99.5 204.209 99.5 202V113.667Z" fill="#744574"/>
<path d="M99.5 159C99.5 156.791 101.291 155 103.5 155H111.5C113.709 155 115.5 156.791 115.5 159V202C115.5 204.209 113.709 206 111.5 206H103.5C101.291 206 99.5 204.209 99.5 202V159Z" fill="#4A254A"/>
<path d="M104.064 215.696V224H102.972V217.808L100.212 224H99.4443L96.6723 217.796V224H95.5803V215.696H96.7563L99.8283 222.56L102.9 215.696H104.064ZM108.784 224.108C108.168 224.108 107.608 223.968 107.104 223.688C106.608 223.408 106.216 223.012 105.928 222.5C105.648 221.98 105.508 221.38 105.508 220.7C105.508 220.028 105.652 219.436 105.94 218.924C106.236 218.404 106.636 218.008 107.14 217.736C107.644 217.456 108.208 217.316 108.832 217.316C109.456 217.316 110.02 217.456 110.524 217.736C111.028 218.008 111.424 218.4 111.712 218.912C112.008 219.424 112.156 220.02 112.156 220.7C112.156 221.38 112.004 221.98 111.7 222.5C111.404 223.012 111 223.408 110.488 223.688C109.976 223.968 109.408 224.108 108.784 224.108ZM108.784 223.148C109.176 223.148 109.544 223.056 109.888 222.872C110.232 222.688 110.508 222.412 110.716 222.044C110.932 221.676 111.04 221.228 111.04 220.7C111.04 220.172 110.936 219.724 110.728 219.356C110.52 218.988 110.248 218.716 109.912 218.54C109.576 218.356 109.212 218.264 108.82 218.264C108.42 218.264 108.052 218.356 107.716 218.54C107.388 218.716 107.124 218.988 106.924 219.356C106.724 219.724 106.624 220.172 106.624 220.7C106.624 221.236 106.72 221.688 106.912 222.056C107.112 222.424 107.376 222.7 107.704 222.884C108.032 223.06 108.392 223.148 108.784 223.148ZM116.796 217.304C117.596 217.304 118.244 217.548 118.74 218.036C119.236 218.516 119.484 219.212 119.484 220.124V224H118.404V220.28C118.404 219.624 118.24 219.124 117.912 218.78C117.584 218.428 117.136 218.252 116.568 218.252C115.992 218.252 115.532 218.432 115.188 218.792C114.852 219.152 114.684 219.676 114.684 220.364V224H113.592V217.424H114.684V218.36C114.9 218.024 115.192 217.764 115.56 217.58C115.936 217.396 116.348 217.304 116.796 217.304Z" fill="#645250"/>
<path d="M148.5 115C148.5 112.791 150.291 111 152.5 111H160.5C162.709 111 164.5 112.791 164.5 115V202C164.5 204.209 162.709 206 160.5 206H152.5C150.291 206 148.5 204.209 148.5 202V115Z" fill="#AB90AB"/>
<path d="M148.5 142.708C148.5 140.499 150.291 138.708 152.5 138.708H160.5C162.709 138.708 164.5 140.499 164.5 142.708V202C164.5 204.209 162.709 206 160.5 206H152.5C150.291 206 148.5 204.209 148.5 202V142.708Z" fill="#744574"/>
<path d="M148.5 174.375C148.5 172.166 150.291 170.375 152.5 170.375H160.5C162.709 170.375 164.5 172.166 164.5 174.375V202C164.5 204.209 162.709 206 160.5 206H152.5C150.291 206 148.5 204.209 148.5 202V174.375Z" fill="#4A254A"/>
<path d="M151.767 215.636V216.524H149.487V224H148.395V216.524H146.103V215.636H151.767ZM158.944 217.424V224H157.852V223.028C157.644 223.364 157.352 223.628 156.976 223.82C156.608 224.004 156.2 224.096 155.752 224.096C155.24 224.096 154.78 223.992 154.372 223.784C153.964 223.568 153.64 223.248 153.4 222.824C153.168 222.4 153.052 221.884 153.052 221.276V217.424H154.132V221.132C154.132 221.78 154.296 222.28 154.624 222.632C154.952 222.976 155.4 223.148 155.968 223.148C156.552 223.148 157.012 222.968 157.348 222.608C157.684 222.248 157.852 221.724 157.852 221.036V217.424H158.944ZM166.787 220.46C166.787 220.668 166.775 220.888 166.751 221.12H161.495C161.535 221.768 161.755 222.276 162.155 222.644C162.563 223.004 163.055 223.184 163.631 223.184C164.103 223.184 164.495 223.076 164.807 222.86C165.127 222.636 165.351 222.34 165.479 221.972H166.655C166.479 222.604 166.127 223.12 165.599 223.52C165.071 223.912 164.415 224.108 163.631 224.108C163.007 224.108 162.447 223.968 161.951 223.688C161.463 223.408 161.079 223.012 160.799 222.5C160.519 221.98 160.379 221.38 160.379 220.7C160.379 220.02 160.515 219.424 160.787 218.912C161.059 218.4 161.439 218.008 161.927 217.736C162.423 217.456 162.991 217.316 163.631 217.316C164.255 217.316 164.807 217.452 165.287 217.724C165.767 217.996 166.135 218.372 166.391 218.852C166.655 219.324 166.787 219.86 166.787 220.46ZM165.659 220.232C165.659 219.816 165.567 219.46 165.383 219.164C165.199 218.86 164.947 218.632 164.627 218.48C164.315 218.32 163.967 218.24 163.583 218.24C163.031 218.24 162.559 218.416 162.167 218.768C161.783 219.12 161.563 219.608 161.507 220.232H165.659Z" fill="#645250"/>
<path d="M197.5 77C197.5 74.7909 199.291 73 201.5 73H209.5C211.709 73 213.5 74.7909 213.5 77V202C213.5 204.209 211.709 206 209.5 206H201.5C199.291 206 197.5 204.209 197.5 202V77Z" fill="#AB90AB"/>
<path d="M197.5 115.792C197.5 113.583 199.291 111.792 201.5 111.792H209.5C211.709 111.792 213.5 113.583 213.5 115.792V202C213.5 204.209 211.709 206 209.5 206H201.5C199.291 206 197.5 204.209 197.5 202V115.792Z" fill="#744574"/>
<path d="M197.5 160.125C197.5 157.916 199.291 156.125 201.5 156.125H209.5C211.709 156.125 213.5 157.916 213.5 160.125V202C213.5 204.209 211.709 206 209.5 206H201.5C199.291 206 197.5 204.209 197.5 202V160.125Z" fill="#4A254A"/>
<path d="M203.307 215.636L200.883 224H199.659L197.715 217.268L195.699 224L194.487 224.012L192.147 215.636H193.311L195.135 222.728L197.151 215.636H198.375L200.295 222.704L202.131 215.636H203.307ZM210.502 220.46C210.502 220.668 210.49 220.888 210.466 221.12H205.21C205.25 221.768 205.47 222.276 205.87 222.644C206.278 223.004 206.77 223.184 207.346 223.184C207.818 223.184 208.21 223.076 208.522 222.86C208.842 222.636 209.066 222.34 209.194 221.972H210.37C210.194 222.604 209.842 223.12 209.314 223.52C208.786 223.912 208.13 224.108 207.346 224.108C206.722 224.108 206.162 223.968 205.666 223.688C205.178 223.408 204.794 223.012 204.514 222.5C204.234 221.98 204.094 221.38 204.094 220.7C204.094 220.02 204.23 219.424 204.502 218.912C204.774 218.4 205.154 218.008 205.642 217.736C206.138 217.456 206.706 217.316 207.346 217.316C207.97 217.316 208.522 217.452 209.002 217.724C209.482 217.996 209.85 218.372 210.106 218.852C210.37 219.324 210.502 219.86 210.502 220.46ZM209.374 220.232C209.374 219.816 209.282 219.46 209.098 219.164C208.914 218.86 208.662 218.632 208.342 218.48C208.03 218.32 207.682 218.24 207.298 218.24C206.746 218.24 206.274 218.416 205.882 218.768C205.498 219.12 205.278 219.608 205.222 220.232H209.374ZM211.536 220.688C211.536 220.016 211.672 219.428 211.944 218.924C212.216 218.412 212.588 218.016 213.06 217.736C213.54 217.456 214.076 217.316 214.668 217.316C215.18 217.316 215.656 217.436 216.096 217.676C216.536 217.908 216.872 218.216 217.104 218.6V215.12H218.208V224H217.104V222.764C216.888 223.156 216.568 223.48 216.144 223.736C215.72 223.984 215.224 224.108 214.656 224.108C214.072 224.108 213.54 223.964 213.06 223.676C212.588 223.388 212.216 222.984 211.944 222.464C211.672 221.944 211.536 221.352 211.536 220.688ZM217.104 220.7C217.104 220.204 217.004 219.772 216.804 219.404C216.604 219.036 216.332 218.756 215.988 218.564C215.652 218.364 215.28 218.264 214.872 218.264C214.464 218.264 214.092 218.36 213.756 218.552C213.42 218.744 213.152 219.024 212.952 219.392C212.752 219.76 212.652 220.192 212.652 220.688C212.652 221.192 212.752 221.632 212.952 222.008C213.152 222.376 213.42 222.66 213.756 222.86C214.092 223.052 214.464 223.148 214.872 223.148C215.28 223.148 215.652 223.052 215.988 222.86C216.332 222.66 216.604 222.376 216.804 222.008C217.004 221.632 217.104 221.196 217.104 220.7Z" fill="#645250"/>
<path d="M246.5 158C246.5 155.791 248.291 154 250.5 154H258.5C260.709 154 262.5 155.791 262.5 158V202C262.5 204.209 260.709 206 258.5 206H250.5C248.291 206 246.5 204.209 246.5 202V158Z" fill="#AB90AB"/>
<path d="M246.5 173.167C246.5 170.958 248.291 169.167 250.5 169.167H258.5C260.709 169.167 262.5 170.958 262.5 173.167V202C262.5 204.209 260.709 206 258.5 206H250.5C248.291 206 246.5 204.209 246.5 202V173.167Z" fill="#744574"/>
<path d="M246.5 190.5C246.5 188.291 248.291 186.5 250.5 186.5H258.5C260.709 186.5 262.5 188.291 262.5 190.5V202C262.5 204.209 260.709 206 258.5 206H250.5C248.291 206 246.5 204.209 246.5 202V190.5Z" fill="#4A254A"/>
<path d="M249.65 215.636V216.524H247.37V224H246.278V216.524H243.986V215.636H249.65ZM254.258 217.304C254.754 217.304 255.202 217.412 255.602 217.628C256.002 217.836 256.314 218.152 256.538 218.576C256.77 219 256.886 219.516 256.886 220.124V224H255.806V220.28C255.806 219.624 255.642 219.124 255.314 218.78C254.986 218.428 254.538 218.252 253.97 218.252C253.394 218.252 252.934 218.432 252.59 218.792C252.254 219.152 252.086 219.676 252.086 220.364V224H250.994V215.12H252.086V218.36C252.302 218.024 252.598 217.764 252.974 217.58C253.358 217.396 253.786 217.304 254.258 217.304ZM264.502 217.424V224H263.41V223.028C263.202 223.364 262.91 223.628 262.534 223.82C262.166 224.004 261.758 224.096 261.31 224.096C260.798 224.096 260.338 223.992 259.93 223.784C259.522 223.568 259.198 223.248 258.958 222.824C258.726 222.4 258.61 221.884 258.61 221.276V217.424H259.69V221.132C259.69 221.78 259.854 222.28 260.182 222.632C260.51 222.976 260.958 223.148 261.526 223.148C262.11 223.148 262.57 222.968 262.906 222.608C263.242 222.248 263.41 221.724 263.41 221.036V217.424H264.502Z" fill="#645250"/>
<path d="M295.5 90C295.5 87.7909 297.291 86 299.5 86H307.5C309.709 86 311.5 87.7909 311.5 90V202C311.5 204.209 309.709 206 307.5 206H299.5C297.291 206 295.5 204.209 295.5 202V90Z" fill="#AB90AB"/>
<path d="M295.5 125C295.5 122.791 297.291 121 299.5 121H307.5C309.709 121 311.5 122.791 311.5 125V202C311.5 204.209 309.709 206 307.5 206H299.5C297.291 206 295.5 204.209 295.5 202V125Z" fill="#744574"/>
<path d="M295.5 165C295.5 162.791 297.291 161 299.5 161H307.5C309.709 161 311.5 162.791 311.5 165V202C311.5 204.209 309.709 206 307.5 206H299.5C297.291 206 295.5 204.209 295.5 202V165Z" fill="#4A254A"/>
<path d="M302.414 215.636V216.524H298.778V219.344H301.73V220.232H298.778V224H297.686V215.636H302.414ZM304.825 218.492C305.017 218.116 305.289 217.824 305.641 217.616C306.001 217.408 306.437 217.304 306.949 217.304V218.432H306.661C305.437 218.432 304.825 219.096 304.825 220.424V224H303.733V217.424H304.825V218.492ZM308.773 216.356C308.565 216.356 308.389 216.284 308.245 216.14C308.101 215.996 308.029 215.82 308.029 215.612C308.029 215.404 308.101 215.228 308.245 215.084C308.389 214.94 308.565 214.868 308.773 214.868C308.973 214.868 309.141 214.94 309.277 215.084C309.421 215.228 309.493 215.404 309.493 215.612C309.493 215.82 309.421 215.996 309.277 216.14C309.141 216.284 308.973 216.356 308.773 216.356ZM309.301 217.424V224H308.209V217.424H309.301Z" fill="#645250"/>
<path d="M56 257C58.76 257 61 259.24 61 262C61 264.76 58.76 267 56 267C53.24 267 51 264.76 51 262C51 259.24 53.24 257 56 257ZM56.5 262H58L56 260L54 262H55.5V264H56.5V262Z" fill="#744574"/>
<path d="M68.148 263.672C68.228 264.128 68.412 264.48 68.7 264.728C68.996 264.976 69.392 265.1 69.888 265.1C70.552 265.1 71.04 264.84 71.352 264.32C71.672 263.8 71.824 262.924 71.808 261.692C71.64 262.052 71.36 262.336 70.968 262.544C70.576 262.744 70.14 262.844 69.66 262.844C69.124 262.844 68.644 262.736 68.22 262.52C67.804 262.296 67.476 261.972 67.236 261.548C66.996 261.124 66.876 260.612 66.876 260.012C66.876 259.156 67.124 258.468 67.62 257.948C68.116 257.42 68.82 257.156 69.732 257.156C70.852 257.156 71.636 257.52 72.084 258.248C72.54 258.976 72.768 260.06 72.768 261.5C72.768 262.508 72.676 263.34 72.492 263.996C72.316 264.652 72.012 265.152 71.58 265.496C71.156 265.84 70.572 266.012 69.828 266.012C69.012 266.012 68.376 265.792 67.92 265.352C67.464 264.912 67.204 264.352 67.14 263.672H68.148ZM69.84 261.92C70.376 261.92 70.816 261.756 71.16 261.428C71.504 261.092 71.676 260.64 71.676 260.072C71.676 259.472 71.508 258.988 71.172 258.62C70.836 258.252 70.364 258.068 69.756 258.068C69.196 258.068 68.748 258.244 68.412 258.596C68.084 258.948 67.92 259.412 67.92 259.988C67.92 260.572 68.084 261.04 68.412 261.392C68.74 261.744 69.216 261.92 69.84 261.92ZM74.1706 265.124C75.1866 264.308 75.9826 263.64 76.5586 263.12C77.1346 262.592 77.6186 262.044 78.0106 261.476C78.4106 260.9 78.6106 260.336 78.6106 259.784C78.6106 259.264 78.4826 258.856 78.2266 258.56C77.9786 258.256 77.5746 258.104 77.0146 258.104C76.4706 258.104 76.0466 258.276 75.7426 258.62C75.4466 258.956 75.2866 259.408 75.2626 259.976H74.2066C74.2386 259.08 74.5106 258.388 75.0226 257.9C75.5346 257.412 76.1946 257.168 77.0026 257.168C77.8266 257.168 78.4786 257.396 78.9586 257.852C79.4466 258.308 79.6906 258.936 79.6906 259.736C79.6906 260.4 79.4906 261.048 79.0906 261.68C78.6986 262.304 78.2506 262.856 77.7466 263.336C77.2426 263.808 76.5986 264.36 75.8146 264.992H79.9426V265.904H74.1706V265.124ZM80.9649 259.28C80.9649 258.736 81.1289 258.304 81.4569 257.984C81.7849 257.656 82.2049 257.492 82.7169 257.492C83.2289 257.492 83.6489 257.656 83.9769 257.984C84.3049 258.304 84.4689 258.736 84.4689 259.28C84.4689 259.832 84.3049 260.272 83.9769 260.6C83.6489 260.92 83.2289 261.08 82.7169 261.08C82.2049 261.08 81.7849 260.92 81.4569 260.6C81.1289 260.272 80.9649 259.832 80.9649 259.28ZM87.9729 257.624L83.1129 266H82.0329L86.8929 257.624H87.9729ZM82.7169 258.164C82.4449 258.164 82.2289 258.26 82.0689 258.452C81.9169 258.636 81.8409 258.912 81.8409 259.28C81.8409 259.648 81.9169 259.928 82.0689 260.12C82.2289 260.312 82.4449 260.408 82.7169 260.408C82.9889 260.408 83.2049 260.312 83.3649 260.12C83.5249 259.92 83.6049 259.64 83.6049 259.28C83.6049 258.912 83.5249 258.636 83.3649 258.452C83.2049 258.26 82.9889 258.164 82.7169 258.164ZM85.5609 264.344C85.5609 263.792 85.7249 263.356 86.0529 263.036C86.3809 262.708 86.8009 262.544 87.3129 262.544C87.8249 262.544 88.2409 262.708 88.5609 263.036C88.8889 263.356 89.0529 263.792 89.0529 264.344C89.0529 264.888 88.8889 265.324 88.5609 265.652C88.2409 265.98 87.8249 266.144 87.3129 266.144C86.8009 266.144 86.3809 265.984 86.0529 265.664C85.7249 265.336 85.5609 264.896 85.5609 264.344ZM87.3009 263.228C87.0289 263.228 86.8129 263.324 86.6529 263.516C86.4929 263.7 86.4129 263.976 86.4129 264.344C86.4129 264.704 86.4929 264.98 86.6529 265.172C86.8129 265.356 87.0289 265.448 87.3009 265.448C87.5729 265.448 87.7889 265.356 87.9489 265.172C88.1089 264.98 88.1889 264.704 88.1889 264.344C88.1889 263.976 88.1089 263.7 87.9489 263.516C87.7889 263.324 87.5729 263.228 87.3009 263.228Z" fill="#744574"/>
<rect x="177" y="252" width="50" height="20" rx="10" fill="white"/>
<circle cx="187" cy="262" r="4" fill="#AB90AB"/>
<path d="M195.612 265.124C196.628 264.308 197.424 263.64 198 263.12C198.576 262.592 199.06 262.044 199.452 261.476C199.852 260.9 200.052 260.336 200.052 259.784C200.052 259.264 199.924 258.856 199.668 258.56C199.42 258.256 199.016 258.104 198.456 258.104C197.912 258.104 197.488 258.276 197.184 258.62C196.888 258.956 196.728 259.408 196.704 259.976H195.648C195.68 259.08 195.952 258.388 196.464 257.9C196.976 257.412 197.636 257.168 198.444 257.168C199.268 257.168 199.92 257.396 200.4 257.852C200.888 258.308 201.132 258.936 201.132 259.736C201.132 260.4 200.932 261.048 200.532 261.68C200.14 262.304 199.692 262.856 199.188 263.336C198.684 263.808 198.04 264.36 197.256 264.992H201.384V265.904H195.612V265.124ZM202.382 264.068V263.24L206.594 257.408H207.902V263.12H209.102V264.068H207.902V266H206.822V264.068H202.382ZM206.87 258.548L203.642 263.12H206.87V258.548ZM209.953 259.28C209.953 258.736 210.117 258.304 210.445 257.984C210.773 257.656 211.193 257.492 211.705 257.492C212.217 257.492 212.637 257.656 212.965 257.984C213.293 258.304 213.457 258.736 213.457 259.28C213.457 259.832 213.293 260.272 212.965 260.6C212.637 260.92 212.217 261.08 211.705 261.08C211.193 261.08 210.773 260.92 210.445 260.6C210.117 260.272 209.953 259.832 209.953 259.28ZM216.961 257.624L212.101 266H211.021L215.881 257.624H216.961ZM211.705 258.164C211.433 258.164 211.217 258.26 211.057 258.452C210.905 258.636 210.829 258.912 210.829 259.28C210.829 259.648 210.905 259.928 211.057 260.12C211.217 260.312 211.433 260.408 211.705 260.408C211.977 260.408 212.193 260.312 212.353 260.12C212.513 259.92 212.593 259.64 212.593 259.28C212.593 258.912 212.513 258.636 212.353 258.452C212.193 258.26 211.977 258.164 211.705 258.164ZM214.549 264.344C214.549 263.792 214.713 263.356 215.041 263.036C215.369 262.708 215.789 262.544 216.301 262.544C216.813 262.544 217.229 262.708 217.549 263.036C217.877 263.356 218.041 263.792 218.041 264.344C218.041 264.888 217.877 265.324 217.549 265.652C217.229 265.98 216.813 266.144 216.301 266.144C215.789 266.144 215.369 265.984 215.041 265.664C214.713 265.336 214.549 264.896 214.549 264.344ZM216.289 263.228C216.017 263.228 215.801 263.324 215.641 263.516C215.481 263.7 215.401 263.976 215.401 264.344C215.401 264.704 215.481 264.98 215.641 265.172C215.801 265.356 216.017 265.448 216.289 265.448C216.561 265.448 216.777 265.356 216.937 265.172C217.097 264.98 217.177 264.704 217.177 264.344C217.177 263.976 217.097 263.7 216.937 263.516C216.777 263.324 216.561 263.228 216.289 263.228Z" fill="#645250"/>
<rect x="231" y="252" width="50" height="20" rx="10" fill="white"/>
<circle cx="241" cy="262" r="4" fill="#744574"/>
<path d="M249.72 259.508C249.776 258.772 250.06 258.196 250.572 257.78C251.084 257.364 251.748 257.156 252.564 257.156C253.108 257.156 253.576 257.256 253.968 257.456C254.368 257.648 254.668 257.912 254.868 258.248C255.076 258.584 255.18 258.964 255.18 259.388C255.18 259.884 255.036 260.312 254.748 260.672C254.468 261.032 254.1 261.264 253.644 261.368V261.428C254.164 261.556 254.576 261.808 254.88 262.184C255.184 262.56 255.336 263.052 255.336 263.66C255.336 264.116 255.232 264.528 255.024 264.896C254.816 265.256 254.504 265.54 254.088 265.748C253.672 265.956 253.172 266.06 252.588 266.06C251.74 266.06 251.044 265.84 250.5 265.4C249.956 264.952 249.652 264.32 249.588 263.504H250.644C250.7 263.984 250.896 264.376 251.232 264.68C251.568 264.984 252.016 265.136 252.576 265.136C253.136 265.136 253.56 264.992 253.848 264.704C254.144 264.408 254.292 264.028 254.292 263.564C254.292 262.964 254.092 262.532 253.692 262.268C253.292 262.004 252.688 261.872 251.88 261.872H251.604V260.96H251.892C252.628 260.952 253.184 260.832 253.56 260.6C253.936 260.36 254.124 259.992 254.124 259.496C254.124 259.072 253.984 258.732 253.704 258.476C253.432 258.22 253.04 258.092 252.528 258.092C252.032 258.092 251.632 258.22 251.328 258.476C251.024 258.732 250.844 259.076 250.788 259.508H249.72ZM256.786 259.508C256.842 258.772 257.126 258.196 257.638 257.78C258.15 257.364 258.814 257.156 259.63 257.156C260.174 257.156 260.642 257.256 261.034 257.456C261.434 257.648 261.734 257.912 261.934 258.248C262.142 258.584 262.246 258.964 262.246 259.388C262.246 259.884 262.102 260.312 261.814 260.672C261.534 261.032 261.166 261.264 260.71 261.368V261.428C261.23 261.556 261.642 261.808 261.946 262.184C262.25 262.56 262.402 263.052 262.402 263.66C262.402 264.116 262.298 264.528 262.09 264.896C261.882 265.256 261.57 265.54 261.154 265.748C260.738 265.956 260.238 266.06 259.654 266.06C258.806 266.06 258.11 265.84 257.566 265.4C257.022 264.952 256.718 264.32 256.654 263.504H257.71C257.766 263.984 257.962 264.376 258.298 264.68C258.634 264.984 259.082 265.136 259.642 265.136C260.202 265.136 260.626 264.992 260.914 264.704C261.21 264.408 261.358 264.028 261.358 263.564C261.358 262.964 261.158 262.532 260.758 262.268C260.358 262.004 259.754 261.872 258.946 261.872H258.67V260.96H258.958C259.694 260.952 260.25 260.832 260.626 260.6C261.002 260.36 261.19 259.992 261.19 259.496C261.19 259.072 261.05 258.732 260.77 258.476C260.498 258.22 260.106 258.092 259.594 258.092C259.098 258.092 258.698 258.22 258.394 258.476C258.09 258.732 257.91 259.076 257.854 259.508H256.786ZM263.637 259.28C263.637 258.736 263.801 258.304 264.129 257.984C264.457 257.656 264.877 257.492 265.389 257.492C265.901 257.492 266.321 257.656 266.649 257.984C266.977 258.304 267.141 258.736 267.141 259.28C267.141 259.832 266.977 260.272 266.649 260.6C266.321 260.92 265.901 261.08 265.389 261.08C264.877 261.08 264.457 260.92 264.129 260.6C263.801 260.272 263.637 259.832 263.637 259.28ZM270.645 257.624L265.785 266H264.705L269.565 257.624H270.645ZM265.389 258.164C265.117 258.164 264.901 258.26 264.741 258.452C264.589 258.636 264.513 258.912 264.513 259.28C264.513 259.648 264.589 259.928 264.741 260.12C264.901 260.312 265.117 260.408 265.389 260.408C265.661 260.408 265.877 260.312 266.037 260.12C266.197 259.92 266.277 259.64 266.277 259.28C266.277 258.912 266.197 258.636 266.037 258.452C265.877 258.26 265.661 258.164 265.389 258.164ZM268.233 264.344C268.233 263.792 268.397 263.356 268.725 263.036C269.053 262.708 269.473 262.544 269.985 262.544C270.497 262.544 270.913 262.708 271.233 263.036C271.561 263.356 271.725 263.792 271.725 264.344C271.725 264.888 271.561 265.324 271.233 265.652C270.913 265.98 270.497 266.144 269.985 266.144C269.473 266.144 269.053 265.984 268.725 265.664C268.397 265.336 268.233 264.896 268.233 264.344ZM269.973 263.228C269.701 263.228 269.485 263.324 269.325 263.516C269.165 263.7 269.085 263.976 269.085 264.344C269.085 264.704 269.165 264.98 269.325 265.172C269.485 265.356 269.701 265.448 269.973 265.448C270.245 265.448 270.461 265.356 270.621 265.172C270.781 264.98 270.861 264.704 270.861 264.344C270.861 263.976 270.781 263.7 270.621 263.516C270.461 263.324 270.245 263.228 269.973 263.228Z" fill="#645250"/>
<rect x="285" y="252" width="51" height="20" rx="10" fill="white"/>
<circle cx="295" cy="262" r="4" fill="#4A254A"/>
<path d="M303.48 264.068V263.24L307.692 257.408H309V263.12H310.2V264.068H309V266H307.92V264.068H303.48ZM307.968 258.548L304.74 263.12H307.968V258.548ZM311.291 261.572C311.291 260.196 311.515 259.124 311.963 258.356C312.411 257.58 313.195 257.192 314.315 257.192C315.427 257.192 316.207 257.58 316.655 258.356C317.103 259.124 317.327 260.196 317.327 261.572C317.327 262.972 317.103 264.06 316.655 264.836C316.207 265.612 315.427 266 314.315 266C313.195 266 312.411 265.612 311.963 264.836C311.515 264.06 311.291 262.972 311.291 261.572ZM316.247 261.572C316.247 260.876 316.199 260.288 316.103 259.808C316.015 259.32 315.827 258.928 315.539 258.632C315.259 258.336 314.851 258.188 314.315 258.188C313.771 258.188 313.355 258.336 313.067 258.632C312.787 258.928 312.599 259.32 312.503 259.808C312.415 260.288 312.371 260.876 312.371 261.572C312.371 262.292 312.415 262.896 312.503 263.384C312.599 263.872 312.787 264.264 313.067 264.56C313.355 264.856 313.771 265.004 314.315 265.004C314.851 265.004 315.259 264.856 315.539 264.56C315.827 264.264 316.015 263.872 316.103 263.384C316.199 262.896 316.247 262.292 316.247 261.572ZM318.586 259.28C318.586 258.736 318.75 258.304 319.078 257.984C319.406 257.656 319.826 257.492 320.338 257.492C320.85 257.492 321.27 257.656 321.598 257.984C321.926 258.304 322.09 258.736 322.09 259.28C322.09 259.832 321.926 260.272 321.598 260.6C321.27 260.92 320.85 261.08 320.338 261.08C319.826 261.08 319.406 260.92 319.078 260.6C318.75 260.272 318.586 259.832 318.586 259.28ZM325.594 257.624L320.734 266H319.654L324.514 257.624H325.594ZM320.338 258.164C320.066 258.164 319.85 258.26 319.69 258.452C319.538 258.636 319.462 258.912 319.462 259.28C319.462 259.648 319.538 259.928 319.69 260.12C319.85 260.312 320.066 260.408 320.338 260.408C320.61 260.408 320.826 260.312 320.986 260.12C321.146 259.92 321.226 259.64 321.226 259.28C321.226 258.912 321.146 258.636 320.986 258.452C320.826 258.26 320.61 258.164 320.338 258.164ZM323.182 264.344C323.182 263.792 323.346 263.356 323.674 263.036C324.002 262.708 324.422 262.544 324.934 262.544C325.446 262.544 325.862 262.708 326.182 263.036C326.51 263.356 326.674 263.792 326.674 264.344C326.674 264.888 326.51 265.324 326.182 265.652C325.862 265.98 325.446 266.144 324.934 266.144C324.422 266.144 324.002 265.984 323.674 265.664C323.346 265.336 323.182 264.896 323.182 264.344ZM324.922 263.228C324.65 263.228 324.434 263.324 324.274 263.516C324.114 263.7 324.034 263.976 324.034 264.344C324.034 264.704 324.114 264.98 324.274 265.172C324.434 265.356 324.65 265.448 324.922 265.448C325.194 265.448 325.41 265.356 325.57 265.172C325.73 264.98 325.81 264.704 325.81 264.344C325.81 263.976 325.73 263.7 325.57 263.516C325.41 263.324 325.194 263.228 324.922 263.228Z" fill="#645250"/>
</svg>
